<svg width="28" height="24" viewBox="0 0 28 24" fill="none" xmlns="http://www.w3.org/2000/svg">
<mask id="mask0_60_1119" style="mask-type:alpha" maskUnits="userSpaceOnUse" x="0" y="0" width="19" height="24">
<rect width="19" height="24" fill="white"/>
</mask>
<g mask="url(#mask0_60_1119)">
<path d="M19 0H5C3.6744 0.00158786 2.40356 0.528882 1.46622 1.46622C0.528882 2.40356 0.00158786 3.6744 0 5L0 19C0.00158786 20.3256 0.528882 21.5964 1.46622 22.5338C2.40356 23.4711 3.6744 23.9984 5 24H19C20.3256 23.9984 21.5964 23.4711 22.5338 22.5338C23.4711 21.5964 23.9984 20.3256 24 19V5C23.9984 3.6744 23.4711 2.40356 22.5338 1.46622C21.5964 0.528882 20.3256 0.00158786 19 0V0ZM22 19C22 19.7956 21.6839 20.5587 21.1213 21.1213C20.5587 21.6839 19.7956 22 19 22H5C4.20435 22 3.44129 21.6839 2.87868 21.1213C2.31607 20.5587 2 19.7956 2 19V5C2 4.20435 2.31607 3.44129 2.87868 2.87868C3.44129 2.31607 4.20435 2 5 2H19C19.7956 2 20.5587 2.31607 21.1213 2.87868C21.6839 3.44129 22 4.20435 22 5V19Z" fill="#5D87F2"/>
</g>
<mask id="mask1_60_1119" style="mask-type:alpha" maskUnits="userSpaceOnUse" x="7" y="0" width="14" height="24">
<rect x="7" width="14" height="24" fill="white"/>
</mask>
<g mask="url(#mask1_60_1119)">
<path d="M21 0H7C5.6744 0.00158786 4.40356 0.528882 3.46622 1.46622C2.52888 2.40356 2.00159 3.6744 2 5L2 19C2.00159 20.3256 2.52888 21.5964 3.46622 22.5338C4.40356 23.4711 5.6744 23.9984 7 24H21C22.3256 23.9984 23.5964 23.4711 24.5338 22.5338C25.4711 21.5964 25.9984 20.3256 26 19V5C25.9984 3.6744 25.4711 2.40356 24.5338 1.46622C23.5964 0.528882 22.3256 0.00158786 21 0V0ZM24 19C24 19.7956 23.6839 20.5587 23.1213 21.1213C22.5587 21.6839 21.7956 22 21 22H7C6.20435 22 5.44129 21.6839 4.87868 21.1213C4.31607 20.5587 4 19.7956 4 19V5C4 4.20435 4.31607 3.44129 4.87868 2.87868C5.44129 2.31607 6.20435 2 7 2H21C21.7956 2 22.5587 2.31607 23.1213 2.87868C23.6839 3.44129 24 4.20435 24 5V19Z" fill="#5D87F2"/>
</g>
<mask id="mask2_60_1119" style="mask-type:alpha" maskUnits="userSpaceOnUse" x="9" y="0" width="19" height="24">
<rect width="19" height="24" transform="matrix(-1 0 0 1 28 0)" fill="white"/>
</mask>
<g mask="url(#mask2_60_1119)">
<path d="M9 0H23C24.3256 0.00158786 25.5964 0.528882 26.5338 1.46622C27.4711 2.40356 27.9984 3.6744 28 5V19C27.9984 20.3256 27.4711 21.5964 26.5338 22.5338C25.5964 23.4711 24.3256 23.9984 23 24H9C7.6744 23.9984 6.40356 23.4711 5.46622 22.5338C4.52888 21.5964 4.00159 20.3256 4 19V5C4.00159 3.6744 4.52888 2.40356 5.46622 1.46622C6.40356 0.528882 7.6744 0.00158786 9 0V0ZM6 19C6 19.7956 6.31607 20.5587 6.87868 21.1213C7.44129 21.6839 8.20435 22 9 22H23C23.7956 22 24.5587 21.6839 25.1213 21.1213C25.6839 20.5587 26 19.7956 26 19V5C26 4.20435 25.6839 3.44129 25.1213 2.87868C24.5587 2.31607 23.7956 2 23 2H9C8.20435 2 7.44129 2.31607 6.87868 2.87868C6.31607 3.44129 6 4.20435 6 5V19Z" fill="#5D87F2"/>
</g>
<path d="M5.58333 1H18.4167C19.6318 1.00146 20.7967 1.48481 21.656 2.34403C22.5152 3.20326 22.9985 4.3682 23 5.58333V18.4167C22.9985 19.6318 22.5152 20.7967 21.656 21.656C20.7967 22.5152 19.6318 22.9985 18.4167 23H5.58333C4.3682 22.9985 3.20326 22.5152 2.34403 21.656C1.48481 20.7967 1.00146 19.6318 1 18.4167V5.58333C1.00146 4.3682 1.48481 3.20326 2.34403 2.34403C3.20326 1.48481 4.3682 1.00146 5.58333 1V1ZM2.83333 18.4167C2.83333 19.146 3.12306 19.8455 3.63879 20.3612C4.15451 20.8769 4.85399 21.1667 5.58333 21.1667H18.4167C19.146 21.1667 19.8455 20.8769 20.3612 20.3612C20.8769 19.8455 21.1667 19.146 21.1667 18.4167V5.58333C21.1667 4.85399 20.8769 4.15451 20.3612 3.63879C19.8455 3.12306 19.146 2.83333 18.4167 2.83333H5.58333C4.85399 2.83333 4.15451 3.12306 3.63879 3.63879C3.12306 4.15451 2.83333 4.85399 2.83333 5.58333V18.4167Z" fill="white"/>
<path d="M9.58333 1H22.4167C23.6318 1.00146 24.7967 1.48481 25.656 2.34403C26.5152 3.20326 26.9985 4.3682 27 5.58333V18.4167C26.9985 19.6318 26.5152 20.7967 25.656 21.656C24.7967 22.5152 23.6318 22.9985 22.4167 23H9.58333C8.3682 22.9985 7.20326 22.5152 6.34403 21.656C5.48481 20.7967 5.00146 19.6318 5 18.4167V5.58333C5.00146 4.3682 5.48481 3.20326 6.34403 2.34403C7.20326 1.48481 8.3682 1.00146 9.58333 1V1ZM6.83333 18.4167C6.83333 19.146 7.12306 19.8455 7.63879 20.3612C8.15451 20.8769 8.85399 21.1667 9.58333 21.1667H22.4167C23.146 21.1667 23.8455 20.8769 24.3612 20.3612C24.8769 19.8455 25.1667 19.146 25.1667 18.4167V5.58333C25.1667 4.85399 24.8769 4.15451 24.3612 3.63879C23.8455 3.12306 23.146 2.83333 22.4167 2.83333H9.58333C8.85399 2.83333 8.15451 3.12306 7.63879 3.63879C7.12306 4.15451 6.83333 4.85399 6.83333 5.58333V18.4167Z" fill="white"/>
<path d="M5.725 17.1L9.355 6.738H10.07L6.44 17.1H5.725ZM13.6406 16V14.724L13.6076 14.515V12.381C13.6076 11.8897 13.4683 11.512 13.1896 11.248C12.9183 10.984 12.5113 10.852 11.9686 10.852C11.5946 10.852 11.239 10.9143 10.9016 11.039C10.5643 11.1637 10.2783 11.3287 10.0436 11.534L9.69162 10.951C9.98495 10.7017 10.337 10.511 10.7476 10.379C11.1583 10.2397 11.591 10.17 12.0456 10.17C12.7936 10.17 13.3693 10.357 13.7726 10.731C14.1833 11.0977 14.3886 11.6587 14.3886 12.414V16H13.6406ZM11.6496 16.055C11.217 16.055 10.8393 15.9853 10.5166 15.846C10.2013 15.6993 9.95928 15.5013 9.79062 15.252C9.62195 14.9953 9.53762 14.702 9.53762 14.372C9.53762 14.0713 9.60728 13.8 9.74662 13.558C9.89328 13.3087 10.128 13.1107 10.4506 12.964C10.7806 12.81 11.2206 12.733 11.7706 12.733H13.7616V13.316H11.7926C11.2353 13.316 10.8466 13.415 10.6266 13.613C10.414 13.811 10.3076 14.0567 10.3076 14.35C10.3076 14.68 10.436 14.944 10.6926 15.142C10.9493 15.34 11.3086 15.439 11.7706 15.439C12.2106 15.439 12.5883 15.34 12.9036 15.142C13.2263 14.9367 13.461 14.6433 13.6076 14.262L13.7836 14.801C13.637 15.1823 13.3803 15.4867 13.0136 15.714C12.6543 15.9413 12.1996 16.055 11.6496 16.055ZM16.5099 16V7.838H17.2909V16H16.5099ZM19.464 16V7.838H20.245V16H19.464Z" fill="#5D87F2"/>
</svg>
