<svg width="56" height="48" viewBox="0 0 56 48" fill="none" xmlns="http://www.w3.org/2000/svg">
<rect x="1" y="1" width="54" height="46" rx="4" stroke="#5D87F2" stroke-width="2" stroke-linejoin="round"/>
<path d="M10.45 35.2L17.71 14.476H19.14L11.88 35.2H10.45ZM26.2812 33V30.448L26.2152 30.03V25.762C26.2152 24.7793 25.9366 24.024 25.3792 23.496C24.8366 22.968 24.0226 22.704 22.9372 22.704C22.1892 22.704 21.4779 22.8287 20.8032 23.078C20.1286 23.3273 19.5566 23.6573 19.0872 24.068L18.3832 22.902C18.9699 22.4033 19.6739 22.022 20.4952 21.758C21.3166 21.4793 22.1819 21.34 23.0912 21.34C24.5872 21.34 25.7386 21.714 26.5452 22.462C27.3666 23.1953 27.7772 24.3173 27.7772 25.828V33H26.2812ZM22.2992 33.11C21.4339 33.11 20.6786 32.9707 20.0332 32.692C19.4026 32.3987 18.9186 32.0027 18.5812 31.504C18.2439 30.9907 18.0752 30.404 18.0752 29.744C18.0752 29.1427 18.2146 28.6 18.4932 28.116C18.7866 27.6173 19.2559 27.2213 19.9012 26.928C20.5612 26.62 21.4412 26.466 22.5412 26.466H26.5232V27.632H22.5852C21.4706 27.632 20.6932 27.83 20.2532 28.226C19.8279 28.622 19.6152 29.1133 19.6152 29.7C19.6152 30.36 19.8719 30.888 20.3852 31.284C20.8986 31.68 21.6172 31.878 22.5412 31.878C23.4212 31.878 24.1766 31.68 24.8072 31.284C25.4526 30.8733 25.9219 30.2867 26.2152 29.524L26.5672 30.602C26.2739 31.3647 25.7606 31.9733 25.0272 32.428C24.3086 32.8827 23.3992 33.11 22.2992 33.11ZM32.0198 33V16.676H33.5818V33H32.0198ZM37.928 33V16.676H39.49V33H37.928Z" fill="#5D87F2"/>
</svg>
