<svg width="76" height="48" viewBox="0 0 76 48" fill="none" xmlns="http://www.w3.org/2000/svg">
<rect x="1" y="1" width="74" height="46" rx="4" stroke="#5D87F2" stroke-width="2" stroke-linejoin="round"/>
<path d="M10.45 35.2L17.71 14.476H19.14L11.88 35.2H10.45ZM20.8111 33V19.998C20.8111 18.9713 21.1118 18.1427 21.7131 17.512C22.3145 16.8813 23.1798 16.566 24.3091 16.566C24.7491 16.566 25.1745 16.6247 25.5851 16.742C25.9958 16.8593 26.3405 17.0427 26.6191 17.292L26.0911 18.458C25.8711 18.2673 25.6145 18.128 25.3211 18.04C25.0278 17.9373 24.7125 17.886 24.3751 17.886C23.7151 17.886 23.2091 18.0693 22.8571 18.436C22.5051 18.8027 22.3291 19.3453 22.3291 20.064V21.824L22.3731 22.55V33H20.8111ZM18.7431 22.748V21.45H25.8931V22.748H18.7431ZM28.0022 33V21.45H29.4982V24.596L29.3442 24.046C29.6669 23.166 30.2096 22.4987 30.9722 22.044C31.7349 21.5747 32.6809 21.34 33.8102 21.34V22.858C33.7516 22.858 33.6929 22.858 33.6342 22.858C33.5756 22.8433 33.5169 22.836 33.4582 22.836C32.2409 22.836 31.2876 23.21 30.5982 23.958C29.9089 24.6913 29.5642 25.74 29.5642 27.104V33H28.0022ZM41.459 33.11C40.2563 33.11 39.2003 32.8607 38.291 32.362C37.3817 31.8487 36.6703 31.152 36.157 30.272C35.6437 29.3773 35.387 28.358 35.387 27.214C35.387 26.07 35.629 25.058 36.113 24.178C36.6117 23.298 37.2863 22.6087 38.137 22.11C39.0023 21.5967 39.9703 21.34 41.041 21.34C42.1263 21.34 43.087 21.5893 43.923 22.088C44.7737 22.572 45.441 23.2613 45.925 24.156C46.409 25.036 46.651 26.0553 46.651 27.214C46.651 27.2873 46.6437 27.368 46.629 27.456C46.629 27.5293 46.629 27.61 46.629 27.698H36.575V26.532H45.793L45.177 26.994C45.177 26.158 44.9937 25.4173 44.627 24.772C44.275 24.112 43.791 23.5987 43.175 23.232C42.559 22.8653 41.8477 22.682 41.041 22.682C40.249 22.682 39.5377 22.8653 38.907 23.232C38.2763 23.5987 37.785 24.112 37.433 24.772C37.081 25.432 36.905 26.1873 36.905 27.038V27.28C36.905 28.16 37.0957 28.9373 37.477 29.612C37.873 30.272 38.4157 30.7927 39.105 31.174C39.809 31.5407 40.6083 31.724 41.503 31.724C42.207 31.724 42.8597 31.5993 43.461 31.35C44.077 31.1007 44.605 30.7193 45.045 30.206L45.925 31.218C45.4117 31.834 44.7663 32.3033 43.989 32.626C43.2263 32.9487 42.383 33.11 41.459 33.11ZM54.7363 33.11C53.5337 33.11 52.4777 32.8607 51.5683 32.362C50.659 31.8487 49.9477 31.152 49.4343 30.272C48.921 29.3773 48.6643 28.358 48.6643 27.214C48.6643 26.07 48.9063 25.058 49.3903 24.178C49.889 23.298 50.5637 22.6087 51.4143 22.11C52.2797 21.5967 53.2477 21.34 54.3183 21.34C55.4037 21.34 56.3643 21.5893 57.2003 22.088C58.051 22.572 58.7183 23.2613 59.2023 24.156C59.6863 25.036 59.9283 26.0553 59.9283 27.214C59.9283 27.2873 59.921 27.368 59.9063 27.456C59.9063 27.5293 59.9063 27.61 59.9063 27.698H49.8523V26.532H59.0703L58.4543 26.994C58.4543 26.158 58.271 25.4173 57.9043 24.772C57.5523 24.112 57.0683 23.5987 56.4523 23.232C55.8363 22.8653 55.125 22.682 54.3183 22.682C53.5263 22.682 52.815 22.8653 52.1843 23.232C51.5537 23.5987 51.0623 24.112 50.7103 24.772C50.3583 25.432 50.1823 26.1873 50.1823 27.038V27.28C50.1823 28.16 50.373 28.9373 50.7543 29.612C51.1503 30.272 51.693 30.7927 52.3823 31.174C53.0863 31.5407 53.8857 31.724 54.7803 31.724C55.4843 31.724 56.137 31.5993 56.7383 31.35C57.3543 31.1007 57.8823 30.7193 58.3223 30.206L59.2023 31.218C58.689 31.834 58.0437 32.3033 57.2663 32.626C56.5037 32.9487 55.6603 33.11 54.7363 33.11Z" fill="#5D87F2"/>
</svg>
