<svg width="38" height="24" viewBox="0 0 38 24" fill="none" xmlns="http://www.w3.org/2000/svg">
<mask id="mask0_60_1095" style="mask-type:alpha" maskUnits="userSpaceOnUse" x="0" y="0" width="19" height="24">
<rect width="19" height="24" fill="white"/>
</mask>
<g mask="url(#mask0_60_1095)">
<path d="M19 0H5C3.6744 0.00158786 2.40356 0.528882 1.46622 1.46622C0.528882 2.40356 0.00158786 3.6744 0 5L0 19C0.00158786 20.3256 0.528882 21.5964 1.46622 22.5338C2.40356 23.4711 3.6744 23.9984 5 24H19C20.3256 23.9984 21.5964 23.4711 22.5338 22.5338C23.4711 21.5964 23.9984 20.3256 24 19V5C23.9984 3.6744 23.4711 2.40356 22.5338 1.46622C21.5964 0.528882 20.3256 0.00158786 19 0V0ZM22 19C22 19.7956 21.6839 20.5587 21.1213 21.1213C20.5587 21.6839 19.7956 22 19 22H5C4.20435 22 3.44129 21.6839 2.87868 21.1213C2.31607 20.5587 2 19.7956 2 19V5C2 4.20435 2.31607 3.44129 2.87868 2.87868C3.44129 2.31607 4.20435 2 5 2H19C19.7956 2 20.5587 2.31607 21.1213 2.87868C21.6839 3.44129 22 4.20435 22 5V19Z" fill="#5D87F2"/>
</g>
<mask id="mask1_60_1095" style="mask-type:alpha" maskUnits="userSpaceOnUse" x="17" y="0" width="14" height="24">
<rect x="17" width="14" height="24" fill="white"/>
</mask>
<g mask="url(#mask1_60_1095)">
<path d="M31 0H17C15.6744 0.00158786 14.4036 0.528882 13.4662 1.46622C12.5289 2.40356 12.0016 3.6744 12 5L12 19C12.0016 20.3256 12.5289 21.5964 13.4662 22.5338C14.4036 23.4711 15.6744 23.9984 17 24H31C32.3256 23.9984 33.5964 23.4711 34.5338 22.5338C35.4711 21.5964 35.9984 20.3256 36 19V5C35.9984 3.6744 35.4711 2.40356 34.5338 1.46622C33.5964 0.528882 32.3256 0.00158786 31 0V0ZM34 19C34 19.7956 33.6839 20.5587 33.1213 21.1213C32.5587 21.6839 31.7956 22 31 22H17C16.2044 22 15.4413 21.6839 14.8787 21.1213C14.3161 20.5587 14 19.7956 14 19V5C14 4.20435 14.3161 3.44129 14.8787 2.87868C15.4413 2.31607 16.2044 2 17 2H31C31.7956 2 32.5587 2.31607 33.1213 2.87868C33.6839 3.44129 34 4.20435 34 5V19Z" fill="#5D87F2"/>
</g>
<mask id="mask2_60_1095" style="mask-type:alpha" maskUnits="userSpaceOnUse" x="19" y="0" width="19" height="24">
<rect width="19" height="24" transform="matrix(-1 0 0 1 38 0)" fill="white"/>
</mask>
<g mask="url(#mask2_60_1095)">
<path d="M19 0H33C34.3256 0.00158786 35.5964 0.528882 36.5338 1.46622C37.4711 2.40356 37.9984 3.6744 38 5V19C37.9984 20.3256 37.4711 21.5964 36.5338 22.5338C35.5964 23.4711 34.3256 23.9984 33 24H19C17.6744 23.9984 16.4036 23.4711 15.4662 22.5338C14.5289 21.5964 14.0016 20.3256 14 19V5C14.0016 3.6744 14.5289 2.40356 15.4662 1.46622C16.4036 0.528882 17.6744 0.00158786 19 0V0ZM16 19C16 19.7956 16.3161 20.5587 16.8787 21.1213C17.4413 21.6839 18.2044 22 19 22H33C33.7956 22 34.5587 21.6839 35.1213 21.1213C35.6839 20.5587 36 19.7956 36 19V5C36 4.20435 35.6839 3.44129 35.1213 2.87868C34.5587 2.31607 33.7956 2 33 2H19C18.2044 2 17.4413 2.31607 16.8787 2.87868C16.3161 3.44129 16 4.20435 16 5V19Z" fill="#5D87F2"/>
</g>
<path d="M5.58333 1H18.4167C19.6318 1.00146 20.7967 1.48481 21.656 2.34403C22.5152 3.20326 22.9985 4.3682 23 5.58333V18.4167C22.9985 19.6318 22.5152 20.7967 21.656 21.656C20.7967 22.5152 19.6318 22.9985 18.4167 23H5.58333C4.3682 22.9985 3.20326 22.5152 2.34403 21.656C1.48481 20.7967 1.00146 19.6318 1 18.4167V5.58333C1.00146 4.3682 1.48481 3.20326 2.34403 2.34403C3.20326 1.48481 4.3682 1.00146 5.58333 1V1ZM2.83333 18.4167C2.83333 19.146 3.12306 19.8455 3.63879 20.3612C4.15451 20.8769 4.85399 21.1667 5.58333 21.1667H18.4167C19.146 21.1667 19.8455 20.8769 20.3612 20.3612C20.8769 19.8455 21.1667 19.146 21.1667 18.4167V5.58333C21.1667 4.85399 20.8769 4.15451 20.3612 3.63879C19.8455 3.12306 19.146 2.83333 18.4167 2.83333H5.58333C4.85399 2.83333 4.15451 3.12306 3.63879 3.63879C3.12306 4.15451 2.83333 4.85399 2.83333 5.58333V18.4167Z" fill="white"/>
<path d="M19.5833 1H32.4167C33.6318 1.00146 34.7967 1.48481 35.656 2.34403C36.5152 3.20326 36.9985 4.3682 37 5.58333V18.4167C36.9985 19.6318 36.5152 20.7967 35.656 21.656C34.7967 22.5152 33.6318 22.9985 32.4167 23H19.5833C18.3682 22.9985 17.2033 22.5152 16.344 21.656C15.4848 20.7967 15.0015 19.6318 15 18.4167V5.58333C15.0015 4.3682 15.4848 3.20326 16.344 2.34403C17.2033 1.48481 18.3682 1.00146 19.5833 1V1ZM16.8333 18.4167C16.8333 19.146 17.1231 19.8455 17.6388 20.3612C18.1545 20.8769 18.854 21.1667 19.5833 21.1667H32.4167C33.146 21.1667 33.8455 20.8769 34.3612 20.3612C34.8769 19.8455 35.1667 19.146 35.1667 18.4167V5.58333C35.1667 4.85399 34.8769 4.15451 34.3612 3.63879C33.8455 3.12306 33.146 2.83333 32.4167 2.83333H19.5833C18.854 2.83333 18.1545 3.12306 17.6388 3.63879C17.1231 4.15451 16.8333 4.85399 16.8333 5.58333V18.4167Z" fill="white"/>
<path d="M16.5833 1H29.4167C30.6318 1.00146 31.7967 1.48481 32.656 2.34403C33.5152 3.20326 33.9985 4.3682 34 5.58333V18.4167C33.9985 19.6318 33.5152 20.7967 32.656 21.656C31.7967 22.5152 30.6318 22.9985 29.4167 23H16.5833C15.3682 22.9985 14.2033 22.5152 13.344 21.656C12.4848 20.7967 12.0015 19.6318 12 18.4167V5.58333C12.0015 4.3682 12.4848 3.20326 13.344 2.34403C14.2033 1.48481 15.3682 1.00146 16.5833 1V1ZM13.8333 18.4167C13.8333 19.146 14.1231 19.8455 14.6388 20.3612C15.1545 20.8769 15.854 21.1667 16.5833 21.1667H29.4167C30.146 21.1667 30.8455 20.8769 31.3612 20.3612C31.8769 19.8455 32.1667 19.146 32.1667 18.4167V5.58333C32.1667 4.85399 31.8769 4.15451 31.3612 3.63879C30.8455 3.12306 30.146 2.83333 29.4167 2.83333H16.5833C15.854 2.83333 15.1545 3.12306 14.6388 3.63879C14.1231 4.15451 13.8333 4.85399 13.8333 5.58333V18.4167Z" fill="white"/>
<path d="M5.725 17.1L9.355 6.738H10.07L6.44 17.1H5.725ZM10.9056 16V9.499C10.9056 8.98567 11.0559 8.57133 11.3566 8.256C11.6572 7.94067 12.0899 7.783 12.6546 7.783C12.8746 7.783 13.0872 7.81233 13.2926 7.871C13.4979 7.92967 13.6702 8.02133 13.8096 8.146L13.5456 8.729C13.4356 8.63367 13.3072 8.564 13.1606 8.52C13.0139 8.46867 12.8562 8.443 12.6876 8.443C12.3576 8.443 12.1046 8.53467 11.9286 8.718C11.7526 8.90133 11.6646 9.17267 11.6646 9.532V10.412L11.6866 10.775V16H10.9056ZM9.87157 10.874V10.225H13.4466V10.874H9.87157ZM14.5011 16V10.225H15.2491V11.798L15.1721 11.523C15.3334 11.083 15.6048 10.7493 15.9861 10.522C16.3674 10.2873 16.8404 10.17 17.4051 10.17V10.929C17.3758 10.929 17.3464 10.929 17.3171 10.929C17.2878 10.9217 17.2584 10.918 17.2291 10.918C16.6204 10.918 16.1438 11.105 15.7991 11.479C15.4544 11.8457 15.2821 12.37 15.2821 13.052V16H14.5011ZM21.2295 16.055C20.6282 16.055 20.1002 15.9303 19.6455 15.681C19.1908 15.4243 18.8352 15.076 18.5785 14.636C18.3218 14.1887 18.1935 13.679 18.1935 13.107C18.1935 12.535 18.3145 12.029 18.5565 11.589C18.8058 11.149 19.1432 10.8043 19.5685 10.555C20.0012 10.2983 20.4852 10.17 21.0205 10.17C21.5632 10.17 22.0435 10.2947 22.4615 10.544C22.8868 10.786 23.2205 11.1307 23.4625 11.578C23.7045 12.018 23.8255 12.5277 23.8255 13.107C23.8255 13.1437 23.8218 13.184 23.8145 13.228C23.8145 13.2647 23.8145 13.305 23.8145 13.349H18.7875V12.766H23.3965L23.0885 12.997C23.0885 12.579 22.9968 12.2087 22.8135 11.886C22.6375 11.556 22.3955 11.2993 22.0875 11.116C21.7795 10.9327 21.4238 10.841 21.0205 10.841C20.6245 10.841 20.2688 10.9327 19.9535 11.116C19.6382 11.2993 19.3925 11.556 19.2165 11.886C19.0405 12.216 18.9525 12.5937 18.9525 13.019V13.14C18.9525 13.58 19.0478 13.9687 19.2385 14.306C19.4365 14.636 19.7078 14.8963 20.0525 15.087C20.4045 15.2703 20.8042 15.362 21.2515 15.362C21.6035 15.362 21.9298 15.2997 22.2305 15.175C22.5385 15.0503 22.8025 14.8597 23.0225 14.603L23.4625 15.109C23.2058 15.417 22.8832 15.6517 22.4945 15.813C22.1132 15.9743 21.6915 16.055 21.2295 16.055ZM27.8682 16.055C27.2668 16.055 26.7388 15.9303 26.2842 15.681C25.8295 15.4243 25.4738 15.076 25.2172 14.636C24.9605 14.1887 24.8322 13.679 24.8322 13.107C24.8322 12.535 24.9532 12.029 25.1952 11.589C25.4445 11.149 25.7818 10.8043 26.2072 10.555C26.6398 10.2983 27.1238 10.17 27.6592 10.17C28.2018 10.17 28.6822 10.2947 29.1002 10.544C29.5255 10.786 29.8592 11.1307 30.1012 11.578C30.3432 12.018 30.4642 12.5277 30.4642 13.107C30.4642 13.1437 30.4605 13.184 30.4532 13.228C30.4532 13.2647 30.4532 13.305 30.4532 13.349H25.4262V12.766H30.0352L29.7272 12.997C29.7272 12.579 29.6355 12.2087 29.4522 11.886C29.2762 11.556 29.0342 11.2993 28.7262 11.116C28.4182 10.9327 28.0625 10.841 27.6592 10.841C27.2632 10.841 26.9075 10.9327 26.5922 11.116C26.2768 11.2993 26.0312 11.556 25.8552 11.886C25.6792 12.216 25.5912 12.5937 25.5912 13.019V13.14C25.5912 13.58 25.6865 13.9687 25.8772 14.306C26.0752 14.636 26.3465 14.8963 26.6912 15.087C27.0432 15.2703 27.4428 15.362 27.8902 15.362C28.2422 15.362 28.5685 15.2997 28.8692 15.175C29.1772 15.0503 29.4412 14.8597 29.6612 14.603L30.1012 15.109C29.8445 15.417 29.5218 15.6517 29.1332 15.813C28.7518 15.9743 28.3302 16.055 27.8682 16.055Z" fill="#5D87F2"/>
</svg>
