<svg width="86" height="48" viewBox="0 0 86 48" fill="none" xmlns="http://www.w3.org/2000/svg">
<rect x="1" y="1" width="84" height="46" rx="4" stroke="#5D87F2" stroke-width="2" stroke-linejoin="round"/>
<path d="M10.45 35.2L17.71 14.476H19.14L11.88 35.2H10.45ZM33.4752 21.34C34.4139 21.34 35.2279 21.5233 35.9172 21.89C36.6212 22.242 37.1639 22.7847 37.5452 23.518C37.9412 24.2513 38.1392 25.1753 38.1392 26.29V33H36.5772V26.444C36.5772 25.2267 36.2839 24.31 35.6972 23.694C35.1252 23.0633 34.3112 22.748 33.2552 22.748C32.4632 22.748 31.7739 22.9167 31.1872 23.254C30.6152 23.5767 30.1679 24.0533 29.8452 24.684C29.5372 25.3 29.3832 26.048 29.3832 26.928V33H27.8212V26.444C27.8212 25.2267 27.5279 24.31 26.9412 23.694C26.3546 23.0633 25.5332 22.748 24.4772 22.748C23.6999 22.748 23.0179 22.9167 22.4312 23.254C21.8446 23.5767 21.3899 24.0533 21.0672 24.684C20.7592 25.3 20.6052 26.048 20.6052 26.928V33H19.0432V21.45H20.5392V24.574L20.2972 24.024C20.6492 23.188 21.2139 22.5353 21.9912 22.066C22.7832 21.582 23.7146 21.34 24.7852 21.34C25.9146 21.34 26.8752 21.626 27.6672 22.198C28.4592 22.7553 28.9726 23.5987 29.2072 24.728L28.5912 24.486C28.9286 23.5473 29.5226 22.792 30.3732 22.22C31.2386 21.6333 32.2726 21.34 33.4752 21.34ZM49.6133 33V30.448L49.5473 30.03V25.762C49.5473 24.7793 49.2686 24.024 48.7113 23.496C48.1686 22.968 47.3546 22.704 46.2693 22.704C45.5213 22.704 44.8099 22.8287 44.1353 23.078C43.4606 23.3273 42.8886 23.6573 42.4193 24.068L41.7153 22.902C42.3019 22.4033 43.0059 22.022 43.8273 21.758C44.6486 21.4793 45.5139 21.34 46.4233 21.34C47.9193 21.34 49.0706 21.714 49.8773 22.462C50.6986 23.1953 51.1093 24.3173 51.1093 25.828V33H49.6133ZM45.6313 33.11C44.7659 33.11 44.0106 32.9707 43.3653 32.692C42.7346 32.3987 42.2506 32.0027 41.9133 31.504C41.5759 30.9907 41.4073 30.404 41.4073 29.744C41.4073 29.1427 41.5466 28.6 41.8253 28.116C42.1186 27.6173 42.5879 27.2213 43.2333 26.928C43.8933 26.62 44.7733 26.466 45.8733 26.466H49.8553V27.632H45.9173C44.8026 27.632 44.0253 27.83 43.5853 28.226C43.1599 28.622 42.9473 29.1133 42.9473 29.7C42.9473 30.36 43.2039 30.888 43.7173 31.284C44.2306 31.68 44.9493 31.878 45.8733 31.878C46.7533 31.878 47.5086 31.68 48.1393 31.284C48.7846 30.8733 49.2539 30.2867 49.5473 29.524L49.8993 30.602C49.6059 31.3647 49.0926 31.9733 48.3593 32.428C47.6406 32.8827 46.7313 33.11 45.6313 33.11ZM55.3518 33V21.45H56.9138V33H55.3518ZM56.1438 18.898C55.8212 18.898 55.5498 18.788 55.3298 18.568C55.1098 18.348 54.9998 18.084 54.9998 17.776C54.9998 17.468 55.1098 17.2113 55.3298 17.006C55.5498 16.786 55.8212 16.676 56.1438 16.676C56.4665 16.676 56.7378 16.7787 56.9578 16.984C57.1778 17.1893 57.2878 17.446 57.2878 17.754C57.2878 18.0767 57.1778 18.348 56.9578 18.568C56.7525 18.788 56.4812 18.898 56.1438 18.898ZM67.156 21.34C68.0947 21.34 68.916 21.5233 69.62 21.89C70.3387 22.242 70.896 22.7847 71.292 23.518C71.7027 24.2513 71.908 25.1753 71.908 26.29V33H70.346V26.444C70.346 25.2267 70.038 24.31 69.422 23.694C68.8207 23.0633 67.97 22.748 66.87 22.748C66.0487 22.748 65.33 22.9167 64.714 23.254C64.1127 23.5767 63.6434 24.0533 63.306 24.684C62.9834 25.3 62.822 26.048 62.822 26.928V33H61.26V21.45H62.756V24.618L62.514 24.024C62.8807 23.188 63.4674 22.5353 64.274 22.066C65.0807 21.582 66.0414 21.34 67.156 21.34Z" fill="#5D87F2"/>
</svg>
