<svg width="43" height="24" viewBox="0 0 43 24" fill="none" xmlns="http://www.w3.org/2000/svg">
<mask id="mask0_60_1107" style="mask-type:alpha" maskUnits="userSpaceOnUse" x="0" y="0" width="19" height="24">
<rect width="19" height="24" fill="white"/>
</mask>
<g mask="url(#mask0_60_1107)">
<path d="M19 0H5C3.6744 0.00158786 2.40356 0.528882 1.46622 1.46622C0.528882 2.40356 0.00158786 3.6744 0 5L0 19C0.00158786 20.3256 0.528882 21.5964 1.46622 22.5338C2.40356 23.4711 3.6744 23.9984 5 24H19C20.3256 23.9984 21.5964 23.4711 22.5338 22.5338C23.4711 21.5964 23.9984 20.3256 24 19V5C23.9984 3.6744 23.4711 2.40356 22.5338 1.46622C21.5964 0.528882 20.3256 0.00158786 19 0V0ZM22 19C22 19.7956 21.6839 20.5587 21.1213 21.1213C20.5587 21.6839 19.7956 22 19 22H5C4.20435 22 3.44129 21.6839 2.87868 21.1213C2.31607 20.5587 2 19.7956 2 19V5C2 4.20435 2.31607 3.44129 2.87868 2.87868C3.44129 2.31607 4.20435 2 5 2H19C19.7956 2 20.5587 2.31607 21.1213 2.87868C21.6839 3.44129 22 4.20435 22 5V19Z" fill="#5D87F2"/>
</g>
<mask id="mask1_60_1107" style="mask-type:alpha" maskUnits="userSpaceOnUse" x="17" y="0" width="14" height="24">
<rect x="17" width="14" height="24" fill="white"/>
</mask>
<g mask="url(#mask1_60_1107)">
<path d="M31 0H17C15.6744 0.00158786 14.4036 0.528882 13.4662 1.46622C12.5289 2.40356 12.0016 3.6744 12 5L12 19C12.0016 20.3256 12.5289 21.5964 13.4662 22.5338C14.4036 23.4711 15.6744 23.9984 17 24H31C32.3256 23.9984 33.5964 23.4711 34.5338 22.5338C35.4711 21.5964 35.9984 20.3256 36 19V5C35.9984 3.6744 35.4711 2.40356 34.5338 1.46622C33.5964 0.528882 32.3256 0.00158786 31 0V0ZM34 19C34 19.7956 33.6839 20.5587 33.1213 21.1213C32.5587 21.6839 31.7956 22 31 22H17C16.2044 22 15.4413 21.6839 14.8787 21.1213C14.3161 20.5587 14 19.7956 14 19V5C14 4.20435 14.3161 3.44129 14.8787 2.87868C15.4413 2.31607 16.2044 2 17 2H31C31.7956 2 32.5587 2.31607 33.1213 2.87868C33.6839 3.44129 34 4.20435 34 5V19Z" fill="#5D87F2"/>
</g>
<mask id="mask2_60_1107" style="mask-type:alpha" maskUnits="userSpaceOnUse" x="24" y="0" width="19" height="24">
<rect width="19" height="24" transform="matrix(-1 0 0 1 43 0)" fill="white"/>
</mask>
<g mask="url(#mask2_60_1107)">
<path d="M24 0H38C39.3256 0.00158786 40.5964 0.528882 41.5338 1.46622C42.4711 2.40356 42.9984 3.6744 43 5V19C42.9984 20.3256 42.4711 21.5964 41.5338 22.5338C40.5964 23.4711 39.3256 23.9984 38 24H24C22.6744 23.9984 21.4036 23.4711 20.4662 22.5338C19.5289 21.5964 19.0016 20.3256 19 19V5C19.0016 3.6744 19.5289 2.40356 20.4662 1.46622C21.4036 0.528882 22.6744 0.00158786 24 0V0ZM21 19C21 19.7956 21.3161 20.5587 21.8787 21.1213C22.4413 21.6839 23.2044 22 24 22H38C38.7956 22 39.5587 21.6839 40.1213 21.1213C40.6839 20.5587 41 19.7956 41 19V5C41 4.20435 40.6839 3.44129 40.1213 2.87868C39.5587 2.31607 38.7956 2 38 2H24C23.2044 2 22.4413 2.31607 21.8787 2.87868C21.3161 3.44129 21 4.20435 21 5V19Z" fill="#5D87F2"/>
</g>
<path d="M5.58333 1H18.4167C19.6318 1.00146 20.7967 1.48481 21.656 2.34403C22.5152 3.20326 22.9985 4.3682 23 5.58333V18.4167C22.9985 19.6318 22.5152 20.7967 21.656 21.656C20.7967 22.5152 19.6318 22.9985 18.4167 23H5.58333C4.3682 22.9985 3.20326 22.5152 2.34403 21.656C1.48481 20.7967 1.00146 19.6318 1 18.4167V5.58333C1.00146 4.3682 1.48481 3.20326 2.34403 2.34403C3.20326 1.48481 4.3682 1.00146 5.58333 1V1ZM2.83333 18.4167C2.83333 19.146 3.12306 19.8455 3.63879 20.3612C4.15451 20.8769 4.85399 21.1667 5.58333 21.1667H18.4167C19.146 21.1667 19.8455 20.8769 20.3612 20.3612C20.8769 19.8455 21.1667 19.146 21.1667 18.4167V5.58333C21.1667 4.85399 20.8769 4.15451 20.3612 3.63879C19.8455 3.12306 19.146 2.83333 18.4167 2.83333H5.58333C4.85399 2.83333 4.15451 3.12306 3.63879 3.63879C3.12306 4.15451 2.83333 4.85399 2.83333 5.58333V18.4167Z" fill="white"/>
<path d="M12.5833 1H25.4167C26.6318 1.00146 27.7967 1.48481 28.656 2.34403C29.5152 3.20326 29.9985 4.3682 30 5.58333V18.4167C29.9985 19.6318 29.5152 20.7967 28.656 21.656C27.7967 22.5152 26.6318 22.9985 25.4167 23H12.5833C11.3682 22.9985 10.2033 22.5152 9.34403 21.656C8.48481 20.7967 8.00146 19.6318 8 18.4167V5.58333C8.00146 4.3682 8.48481 3.20326 9.34403 2.34403C10.2033 1.48481 11.3682 1.00146 12.5833 1V1ZM9.83333 18.4167C9.83333 19.146 10.1231 19.8455 10.6388 20.3612C11.1545 20.8769 11.854 21.1667 12.5833 21.1667H25.4167C26.146 21.1667 26.8455 20.8769 27.3612 20.3612C27.8769 19.8455 28.1667 19.146 28.1667 18.4167V5.58333C28.1667 4.85399 27.8769 4.15451 27.3612 3.63879C26.8455 3.12306 26.146 2.83333 25.4167 2.83333H12.5833C11.854 2.83333 11.1545 3.12306 10.6388 3.63879C10.1231 4.15451 9.83333 4.85399 9.83333 5.58333V18.4167Z" fill="white"/>
<path d="M24.5833 1H37.4167C38.6318 1.00146 39.7967 1.48481 40.656 2.34403C41.5152 3.20326 41.9985 4.3682 42 5.58333V18.4167C41.9985 19.6318 41.5152 20.7967 40.656 21.656C39.7967 22.5152 38.6318 22.9985 37.4167 23H24.5833C23.3682 22.9985 22.2033 22.5152 21.344 21.656C20.4848 20.7967 20.0015 19.6318 20 18.4167V5.58333C20.0015 4.3682 20.4848 3.20326 21.344 2.34403C22.2033 1.48481 23.3682 1.00146 24.5833 1V1ZM21.8333 18.4167C21.8333 19.146 22.1231 19.8455 22.6388 20.3612C23.1545 20.8769 23.854 21.1667 24.5833 21.1667H37.4167C38.146 21.1667 38.8455 20.8769 39.3612 20.3612C39.8769 19.8455 40.1667 19.146 40.1667 18.4167V5.58333C40.1667 4.85399 39.8769 4.15451 39.3612 3.63879C38.8455 3.12306 38.146 2.83333 37.4167 2.83333H24.5833C23.854 2.83333 23.1545 3.12306 22.6388 3.63879C22.1231 4.15451 21.8333 4.85399 21.8333 5.58333V18.4167Z" fill="white"/>
<path d="M5.725 17.1L9.355 6.738H10.07L6.44 17.1H5.725ZM17.2376 10.17C17.707 10.17 18.114 10.2617 18.4586 10.445C18.8106 10.621 19.082 10.8923 19.2726 11.259C19.4706 11.6257 19.5696 12.0877 19.5696 12.645V16H18.7886V12.722C18.7886 12.1133 18.642 11.655 18.3486 11.347C18.0626 11.0317 17.6556 10.874 17.1276 10.874C16.7316 10.874 16.387 10.9583 16.0936 11.127C15.8076 11.2883 15.584 11.5267 15.4226 11.842C15.2686 12.15 15.1916 12.524 15.1916 12.964V16H14.4106V12.722C14.4106 12.1133 14.264 11.655 13.9706 11.347C13.6773 11.0317 13.2666 10.874 12.7386 10.874C12.35 10.874 12.009 10.9583 11.7156 11.127C11.4223 11.2883 11.195 11.5267 11.0336 11.842C10.8796 12.15 10.8026 12.524 10.8026 12.964V16H10.0216V10.225H10.7696V11.787L10.6486 11.512C10.8246 11.094 11.107 10.7677 11.4956 10.533C11.8916 10.291 12.3573 10.17 12.8926 10.17C13.4573 10.17 13.9376 10.313 14.3336 10.599C14.7296 10.8777 14.9863 11.2993 15.1036 11.864L14.7956 11.743C14.9643 11.2737 15.2613 10.896 15.6866 10.61C16.1193 10.3167 16.6363 10.17 17.2376 10.17ZM25.3066 16V14.724L25.2736 14.515V12.381C25.2736 11.8897 25.1343 11.512 24.8556 11.248C24.5843 10.984 24.1773 10.852 23.6346 10.852C23.2606 10.852 22.905 10.9143 22.5676 11.039C22.2303 11.1637 21.9443 11.3287 21.7096 11.534L21.3576 10.951C21.651 10.7017 22.003 10.511 22.4136 10.379C22.8243 10.2397 23.257 10.17 23.7116 10.17C24.4596 10.17 25.0353 10.357 25.4386 10.731C25.8493 11.0977 26.0546 11.6587 26.0546 12.414V16H25.3066ZM23.3156 16.055C22.883 16.055 22.5053 15.9853 22.1826 15.846C21.8673 15.6993 21.6253 15.5013 21.4566 15.252C21.288 14.9953 21.2036 14.702 21.2036 14.372C21.2036 14.0713 21.2733 13.8 21.4126 13.558C21.5593 13.3087 21.794 13.1107 22.1166 12.964C22.4466 12.81 22.8866 12.733 23.4366 12.733H25.4276V13.316H23.4586C22.9013 13.316 22.5126 13.415 22.2926 13.613C22.08 13.811 21.9736 14.0567 21.9736 14.35C21.9736 14.68 22.102 14.944 22.3586 15.142C22.6153 15.34 22.9746 15.439 23.4366 15.439C23.8766 15.439 24.2543 15.34 24.5696 15.142C24.8923 14.9367 25.127 14.6433 25.2736 14.262L25.4496 14.801C25.303 15.1823 25.0463 15.4867 24.6796 15.714C24.3203 15.9413 23.8656 16.055 23.3156 16.055ZM28.1759 16V10.225H28.9569V16H28.1759ZM28.5719 8.949C28.4106 8.949 28.2749 8.894 28.1649 8.784C28.0549 8.674 27.9999 8.542 27.9999 8.388C27.9999 8.234 28.0549 8.10567 28.1649 8.003C28.2749 7.893 28.4106 7.838 28.5719 7.838C28.7332 7.838 28.8689 7.88933 28.9789 7.992C29.0889 8.09467 29.1439 8.223 29.1439 8.377C29.1439 8.53833 29.0889 8.674 28.9789 8.784C28.8762 8.894 28.7406 8.949 28.5719 8.949ZM34.078 10.17C34.5473 10.17 34.958 10.2617 35.31 10.445C35.6693 10.621 35.948 10.8923 36.146 11.259C36.3513 11.6257 36.454 12.0877 36.454 12.645V16H35.673V12.722C35.673 12.1133 35.519 11.655 35.211 11.347C34.9103 11.0317 34.485 10.874 33.935 10.874C33.5243 10.874 33.165 10.9583 32.857 11.127C32.5563 11.2883 32.3217 11.5267 32.153 11.842C31.9917 12.15 31.911 12.524 31.911 12.964V16H31.13V10.225H31.878V11.809L31.757 11.512C31.9403 11.094 32.2337 10.7677 32.637 10.533C33.0403 10.291 33.5207 10.17 34.078 10.17Z" fill="#5D87F2"/>
</svg>
