<svg width="124" height="48" viewBox="0 0 124 48" fill="none" xmlns="http://www.w3.org/2000/svg">
<rect x="1" y="1" width="122" height="46" rx="4" stroke="#5D87F2" stroke-width="2" stroke-linejoin="round"/>
<path d="M15.45 35.2L22.71 14.476H24.14L16.88 35.2H15.45ZM38.4752 21.34C39.4139 21.34 40.2279 21.5233 40.9172 21.89C41.6212 22.242 42.1639 22.7847 42.5452 23.518C42.9412 24.2513 43.1392 25.1753 43.1392 26.29V33H41.5772V26.444C41.5772 25.2267 41.2839 24.31 40.6972 23.694C40.1252 23.0633 39.3112 22.748 38.2552 22.748C37.4632 22.748 36.7739 22.9167 36.1872 23.254C35.6152 23.5767 35.1679 24.0533 34.8452 24.684C34.5372 25.3 34.3832 26.048 34.3832 26.928V33H32.8212V26.444C32.8212 25.2267 32.5279 24.31 31.9412 23.694C31.3546 23.0633 30.5332 22.748 29.4772 22.748C28.6999 22.748 28.0179 22.9167 27.4312 23.254C26.8446 23.5767 26.3899 24.0533 26.0672 24.684C25.7592 25.3 25.6052 26.048 25.6052 26.928V33H24.0432V21.45H25.5392V24.574L25.2972 24.024C25.6492 23.188 26.2139 22.5353 26.9912 22.066C27.7832 21.582 28.7146 21.34 29.7852 21.34C30.9146 21.34 31.8752 21.626 32.6672 22.198C33.4592 22.7553 33.9726 23.5987 34.2072 24.728L33.5912 24.486C33.9286 23.5473 34.5226 22.792 35.3732 22.22C36.2386 21.6333 37.2726 21.34 38.4752 21.34ZM52.0833 33.11C50.9686 33.11 49.9639 32.8607 49.0693 32.362C48.1893 31.8487 47.4926 31.152 46.9793 30.272C46.4659 29.3773 46.2093 28.358 46.2093 27.214C46.2093 26.0553 46.4659 25.036 46.9793 24.156C47.4926 23.276 48.1893 22.5867 49.0693 22.088C49.9493 21.5893 50.9539 21.34 52.0833 21.34C53.2273 21.34 54.2393 21.5893 55.1193 22.088C56.0139 22.5867 56.7106 23.276 57.2093 24.156C57.7226 25.036 57.9793 26.0553 57.9793 27.214C57.9793 28.358 57.7226 29.3773 57.2093 30.272C56.7106 31.152 56.0139 31.8487 55.1193 32.362C54.2246 32.8607 53.2126 33.11 52.0833 33.11ZM52.0833 31.724C52.9193 31.724 53.6599 31.5407 54.3053 31.174C54.9506 30.7927 55.4566 30.2647 55.8233 29.59C56.2046 28.9007 56.3953 28.1087 56.3953 27.214C56.3953 26.3047 56.2046 25.5127 55.8233 24.838C55.4566 24.1633 54.9506 23.6427 54.3053 23.276C53.6599 22.8947 52.9266 22.704 52.1053 22.704C51.2839 22.704 50.5506 22.8947 49.9053 23.276C49.2599 23.6427 48.7466 24.1633 48.3653 24.838C47.9839 25.5127 47.7933 26.3047 47.7933 27.214C47.7933 28.1087 47.9839 28.9007 48.3653 29.59C48.7466 30.2647 49.2599 30.7927 49.9053 31.174C50.5506 31.5407 51.2766 31.724 52.0833 31.724ZM63.816 33L58.69 21.45H60.318L65.026 32.164H64.256L69.03 21.45H70.57L65.422 33H63.816ZM72.7698 33V21.45H74.3318V33H72.7698ZM73.5618 18.898C73.2391 18.898 72.9678 18.788 72.7478 18.568C72.5278 18.348 72.4178 18.084 72.4178 17.776C72.4178 17.468 72.5278 17.2113 72.7478 17.006C72.9678 16.786 73.2391 16.676 73.5618 16.676C73.8845 16.676 74.1558 16.7787 74.3758 16.984C74.5958 17.1893 74.7058 17.446 74.7058 17.754C74.7058 18.0767 74.5958 18.348 74.3758 18.568C74.1705 18.788 73.8991 18.898 73.5618 18.898ZM83.584 33.11C82.3813 33.11 81.3253 32.8607 80.416 32.362C79.5067 31.8487 78.7953 31.152 78.282 30.272C77.7687 29.3773 77.512 28.358 77.512 27.214C77.512 26.07 77.754 25.058 78.238 24.178C78.7367 23.298 79.4113 22.6087 80.262 22.11C81.1273 21.5967 82.0953 21.34 83.166 21.34C84.2513 21.34 85.212 21.5893 86.048 22.088C86.8987 22.572 87.566 23.2613 88.05 24.156C88.534 25.036 88.776 26.0553 88.776 27.214C88.776 27.2873 88.7687 27.368 88.754 27.456C88.754 27.5293 88.754 27.61 88.754 27.698H78.7V26.532H87.918L87.302 26.994C87.302 26.158 87.1187 25.4173 86.752 24.772C86.4 24.112 85.916 23.5987 85.3 23.232C84.684 22.8653 83.9727 22.682 83.166 22.682C82.374 22.682 81.6627 22.8653 81.032 23.232C80.4013 23.5987 79.91 24.112 79.558 24.772C79.206 25.432 79.03 26.1873 79.03 27.038V27.28C79.03 28.16 79.2207 28.9373 79.602 29.612C79.998 30.272 80.5407 30.7927 81.23 31.174C81.934 31.5407 82.7333 31.724 83.628 31.724C84.332 31.724 84.9847 31.5993 85.586 31.35C86.202 31.1007 86.73 30.7193 87.17 30.206L88.05 31.218C87.5367 31.834 86.8913 32.3033 86.114 32.626C85.3513 32.9487 84.508 33.11 83.584 33.11ZM95.0573 33.11C94.104 33.11 93.202 32.978 92.3513 32.714C91.5007 32.4353 90.8333 32.0907 90.3493 31.68L91.0533 30.448C91.5227 30.8 92.124 31.108 92.8573 31.372C93.5907 31.6213 94.3607 31.746 95.1673 31.746C96.2673 31.746 97.0593 31.5773 97.5433 31.24C98.0273 30.888 98.2693 30.426 98.2693 29.854C98.2693 29.4287 98.13 29.0987 97.8513 28.864C97.5873 28.6147 97.2353 28.4313 96.7953 28.314C96.3553 28.182 95.864 28.072 95.3213 27.984C94.7787 27.896 94.236 27.7933 93.6933 27.676C93.1653 27.5587 92.6813 27.39 92.2413 27.17C91.8013 26.9353 91.442 26.62 91.1633 26.224C90.8993 25.828 90.7673 25.3 90.7673 24.64C90.7673 24.0093 90.9433 23.4447 91.2953 22.946C91.6473 22.4473 92.1607 22.0587 92.8353 21.78C93.5247 21.4867 94.3607 21.34 95.3433 21.34C96.0913 21.34 96.8393 21.4427 97.5873 21.648C98.3353 21.8387 98.9513 22.0953 99.4353 22.418L98.7533 23.672C98.24 23.32 97.69 23.0707 97.1033 22.924C96.5167 22.7627 95.93 22.682 95.3433 22.682C94.302 22.682 93.532 22.8653 93.0333 23.232C92.5493 23.584 92.3073 24.0387 92.3073 24.596C92.3073 25.036 92.4393 25.3807 92.7033 25.63C92.982 25.8793 93.3413 26.0773 93.7813 26.224C94.236 26.356 94.7273 26.466 95.2553 26.554C95.798 26.642 96.3333 26.752 96.8613 26.884C97.404 27.0013 97.8953 27.17 98.3353 27.39C98.79 27.5953 99.1493 27.896 99.4133 28.292C99.692 28.6733 99.8313 29.1793 99.8313 29.81C99.8313 30.4847 99.6407 31.0713 99.2593 31.57C98.8927 32.054 98.35 32.4353 97.6313 32.714C96.9273 32.978 96.0693 33.11 95.0573 33.11ZM99.9695 35.2L107.23 14.476H108.66L101.4 35.2H99.9695ZM115.897 19.118L112.861 20.834V20.482L115.897 22.198L115.391 23.122L112.399 21.384L112.641 21.274V24.64H111.629L111.651 21.274L111.871 21.384L108.901 23.122L108.373 22.198L111.431 20.482V20.834L108.373 19.118L108.901 18.194L111.871 19.932L111.651 20.042L111.629 16.676H112.641V20.042L112.399 19.932L115.391 18.194L115.897 19.118Z" fill="#5D87F2"/>
</svg>
