<svg width="52" height="24" viewBox="0 0 52 24" fill="none" xmlns="http://www.w3.org/2000/svg">
<path d="M0 5C0 2.23858 2.23858 0 5 0H52V24H5C2.23858 24 0 21.7614 0 19V5Z" fill="#5D87F2"/>
<path d="M4.022 16L7.542 8.3H8.345L11.865 16H11.007L7.773 8.773H8.103L4.869 16H4.022ZM5.408 13.943L5.65 13.283H10.127L10.369 13.943H5.408ZM15.9218 10.17C16.3911 10.17 16.8018 10.2617 17.1538 10.445C17.5131 10.621 17.7918 10.8923 17.9898 11.259C18.1951 11.6257 18.2978 12.0877 18.2978 12.645V16H17.5168V12.722C17.5168 12.1133 17.3628 11.655 17.0548 11.347C16.7541 11.0317 16.3288 10.874 15.7788 10.874C15.3681 10.874 15.0088 10.9583 14.7008 11.127C14.4001 11.2883 14.1654 11.5267 13.9968 11.842C13.8354 12.15 13.7548 12.524 13.7548 12.964V16H12.9738V10.225H13.7218V11.809L13.6008 11.512C13.7841 11.094 14.0774 10.7677 14.4808 10.533C14.8841 10.291 15.3644 10.17 15.9218 10.17ZM22.7064 16.055C22.1564 16.055 21.6614 15.9303 21.2214 15.681C20.7887 15.4317 20.4477 15.087 20.1984 14.647C19.949 14.1997 19.8244 13.6863 19.8244 13.107C19.8244 12.5203 19.949 12.007 20.1984 11.567C20.4477 11.127 20.7887 10.786 21.2214 10.544C21.6614 10.2947 22.1564 10.17 22.7064 10.17C23.2124 10.17 23.6634 10.2837 24.0594 10.511C24.4627 10.7383 24.7817 11.072 25.0164 11.512C25.2584 11.9447 25.3794 12.4763 25.3794 13.107C25.3794 13.7303 25.262 14.262 25.0274 14.702C24.7927 15.142 24.4737 15.4793 24.0704 15.714C23.6744 15.9413 23.2197 16.055 22.7064 16.055ZM22.7614 15.362C23.172 15.362 23.5387 15.2703 23.8614 15.087C24.1914 14.8963 24.448 14.6323 24.6314 14.295C24.822 13.9503 24.9174 13.5543 24.9174 13.107C24.9174 12.6523 24.822 12.2563 24.6314 11.919C24.448 11.5817 24.1914 11.3213 23.8614 11.138C23.5387 10.9473 23.172 10.852 22.7614 10.852C22.358 10.852 21.995 10.9473 21.6724 11.138C21.3497 11.3213 21.093 11.5817 20.9024 11.919C20.7117 12.2563 20.6164 12.6523 20.6164 13.107C20.6164 13.5543 20.7117 13.9503 20.9024 14.295C21.093 14.6323 21.3497 14.8963 21.6724 15.087C21.995 15.2703 22.358 15.362 22.7614 15.362ZM24.9394 16V14.262L25.0164 13.096L24.9064 11.93V7.838H25.6874V16H24.9394ZM27.8624 16V10.225H28.6104V11.798L28.5334 11.523C28.6948 11.083 28.9661 10.7493 29.3474 10.522C29.7288 10.2873 30.2018 10.17 30.7664 10.17V10.929C30.7371 10.929 30.7078 10.929 30.6784 10.929C30.6491 10.9217 30.6198 10.918 30.5904 10.918C29.9818 10.918 29.5051 11.105 29.1604 11.479C28.8158 11.8457 28.6434 12.37 28.6434 13.052V16H27.8624ZM34.4918 16.055C33.9345 16.055 33.4322 15.9303 32.9848 15.681C32.5448 15.4243 32.1965 15.076 31.9398 14.636C31.6832 14.1887 31.5548 13.679 31.5548 13.107C31.5548 12.5277 31.6832 12.018 31.9398 11.578C32.1965 11.138 32.5448 10.7933 32.9848 10.544C33.4248 10.2947 33.9272 10.17 34.4918 10.17C35.0638 10.17 35.5698 10.2947 36.0098 10.544C36.4572 10.7933 36.8055 11.138 37.0548 11.578C37.3115 12.018 37.4398 12.5277 37.4398 13.107C37.4398 13.679 37.3115 14.1887 37.0548 14.636C36.8055 15.076 36.4572 15.4243 36.0098 15.681C35.5625 15.9303 35.0565 16.055 34.4918 16.055ZM34.4918 15.362C34.9098 15.362 35.2802 15.2703 35.6028 15.087C35.9255 14.8963 36.1785 14.6323 36.3618 14.295C36.5525 13.9503 36.6478 13.5543 36.6478 13.107C36.6478 12.6523 36.5525 12.2563 36.3618 11.919C36.1785 11.5817 35.9255 11.3213 35.6028 11.138C35.2802 10.9473 34.9135 10.852 34.5028 10.852C34.0922 10.852 33.7255 10.9473 33.4028 11.138C33.0802 11.3213 32.8235 11.5817 32.6328 11.919C32.4422 12.2563 32.3468 12.6523 32.3468 13.107C32.3468 13.5543 32.4422 13.9503 32.6328 14.295C32.8235 14.6323 33.0802 14.8963 33.4028 15.087C33.7255 15.2703 34.0885 15.362 34.4918 15.362ZM39.0343 16V10.225H39.8153V16H39.0343ZM39.4303 8.949C39.269 8.949 39.1333 8.894 39.0233 8.784C38.9133 8.674 38.8583 8.542 38.8583 8.388C38.8583 8.234 38.9133 8.10567 39.0233 8.003C39.1333 7.893 39.269 7.838 39.4303 7.838C39.5916 7.838 39.7273 7.88933 39.8373 7.992C39.9473 8.09467 40.0023 8.223 40.0023 8.377C40.0023 8.53833 39.9473 8.674 39.8373 8.784C39.7346 8.894 39.599 8.949 39.4303 8.949ZM44.2874 16.055C43.7374 16.055 43.2424 15.9303 42.8024 15.681C42.3697 15.4317 42.0287 15.087 41.7794 14.647C41.5301 14.1997 41.4054 13.6863 41.4054 13.107C41.4054 12.5203 41.5301 12.007 41.7794 11.567C42.0287 11.127 42.3697 10.786 42.8024 10.544C43.2424 10.2947 43.7374 10.17 44.2874 10.17C44.7934 10.17 45.2444 10.2837 45.6404 10.511C46.0437 10.7383 46.3627 11.072 46.5974 11.512C46.8394 11.9447 46.9604 12.4763 46.9604 13.107C46.9604 13.7303 46.8431 14.262 46.6084 14.702C46.3737 15.142 46.0547 15.4793 45.6514 15.714C45.2554 15.9413 44.8007 16.055 44.2874 16.055ZM44.3424 15.362C44.7531 15.362 45.1197 15.2703 45.4424 15.087C45.7724 14.8963 46.0291 14.6323 46.2124 14.295C46.4031 13.9503 46.4984 13.5543 46.4984 13.107C46.4984 12.6523 46.4031 12.2563 46.2124 11.919C46.0291 11.5817 45.7724 11.3213 45.4424 11.138C45.1197 10.9473 44.7531 10.852 44.3424 10.852C43.9391 10.852 43.5761 10.9473 43.2534 11.138C42.9307 11.3213 42.6741 11.5817 42.4834 11.919C42.2927 12.2563 42.1974 12.6523 42.1974 13.107C42.1974 13.5543 42.2927 13.9503 42.4834 14.295C42.6741 14.6323 42.9307 14.8963 43.2534 15.087C43.5761 15.2703 43.9391 15.362 44.3424 15.362ZM46.5204 16V14.262L46.5974 13.096L46.4874 11.93V7.838H47.2684V16H46.5204Z" fill="white"/>
</svg>
