<svg width="104" height="48" viewBox="0 0 104 48" fill="none" xmlns="http://www.w3.org/2000/svg">
<path fill-rule="evenodd" clip-rule="evenodd" d="M5 0H104V48H5C2.23858 48 0 45.7614 0 43V5C0 2.23858 2.23858 0 5 0ZM8.044 33L15.084 17.6H16.69L23.73 33H22.014L20.173 28.886H11.579L9.738 33H8.044ZM31.8435 21.34C32.7822 21.34 33.6035 21.5233 34.3075 21.89C35.0262 22.242 35.5835 22.7847 35.9795 23.518C36.3902 24.2513 36.5955 25.1753 36.5955 26.29V33H35.0335V26.444C35.0335 25.2267 34.7255 24.31 34.1095 23.694C33.5082 23.0633 32.6575 22.748 31.5575 22.748C30.7362 22.748 30.0175 22.9167 29.4015 23.254C28.8002 23.5767 28.3309 24.0533 27.9935 24.684C27.6709 25.3 27.5095 26.048 27.5095 26.928V33H25.9475V21.45H27.4435V23.5518C27.8076 22.9382 28.3136 22.443 28.9615 22.066C29.7682 21.582 30.7289 21.34 31.8435 21.34ZM45.4127 33.11C44.3127 33.11 43.3227 32.8607 42.4427 32.362C41.5774 31.8633 40.8954 31.174 40.3967 30.294C39.8981 29.3993 39.6487 28.3727 39.6487 27.214C39.6487 26.0407 39.8981 25.014 40.3967 24.134C40.8954 23.254 41.5774 22.572 42.4427 22.088C43.3227 21.5893 44.3127 21.34 45.4127 21.34C46.4247 21.34 47.3267 21.5673 48.1187 22.022C48.8057 22.4092 49.3704 22.9507 49.8127 23.6464V16.676H51.3747V33H49.8787V30.7115C49.43 31.4428 48.8507 32.0149 48.1407 32.428C47.3487 32.8827 46.4394 33.11 45.4127 33.11ZM55.7249 33V21.45H57.2209V23.6771C57.5513 22.9772 58.0426 22.4328 58.6949 22.044C59.4575 21.5747 60.4035 21.34 61.5329 21.34V22.858H61.3569C61.2982 22.8433 61.2395 22.836 61.1809 22.836C59.9635 22.836 59.0102 23.21 58.3209 23.958C57.6315 24.6913 57.2869 25.74 57.2869 27.104V33H55.7249ZM65.9697 32.362C66.8643 32.8607 67.869 33.11 68.9837 33.11C70.113 33.11 71.125 32.8607 72.0197 32.362C72.9143 31.8487 73.611 31.152 74.1097 30.272C74.623 29.3773 74.8797 28.358 74.8797 27.214C74.8797 26.0553 74.623 25.036 74.1097 24.156C73.611 23.276 72.9143 22.5867 72.0197 22.088C71.1397 21.5893 70.1277 21.34 68.9837 21.34C67.8543 21.34 66.8497 21.5893 65.9697 22.088C65.0897 22.5867 64.393 23.276 63.8797 24.156C63.3663 25.036 63.1097 26.0553 63.1097 27.214C63.1097 28.358 63.3663 29.3773 63.8797 30.272C64.393 31.152 65.0897 31.8487 65.9697 32.362ZM78.0686 21.45V33H79.6306V21.45H78.0686ZM78.0466 18.568C78.2666 18.788 78.538 18.898 78.8606 18.898C79.198 18.898 79.4693 18.788 79.6746 18.568C79.8946 18.348 80.0046 18.0767 80.0046 17.754C80.0046 17.446 79.8946 17.1893 79.6746 16.984C79.4546 16.7787 79.1833 16.676 78.8606 16.676C78.538 16.676 78.2666 16.786 78.0466 17.006C77.8266 17.2113 77.7166 17.468 77.7166 17.776C77.7166 18.084 77.8266 18.348 78.0466 18.568ZM88.5748 33.11C87.4748 33.11 86.4848 32.8607 85.6048 32.362C84.7395 31.8633 84.0575 31.174 83.5588 30.294C83.0602 29.3993 82.8108 28.3727 82.8108 27.214C82.8108 26.0407 83.0602 25.014 83.5588 24.134C84.0575 23.254 84.7395 22.572 85.6048 22.088C86.4848 21.5893 87.4748 21.34 88.5748 21.34C89.5868 21.34 90.4888 21.5673 91.2808 22.022C91.9678 22.4092 92.5325 22.9507 92.9748 23.6464V16.676H94.5368V33H93.0408V30.7115C92.5922 31.4427 92.0128 32.0149 91.3028 32.428C90.5108 32.8827 89.6015 33.11 88.5748 33.11Z" fill="#5D87F2"/>
<path d="M88.6848 31.724C89.5062 31.724 90.2395 31.5407 90.8848 31.174C91.5448 30.7927 92.0582 30.2647 92.4248 29.59C92.8062 28.9007 92.9968 28.1087 92.9968 27.214C92.9968 26.3047 92.8062 25.5127 92.4248 24.838C92.0582 24.1633 91.5448 23.6427 90.8848 23.276C90.2395 22.8947 89.5062 22.704 88.6848 22.704C87.8782 22.704 87.1522 22.8947 86.5068 23.276C85.8615 23.6427 85.3482 24.1633 84.9668 24.838C84.5855 25.5127 84.3948 26.3047 84.3948 27.214C84.3948 28.1087 84.5855 28.9007 84.9668 29.59C85.3482 30.2647 85.8615 30.7927 86.5068 31.174C87.1522 31.5407 87.8782 31.724 88.6848 31.724Z" fill="#5D87F2"/>
<path d="M68.9837 31.724C69.8197 31.724 70.5603 31.5407 71.2057 31.174C71.851 30.7927 72.357 30.2647 72.7237 29.59C73.105 28.9007 73.2957 28.1087 73.2957 27.214C73.2957 26.3047 73.105 25.5127 72.7237 24.838C72.357 24.1633 71.851 23.6427 71.2057 23.276C70.5603 22.8947 69.827 22.704 69.0057 22.704C68.1843 22.704 67.451 22.8947 66.8057 23.276C66.1603 23.6427 65.647 24.1633 65.2657 24.838C64.8843 25.5127 64.6937 26.3047 64.6937 27.214C64.6937 28.1087 64.8843 28.9007 65.2657 29.59C65.647 30.2647 66.1603 30.7927 66.8057 31.174C67.451 31.5407 68.177 31.724 68.9837 31.724Z" fill="#5D87F2"/>
<path d="M45.5227 31.724C46.3441 31.724 47.0774 31.5407 47.7227 31.174C48.3827 30.7927 48.8961 30.2647 49.2627 29.59C49.6441 28.9007 49.8347 28.1087 49.8347 27.214C49.8347 26.3047 49.6441 25.5127 49.2627 24.838C48.8961 24.1633 48.3827 23.6427 47.7227 23.276C47.0774 22.8947 46.3441 22.704 45.5227 22.704C44.7161 22.704 43.9901 22.8947 43.3447 23.276C42.6994 23.6427 42.1861 24.1633 41.8047 24.838C41.4234 25.5127 41.2327 26.3047 41.2327 27.214C41.2327 28.1087 41.4234 28.9007 41.8047 29.59C42.1861 30.2647 42.6994 30.7927 43.3447 31.174C43.9901 31.5407 44.7161 31.724 45.5227 31.724Z" fill="#5D87F2"/>
<path d="M12.1697 27.566H19.5823L15.876 19.2834L12.1697 27.566Z" fill="#5D87F2"/>
</svg>
