<svg width="104" height="48" viewBox="0 0 104 48" fill="none" xmlns="http://www.w3.org/2000/svg">
<path fill-rule="evenodd" clip-rule="evenodd" d="M5 0C2.23858 0 0 2.23858 0 5V43C0 45.7614 2.23858 48 5 48H104V0H5ZM19.454 20.582C20.51 20.9487 21.61 21.132 22.754 21.132C24.074 21.132 25.152 20.9413 25.988 20.56C26.8387 20.164 27.4693 19.6507 27.88 19.02C28.2907 18.3747 28.496 17.678 28.496 16.93C28.496 16.1233 28.32 15.4707 27.968 14.972C27.6307 14.4733 27.176 14.0773 26.604 13.784C26.0467 13.476 25.4307 13.2267 24.756 13.036C24.096 12.8453 23.4287 12.6693 22.754 12.508C22.0793 12.3467 21.456 12.1633 20.884 11.958C20.3267 11.7527 19.872 11.4667 19.52 11.1C19.1827 10.7333 19.014 10.2493 19.014 9.648C19.014 9.12 19.1533 8.65067 19.432 8.24C19.7253 7.81467 20.1727 7.47733 20.774 7.228C21.3753 6.97867 22.138 6.854 23.062 6.854C23.7513 6.854 24.4627 6.95667 25.196 7.162C25.944 7.36733 26.648 7.69 27.308 8.13L27.858 6.832C27.242 6.40667 26.5087 6.07667 25.658 5.842C24.8073 5.59267 23.9493 5.468 23.084 5.468C21.7787 5.468 20.708 5.666 19.872 6.062C19.036 6.44333 18.4127 6.95667 18.002 7.602C17.606 8.23267 17.408 8.92933 17.408 9.692C17.408 10.5133 17.5767 11.1807 17.914 11.694C18.266 12.1927 18.7207 12.596 19.278 12.904C19.85 13.212 20.4733 13.4613 21.148 13.652C21.8227 13.828 22.4973 13.9967 23.172 14.158C23.8467 14.3193 24.4627 14.51 25.02 14.73C25.5773 14.9353 26.0247 15.2213 26.362 15.588C26.714 15.9547 26.89 16.4387 26.89 17.04C26.89 17.5387 26.7433 17.9933 26.45 18.404C26.1713 18.8147 25.724 19.1447 25.108 19.394C24.5067 19.6287 23.722 19.746 22.754 19.746C21.742 19.746 20.774 19.57 19.85 19.218C18.9407 18.8513 18.2147 18.404 17.672 17.876L17.034 19.13C17.606 19.7167 18.4127 20.2007 19.454 20.582ZM48.5872 9.89C47.8978 9.52333 47.0838 9.34 46.1452 9.34C44.9425 9.34 43.9085 9.63333 43.0432 10.22C42.4189 10.6397 41.9329 11.1582 41.5851 11.7754C41.3038 11.1113 40.8879 10.5855 40.3372 10.198C39.5452 9.626 38.5845 9.34 37.4552 9.34C36.3845 9.34 35.4532 9.582 34.6612 10.066C34.0424 10.4396 33.5584 10.9293 33.2092 11.5352V9.45H31.7132V21H33.2752V14.928C33.2752 14.048 33.4292 13.3 33.7372 12.684C34.0598 12.0533 34.5145 11.5767 35.1012 11.254C35.6878 10.9167 36.3698 10.748 37.1472 10.748C38.2032 10.748 39.0245 11.0633 39.6112 11.694C40.1978 12.31 40.4912 13.2267 40.4912 14.444V21H42.0532V14.928C42.0532 14.048 42.2072 13.3 42.5152 12.684C42.8378 12.0533 43.2852 11.5767 43.8572 11.254C44.4438 10.9167 45.1332 10.748 45.9252 10.748C46.9812 10.748 47.7952 11.0633 48.3672 11.694C48.9538 12.31 49.2472 13.2267 49.2472 14.444V21H50.8092V14.29C50.8092 13.1753 50.6112 12.2513 50.2152 11.518C49.8338 10.7847 49.2912 10.242 48.5872 9.89ZM62.2832 21V19.1866C61.9824 19.6824 61.5643 20.0962 61.0292 20.428C60.3105 20.8827 59.4012 21.11 58.3012 21.11C57.4359 21.11 56.6805 20.9707 56.0352 20.692C55.4045 20.3987 54.9205 20.0027 54.5832 19.504C54.2459 18.9907 54.0772 18.404 54.0772 17.744C54.0772 17.1427 54.2165 16.6 54.4952 16.116C54.7885 15.6173 55.2579 15.2213 55.9032 14.928C56.5632 14.62 57.4432 14.466 58.5432 14.466H62.2172V13.762C62.2172 12.7793 61.9385 12.024 61.3812 11.496C60.8385 10.968 60.0245 10.704 58.9392 10.704C58.1912 10.704 57.4799 10.8287 56.8052 11.078C56.1305 11.3273 55.5585 11.6573 55.0892 12.068L54.3852 10.902C54.9719 10.4033 55.6759 10.022 56.4972 9.758C57.3185 9.47933 58.1839 9.34 59.0932 9.34C60.5892 9.34 61.7405 9.714 62.5472 10.462C63.3685 11.1953 63.7792 12.3173 63.7792 13.828V21H62.2832ZM62.2172 15.632V17.524C61.9239 18.2867 61.4545 18.8733 60.8092 19.284C60.1785 19.68 59.4232 19.878 58.5432 19.878C57.6192 19.878 56.9005 19.68 56.3872 19.284C55.8739 18.888 55.6172 18.36 55.6172 17.7C55.6172 17.1133 55.8299 16.622 56.2552 16.226C56.6952 15.83 57.4725 15.632 58.5872 15.632H62.2172ZM68.0218 21V9.45H69.5178V11.6771C69.8482 10.9772 70.3395 10.4328 70.9918 10.044C71.7544 9.57467 72.7004 9.34 73.8298 9.34V10.858H73.6537C73.5951 10.8433 73.5364 10.836 73.4778 10.836C72.2604 10.836 71.3071 11.21 70.6178 11.958C69.9284 12.6913 69.5837 13.74 69.5837 15.104V21H68.0218ZM77.4381 10.748H75.3701V9.45H77.4381V6.898H79.0001V9.45H82.5201V10.748H79.0001V17.656C79.0001 18.3307 79.1688 18.8513 79.5061 19.218C79.8581 19.5847 80.3568 19.768 81.0021 19.768C81.6914 19.768 82.2634 19.57 82.7181 19.174L83.2681 20.296C82.9601 20.5747 82.5861 20.78 82.1461 20.912C81.7208 21.044 81.2808 21.11 80.8261 21.11C79.7408 21.11 78.9048 20.8167 78.3181 20.23C77.7314 19.6433 77.4381 18.8147 77.4381 17.744V10.748ZM83.1187 26.6L89.9387 42H91.5447L98.3647 26.6H96.7147L90.7764 40.0019L84.8787 26.6H83.1187ZM76.0273 42V28.008H70.6153V26.6H83.0673V28.008H77.6553V42H76.0273ZM68.6734 38.9507C69.2976 37.9798 69.7423 36.7962 70.0076 35.4L68.7536 35.004C68.5314 36.1671 68.187 37.1555 67.7203 37.9692L63.4998 33.6232C64.179 33.2312 64.7423 32.8701 65.1896 32.54C65.8056 32.0707 66.2456 31.594 66.5096 31.11C66.7883 30.626 66.9276 30.1053 66.9276 29.548C66.9276 28.9027 66.7736 28.3527 66.4656 27.898C66.1723 27.4433 65.7543 27.0987 65.2116 26.864C64.6836 26.6147 64.0603 26.49 63.3416 26.49C62.5496 26.49 61.8603 26.6293 61.2736 26.908C60.6869 27.172 60.2323 27.5533 59.9096 28.052C59.6016 28.536 59.4476 29.108 59.4476 29.768C59.4476 30.1787 59.5063 30.5673 59.6236 30.934C59.7409 31.3007 59.9463 31.6893 60.2396 32.1C60.5306 32.4741 60.9132 32.9138 61.3875 33.4188C60.5714 33.8884 59.8954 34.3434 59.3596 34.784C58.7143 35.312 58.2449 35.8547 57.9516 36.412C57.6583 36.9547 57.5116 37.556 57.5116 38.216C57.5116 38.9933 57.7316 39.6753 58.1716 40.262C58.6263 40.8487 59.2423 41.3107 60.0196 41.648C60.7969 41.9707 61.6843 42.132 62.6816 42.132C63.9429 42.132 65.0723 41.8753 66.0696 41.362C66.7234 41.0255 67.3079 40.585 67.823 40.0404L69.9636 42.242L70.8656 41.208L68.6734 38.9507ZM62.6273 32.7215C63.2455 32.3629 63.7476 32.0457 64.1336 31.77C64.6616 31.3887 65.0356 31.0293 65.2556 30.692C65.4756 30.34 65.5856 29.966 65.5856 29.57C65.5856 28.998 65.3876 28.536 64.9916 28.184C64.6103 27.832 64.0603 27.656 63.3416 27.656C62.5643 27.656 61.9629 27.854 61.5376 28.25C61.1123 28.6313 60.8996 29.13 60.8996 29.746C60.8996 30.054 60.9436 30.3473 61.0316 30.626C61.1343 30.9047 61.3176 31.2127 61.5816 31.55C61.8411 31.8642 62.1897 32.2547 62.6273 32.7215ZM66.9116 39.103L62.26 34.3188C61.5317 34.7398 60.939 35.1295 60.4816 35.488C59.9536 35.9133 59.5796 36.3313 59.3596 36.742C59.1396 37.138 59.0296 37.578 59.0296 38.062C59.0296 38.6193 59.1836 39.1107 59.4916 39.536C59.8143 39.9467 60.2543 40.2693 60.8116 40.504C61.3836 40.724 62.0363 40.834 62.7696 40.834C63.7963 40.834 64.7129 40.6213 65.5196 40.196C66.0381 39.9226 66.5021 39.5583 66.9116 39.103ZM46.9354 41.428C47.7421 41.8827 48.6514 42.11 49.6634 42.11C50.7634 42.11 51.7461 41.8607 52.6114 41.362C53.4914 40.8633 54.1808 40.174 54.6794 39.294C55.1781 38.3993 55.4274 37.3727 55.4274 36.214C55.4274 35.0407 55.1781 34.014 54.6794 33.134C54.1808 32.254 53.4914 31.572 52.6114 31.088C51.7461 30.5893 50.7634 30.34 49.6634 30.34C48.6661 30.34 47.7641 30.5673 46.9574 31.022C46.2785 31.4047 45.7138 31.938 45.2634 32.622V25.676H43.7014V42H45.1974V39.7115C45.6461 40.4428 46.2254 41.0149 46.9354 41.428ZM51.7534 40.174C51.1081 40.5407 50.3748 40.724 49.5534 40.724C48.7321 40.724 47.9914 40.5407 47.3314 40.174C46.6861 39.7927 46.1728 39.2647 45.7914 38.59C45.4248 37.9007 45.2414 37.1087 45.2414 36.214C45.2414 35.3047 45.4248 34.5127 45.7914 33.838C46.1728 33.1633 46.6861 32.6427 47.3314 32.276C47.9914 31.8947 48.7321 31.704 49.5534 31.704C50.3748 31.704 51.1081 31.8947 51.7534 32.276C52.3988 32.6427 52.9121 33.1633 53.2934 33.838C53.6748 34.5127 53.8654 35.3047 53.8654 36.214C53.8654 37.1087 53.6748 37.9007 53.2934 38.59C52.9121 39.2647 52.3988 39.7927 51.7534 40.174ZM35.3301 42.11C34.1274 42.11 33.0714 41.8607 32.1621 41.362C31.2528 40.8487 30.5414 40.152 30.0281 39.272C29.5148 38.3773 29.2581 37.358 29.2581 36.214C29.2581 35.07 29.5001 34.058 29.9841 33.178C30.4828 32.298 31.1574 31.6087 32.0081 31.11C32.8734 30.5967 33.8414 30.34 34.9121 30.34C35.9974 30.34 36.9581 30.5893 37.7941 31.088C38.6448 31.572 39.3121 32.2613 39.7961 33.156C40.2801 34.036 40.5221 35.0553 40.5221 36.214C40.5221 36.2873 40.5148 36.368 40.5001 36.456V36.698H30.791C30.8426 37.4082 31.0283 38.0462 31.3481 38.612C31.7441 39.272 32.2868 39.7927 32.9761 40.174C33.6801 40.5407 34.4794 40.724 35.3741 40.724C36.0781 40.724 36.7308 40.5993 37.3321 40.35C37.9481 40.1007 38.4761 39.7193 38.9161 39.206L39.7961 40.218C39.2828 40.834 38.6374 41.3033 37.8601 41.626C37.0974 41.9487 36.2541 42.11 35.3301 42.11ZM30.7978 35.532C30.8548 34.8848 31.0235 34.2981 31.3041 33.772C31.6561 33.112 32.1474 32.5987 32.7781 32.232C33.4088 31.8653 34.1201 31.682 34.9121 31.682C35.7188 31.682 36.4301 31.8653 37.0461 32.232C37.6621 32.5987 38.1461 33.112 38.4981 33.772C38.7957 34.2958 38.9726 34.8825 39.0286 35.532H30.7978ZM5.814 26.6L11.006 42H12.7L17.2315 28.8881L21.742 42H23.458L28.65 26.6H27.088L22.5762 39.933L18.024 26.6H16.528L11.9365 39.871L7.486 26.6H5.814Z" fill="#5D87F2"/>
</svg>
