<svg width="104" height="48" viewBox="0 0 104 48" fill="none" xmlns="http://www.w3.org/2000/svg">
<path fill-rule="evenodd" clip-rule="evenodd" d="M5 0H104V48H5C2.23858 48 0 45.7614 0 43V5C0 2.23858 2.23858 0 5 0ZM41.5 28.008V42H43.128V28.008H48.54V26.6H36.088V28.008H41.5ZM55.4114 42L48.5914 26.6H50.3514L56.2491 40.0019L62.1874 26.6H63.8374L57.0174 42H55.4114ZM19.454 20.582C20.51 20.9487 21.61 21.132 22.754 21.132C24.074 21.132 25.152 20.9413 25.988 20.56C26.8387 20.164 27.4693 19.6507 27.88 19.02C28.2907 18.3747 28.496 17.678 28.496 16.93C28.496 16.1233 28.32 15.4707 27.968 14.972C27.6307 14.4733 27.176 14.0773 26.604 13.784C26.0467 13.476 25.4307 13.2267 24.756 13.036C24.096 12.8453 23.4287 12.6693 22.754 12.508C22.0793 12.3467 21.456 12.1633 20.884 11.958C20.3267 11.7527 19.872 11.4667 19.52 11.1C19.1827 10.7333 19.014 10.2493 19.014 9.648C19.014 9.12 19.1533 8.65067 19.432 8.24C19.7253 7.81467 20.1727 7.47733 20.774 7.228C21.3753 6.97867 22.138 6.854 23.062 6.854C23.7513 6.854 24.4627 6.95667 25.196 7.162C25.944 7.36733 26.648 7.69 27.308 8.13L27.858 6.832C27.242 6.40667 26.5087 6.07667 25.658 5.842C24.8073 5.59267 23.9493 5.468 23.084 5.468C21.7787 5.468 20.708 5.666 19.872 6.062C19.036 6.44333 18.4127 6.95667 18.002 7.602C17.606 8.23267 17.408 8.92933 17.408 9.692C17.408 10.5133 17.5767 11.1807 17.914 11.694C18.266 12.1927 18.7207 12.596 19.278 12.904C19.85 13.212 20.4733 13.4613 21.148 13.652C21.8227 13.828 22.4973 13.9967 23.172 14.158C23.8467 14.3193 24.4627 14.51 25.02 14.73C25.5773 14.9353 26.0247 15.2213 26.362 15.588C26.714 15.9547 26.89 16.4387 26.89 17.04C26.89 17.5387 26.7433 17.9933 26.45 18.404C26.1713 18.8147 25.724 19.1447 25.108 19.394C24.5067 19.6287 23.722 19.746 22.754 19.746C21.742 19.746 20.774 19.57 19.85 19.218C18.9407 18.8513 18.2147 18.404 17.672 17.876L17.034 19.13C17.606 19.7167 18.4127 20.2007 19.454 20.582ZM46.1452 9.34C47.0838 9.34 47.8978 9.52333 48.5872 9.89C49.2912 10.242 49.8338 10.7847 50.2152 11.518C50.6112 12.2513 50.8092 13.1753 50.8092 14.29V21H49.2472V14.444C49.2472 13.2267 48.9538 12.31 48.3672 11.694C47.7952 11.0633 46.9812 10.748 45.9252 10.748C45.1332 10.748 44.4438 10.9167 43.8572 11.254C43.2852 11.5767 42.8378 12.0533 42.5152 12.684C42.2072 13.3 42.0532 14.048 42.0532 14.928V21H40.4912V14.444C40.4912 13.2267 40.1978 12.31 39.6112 11.694C39.0245 11.0633 38.2032 10.748 37.1472 10.748C36.3698 10.748 35.6878 10.9167 35.1012 11.254C34.5145 11.5767 34.0598 12.0533 33.7372 12.684C33.4292 13.3 33.2752 14.048 33.2752 14.928V21H31.7132V9.45H33.2092V11.5352C33.5584 10.9293 34.0424 10.4396 34.6612 10.066C35.4532 9.582 36.3845 9.34 37.4552 9.34C38.5845 9.34 39.5452 9.626 40.3372 10.198C40.8879 10.5855 41.3038 11.1113 41.5851 11.7754C41.9329 11.1582 42.4189 10.6397 43.0432 10.22C43.9085 9.63333 44.9425 9.34 46.1452 9.34ZM62.2172 13.762C62.2172 12.7793 61.9385 12.024 61.3812 11.496C60.8385 10.968 60.0245 10.704 58.9392 10.704C58.1912 10.704 57.4799 10.8287 56.8052 11.078C56.1305 11.3273 55.5585 11.6573 55.0892 12.068L54.3852 10.902C54.9719 10.4033 55.6759 10.022 56.4972 9.758C57.3185 9.47933 58.1839 9.34 59.0932 9.34C60.5892 9.34 61.7405 9.714 62.5472 10.462C63.3685 11.1953 63.7792 12.3173 63.7792 13.828V21H62.2832V19.1866C61.9824 19.6824 61.5644 20.0962 61.0292 20.428C60.3105 20.8827 59.4012 21.11 58.3012 21.11C57.4359 21.11 56.6805 20.9707 56.0352 20.692C55.4045 20.3987 54.9205 20.0027 54.5832 19.504C54.2459 18.9907 54.0772 18.404 54.0772 17.744C54.0772 17.1427 54.2165 16.6 54.4952 16.116C54.7885 15.6173 55.2579 15.2213 55.9032 14.928C56.5632 14.62 57.4432 14.466 58.5432 14.466H62.2172V13.762ZM68.0218 21V9.45H69.5178V11.6771C69.8482 10.9772 70.3395 10.4328 70.9918 10.044C71.7544 9.57467 72.7004 9.34 73.8298 9.34V10.858H73.6537C73.5951 10.8433 73.5364 10.836 73.4778 10.836C72.2604 10.836 71.3071 11.21 70.6178 11.958C69.9284 12.6913 69.5837 13.74 69.5837 15.104V21H68.0218ZM80.8261 21.11C79.7408 21.11 78.9048 20.8167 78.3181 20.23C77.7314 19.6433 77.4381 18.8147 77.4381 17.744V10.748H75.3701V9.45H77.4381V6.898H79.0001V9.45H82.5201V10.748H79.0001V17.656C79.0001 18.3307 79.1688 18.8513 79.5061 19.218C79.8581 19.5847 80.3568 19.768 81.0021 19.768C81.6914 19.768 82.2634 19.57 82.7181 19.174L83.2681 20.296C82.9601 20.5747 82.5861 20.78 82.1461 20.912C81.7208 21.044 81.2808 21.11 80.8261 21.11Z" fill="#5D87F2"/>
<path d="M58.5872 15.632C57.4725 15.632 56.6952 15.83 56.2552 16.226C55.8299 16.622 55.6172 17.1133 55.6172 17.7C55.6172 18.36 55.8739 18.888 56.3872 19.284C56.9005 19.68 57.6192 19.878 58.5432 19.878C59.4232 19.878 60.1785 19.68 60.8092 19.284C61.4545 18.8733 61.9239 18.2867 62.2172 17.524V15.632H58.5872Z" fill="#5D87F2"/>
</svg>
