<svg width="52" height="24" viewBox="0 0 52 24" fill="none" xmlns="http://www.w3.org/2000/svg">
<path d="M0 5C0 2.23858 2.23858 0 5 0H52V24H5C2.23858 24 0 21.7614 0 19V5Z" fill="#5D87F2"/>
<path d="M15.003 16L12.407 8.3H13.243L15.674 15.549H15.256L17.764 8.3H18.512L20.987 15.549H20.591L23.044 8.3H23.825L21.229 16H20.371L18.006 9.125H18.226L15.85 16H15.003ZM27.165 16.055C26.5637 16.055 26.0357 15.9303 25.581 15.681C25.1264 15.4243 24.7707 15.076 24.514 14.636C24.2574 14.1887 24.129 13.679 24.129 13.107C24.129 12.535 24.25 12.029 24.492 11.589C24.7414 11.149 25.0787 10.8043 25.504 10.555C25.9367 10.2983 26.4207 10.17 26.956 10.17C27.4987 10.17 27.979 10.2947 28.397 10.544C28.8224 10.786 29.156 11.1307 29.398 11.578C29.64 12.018 29.761 12.5277 29.761 13.107C29.761 13.1437 29.7574 13.184 29.75 13.228C29.75 13.2647 29.75 13.305 29.75 13.349H24.723V12.766H29.332L29.024 12.997C29.024 12.579 28.9324 12.2087 28.749 11.886C28.573 11.556 28.331 11.2993 28.023 11.116C27.715 10.9327 27.3594 10.841 26.956 10.841C26.56 10.841 26.2044 10.9327 25.889 11.116C25.5737 11.2993 25.328 11.556 25.152 11.886C24.976 12.216 24.888 12.5937 24.888 13.019V13.14C24.888 13.58 24.9834 13.9687 25.174 14.306C25.372 14.636 25.6434 14.8963 25.988 15.087C26.34 15.2703 26.7397 15.362 27.187 15.362C27.539 15.362 27.8654 15.2997 28.166 15.175C28.474 15.0503 28.738 14.8597 28.958 14.603L29.398 15.109C29.1414 15.417 28.8187 15.6517 28.43 15.813C28.0487 15.9743 27.627 16.055 27.165 16.055ZM34.3317 16.055C33.8257 16.055 33.3711 15.9413 32.9677 15.714C32.5644 15.4793 32.2454 15.142 32.0107 14.702C31.7761 14.262 31.6587 13.7303 31.6587 13.107C31.6587 12.4763 31.7761 11.9447 32.0107 11.512C32.2527 11.072 32.5754 10.7383 32.9787 10.511C33.3821 10.2837 33.8331 10.17 34.3317 10.17C34.8817 10.17 35.3731 10.2947 35.8057 10.544C36.2457 10.786 36.5904 11.127 36.8397 11.567C37.0891 12.007 37.2137 12.5203 37.2137 13.107C37.2137 13.6863 37.0891 14.1997 36.8397 14.647C36.5904 15.087 36.2457 15.4317 35.8057 15.681C35.3731 15.9303 34.8817 16.055 34.3317 16.055ZM31.3507 16V7.838H32.1317V11.93L32.0217 13.096L32.0987 14.262V16H31.3507ZM34.2767 15.362C34.6874 15.362 35.0541 15.2703 35.3767 15.087C35.6994 14.8963 35.9561 14.6323 36.1467 14.295C36.3374 13.9503 36.4327 13.5543 36.4327 13.107C36.4327 12.6523 36.3374 12.2563 36.1467 11.919C35.9561 11.5817 35.6994 11.3213 35.3767 11.138C35.0541 10.9473 34.6874 10.852 34.2767 10.852C33.8661 10.852 33.4957 10.9473 33.1657 11.138C32.8431 11.3213 32.5864 11.5817 32.3957 11.919C32.2124 12.2563 32.1207 12.6523 32.1207 13.107C32.1207 13.5543 32.2124 13.9503 32.3957 14.295C32.5864 14.6323 32.8431 14.8963 33.1657 15.087C33.4957 15.2703 33.8661 15.362 34.2767 15.362Z" fill="white"/>
</svg>
