<svg width="104" height="48" viewBox="0 0 104 48" fill="none" xmlns="http://www.w3.org/2000/svg">
<path fill-rule="evenodd" clip-rule="evenodd" d="M5 0H104V48H5C2.23858 48 0 45.7614 0 43V5C0 2.23858 2.23858 0 5 0ZM32.006 33L26.814 17.6H28.486L32.9365 30.871L37.528 17.6H39.024L43.5762 30.933L48.088 17.6H49.65L44.458 33H42.742L38.2315 19.8881L33.7 33H32.006ZM56.3301 33.11C55.1274 33.11 54.0714 32.8607 53.1621 32.362C52.2528 31.8487 51.5414 31.152 51.0281 30.272C50.5148 29.3773 50.2581 28.358 50.2581 27.214C50.2581 26.07 50.5001 25.058 50.9841 24.178C51.4828 23.298 52.1574 22.6087 53.0081 22.11C53.8734 21.5967 54.8414 21.34 55.9121 21.34C56.9974 21.34 57.9581 21.5893 58.7941 22.088C59.6448 22.572 60.3121 23.2613 60.7961 24.156C61.2801 25.036 61.5221 26.0553 61.5221 27.214C61.5221 27.2873 61.5148 27.368 61.5001 27.456V27.698H51.791C51.8426 28.4082 52.0283 29.0462 52.3481 29.612C52.7441 30.272 53.2868 30.7927 53.9761 31.174C54.6801 31.5407 55.4794 31.724 56.3741 31.724C57.0781 31.724 57.7308 31.5993 58.3321 31.35C58.9481 31.1007 59.4761 30.7193 59.9161 30.206L60.7961 31.218C60.2828 31.834 59.6374 32.3033 58.8601 32.626C58.0974 32.9487 57.2541 33.11 56.3301 33.11ZM70.6634 33.11C69.6514 33.11 68.7421 32.8827 67.9354 32.428C67.2254 32.0149 66.6461 31.4428 66.1974 30.7115V33H64.7014V16.676H66.2634V23.6221C66.7138 22.938 67.2785 22.4047 67.9574 22.022C68.7641 21.5673 69.6661 21.34 70.6634 21.34C71.7634 21.34 72.7461 21.5893 73.6114 22.088C74.4914 22.572 75.1808 23.254 75.6794 24.134C76.1781 25.014 76.4274 26.0407 76.4274 27.214C76.4274 28.3727 76.1781 29.3993 75.6794 30.294C75.1808 31.174 74.4914 31.8633 73.6114 32.362C72.7461 32.8607 71.7634 33.11 70.6634 33.11Z" fill="#5D87F2"/>
<path fill-rule="evenodd" clip-rule="evenodd" d="M38.452 19.25L38.2315 19.8881L38.012 19.25H38.452ZM72.7534 31.174C72.1081 31.5407 71.3748 31.724 70.5534 31.724C69.7321 31.724 68.9914 31.5407 68.3314 31.174C67.6861 30.7927 67.1728 30.2647 66.7914 29.59C66.4248 28.9007 66.2414 28.1087 66.2414 27.214C66.2414 26.3047 66.4248 25.5127 66.7914 24.838C67.1728 24.1633 67.6861 23.6427 68.3314 23.276C68.9914 22.8947 69.7321 22.704 70.5534 22.704C71.3748 22.704 72.1081 22.8947 72.7534 23.276C73.3988 23.6427 73.9121 24.1633 74.2934 24.838C74.6748 25.5127 74.8654 26.3047 74.8654 27.214C74.8654 28.1087 74.6748 28.9007 74.2934 29.59C73.9121 30.2647 73.3988 30.7927 72.7534 31.174ZM51.7978 26.532H60.0286C59.9726 25.8825 59.7957 25.2958 59.4981 24.772C59.1461 24.112 58.6621 23.5987 58.0461 23.232C57.4301 22.8653 56.7188 22.682 55.9121 22.682C55.1201 22.682 54.4088 22.8653 53.7781 23.232C53.1474 23.5987 52.6561 24.112 52.3041 24.772C52.0235 25.2981 51.8548 25.8848 51.7978 26.532Z" fill="#5D87F2"/>
</svg>
