<svg width="52" height="24" viewBox="0 0 52 24" fill="none" xmlns="http://www.w3.org/2000/svg">
<path d="M0 5C0 2.23858 2.23858 0 5 0H52V24H5C2.23858 24 0 21.7614 0 19V5Z" fill="#5D87F2"/>
<path d="M15.003 21L12.407 13.3H13.243L15.674 20.549H15.256L17.764 13.3H18.512L20.987 20.549H20.591L23.044 13.3H23.825L21.229 21H20.371L18.006 14.125H18.226L15.85 21H15.003ZM27.165 21.055C26.5637 21.055 26.0357 20.9303 25.581 20.681C25.1264 20.4243 24.7707 20.076 24.514 19.636C24.2574 19.1887 24.129 18.679 24.129 18.107C24.129 17.535 24.25 17.029 24.492 16.589C24.7414 16.149 25.0787 15.8043 25.504 15.555C25.9367 15.2983 26.4207 15.17 26.956 15.17C27.4987 15.17 27.979 15.2947 28.397 15.544C28.8224 15.786 29.156 16.1307 29.398 16.578C29.64 17.018 29.761 17.5277 29.761 18.107C29.761 18.1437 29.7574 18.184 29.75 18.228C29.75 18.2647 29.75 18.305 29.75 18.349H24.723V17.766H29.332L29.024 17.997C29.024 17.579 28.9324 17.2087 28.749 16.886C28.573 16.556 28.331 16.2993 28.023 16.116C27.715 15.9327 27.3594 15.841 26.956 15.841C26.56 15.841 26.2044 15.9327 25.889 16.116C25.5737 16.2993 25.328 16.556 25.152 16.886C24.976 17.216 24.888 17.5937 24.888 18.019V18.14C24.888 18.58 24.9834 18.9687 25.174 19.306C25.372 19.636 25.6434 19.8963 25.988 20.087C26.34 20.2703 26.7397 20.362 27.187 20.362C27.539 20.362 27.8654 20.2997 28.166 20.175C28.474 20.0503 28.738 19.8597 28.958 19.603L29.398 20.109C29.1414 20.417 28.8187 20.6517 28.43 20.813C28.0487 20.9743 27.627 21.055 27.165 21.055ZM34.3317 21.055C33.8257 21.055 33.3711 20.9413 32.9677 20.714C32.5644 20.4793 32.2454 20.142 32.0107 19.702C31.7761 19.262 31.6587 18.7303 31.6587 18.107C31.6587 17.4763 31.7761 16.9447 32.0107 16.512C32.2527 16.072 32.5754 15.7383 32.9787 15.511C33.3821 15.2837 33.8331 15.17 34.3317 15.17C34.8817 15.17 35.3731 15.2947 35.8057 15.544C36.2457 15.786 36.5904 16.127 36.8397 16.567C37.0891 17.007 37.2137 17.5203 37.2137 18.107C37.2137 18.6863 37.0891 19.1997 36.8397 19.647C36.5904 20.087 36.2457 20.4317 35.8057 20.681C35.3731 20.9303 34.8817 21.055 34.3317 21.055ZM31.3507 21V12.838H32.1317V16.93L32.0217 18.096L32.0987 19.262V21H31.3507ZM34.2767 20.362C34.6874 20.362 35.0541 20.2703 35.3767 20.087C35.6994 19.8963 35.9561 19.6323 36.1467 19.295C36.3374 18.9503 36.4327 18.5543 36.4327 18.107C36.4327 17.6523 36.3374 17.2563 36.1467 16.919C35.9561 16.5817 35.6994 16.3213 35.3767 16.138C35.0541 15.9473 34.6874 15.852 34.2767 15.852C33.8661 15.852 33.4957 15.9473 33.1657 16.138C32.8431 16.3213 32.5864 16.5817 32.3957 16.919C32.2124 17.2563 32.1207 17.6523 32.1207 18.107C32.1207 18.5543 32.2124 18.9503 32.3957 19.295C32.5864 19.6323 32.8431 19.8963 33.1657 20.087C33.4957 20.2703 33.8661 20.362 34.2767 20.362Z" fill="white"/>
<path d="M12.377 11.066C11.805 11.066 11.255 10.9743 10.727 10.791C10.2063 10.6003 9.803 10.3583 9.517 10.065L9.836 9.438C10.1073 9.702 10.4703 9.92567 10.925 10.109C11.387 10.285 11.871 10.373 12.377 10.373C12.861 10.373 13.2533 10.3143 13.554 10.197C13.862 10.0723 14.0857 9.90733 14.225 9.702C14.3717 9.49667 14.445 9.26933 14.445 9.02C14.445 8.71933 14.357 8.47733 14.181 8.294C14.0123 8.11067 13.7887 7.96767 13.51 7.865C13.2313 7.755 12.9233 7.65967 12.586 7.579C12.2487 7.49833 11.9113 7.414 11.574 7.326C11.2367 7.23067 10.925 7.106 10.639 6.952C10.3603 6.798 10.133 6.59633 9.957 6.347C9.78833 6.09033 9.704 5.75667 9.704 5.346C9.704 4.96467 9.803 4.61633 10.001 4.301C10.2063 3.97833 10.518 3.72167 10.936 3.531C11.354 3.333 11.8893 3.234 12.542 3.234C12.9747 3.234 13.4037 3.29633 13.829 3.421C14.2543 3.53833 14.621 3.70333 14.929 3.916L14.654 4.565C14.324 4.345 13.972 4.18367 13.598 4.081C13.2313 3.97833 12.8757 3.927 12.531 3.927C12.069 3.927 11.6877 3.98933 11.387 4.114C11.0863 4.23867 10.8627 4.40733 10.716 4.62C10.5767 4.82533 10.507 5.06 10.507 5.324C10.507 5.62467 10.5913 5.86667 10.76 6.05C10.936 6.23333 11.1633 6.37633 11.442 6.479C11.728 6.58167 12.0397 6.67333 12.377 6.754C12.7143 6.83467 13.048 6.92267 13.378 7.018C13.7153 7.11333 14.0233 7.238 14.302 7.392C14.588 7.53867 14.8153 7.73667 14.984 7.986C15.16 8.23533 15.248 8.56167 15.248 8.965C15.248 9.339 15.1453 9.68733 14.94 10.01C14.7347 10.3253 14.4193 10.582 13.994 10.78C13.576 10.9707 13.037 11.066 12.377 11.066ZM24.0726 5.17C24.5419 5.17 24.9489 5.26167 25.2936 5.445C25.6456 5.621 25.9169 5.89233 26.1076 6.259C26.3056 6.62567 26.4046 7.08767 26.4046 7.645V11H25.6236V7.722C25.6236 7.11333 25.4769 6.655 25.1836 6.347C24.8976 6.03167 24.4906 5.874 23.9626 5.874C23.5666 5.874 23.2219 5.95833 22.9286 6.127C22.6426 6.28833 22.4189 6.52667 22.2576 6.842C22.1036 7.15 22.0266 7.524 22.0266 7.964V11H21.2456V7.722C21.2456 7.11333 21.0989 6.655 20.8056 6.347C20.5122 6.03167 20.1016 5.874 19.5736 5.874C19.1849 5.874 18.8439 5.95833 18.5506 6.127C18.2572 6.28833 18.0299 6.52667 17.8686 6.842C17.7146 7.15 17.6376 7.524 17.6376 7.964V11H16.8566V5.225H17.6046V6.787L17.4836 6.512C17.6596 6.094 17.9419 5.76767 18.3306 5.533C18.7266 5.291 19.1922 5.17 19.7276 5.17C20.2922 5.17 20.7726 5.313 21.1686 5.599C21.5646 5.87767 21.8212 6.29933 21.9386 6.864L21.6306 6.743C21.7992 6.27367 22.0962 5.896 22.5216 5.61C22.9542 5.31667 23.4712 5.17 24.0726 5.17ZM32.1416 11V9.724L32.1086 9.515V7.381C32.1086 6.88967 31.9693 6.512 31.6906 6.248C31.4193 5.984 31.0123 5.852 30.4696 5.852C30.0956 5.852 29.7399 5.91433 29.4026 6.039C29.0653 6.16367 28.7793 6.32867 28.5446 6.534L28.1926 5.951C28.4859 5.70167 28.8379 5.511 29.2486 5.379C29.6593 5.23967 30.0919 5.17 30.5466 5.17C31.2946 5.17 31.8703 5.357 32.2736 5.731C32.6843 6.09767 32.8896 6.65867 32.8896 7.414V11H32.1416ZM30.1506 11.055C29.7179 11.055 29.3403 10.9853 29.0176 10.846C28.7023 10.6993 28.4603 10.5013 28.2916 10.252C28.1229 9.99533 28.0386 9.702 28.0386 9.372C28.0386 9.07133 28.1083 8.8 28.2476 8.558C28.3943 8.30867 28.6289 8.11067 28.9516 7.964C29.2816 7.81 29.7216 7.733 30.2716 7.733H32.2626V8.316H30.2936C29.7363 8.316 29.3476 8.415 29.1276 8.613C28.9149 8.811 28.8086 9.05667 28.8086 9.35C28.8086 9.68 28.9369 9.944 29.1936 10.142C29.4503 10.34 29.8096 10.439 30.2716 10.439C30.7116 10.439 31.0893 10.34 31.4046 10.142C31.7273 9.93667 31.9619 9.64333 32.1086 9.262L32.2846 9.801C32.1379 10.1823 31.8813 10.4867 31.5146 10.714C31.1553 10.9413 30.7006 11.055 30.1506 11.055ZM35.0109 11V5.225H35.7589V6.798L35.6819 6.523C35.8432 6.083 36.1145 5.74933 36.4959 5.522C36.8772 5.28733 37.3502 5.17 37.9149 5.17V5.929C37.8855 5.929 37.8562 5.929 37.8269 5.929C37.7975 5.92167 37.7682 5.918 37.7389 5.918C37.1302 5.918 36.6535 6.105 36.3089 6.479C35.9642 6.84567 35.7919 7.37 35.7919 8.052V11H35.0109ZM41.413 11.055C40.8704 11.055 40.4524 10.9083 40.159 10.615C39.8657 10.3217 39.719 9.90733 39.719 9.372V3.949H40.5V9.328C40.5 9.66533 40.5844 9.92567 40.753 10.109C40.929 10.2923 41.1784 10.384 41.501 10.384C41.8457 10.384 42.1317 10.285 42.359 10.087L42.634 10.648C42.48 10.7873 42.293 10.89 42.073 10.956C41.8604 11.022 41.6404 11.055 41.413 11.055ZM38.685 5.874V5.225H42.26V5.874H38.685Z" fill="white"/>
</svg>
