<svg width="104" height="48" viewBox="0 0 104 48" fill="none" xmlns="http://www.w3.org/2000/svg">
<path fill-rule="evenodd" clip-rule="evenodd" d="M5 0C2.23858 0 0 2.23858 0 5V43C0 45.7614 2.23858 48 5 48H104V0H5ZM19.454 20.582C20.51 20.9487 21.61 21.132 22.754 21.132C24.074 21.132 25.152 20.9413 25.988 20.56C26.8387 20.164 27.4693 19.6507 27.88 19.02C28.2907 18.3747 28.496 17.678 28.496 16.93C28.496 16.1233 28.32 15.4707 27.968 14.972C27.6307 14.4733 27.176 14.0773 26.604 13.784C26.0467 13.476 25.4307 13.2267 24.756 13.036C24.096 12.8453 23.4287 12.6693 22.754 12.508C22.0793 12.3467 21.456 12.1633 20.884 11.958C20.3267 11.7527 19.872 11.4667 19.52 11.1C19.1827 10.7333 19.014 10.2493 19.014 9.648C19.014 9.12 19.1533 8.65067 19.432 8.24C19.7253 7.81467 20.1727 7.47733 20.774 7.228C21.3753 6.97867 22.138 6.854 23.062 6.854C23.7513 6.854 24.4627 6.95667 25.196 7.162C25.944 7.36733 26.648 7.69 27.308 8.13L27.858 6.832C27.242 6.40667 26.5087 6.07667 25.658 5.842C24.8073 5.59267 23.9493 5.468 23.084 5.468C21.7787 5.468 20.708 5.666 19.872 6.062C19.036 6.44333 18.4127 6.95667 18.002 7.602C17.606 8.23267 17.408 8.92933 17.408 9.692C17.408 10.5133 17.5767 11.1807 17.914 11.694C18.266 12.1927 18.7207 12.596 19.278 12.904C19.85 13.212 20.4733 13.4613 21.148 13.652C21.8227 13.828 22.4973 13.9967 23.172 14.158C23.8467 14.3193 24.4627 14.51 25.02 14.73C25.5773 14.9353 26.0247 15.2213 26.362 15.588C26.714 15.9547 26.89 16.4387 26.89 17.04C26.89 17.5387 26.7433 17.9933 26.45 18.404C26.1713 18.8147 25.724 19.1447 25.108 19.394C24.5067 19.6287 23.722 19.746 22.754 19.746C21.742 19.746 20.774 19.57 19.85 19.218C18.9407 18.8513 18.2147 18.404 17.672 17.876L17.034 19.13C17.606 19.7167 18.4127 20.2007 19.454 20.582ZM48.5872 9.89C47.8978 9.52333 47.0838 9.34 46.1452 9.34C44.9425 9.34 43.9085 9.63333 43.0432 10.22C42.4189 10.6397 41.9329 11.1582 41.5851 11.7754C41.3038 11.1113 40.8879 10.5855 40.3372 10.198C39.5452 9.626 38.5845 9.34 37.4552 9.34C36.3845 9.34 35.4532 9.582 34.6612 10.066C34.0424 10.4396 33.5584 10.9293 33.2092 11.5352V9.45H31.7132V21H33.2752V14.928C33.2752 14.048 33.4292 13.3 33.7372 12.684C34.0598 12.0533 34.5145 11.5767 35.1012 11.254C35.6878 10.9167 36.3698 10.748 37.1472 10.748C38.2032 10.748 39.0245 11.0633 39.6112 11.694C40.1978 12.31 40.4912 13.2267 40.4912 14.444V21H42.0532V14.928C42.0532 14.048 42.2072 13.3 42.5152 12.684C42.8378 12.0533 43.2852 11.5767 43.8572 11.254C44.4438 10.9167 45.1332 10.748 45.9252 10.748C46.9812 10.748 47.7952 11.0633 48.3672 11.694C48.9538 12.31 49.2472 13.2267 49.2472 14.444V21H50.8092V14.29C50.8092 13.1753 50.6112 12.2513 50.2152 11.518C49.8338 10.7847 49.2912 10.242 48.5872 9.89ZM62.2832 21V19.1866C61.9824 19.6824 61.5643 20.0962 61.0292 20.428C60.3105 20.8827 59.4012 21.11 58.3012 21.11C57.4359 21.11 56.6805 20.9707 56.0352 20.692C55.4045 20.3987 54.9205 20.0027 54.5832 19.504C54.2459 18.9907 54.0772 18.404 54.0772 17.744C54.0772 17.1427 54.2165 16.6 54.4952 16.116C54.7885 15.6173 55.2579 15.2213 55.9032 14.928C56.5632 14.62 57.4432 14.466 58.5432 14.466H62.2172V13.762C62.2172 12.7793 61.9385 12.024 61.3812 11.496C60.8385 10.968 60.0245 10.704 58.9392 10.704C58.1912 10.704 57.4799 10.8287 56.8052 11.078C56.1305 11.3273 55.5585 11.6573 55.0892 12.068L54.3852 10.902C54.9719 10.4033 55.6759 10.022 56.4972 9.758C57.3185 9.47933 58.1839 9.34 59.0932 9.34C60.5892 9.34 61.7405 9.714 62.5472 10.462C63.3685 11.1953 63.7792 12.3173 63.7792 13.828V21H62.2832ZM62.2172 15.632V17.524C61.9239 18.2867 61.4545 18.8733 60.8092 19.284C60.1785 19.68 59.4232 19.878 58.5432 19.878C57.6192 19.878 56.9005 19.68 56.3872 19.284C55.8739 18.888 55.6172 18.36 55.6172 17.7C55.6172 17.1133 55.8299 16.622 56.2552 16.226C56.6952 15.83 57.4725 15.632 58.5872 15.632H62.2172ZM68.0218 21V9.45H69.5178V11.6771C69.8482 10.9772 70.3395 10.4328 70.9918 10.044C71.7544 9.57467 72.7004 9.34 73.8298 9.34V10.858H73.6537C73.5951 10.8433 73.5364 10.836 73.4778 10.836C72.2604 10.836 71.3071 11.21 70.6178 11.958C69.9284 12.6913 69.5837 13.74 69.5837 15.104V21H68.0218ZM77.4381 9.45V6.898H79.0001V9.45H82.5201V10.748H79.0001V17.656C79.0001 18.3307 79.1688 18.8513 79.5061 19.218C79.8581 19.5847 80.3568 19.768 81.0021 19.768C81.6914 19.768 82.2634 19.57 82.7181 19.174L83.2681 20.296C82.9601 20.5747 82.5861 20.78 82.1461 20.912C81.7208 21.044 81.2808 21.11 80.8261 21.11C79.7408 21.11 78.9048 20.8167 78.3181 20.23C77.7314 19.6433 77.4381 18.8147 77.4381 17.744V10.748H75.3701V9.45H77.4381ZM65.9354 41.428C66.7421 41.8827 67.6514 42.11 68.6634 42.11C69.7634 42.11 70.7461 41.8607 71.6114 41.362C72.4914 40.8633 73.1808 40.174 73.6794 39.294C74.1781 38.3993 74.4274 37.3727 74.4274 36.214C74.4274 35.0407 74.1781 34.014 73.6794 33.134C73.1808 32.254 72.4914 31.572 71.6114 31.088C70.7461 30.5893 69.7634 30.34 68.6634 30.34C67.6661 30.34 66.7641 30.5673 65.9574 31.022C65.2785 31.4047 64.7138 31.938 64.2634 32.622V25.676H62.7014V42H64.1974V39.7115C64.6461 40.4428 65.2254 41.0149 65.9354 41.428ZM70.7534 40.174C70.1081 40.5407 69.3748 40.724 68.5534 40.724C67.7321 40.724 66.9914 40.5407 66.3314 40.174C65.6861 39.7927 65.1728 39.2647 64.7914 38.59C64.4248 37.9007 64.2414 37.1087 64.2414 36.214C64.2414 35.3047 64.4248 34.5127 64.7914 33.838C65.1728 33.1633 65.6861 32.6427 66.3314 32.276C66.9914 31.8947 67.7321 31.704 68.5534 31.704C69.3748 31.704 70.1081 31.8947 70.7534 32.276C71.3988 32.6427 71.9121 33.1633 72.2934 33.838C72.6748 34.5127 72.8654 35.3047 72.8654 36.214C72.8654 37.1087 72.6748 37.9007 72.2934 38.59C71.9121 39.2647 71.3988 39.7927 70.7534 40.174ZM54.3301 42.11C53.1274 42.11 52.0714 41.8607 51.1621 41.362C50.2528 40.8487 49.5414 40.152 49.0281 39.272C48.5148 38.3773 48.2581 37.358 48.2581 36.214C48.2581 35.07 48.5001 34.058 48.9841 33.178C49.4828 32.298 50.1574 31.6087 51.0081 31.11C51.8734 30.5967 52.8414 30.34 53.9121 30.34C54.9974 30.34 55.9581 30.5893 56.7941 31.088C57.6448 31.572 58.3121 32.2613 58.7961 33.156C59.2801 34.036 59.5221 35.0553 59.5221 36.214C59.5221 36.2873 59.5148 36.368 59.5001 36.456V36.698H49.791C49.8426 37.4082 50.0283 38.0462 50.3481 38.612C50.7441 39.272 51.2868 39.7927 51.9761 40.174C52.6801 40.5407 53.4794 40.724 54.3741 40.724C55.0781 40.724 55.7308 40.5993 56.3321 40.35C56.9481 40.1007 57.4761 39.7193 57.9161 39.206L58.7961 40.218C58.2828 40.834 57.6374 41.3033 56.8601 41.626C56.0974 41.9487 55.2541 42.11 54.3301 42.11ZM49.7978 35.532C49.8548 34.8848 50.0235 34.2981 50.3041 33.772C50.6561 33.112 51.1474 32.5987 51.7781 32.232C52.4088 31.8653 53.1201 31.682 53.9121 31.682C54.7188 31.682 55.4301 31.8653 56.0461 32.232C56.6621 32.5987 57.1461 33.112 57.4981 33.772C57.7957 34.2958 57.9726 34.8825 58.0286 35.532H49.7978ZM24.814 26.6L30.006 42H31.7L36.2315 28.8881L40.742 42H42.458L47.65 26.6H46.088L41.5762 39.933L37.024 26.6H35.528L30.9365 39.871L26.486 26.6H24.814Z" fill="#5D87F2"/>
</svg>
