<svg width="56" height="48" viewBox="0 0 56 48" fill="none" xmlns="http://www.w3.org/2000/svg">
<rect x="2" y="2" width="52" height="44" rx="3" stroke="#5D87F2" stroke-width="4" stroke-linejoin="round"/>
<path d="M10.34 35.2L17.6 14.476H20.064L12.804 35.2H10.34ZM26.7666 33V30.624L26.6126 30.118V25.96C26.6126 25.1533 26.3706 24.53 25.8866 24.09C25.4026 23.6353 24.6693 23.408 23.6866 23.408C23.0266 23.408 22.3739 23.5107 21.7286 23.716C21.0979 23.9213 20.5626 24.2073 20.1226 24.574L19.0446 22.572C19.6753 22.088 20.4233 21.7287 21.2886 21.494C22.1686 21.2447 23.0779 21.12 24.0166 21.12C25.7179 21.12 27.0306 21.5307 27.9546 22.352C28.8933 23.1587 29.3626 24.4127 29.3626 26.114V33H26.7666ZM23.0706 33.154C22.1906 33.154 21.4206 33.0073 20.7606 32.714C20.1006 32.406 19.5873 31.988 19.2206 31.46C18.8686 30.9173 18.6926 30.3087 18.6926 29.634C18.6926 28.974 18.8466 28.38 19.1546 27.852C19.4773 27.324 19.9979 26.906 20.7166 26.598C21.4353 26.29 22.3886 26.136 23.5766 26.136H26.9866V27.962H23.7746C22.8359 27.962 22.2053 28.116 21.8826 28.424C21.5599 28.7173 21.3986 29.084 21.3986 29.524C21.3986 30.0227 21.5966 30.4187 21.9926 30.712C22.3886 31.0053 22.9386 31.152 23.6426 31.152C24.3173 31.152 24.9186 30.998 25.4466 30.69C25.9893 30.382 26.3779 29.9273 26.6126 29.326L27.0746 30.976C26.8106 31.6653 26.3339 32.2007 25.6446 32.582C24.9699 32.9633 24.1119 33.154 23.0706 33.154ZM32.8919 33V16.676H35.6419V33H32.8919ZM39.2513 33V16.676H42.0013V33H39.2513Z" fill="#5D87F2"/>
</svg>
