<svg width="28" height="24" viewBox="0 0 28 24" fill="none" xmlns="http://www.w3.org/2000/svg">
<mask id="mask0_57_619" style="mask-type:alpha" maskUnits="userSpaceOnUse" x="0" y="0" width="19" height="24">
<rect width="19" height="24" fill="white"/>
</mask>
<g mask="url(#mask0_57_619)">
<path d="M19 0H5C3.67441 0.00158786 2.40356 0.528882 1.46622 1.46622C0.528882 2.40356 0.00158786 3.67441 0 5L0 19C0.00158786 20.3256 0.528882 21.5964 1.46622 22.5338C2.40356 23.4711 3.67441 23.9984 5 24H19C20.3256 23.9984 21.5964 23.4711 22.5338 22.5338C23.4711 21.5964 23.9984 20.3256 24 19V5C23.9984 3.67441 23.4711 2.40356 22.5338 1.46622C21.5964 0.528882 20.3256 0.00158786 19 0V0ZM22 19C22 19.7956 21.6839 20.5587 21.1213 21.1213C20.5587 21.6839 19.7956 22 19 22H5C4.20435 22 3.44129 21.6839 2.87868 21.1213C2.31607 20.5587 2 19.7956 2 19V5C2 4.20435 2.31607 3.44129 2.87868 2.87868C3.44129 2.31607 4.20435 2 5 2H19C19.7956 2 20.5587 2.31607 21.1213 2.87868C21.6839 3.44129 22 4.20435 22 5V19Z" fill="#5D87F2"/>
</g>
<mask id="mask1_57_619" style="mask-type:alpha" maskUnits="userSpaceOnUse" x="7" y="0" width="14" height="24">
<rect x="7" width="14" height="24" fill="white"/>
</mask>
<g mask="url(#mask1_57_619)">
<path d="M21 0H7C5.67441 0.00158786 4.40356 0.528882 3.46622 1.46622C2.52888 2.40356 2.00159 3.67441 2 5L2 19C2.00159 20.3256 2.52888 21.5964 3.46622 22.5338C4.40356 23.4711 5.67441 23.9984 7 24H21C22.3256 23.9984 23.5964 23.4711 24.5338 22.5338C25.4711 21.5964 25.9984 20.3256 26 19V5C25.9984 3.67441 25.4711 2.40356 24.5338 1.46622C23.5964 0.528882 22.3256 0.00158786 21 0V0ZM24 19C24 19.7956 23.6839 20.5587 23.1213 21.1213C22.5587 21.6839 21.7956 22 21 22H7C6.20435 22 5.44129 21.6839 4.87868 21.1213C4.31607 20.5587 4 19.7956 4 19V5C4 4.20435 4.31607 3.44129 4.87868 2.87868C5.44129 2.31607 6.20435 2 7 2H21C21.7956 2 22.5587 2.31607 23.1213 2.87868C23.6839 3.44129 24 4.20435 24 5V19Z" fill="#5D87F2"/>
</g>
<mask id="mask2_57_619" style="mask-type:alpha" maskUnits="userSpaceOnUse" x="9" y="0" width="19" height="24">
<rect width="19" height="24" transform="matrix(-1 0 0 1 28 0)" fill="white"/>
</mask>
<g mask="url(#mask2_57_619)">
<path d="M9 0H23C24.3256 0.00158786 25.5964 0.528882 26.5338 1.46622C27.4711 2.40356 27.9984 3.67441 28 5V19C27.9984 20.3256 27.4711 21.5964 26.5338 22.5338C25.5964 23.4711 24.3256 23.9984 23 24H9C7.6744 23.9984 6.40356 23.4711 5.46622 22.5338C4.52888 21.5964 4.00159 20.3256 4 19V5C4.00159 3.67441 4.52888 2.40356 5.46622 1.46622C6.40356 0.528882 7.6744 0.00158786 9 0V0ZM6 19C6 19.7956 6.31607 20.5587 6.87868 21.1213C7.44129 21.6839 8.20435 22 9 22H23C23.7956 22 24.5587 21.6839 25.1213 21.1213C25.6839 20.5587 26 19.7956 26 19V5C26 4.20435 25.6839 3.44129 25.1213 2.87868C24.5587 2.31607 23.7956 2 23 2H9C8.20435 2 7.44129 2.31607 6.87868 2.87868C6.31607 3.44129 6 4.20435 6 5V19Z" fill="#5D87F2"/>
</g>
<path d="M5.67 17.1L9.3 6.738H10.532L6.902 17.1H5.67ZM13.8833 16V14.812L13.8063 14.559V12.48C13.8063 12.0767 13.6853 11.765 13.4433 11.545C13.2013 11.3177 12.8346 11.204 12.3433 11.204C12.0133 11.204 11.687 11.2553 11.3643 11.358C11.049 11.4607 10.7813 11.6037 10.5613 11.787L10.0223 10.786C10.3376 10.544 10.7116 10.3643 11.1443 10.247C11.5843 10.1223 12.039 10.06 12.5083 10.06C13.359 10.06 14.0153 10.2653 14.4773 10.676C14.9466 11.0793 15.1813 11.7063 15.1813 12.557V16H13.8833ZM12.0353 16.077C11.5953 16.077 11.2103 16.0037 10.8803 15.857C10.5503 15.703 10.2936 15.494 10.1103 15.23C9.9343 14.9587 9.8463 14.6543 9.8463 14.317C9.8463 13.987 9.9233 13.69 10.0773 13.426C10.2386 13.162 10.499 12.953 10.8583 12.799C11.2176 12.645 11.6943 12.568 12.2883 12.568H13.9933V13.481H12.3873C11.918 13.481 11.6026 13.558 11.4413 13.712C11.28 13.8587 11.1993 14.042 11.1993 14.262C11.1993 14.5113 11.2983 14.7093 11.4963 14.856C11.6943 15.0027 11.9693 15.076 12.3213 15.076C12.6586 15.076 12.9593 14.999 13.2233 14.845C13.4946 14.691 13.689 14.4637 13.8063 14.163L14.0373 14.988C13.9053 15.3327 13.667 15.6003 13.3223 15.791C12.985 15.9817 12.556 16.077 12.0353 16.077ZM16.9459 16V7.838H18.3209V16H16.9459ZM20.1256 16V7.838H21.5006V16H20.1256Z" fill="#5D87F2"/>
</svg>
