<svg width="73" height="24" viewBox="0 0 73 24" fill="none" xmlns="http://www.w3.org/2000/svg">
<mask id="mask0_57_546" style="mask-type:alpha" maskUnits="userSpaceOnUse" x="0" y="0" width="19" height="24">
<rect width="19" height="24" fill="white"/>
</mask>
<g mask="url(#mask0_57_546)">
<path d="M19 0H5C3.67441 0.00158786 2.40356 0.528882 1.46622 1.46622C0.528882 2.40356 0.00158786 3.67441 0 5L0 19C0.00158786 20.3256 0.528882 21.5964 1.46622 22.5338C2.40356 23.4711 3.67441 23.9984 5 24H19C20.3256 23.9984 21.5964 23.4711 22.5338 22.5338C23.4711 21.5964 23.9984 20.3256 24 19V5C23.9984 3.67441 23.4711 2.40356 22.5338 1.46622C21.5964 0.528882 20.3256 0.00158786 19 0V0ZM22 19C22 19.7956 21.6839 20.5587 21.1213 21.1213C20.5587 21.6839 19.7956 22 19 22H5C4.20435 22 3.44129 21.6839 2.87868 21.1213C2.31607 20.5587 2 19.7956 2 19V5C2 4.20435 2.31607 3.44129 2.87868 2.87868C3.44129 2.31607 4.20435 2 5 2H19C19.7956 2 20.5587 2.31607 21.1213 2.87868C21.6839 3.44129 22 4.20435 22 5V19Z" fill="#5D87F2"/>
</g>
<mask id="mask1_57_546" style="mask-type:alpha" maskUnits="userSpaceOnUse" x="19" y="0" width="14" height="24">
<rect x="19" width="14" height="24" fill="white"/>
</mask>
<g mask="url(#mask1_57_546)">
<path d="M33 0H19C17.6744 0.00158786 16.4036 0.528882 15.4662 1.46622C14.5289 2.40356 14.0016 3.67441 14 5L14 19C14.0016 20.3256 14.5289 21.5964 15.4662 22.5338C16.4036 23.4711 17.6744 23.9984 19 24H33C34.3256 23.9984 35.5964 23.4711 36.5338 22.5338C37.4711 21.5964 37.9984 20.3256 38 19V5C37.9984 3.67441 37.4711 2.40356 36.5338 1.46622C35.5964 0.528882 34.3256 0.00158786 33 0V0ZM36 19C36 19.7956 35.6839 20.5587 35.1213 21.1213C34.5587 21.6839 33.7956 22 33 22H19C18.2044 22 17.4413 21.6839 16.8787 21.1213C16.3161 20.5587 16 19.7956 16 19V5C16 4.20435 16.3161 3.44129 16.8787 2.87868C17.4413 2.31607 18.2044 2 19 2H33C33.7956 2 34.5587 2.31607 35.1213 2.87868C35.6839 3.44129 36 4.20435 36 5V19Z" fill="#5D87F2"/>
</g>
<mask id="mask2_57_546" style="mask-type:alpha" maskUnits="userSpaceOnUse" x="33" y="0" width="14" height="24">
<rect x="33" width="14" height="24" fill="white"/>
</mask>
<g mask="url(#mask2_57_546)">
<path d="M47 0H33C31.6744 0.00158786 30.4036 0.528882 29.4662 1.46622C28.5289 2.40356 28.0016 3.67441 28 5V19C28.0016 20.3256 28.5289 21.5964 29.4662 22.5338C30.4036 23.4711 31.6744 23.9984 33 24H47C48.3256 23.9984 49.5964 23.4711 50.5338 22.5338C51.4711 21.5964 51.9984 20.3256 52 19V5C51.9984 3.67441 51.4711 2.40356 50.5338 1.46622C49.5964 0.528882 48.3256 0.00158786 47 0V0ZM50 19C50 19.7956 49.6839 20.5587 49.1213 21.1213C48.5587 21.6839 47.7956 22 47 22H33C32.2044 22 31.4413 21.6839 30.8787 21.1213C30.3161 20.5587 30 19.7956 30 19V5C30 4.20435 30.3161 3.44129 30.8787 2.87868C31.4413 2.31607 32.2044 2 33 2H47C47.7956 2 48.5587 2.31607 49.1213 2.87868C49.6839 3.44129 50 4.20435 50 5V19Z" fill="#5D87F2"/>
</g>
<mask id="mask3_57_546" style="mask-type:alpha" maskUnits="userSpaceOnUse" x="40" y="0" width="14" height="24">
<rect x="40" width="14" height="24" fill="white"/>
</mask>
<g mask="url(#mask3_57_546)">
<path d="M54 0H40C38.6744 0.00158786 37.4036 0.528882 36.4662 1.46622C35.5289 2.40356 35.0016 3.67441 35 5V19C35.0016 20.3256 35.5289 21.5964 36.4662 22.5338C37.4036 23.4711 38.6744 23.9984 40 24H54C55.3256 23.9984 56.5964 23.4711 57.5338 22.5338C58.4711 21.5964 58.9984 20.3256 59 19V5C58.9984 3.67441 58.4711 2.40356 57.5338 1.46622C56.5964 0.528882 55.3256 0.00158786 54 0V0ZM57 19C57 19.7956 56.6839 20.5587 56.1213 21.1213C55.5587 21.6839 54.7956 22 54 22H40C39.2044 22 38.4413 21.6839 37.8787 21.1213C37.3161 20.5587 37 19.7956 37 19V5C37 4.20435 37.3161 3.44129 37.8787 2.87868C38.4413 2.31607 39.2044 2 40 2H54C54.7956 2 55.5587 2.31607 56.1213 2.87868C56.6839 3.44129 57 4.20435 57 5V19Z" fill="#5D87F2"/>
</g>
<mask id="mask4_57_546" style="mask-type:alpha" maskUnits="userSpaceOnUse" x="54" y="0" width="19" height="24">
<rect width="19" height="24" transform="matrix(-1 0 0 1 73 0)" fill="white"/>
</mask>
<g mask="url(#mask4_57_546)">
<path d="M54 0H68C69.3256 0.00158786 70.5964 0.528882 71.5338 1.46622C72.4711 2.40356 72.9984 3.67441 73 5V19C72.9984 20.3256 72.4711 21.5964 71.5338 22.5338C70.5964 23.4711 69.3256 23.9984 68 24H54C52.6744 23.9984 51.4036 23.4711 50.4662 22.5338C49.5289 21.5964 49.0016 20.3256 49 19V5C49.0016 3.67441 49.5289 2.40356 50.4662 1.46622C51.4036 0.528882 52.6744 0.00158786 54 0V0ZM51 19C51 19.7956 51.3161 20.5587 51.8787 21.1213C52.4413 21.6839 53.2044 22 54 22H68C68.7956 22 69.5587 21.6839 70.1213 21.1213C70.6839 20.5587 71 19.7956 71 19V5C71 4.20435 70.6839 3.44129 70.1213 2.87868C69.5587 2.31607 68.7956 2 68 2H54C53.2044 2 52.4413 2.31607 51.8787 2.87868C51.3161 3.44129 51 4.20435 51 5V19Z" fill="#5D87F2"/>
</g>
<path d="M3.67 17.1L7.3 6.738H8.532L4.902 17.1H3.67ZM10.9593 16.077C10.3433 16.077 9.7933 15.9487 9.3093 15.692C8.83264 15.428 8.45864 15.0687 8.1873 14.614C7.91597 14.1593 7.7803 13.6423 7.7803 13.063C7.7803 12.4763 7.91597 11.9593 8.1873 11.512C8.45864 11.0573 8.83264 10.7017 9.3093 10.445C9.7933 10.1883 10.3433 10.06 10.9593 10.06C11.5313 10.06 12.0336 10.1773 12.4663 10.412C12.9063 10.6393 13.24 10.9767 13.4673 11.424L12.4113 12.04C12.2353 11.7613 12.019 11.556 11.7623 11.424C11.513 11.292 11.2416 11.226 10.9483 11.226C10.611 11.226 10.3066 11.2993 10.0353 11.446C9.76397 11.5927 9.5513 11.8053 9.3973 12.084C9.2433 12.3553 9.1663 12.6817 9.1663 13.063C9.1663 13.4443 9.2433 13.7743 9.3973 14.053C9.5513 14.3243 9.76397 14.5333 10.0353 14.68C10.3066 14.8267 10.611 14.9 10.9483 14.9C11.2416 14.9 11.513 14.834 11.7623 14.702C12.019 14.57 12.2353 14.3647 12.4113 14.086L13.4673 14.702C13.24 15.142 12.9063 15.483 12.4663 15.725C12.0336 15.9597 11.5313 16.077 10.9593 16.077ZM17.21 16.077C16.6086 16.077 16.0733 15.9487 15.604 15.692C15.1346 15.428 14.7643 15.0687 14.493 14.614C14.2216 14.1593 14.086 13.6423 14.086 13.063C14.086 12.4763 14.2216 11.9593 14.493 11.512C14.7643 11.0573 15.1346 10.7017 15.604 10.445C16.0733 10.1883 16.6086 10.06 17.21 10.06C17.8186 10.06 18.3576 10.1883 18.827 10.445C19.3036 10.7017 19.674 11.0537 19.938 11.501C20.2093 11.9483 20.345 12.469 20.345 13.063C20.345 13.6423 20.2093 14.1593 19.938 14.614C19.674 15.0687 19.3036 15.428 18.827 15.692C18.3576 15.9487 17.8186 16.077 17.21 16.077ZM17.21 14.9C17.5473 14.9 17.848 14.8267 18.112 14.68C18.376 14.5333 18.5813 14.3207 18.728 14.042C18.882 13.7633 18.959 13.437 18.959 13.063C18.959 12.6817 18.882 12.3553 18.728 12.084C18.5813 11.8053 18.376 11.5927 18.112 11.446C17.848 11.2993 17.551 11.226 17.221 11.226C16.8836 11.226 16.583 11.2993 16.319 11.446C16.0623 11.5927 15.857 11.8053 15.703 12.084C15.549 12.3553 15.472 12.6817 15.472 13.063C15.472 13.437 15.549 13.7633 15.703 14.042C15.857 14.3207 16.0623 14.5333 16.319 14.68C16.583 14.8267 16.88 14.9 17.21 14.9ZM21.6598 16V7.838H23.0348V16H21.6598ZM24.8395 16V7.838H26.2145V16H24.8395ZM30.7802 16.077C30.1275 16.077 29.5555 15.9487 29.0642 15.692C28.5802 15.428 28.2025 15.0687 27.9312 14.614C27.6672 14.1593 27.5352 13.6423 27.5352 13.063C27.5352 12.4763 27.6635 11.9593 27.9202 11.512C28.1842 11.0573 28.5435 10.7017 28.9982 10.445C29.4602 10.1883 29.9845 10.06 30.5712 10.06C31.1432 10.06 31.6529 10.1847 32.1002 10.434C32.5475 10.6833 32.8995 11.0353 33.1562 11.49C33.4129 11.9447 33.5412 12.48 33.5412 13.096C33.5412 13.1547 33.5375 13.2207 33.5302 13.294C33.5302 13.3673 33.5265 13.437 33.5192 13.503H28.6242V12.59H32.7932L32.2542 12.876C32.2615 12.5387 32.1919 12.2417 32.0452 11.985C31.8985 11.7283 31.6969 11.5267 31.4402 11.38C31.1909 11.2333 30.9012 11.16 30.5712 11.16C30.2339 11.16 29.9369 11.2333 29.6802 11.38C29.4309 11.5267 29.2329 11.732 29.0862 11.996C28.9469 12.2527 28.8772 12.557 28.8772 12.909V13.129C28.8772 13.481 28.9579 13.7927 29.1192 14.064C29.2805 14.3353 29.5079 14.5443 29.8012 14.691C30.0945 14.8377 30.4319 14.911 30.8132 14.911C31.1432 14.911 31.4402 14.8597 31.7042 14.757C31.9682 14.6543 32.2029 14.493 32.4082 14.273L33.1452 15.12C32.8812 15.428 32.5475 15.6663 32.1442 15.835C31.7482 15.9963 31.2935 16.077 30.7802 16.077ZM37.557 16.077C36.941 16.077 36.391 15.9487 35.907 15.692C35.4303 15.428 35.0563 15.0687 34.785 14.614C34.5136 14.1593 34.378 13.6423 34.378 13.063C34.378 12.4763 34.5136 11.9593 34.785 11.512C35.0563 11.0573 35.4303 10.7017 35.907 10.445C36.391 10.1883 36.941 10.06 37.557 10.06C38.129 10.06 38.6313 10.1773 39.064 10.412C39.504 10.6393 39.8376 10.9767 40.065 11.424L39.009 12.04C38.833 11.7613 38.6166 11.556 38.36 11.424C38.1106 11.292 37.8393 11.226 37.546 11.226C37.2086 11.226 36.9043 11.2993 36.633 11.446C36.3616 11.5927 36.149 11.8053 35.995 12.084C35.841 12.3553 35.764 12.6817 35.764 13.063C35.764 13.4443 35.841 13.7743 35.995 14.053C36.149 14.3243 36.3616 14.5333 36.633 14.68C36.9043 14.8267 37.2086 14.9 37.546 14.9C37.8393 14.9 38.1106 14.834 38.36 14.702C38.6166 14.57 38.833 14.3647 39.009 14.086L40.065 14.702C39.8376 15.142 39.504 15.483 39.064 15.725C38.6313 15.9597 38.129 16.077 37.557 16.077ZM43.5398 16.077C42.8944 16.077 42.3958 15.912 42.0438 15.582C41.6918 15.2447 41.5158 14.7497 41.5158 14.097V8.828H42.8908V14.064C42.8908 14.3427 42.9604 14.559 43.0998 14.713C43.2464 14.867 43.4481 14.944 43.7048 14.944C44.0128 14.944 44.2694 14.8633 44.4748 14.702L44.8598 15.681C44.6984 15.813 44.5004 15.912 44.2658 15.978C44.0311 16.044 43.7891 16.077 43.5398 16.077ZM40.5478 11.27V10.17H44.4638V11.27H40.5478ZM45.9909 16V10.126H47.3659V16H45.9909ZM46.6839 9.158C46.4272 9.158 46.2145 9.07733 46.0459 8.916C45.8845 8.75467 45.8039 8.56033 45.8039 8.333C45.8039 8.09833 45.8845 7.904 46.0459 7.75C46.2145 7.58867 46.4272 7.508 46.6839 7.508C46.9405 7.508 47.1495 7.585 47.3109 7.739C47.4795 7.88567 47.5639 8.07267 47.5639 8.3C47.5639 8.542 47.4832 8.74733 47.3219 8.916C47.1605 9.07733 46.9479 9.158 46.6839 9.158ZM51.8106 16.077C51.2092 16.077 50.6739 15.9487 50.2046 15.692C49.7352 15.428 49.3649 15.0687 49.0936 14.614C48.8222 14.1593 48.6866 13.6423 48.6866 13.063C48.6866 12.4763 48.8222 11.9593 49.0936 11.512C49.3649 11.0573 49.7352 10.7017 50.2046 10.445C50.6739 10.1883 51.2092 10.06 51.8106 10.06C52.4192 10.06 52.9582 10.1883 53.4276 10.445C53.9042 10.7017 54.2746 11.0537 54.5386 11.501C54.8099 11.9483 54.9456 12.469 54.9456 13.063C54.9456 13.6423 54.8099 14.1593 54.5386 14.614C54.2746 15.0687 53.9042 15.428 53.4276 15.692C52.9582 15.9487 52.4192 16.077 51.8106 16.077ZM51.8106 14.9C52.1479 14.9 52.4486 14.8267 52.7126 14.68C52.9766 14.5333 53.1819 14.3207 53.3286 14.042C53.4826 13.7633 53.5596 13.437 53.5596 13.063C53.5596 12.6817 53.4826 12.3553 53.3286 12.084C53.1819 11.8053 52.9766 11.5927 52.7126 11.446C52.4486 11.2993 52.1516 11.226 51.8216 11.226C51.4842 11.226 51.1836 11.2993 50.9196 11.446C50.6629 11.5927 50.4576 11.8053 50.3036 12.084C50.1496 12.3553 50.0726 12.6817 50.0726 13.063C50.0726 13.437 50.1496 13.7633 50.3036 14.042C50.4576 14.3207 50.6629 14.5333 50.9196 14.68C51.1836 14.8267 51.4806 14.9 51.8106 14.9ZM59.5934 10.06C60.0627 10.06 60.4807 10.1517 60.8474 10.335C61.2214 10.5183 61.5147 10.8007 61.7274 11.182C61.9401 11.556 62.0464 12.04 62.0464 12.634V16H60.6714V12.81C60.6714 12.2893 60.5467 11.9007 60.2974 11.644C60.0554 11.3873 59.7144 11.259 59.2744 11.259C58.9517 11.259 58.6657 11.325 58.4164 11.457C58.1671 11.589 57.9727 11.787 57.8334 12.051C57.7014 12.3077 57.6354 12.634 57.6354 13.03V16H56.2604V10.126H57.5694V11.71L57.3384 11.226C57.5437 10.852 57.8407 10.566 58.2294 10.368C58.6254 10.1627 59.0801 10.06 59.5934 10.06ZM65.6057 16.077C65.1143 16.077 64.6413 16.0147 64.1867 15.89C63.7393 15.758 63.3837 15.6003 63.1197 15.417L63.6477 14.372C63.9117 14.5407 64.227 14.68 64.5937 14.79C64.9603 14.9 65.327 14.955 65.6937 14.955C66.1263 14.955 66.438 14.8963 66.6287 14.779C66.8267 14.6617 66.9257 14.504 66.9257 14.306C66.9257 14.1447 66.8597 14.0237 66.7277 13.943C66.5957 13.855 66.4233 13.789 66.2107 13.745C65.998 13.701 65.7597 13.6607 65.4957 13.624C65.239 13.5873 64.9787 13.5397 64.7147 13.481C64.458 13.415 64.2233 13.3233 64.0107 13.206C63.798 13.0813 63.6257 12.9163 63.4937 12.711C63.3617 12.5057 63.2957 12.2343 63.2957 11.897C63.2957 11.523 63.402 11.2003 63.6147 10.929C63.8273 10.6503 64.1243 10.4377 64.5057 10.291C64.8943 10.137 65.3527 10.06 65.8807 10.06C66.2767 10.06 66.6763 10.104 67.0797 10.192C67.483 10.28 67.8167 10.4047 68.0807 10.566L67.5527 11.611C67.274 11.4423 66.9917 11.3287 66.7057 11.27C66.427 11.204 66.1483 11.171 65.8697 11.171C65.4517 11.171 65.14 11.2333 64.9347 11.358C64.7367 11.4827 64.6377 11.6403 64.6377 11.831C64.6377 12.007 64.7037 12.139 64.8357 12.227C64.9677 12.315 65.14 12.3847 65.3527 12.436C65.5653 12.4873 65.8 12.5313 66.0567 12.568C66.3207 12.5973 66.581 12.645 66.8377 12.711C67.0943 12.777 67.329 12.8687 67.5417 12.986C67.7617 13.096 67.9377 13.2537 68.0697 13.459C68.2017 13.6643 68.2677 13.932 68.2677 14.262C68.2677 14.6287 68.1577 14.9477 67.9377 15.219C67.725 15.4903 67.4207 15.703 67.0247 15.857C66.6287 16.0037 66.1557 16.077 65.6057 16.077Z" fill="#5D87F2"/>
</svg>
