<svg width="76" height="48" viewBox="0 0 76 48" fill="none" xmlns="http://www.w3.org/2000/svg">
<rect x="2" y="2" width="72" height="44" rx="3" stroke="#5D87F2" stroke-width="4" stroke-linejoin="round"/>
<path d="M10.34 35.2L17.6 14.476H20.064L12.804 35.2H10.34ZM21.3421 33V20.592C21.3421 19.36 21.7014 18.3773 22.4201 17.644C23.1534 16.896 24.1947 16.522 25.5441 16.522C26.0281 16.522 26.4827 16.5733 26.9081 16.676C27.3481 16.7787 27.7147 16.94 28.0081 17.16L27.2601 19.228C27.0547 19.0667 26.8201 18.9493 26.5561 18.876C26.2921 18.788 26.0207 18.744 25.7421 18.744C25.1701 18.744 24.7374 18.9053 24.4441 19.228C24.1507 19.536 24.0041 20.0053 24.0041 20.636V21.956L24.0921 23.188V33H21.3421ZM19.4061 23.54V21.34H27.2381V23.54H19.4061ZM29.1106 33V21.252H31.7286V24.486L31.4206 23.54C31.7726 22.748 32.3226 22.1467 33.0706 21.736C33.8333 21.3253 34.7793 21.12 35.9086 21.12V23.738C35.7913 23.7087 35.6813 23.694 35.5786 23.694C35.476 23.6793 35.3733 23.672 35.2706 23.672C34.2293 23.672 33.4006 23.98 32.7846 24.596C32.1686 25.1973 31.8606 26.0993 31.8606 27.302V33H29.1106ZM43.6561 33.154C42.3507 33.154 41.2067 32.8973 40.2241 32.384C39.2561 31.856 38.5007 31.1373 37.9581 30.228C37.4301 29.3187 37.1661 28.2847 37.1661 27.126C37.1661 25.9527 37.4227 24.9187 37.9361 24.024C38.4641 23.1147 39.1827 22.4033 40.0921 21.89C41.0161 21.3767 42.0647 21.12 43.2381 21.12C44.3821 21.12 45.4014 21.3693 46.2961 21.868C47.1907 22.3667 47.8947 23.0707 48.4081 23.98C48.9214 24.8893 49.1781 25.96 49.1781 27.192C49.1781 27.3093 49.1707 27.4413 49.1561 27.588C49.1561 27.7347 49.1487 27.874 49.1341 28.006H39.3441V26.18H47.6821L46.6041 26.752C46.6187 26.0773 46.4794 25.4833 46.1861 24.97C45.8927 24.4567 45.4894 24.0533 44.9761 23.76C44.4774 23.4667 43.8981 23.32 43.2381 23.32C42.5634 23.32 41.9694 23.4667 41.4561 23.76C40.9574 24.0533 40.5614 24.464 40.2681 24.992C39.9894 25.5053 39.8501 26.114 39.8501 26.818V27.258C39.8501 27.962 40.0114 28.5853 40.3341 29.128C40.6567 29.6707 41.1114 30.0887 41.6981 30.382C42.2847 30.6753 42.9594 30.822 43.7221 30.822C44.3821 30.822 44.9761 30.7193 45.5041 30.514C46.0321 30.3087 46.5014 29.986 46.9121 29.546L48.3861 31.24C47.8581 31.856 47.1907 32.3327 46.3841 32.67C45.5921 32.9927 44.6827 33.154 43.6561 33.154ZM57.3416 33.154C56.0363 33.154 54.8923 32.8973 53.9096 32.384C52.9416 31.856 52.1863 31.1373 51.6436 30.228C51.1156 29.3187 50.8516 28.2847 50.8516 27.126C50.8516 25.9527 51.1083 24.9187 51.6216 24.024C52.1496 23.1147 52.8683 22.4033 53.7776 21.89C54.7016 21.3767 55.7503 21.12 56.9236 21.12C58.0676 21.12 59.087 21.3693 59.9816 21.868C60.8763 22.3667 61.5803 23.0707 62.0936 23.98C62.607 24.8893 62.8636 25.96 62.8636 27.192C62.8636 27.3093 62.8563 27.4413 62.8416 27.588C62.8416 27.7347 62.8343 27.874 62.8196 28.006H53.0296V26.18H61.3676L60.2896 26.752C60.3043 26.0773 60.165 25.4833 59.8716 24.97C59.5783 24.4567 59.175 24.0533 58.6616 23.76C58.163 23.4667 57.5836 23.32 56.9236 23.32C56.249 23.32 55.655 23.4667 55.1416 23.76C54.643 24.0533 54.247 24.464 53.9536 24.992C53.675 25.5053 53.5356 26.114 53.5356 26.818V27.258C53.5356 27.962 53.697 28.5853 54.0196 29.128C54.3423 29.6707 54.797 30.0887 55.3836 30.382C55.9703 30.6753 56.645 30.822 57.4076 30.822C58.0676 30.822 58.6616 30.7193 59.1896 30.514C59.7176 30.3087 60.187 29.986 60.5976 29.546L62.0716 31.24C61.5436 31.856 60.8763 32.3327 60.0696 32.67C59.2776 32.9927 58.3683 33.154 57.3416 33.154Z" fill="#5D87F2"/>
</svg>
