<svg width="38" height="24" viewBox="0 0 38 24" fill="none" xmlns="http://www.w3.org/2000/svg">
<mask id="mask0_57_581" style="mask-type:alpha" maskUnits="userSpaceOnUse" x="0" y="0" width="19" height="24">
<rect width="19" height="24" fill="white"/>
</mask>
<g mask="url(#mask0_57_581)">
<path d="M19 0H5C3.67441 0.00158786 2.40356 0.528882 1.46622 1.46622C0.528882 2.40356 0.00158786 3.67441 0 5L0 19C0.00158786 20.3256 0.528882 21.5964 1.46622 22.5338C2.40356 23.4711 3.67441 23.9984 5 24H19C20.3256 23.9984 21.5964 23.4711 22.5338 22.5338C23.4711 21.5964 23.9984 20.3256 24 19V5C23.9984 3.67441 23.4711 2.40356 22.5338 1.46622C21.5964 0.528882 20.3256 0.00158786 19 0V0ZM22 19C22 19.7956 21.6839 20.5587 21.1213 21.1213C20.5587 21.6839 19.7956 22 19 22H5C4.20435 22 3.44129 21.6839 2.87868 21.1213C2.31607 20.5587 2 19.7956 2 19V5C2 4.20435 2.31607 3.44129 2.87868 2.87868C3.44129 2.31607 4.20435 2 5 2H19C19.7956 2 20.5587 2.31607 21.1213 2.87868C21.6839 3.44129 22 4.20435 22 5V19Z" fill="#5D87F2"/>
</g>
<mask id="mask1_57_581" style="mask-type:alpha" maskUnits="userSpaceOnUse" x="17" y="0" width="14" height="24">
<rect x="17" width="14" height="24" fill="white"/>
</mask>
<g mask="url(#mask1_57_581)">
<path d="M31 0H17C15.6744 0.00158786 14.4036 0.528882 13.4662 1.46622C12.5289 2.40356 12.0016 3.67441 12 5L12 19C12.0016 20.3256 12.5289 21.5964 13.4662 22.5338C14.4036 23.4711 15.6744 23.9984 17 24H31C32.3256 23.9984 33.5964 23.4711 34.5338 22.5338C35.4711 21.5964 35.9984 20.3256 36 19V5C35.9984 3.67441 35.4711 2.40356 34.5338 1.46622C33.5964 0.528882 32.3256 0.00158786 31 0V0ZM34 19C34 19.7956 33.6839 20.5587 33.1213 21.1213C32.5587 21.6839 31.7956 22 31 22H17C16.2044 22 15.4413 21.6839 14.8787 21.1213C14.3161 20.5587 14 19.7956 14 19V5C14 4.20435 14.3161 3.44129 14.8787 2.87868C15.4413 2.31607 16.2044 2 17 2H31C31.7956 2 32.5587 2.31607 33.1213 2.87868C33.6839 3.44129 34 4.20435 34 5V19Z" fill="#5D87F2"/>
</g>
<mask id="mask2_57_581" style="mask-type:alpha" maskUnits="userSpaceOnUse" x="19" y="0" width="19" height="24">
<rect width="19" height="24" transform="matrix(-1 0 0 1 38 0)" fill="white"/>
</mask>
<g mask="url(#mask2_57_581)">
<path d="M19 0H33C34.3256 0.00158786 35.5964 0.528882 36.5338 1.46622C37.4711 2.40356 37.9984 3.67441 38 5V19C37.9984 20.3256 37.4711 21.5964 36.5338 22.5338C35.5964 23.4711 34.3256 23.9984 33 24H19C17.6744 23.9984 16.4036 23.4711 15.4662 22.5338C14.5289 21.5964 14.0016 20.3256 14 19V5C14.0016 3.67441 14.5289 2.40356 15.4662 1.46622C16.4036 0.528882 17.6744 0.00158786 19 0V0ZM16 19C16 19.7956 16.3161 20.5587 16.8787 21.1213C17.4413 21.6839 18.2044 22 19 22H33C33.7956 22 34.5587 21.6839 35.1213 21.1213C35.6839 20.5587 36 19.7956 36 19V5C36 4.20435 35.6839 3.44129 35.1213 2.87868C34.5587 2.31607 33.7956 2 33 2H19C18.2044 2 17.4413 2.31607 16.8787 2.87868C16.3161 3.44129 16 4.20435 16 5V19Z" fill="#5D87F2"/>
</g>
<path d="M4.67 17.1L8.3 6.738H9.532L5.902 17.1H4.67ZM10.171 16V9.796C10.171 9.18 10.3507 8.68867 10.71 8.322C11.0767 7.948 11.5974 7.761 12.272 7.761C12.514 7.761 12.7414 7.78667 12.954 7.838C13.174 7.88933 13.3574 7.97 13.504 8.08L13.13 9.114C13.0274 9.03333 12.91 8.97467 12.778 8.938C12.646 8.894 12.5104 8.872 12.371 8.872C12.085 8.872 11.8687 8.95267 11.722 9.114C11.5754 9.268 11.502 9.50267 11.502 9.818V10.478L11.546 11.094V16H10.171ZM9.20303 11.27V10.17H13.119V11.27H9.20303ZM14.0553 16V10.126H15.3643V11.743L15.2103 11.27C15.3863 10.874 15.6613 10.5733 16.0353 10.368C16.4167 10.1627 16.8897 10.06 17.4543 10.06V11.369C17.3957 11.3543 17.3407 11.347 17.2893 11.347C17.238 11.3397 17.1867 11.336 17.1353 11.336C16.6147 11.336 16.2003 11.49 15.8923 11.798C15.5843 12.0987 15.4303 12.5497 15.4303 13.151V16H14.0553ZM21.328 16.077C20.6754 16.077 20.1034 15.9487 19.612 15.692C19.128 15.428 18.7504 15.0687 18.479 14.614C18.215 14.1593 18.083 13.6423 18.083 13.063C18.083 12.4763 18.2114 11.9593 18.468 11.512C18.732 11.0573 19.0914 10.7017 19.546 10.445C20.008 10.1883 20.5324 10.06 21.119 10.06C21.691 10.06 22.2007 10.1847 22.648 10.434C23.0954 10.6833 23.4474 11.0353 23.704 11.49C23.9607 11.9447 24.089 12.48 24.089 13.096C24.089 13.1547 24.0854 13.2207 24.078 13.294C24.078 13.3673 24.0744 13.437 24.067 13.503H19.172V12.59H23.341L22.802 12.876C22.8094 12.5387 22.7397 12.2417 22.593 11.985C22.4464 11.7283 22.2447 11.5267 21.988 11.38C21.7387 11.2333 21.449 11.16 21.119 11.16C20.7817 11.16 20.4847 11.2333 20.228 11.38C19.9787 11.5267 19.7807 11.732 19.634 11.996C19.4947 12.2527 19.425 12.557 19.425 12.909V13.129C19.425 13.481 19.5057 13.7927 19.667 14.064C19.8284 14.3353 20.0557 14.5443 20.349 14.691C20.6424 14.8377 20.9797 14.911 21.361 14.911C21.691 14.911 21.988 14.8597 22.252 14.757C22.516 14.6543 22.7507 14.493 22.956 14.273L23.693 15.12C23.429 15.428 23.0954 15.6663 22.692 15.835C22.296 15.9963 21.8414 16.077 21.328 16.077ZM28.1708 16.077C27.5181 16.077 26.9461 15.9487 26.4548 15.692C25.9708 15.428 25.5931 15.0687 25.3218 14.614C25.0578 14.1593 24.9258 13.6423 24.9258 13.063C24.9258 12.4763 25.0541 11.9593 25.3108 11.512C25.5748 11.0573 25.9341 10.7017 26.3888 10.445C26.8508 10.1883 27.3751 10.06 27.9618 10.06C28.5338 10.06 29.0435 10.1847 29.4908 10.434C29.9381 10.6833 30.2901 11.0353 30.5468 11.49C30.8035 11.9447 30.9318 12.48 30.9318 13.096C30.9318 13.1547 30.9281 13.2207 30.9208 13.294C30.9208 13.3673 30.9171 13.437 30.9098 13.503H26.0148V12.59H30.1838L29.6448 12.876C29.6521 12.5387 29.5825 12.2417 29.4358 11.985C29.2891 11.7283 29.0875 11.5267 28.8308 11.38C28.5815 11.2333 28.2918 11.16 27.9618 11.16C27.6245 11.16 27.3275 11.2333 27.0708 11.38C26.8215 11.5267 26.6235 11.732 26.4768 11.996C26.3375 12.2527 26.2678 12.557 26.2678 12.909V13.129C26.2678 13.481 26.3485 13.7927 26.5098 14.064C26.6711 14.3353 26.8985 14.5443 27.1918 14.691C27.4851 14.8377 27.8225 14.911 28.2038 14.911C28.5338 14.911 28.8308 14.8597 29.0948 14.757C29.3588 14.6543 29.5935 14.493 29.7988 14.273L30.5358 15.12C30.2718 15.428 29.9381 15.6663 29.5348 15.835C29.1388 15.9963 28.6841 16.077 28.1708 16.077Z" fill="#5D87F2"/>
</svg>
