<svg width="43" height="24" viewBox="0 0 43 24" fill="none" xmlns="http://www.w3.org/2000/svg">
<mask id="mask0_57_606" style="mask-type:alpha" maskUnits="userSpaceOnUse" x="0" y="0" width="19" height="24">
<rect width="19" height="24" fill="white"/>
</mask>
<g mask="url(#mask0_57_606)">
<path d="M19 0H5C3.67441 0.00158786 2.40356 0.528882 1.46622 1.46622C0.528882 2.40356 0.00158786 3.67441 0 5L0 19C0.00158786 20.3256 0.528882 21.5964 1.46622 22.5338C2.40356 23.4711 3.67441 23.9984 5 24H19C20.3256 23.9984 21.5964 23.4711 22.5338 22.5338C23.4711 21.5964 23.9984 20.3256 24 19V5C23.9984 3.67441 23.4711 2.40356 22.5338 1.46622C21.5964 0.528882 20.3256 0.00158786 19 0V0ZM22 19C22 19.7956 21.6839 20.5587 21.1213 21.1213C20.5587 21.6839 19.7956 22 19 22H5C4.20435 22 3.44129 21.6839 2.87868 21.1213C2.31607 20.5587 2 19.7956 2 19V5C2 4.20435 2.31607 3.44129 2.87868 2.87868C3.44129 2.31607 4.20435 2 5 2H19C19.7956 2 20.5587 2.31607 21.1213 2.87868C21.6839 3.44129 22 4.20435 22 5V19Z" fill="#5D87F2"/>
</g>
<mask id="mask1_57_606" style="mask-type:alpha" maskUnits="userSpaceOnUse" x="17" y="0" width="14" height="24">
<rect x="17" width="14" height="24" fill="white"/>
</mask>
<g mask="url(#mask1_57_606)">
<path d="M31 0H17C15.6744 0.00158786 14.4036 0.528882 13.4662 1.46622C12.5289 2.40356 12.0016 3.67441 12 5L12 19C12.0016 20.3256 12.5289 21.5964 13.4662 22.5338C14.4036 23.4711 15.6744 23.9984 17 24H31C32.3256 23.9984 33.5964 23.4711 34.5338 22.5338C35.4711 21.5964 35.9984 20.3256 36 19V5C35.9984 3.67441 35.4711 2.40356 34.5338 1.46622C33.5964 0.528882 32.3256 0.00158786 31 0V0ZM34 19C34 19.7956 33.6839 20.5587 33.1213 21.1213C32.5587 21.6839 31.7956 22 31 22H17C16.2044 22 15.4413 21.6839 14.8787 21.1213C14.3161 20.5587 14 19.7956 14 19V5C14 4.20435 14.3161 3.44129 14.8787 2.87868C15.4413 2.31607 16.2044 2 17 2H31C31.7956 2 32.5587 2.31607 33.1213 2.87868C33.6839 3.44129 34 4.20435 34 5V19Z" fill="#5D87F2"/>
</g>
<mask id="mask2_57_606" style="mask-type:alpha" maskUnits="userSpaceOnUse" x="24" y="0" width="19" height="24">
<rect width="19" height="24" transform="matrix(-1 0 0 1 43 0)" fill="white"/>
</mask>
<g mask="url(#mask2_57_606)">
<path d="M24 0H38C39.3256 0.00158786 40.5964 0.528882 41.5338 1.46622C42.4711 2.40356 42.9984 3.67441 43 5V19C42.9984 20.3256 42.4711 21.5964 41.5338 22.5338C40.5964 23.4711 39.3256 23.9984 38 24H24C22.6744 23.9984 21.4036 23.4711 20.4662 22.5338C19.5289 21.5964 19.0016 20.3256 19 19V5C19.0016 3.67441 19.5289 2.40356 20.4662 1.46622C21.4036 0.528882 22.6744 0.00158786 24 0V0ZM21 19C21 19.7956 21.3161 20.5587 21.8787 21.1213C22.4413 21.6839 23.2044 22 24 22H38C38.7956 22 39.5587 21.6839 40.1213 21.1213C40.6839 20.5587 41 19.7956 41 19V5C41 4.20435 40.6839 3.44129 40.1213 2.87868C39.5587 2.31607 38.7956 2 38 2H24C23.2044 2 22.4413 2.31607 21.8787 2.87868C21.3161 3.44129 21 4.20435 21 5V19Z" fill="#5D87F2"/>
</g>
<path d="M5.67 17.1L9.3 6.738H10.532L6.902 17.1H5.67ZM17.6783 10.06C18.1476 10.06 18.562 10.1517 18.9213 10.335C19.288 10.5183 19.574 10.8007 19.7793 11.182C19.9846 11.556 20.0873 12.04 20.0873 12.634V16H18.7123V12.81C18.7123 12.2893 18.5986 11.9007 18.3713 11.644C18.144 11.3873 17.8176 11.259 17.3923 11.259C17.0916 11.259 16.824 11.325 16.5893 11.457C16.362 11.589 16.1823 11.7833 16.0503 12.04C15.9256 12.2967 15.8633 12.623 15.8633 13.019V16H14.4883V12.81C14.4883 12.2893 14.3746 11.9007 14.1473 11.644C13.92 11.3873 13.5936 11.259 13.1683 11.259C12.8676 11.259 12.6 11.325 12.3653 11.457C12.138 11.589 11.9583 11.7833 11.8263 12.04C11.7016 12.2967 11.6393 12.623 11.6393 13.019V16H10.2643V10.126H11.5733V11.688L11.3423 11.226C11.5403 10.8447 11.8263 10.555 12.2003 10.357C12.5816 10.159 13.0143 10.06 13.4983 10.06C14.0483 10.06 14.525 10.1957 14.9283 10.467C15.339 10.7383 15.6103 11.149 15.7423 11.699L15.2033 11.512C15.394 11.072 15.7093 10.72 16.1493 10.456C16.5893 10.192 17.099 10.06 17.6783 10.06ZM25.4634 16V14.812L25.3864 14.559V12.48C25.3864 12.0767 25.2654 11.765 25.0234 11.545C24.7814 11.3177 24.4147 11.204 23.9234 11.204C23.5934 11.204 23.267 11.2553 22.9444 11.358C22.629 11.4607 22.3614 11.6037 22.1414 11.787L21.6024 10.786C21.9177 10.544 22.2917 10.3643 22.7244 10.247C23.1644 10.1223 23.619 10.06 24.0884 10.06C24.939 10.06 25.5954 10.2653 26.0574 10.676C26.5267 11.0793 26.7614 11.7063 26.7614 12.557V16H25.4634ZM23.6154 16.077C23.1754 16.077 22.7904 16.0037 22.4604 15.857C22.1304 15.703 21.8737 15.494 21.6904 15.23C21.5144 14.9587 21.4264 14.6543 21.4264 14.317C21.4264 13.987 21.5034 13.69 21.6574 13.426C21.8187 13.162 22.079 12.953 22.4384 12.799C22.7977 12.645 23.2744 12.568 23.8684 12.568H25.5734V13.481H23.9674C23.498 13.481 23.1827 13.558 23.0214 13.712C22.86 13.8587 22.7794 14.042 22.7794 14.262C22.7794 14.5113 22.8784 14.7093 23.0764 14.856C23.2744 15.0027 23.5494 15.076 23.9014 15.076C24.2387 15.076 24.5394 14.999 24.8034 14.845C25.0747 14.691 25.269 14.4637 25.3864 14.163L25.6174 14.988C25.4854 15.3327 25.247 15.6003 24.9024 15.791C24.565 15.9817 24.136 16.077 23.6154 16.077ZM28.526 16V10.126H29.901V16H28.526ZM29.219 9.158C28.9624 9.158 28.7497 9.07733 28.581 8.916C28.4197 8.75467 28.339 8.56033 28.339 8.333C28.339 8.09833 28.4197 7.904 28.581 7.75C28.7497 7.58867 28.9624 7.508 29.219 7.508C29.4757 7.508 29.6847 7.585 29.846 7.739C30.0147 7.88567 30.099 8.07267 30.099 8.3C30.099 8.542 30.0184 8.74733 29.857 8.916C29.6957 9.07733 29.483 9.158 29.219 9.158ZM35.0387 10.06C35.508 10.06 35.926 10.1517 36.2927 10.335C36.6667 10.5183 36.96 10.8007 37.1727 11.182C37.3854 11.556 37.4917 12.04 37.4917 12.634V16H36.1167V12.81C36.1167 12.2893 35.992 11.9007 35.7427 11.644C35.5007 11.3873 35.1597 11.259 34.7197 11.259C34.397 11.259 34.111 11.325 33.8617 11.457C33.6124 11.589 33.418 11.787 33.2787 12.051C33.1467 12.3077 33.0807 12.634 33.0807 13.03V16H31.7057V10.126H33.0147V11.71L32.7837 11.226C32.989 10.852 33.286 10.566 33.6747 10.368C34.0707 10.1627 34.5254 10.06 35.0387 10.06Z" fill="#5D87F2"/>
</svg>
