<svg width="86" height="48" viewBox="0 0 86 48" fill="none" xmlns="http://www.w3.org/2000/svg">
<rect x="2" y="2" width="82" height="44" rx="3" stroke="#5D87F2" stroke-width="4" stroke-linejoin="round"/>
<path d="M10.34 35.2L17.6 14.476H20.064L12.804 35.2H10.34ZM34.3566 21.12C35.2953 21.12 36.1239 21.3033 36.8426 21.67C37.5759 22.0367 38.1479 22.6013 38.5586 23.364C38.9693 24.112 39.1746 25.08 39.1746 26.268V33H36.4246V26.62C36.4246 25.5787 36.1973 24.8013 35.7426 24.288C35.2879 23.7747 34.6353 23.518 33.7846 23.518C33.1833 23.518 32.6479 23.65 32.1786 23.914C31.7239 24.178 31.3646 24.5667 31.1006 25.08C30.8513 25.5933 30.7266 26.246 30.7266 27.038V33H27.9766V26.62C27.9766 25.5787 27.7493 24.8013 27.2946 24.288C26.8399 23.7747 26.1873 23.518 25.3366 23.518C24.7353 23.518 24.1999 23.65 23.7306 23.914C23.2759 24.178 22.9166 24.5667 22.6526 25.08C22.4033 25.5933 22.2786 26.246 22.2786 27.038V33H19.5286V21.252H22.1466V24.376L21.6846 23.452C22.0806 22.6893 22.6526 22.11 23.4006 21.714C24.1633 21.318 25.0286 21.12 25.9966 21.12C27.0966 21.12 28.0499 21.3913 28.8566 21.934C29.6779 22.4767 30.2206 23.298 30.4846 24.398L29.4066 24.024C29.7879 23.144 30.4186 22.44 31.2986 21.912C32.1786 21.384 33.1979 21.12 34.3566 21.12ZM49.9268 33V30.624L49.7728 30.118V25.96C49.7728 25.1533 49.5308 24.53 49.0468 24.09C48.5628 23.6353 47.8294 23.408 46.8468 23.408C46.1868 23.408 45.5341 23.5107 44.8888 23.716C44.2581 23.9213 43.7228 24.2073 43.2828 24.574L42.2048 22.572C42.8354 22.088 43.5834 21.7287 44.4488 21.494C45.3288 21.2447 46.2381 21.12 47.1768 21.12C48.8781 21.12 50.1908 21.5307 51.1148 22.352C52.0534 23.1587 52.5228 24.4127 52.5228 26.114V33H49.9268ZM46.2308 33.154C45.3508 33.154 44.5808 33.0073 43.9208 32.714C43.2608 32.406 42.7474 31.988 42.3808 31.46C42.0288 30.9173 41.8528 30.3087 41.8528 29.634C41.8528 28.974 42.0068 28.38 42.3148 27.852C42.6374 27.324 43.1581 26.906 43.8768 26.598C44.5954 26.29 45.5488 26.136 46.7368 26.136H50.1468V27.962H46.9348C45.9961 27.962 45.3654 28.116 45.0428 28.424C44.7201 28.7173 44.5588 29.084 44.5588 29.524C44.5588 30.0227 44.7568 30.4187 45.1528 30.712C45.5488 31.0053 46.0988 31.152 46.8028 31.152C47.4774 31.152 48.0788 30.998 48.6068 30.69C49.1494 30.382 49.5381 29.9273 49.7728 29.326L50.2348 30.976C49.9708 31.6653 49.4941 32.2007 48.8048 32.582C48.1301 32.9633 47.2721 33.154 46.2308 33.154ZM56.052 33V21.252H58.802V33H56.052ZM57.438 19.316C56.9247 19.316 56.4994 19.1547 56.162 18.832C55.8394 18.5093 55.678 18.1207 55.678 17.666C55.678 17.1967 55.8394 16.808 56.162 16.5C56.4994 16.1773 56.9247 16.016 57.438 16.016C57.9514 16.016 58.3694 16.17 58.692 16.478C59.0294 16.7713 59.198 17.1453 59.198 17.6C59.198 18.084 59.0367 18.4947 58.714 18.832C58.3914 19.1547 57.966 19.316 57.438 19.316ZM69.0774 21.12C70.0161 21.12 70.8521 21.3033 71.5854 21.67C72.3334 22.0367 72.9201 22.6013 73.3454 23.364C73.7708 24.112 73.9834 25.08 73.9834 26.268V33H71.2334V26.62C71.2334 25.5787 70.9841 24.8013 70.4854 24.288C70.0014 23.7747 69.3194 23.518 68.4394 23.518C67.7941 23.518 67.2221 23.65 66.7234 23.914C66.2248 24.178 65.8361 24.574 65.5574 25.102C65.2934 25.6153 65.1614 26.268 65.1614 27.06V33H62.4114V21.252H65.0294V24.42L64.5674 23.452C64.9781 22.704 65.5721 22.132 66.3494 21.736C67.1414 21.3253 68.0508 21.12 69.0774 21.12Z" fill="#5D87F2"/>
</svg>
