<svg width="62" height="24" viewBox="0 0 62 24" fill="none" xmlns="http://www.w3.org/2000/svg">
<mask id="mask0_57_632" style="mask-type:alpha" maskUnits="userSpaceOnUse" x="0" y="0" width="19" height="24">
<rect width="19" height="24" fill="white"/>
</mask>
<g mask="url(#mask0_57_632)">
<path d="M19 0H5C3.67441 0.00158786 2.40356 0.528882 1.46622 1.46622C0.528882 2.40356 0.00158786 3.67441 0 5L0 19C0.00158786 20.3256 0.528882 21.5964 1.46622 22.5338C2.40356 23.4711 3.67441 23.9984 5 24H19C20.3256 23.9984 21.5964 23.4711 22.5338 22.5338C23.4711 21.5964 23.9984 20.3256 24 19V5C23.9984 3.67441 23.4711 2.40356 22.5338 1.46622C21.5964 0.528882 20.3256 0.00158786 19 0V0ZM22 19C22 19.7956 21.6839 20.5587 21.1213 21.1213C20.5587 21.6839 19.7956 22 19 22H5C4.20435 22 3.44129 21.6839 2.87868 21.1213C2.31607 20.5587 2 19.7956 2 19V5C2 4.20435 2.31607 3.44129 2.87868 2.87868C3.44129 2.31607 4.20435 2 5 2H19C19.7956 2 20.5587 2.31607 21.1213 2.87868C21.6839 3.44129 22 4.20435 22 5V19Z" fill="#5D87F2"/>
</g>
<mask id="mask1_57_632" style="mask-type:alpha" maskUnits="userSpaceOnUse" x="19" y="0" width="14" height="24">
<rect x="19" width="14" height="24" fill="white"/>
</mask>
<g mask="url(#mask1_57_632)">
<path d="M33 0H19C17.6744 0.00158786 16.4036 0.528882 15.4662 1.46622C14.5289 2.40356 14.0016 3.67441 14 5L14 19C14.0016 20.3256 14.5289 21.5964 15.4662 22.5338C16.4036 23.4711 17.6744 23.9984 19 24H33C34.3256 23.9984 35.5964 23.4711 36.5338 22.5338C37.4711 21.5964 37.9984 20.3256 38 19V5C37.9984 3.67441 37.4711 2.40356 36.5338 1.46622C35.5964 0.528882 34.3256 0.00158786 33 0V0ZM36 19C36 19.7956 35.6839 20.5587 35.1213 21.1213C34.5587 21.6839 33.7956 22 33 22H19C18.2044 22 17.4413 21.6839 16.8787 21.1213C16.3161 20.5587 16 19.7956 16 19V5C16 4.20435 16.3161 3.44129 16.8787 2.87868C17.4413 2.31607 18.2044 2 19 2H33C33.7956 2 34.5587 2.31607 35.1213 2.87868C35.6839 3.44129 36 4.20435 36 5V19Z" fill="#5D87F2"/>
</g>
<mask id="mask2_57_632" style="mask-type:alpha" maskUnits="userSpaceOnUse" x="29" y="0" width="14" height="24">
<rect x="29" width="14" height="24" fill="white"/>
</mask>
<g mask="url(#mask2_57_632)">
<path d="M43 0H29C27.6744 0.00158786 26.4036 0.528882 25.4662 1.46622C24.5289 2.40356 24.0016 3.67441 24 5V19C24.0016 20.3256 24.5289 21.5964 25.4662 22.5338C26.4036 23.4711 27.6744 23.9984 29 24H43C44.3256 23.9984 45.5964 23.4711 46.5338 22.5338C47.4711 21.5964 47.9984 20.3256 48 19V5C47.9984 3.67441 47.4711 2.40356 46.5338 1.46622C45.5964 0.528882 44.3256 0.00158786 43 0V0ZM46 19C46 19.7956 45.6839 20.5587 45.1213 21.1213C44.5587 21.6839 43.7956 22 43 22H29C28.2044 22 27.4413 21.6839 26.8787 21.1213C26.3161 20.5587 26 19.7956 26 19V5C26 4.20435 26.3161 3.44129 26.8787 2.87868C27.4413 2.31607 28.2044 2 29 2H43C43.7956 2 44.5587 2.31607 45.1213 2.87868C45.6839 3.44129 46 4.20435 46 5V19Z" fill="#5D87F2"/>
</g>
<mask id="mask3_57_632" style="mask-type:alpha" maskUnits="userSpaceOnUse" x="43" y="0" width="19" height="24">
<rect width="19" height="24" transform="matrix(-1 0 0 1 62 0)" fill="white"/>
</mask>
<g mask="url(#mask3_57_632)">
<path d="M43 0H57C58.3256 0.00158786 59.5964 0.528882 60.5338 1.46622C61.4711 2.40356 61.9984 3.67441 62 5V19C61.9984 20.3256 61.4711 21.5964 60.5338 22.5338C59.5964 23.4711 58.3256 23.9984 57 24H43C41.6744 23.9984 40.4036 23.4711 39.4662 22.5338C38.5289 21.5964 38.0016 20.3256 38 19V5C38.0016 3.67441 38.5289 2.40356 39.4662 1.46622C40.4036 0.528882 41.6744 0.00158786 43 0V0ZM40 19C40 19.7956 40.3161 20.5587 40.8787 21.1213C41.4413 21.6839 42.2044 22 43 22H57C57.7956 22 58.5587 21.6839 59.1213 21.1213C59.6839 20.5587 60 19.7956 60 19V5C60 4.20435 59.6839 3.44129 59.1213 2.87868C58.5587 2.31607 57.7956 2 57 2H43C42.2044 2 41.4413 2.31607 40.8787 2.87868C40.3161 3.44129 40 4.20435 40 5V19Z" fill="#5D87F2"/>
</g>
<path d="M4.67 17.1L8.3 6.738H9.532L5.902 17.1H4.67ZM16.6783 10.06C17.1476 10.06 17.562 10.1517 17.9213 10.335C18.288 10.5183 18.574 10.8007 18.7793 11.182C18.9846 11.556 19.0873 12.04 19.0873 12.634V16H17.7123V12.81C17.7123 12.2893 17.5986 11.9007 17.3713 11.644C17.144 11.3873 16.8176 11.259 16.3923 11.259C16.0916 11.259 15.824 11.325 15.5893 11.457C15.362 11.589 15.1823 11.7833 15.0503 12.04C14.9256 12.2967 14.8633 12.623 14.8633 13.019V16H13.4883V12.81C13.4883 12.2893 13.3746 11.9007 13.1473 11.644C12.92 11.3873 12.5936 11.259 12.1683 11.259C11.8676 11.259 11.6 11.325 11.3653 11.457C11.138 11.589 10.9583 11.7833 10.8263 12.04C10.7016 12.2967 10.6393 12.623 10.6393 13.019V16H9.2643V10.126H10.5733V11.688L10.3423 11.226C10.5403 10.8447 10.8263 10.555 11.2003 10.357C11.5816 10.159 12.0143 10.06 12.4983 10.06C13.0483 10.06 13.525 10.1957 13.9283 10.467C14.339 10.7383 14.6103 11.149 14.7423 11.699L14.2033 11.512C14.394 11.072 14.7093 10.72 15.1493 10.456C15.5893 10.192 16.099 10.06 16.6783 10.06ZM23.4951 16.077C22.8938 16.077 22.3585 15.9487 21.8891 15.692C21.4198 15.428 21.0495 15.0687 20.7781 14.614C20.5068 14.1593 20.3711 13.6423 20.3711 13.063C20.3711 12.4763 20.5068 11.9593 20.7781 11.512C21.0495 11.0573 21.4198 10.7017 21.8891 10.445C22.3585 10.1883 22.8938 10.06 23.4951 10.06C24.1038 10.06 24.6428 10.1883 25.1121 10.445C25.5888 10.7017 25.9591 11.0537 26.2231 11.501C26.4945 11.9483 26.6301 12.469 26.6301 13.063C26.6301 13.6423 26.4945 14.1593 26.2231 14.614C25.9591 15.0687 25.5888 15.428 25.1121 15.692C24.6428 15.9487 24.1038 16.077 23.4951 16.077ZM23.4951 14.9C23.8325 14.9 24.1331 14.8267 24.3971 14.68C24.6611 14.5333 24.8665 14.3207 25.0131 14.042C25.1671 13.7633 25.2441 13.437 25.2441 13.063C25.2441 12.6817 25.1671 12.3553 25.0131 12.084C24.8665 11.8053 24.6611 11.5927 24.3971 11.446C24.1331 11.2993 23.8361 11.226 23.5061 11.226C23.1688 11.226 22.8681 11.2993 22.6041 11.446C22.3475 11.5927 22.1421 11.8053 21.9881 12.084C21.8341 12.3553 21.7571 12.6817 21.7571 13.063C21.7571 13.437 21.8341 13.7633 21.9881 14.042C22.1421 14.3207 22.3475 14.5333 22.6041 14.68C22.8681 14.8267 23.1651 14.9 23.4951 14.9ZM29.3458 16L26.8268 10.126H28.2568L30.4238 15.307H29.7198L31.9638 10.126H33.2838L30.7648 16H29.3458ZM34.1432 16V10.126H35.5182V16H34.1432ZM34.8362 9.158C34.5795 9.158 34.3669 9.07733 34.1982 8.916C34.0369 8.75467 33.9562 8.56033 33.9562 8.333C33.9562 8.09833 34.0369 7.904 34.1982 7.75C34.3669 7.58867 34.5795 7.508 34.8362 7.508C35.0929 7.508 35.3019 7.585 35.4632 7.739C35.6319 7.88567 35.7162 8.07267 35.7162 8.3C35.7162 8.542 35.6355 8.74733 35.4742 8.916C35.3129 9.07733 35.1002 9.158 34.8362 9.158ZM40.0839 16.077C39.4312 16.077 38.8592 15.9487 38.3679 15.692C37.8839 15.428 37.5062 15.0687 37.2349 14.614C36.9709 14.1593 36.8389 13.6423 36.8389 13.063C36.8389 12.4763 36.9672 11.9593 37.2239 11.512C37.4879 11.0573 37.8472 10.7017 38.3019 10.445C38.7639 10.1883 39.2882 10.06 39.8749 10.06C40.4469 10.06 40.9566 10.1847 41.4039 10.434C41.8512 10.6833 42.2032 11.0353 42.4599 11.49C42.7166 11.9447 42.8449 12.48 42.8449 13.096C42.8449 13.1547 42.8412 13.2207 42.8339 13.294C42.8339 13.3673 42.8302 13.437 42.8229 13.503H37.9279V12.59H42.0969L41.5579 12.876C41.5652 12.5387 41.4956 12.2417 41.3489 11.985C41.2022 11.7283 41.0006 11.5267 40.7439 11.38C40.4946 11.2333 40.2049 11.16 39.8749 11.16C39.5376 11.16 39.2406 11.2333 38.9839 11.38C38.7346 11.5267 38.5366 11.732 38.3899 11.996C38.2506 12.2527 38.1809 12.557 38.1809 12.909V13.129C38.1809 13.481 38.2616 13.7927 38.4229 14.064C38.5842 14.3353 38.8116 14.5443 39.1049 14.691C39.3982 14.8377 39.7356 14.911 40.1169 14.911C40.4469 14.911 40.7439 14.8597 41.0079 14.757C41.2719 14.6543 41.5066 14.493 41.7119 14.273L42.4489 15.12C42.1849 15.428 41.8512 15.6663 41.4479 15.835C41.0519 15.9963 40.5972 16.077 40.0839 16.077ZM45.9807 16.077C45.4893 16.077 45.0163 16.0147 44.5617 15.89C44.1143 15.758 43.7587 15.6003 43.4947 15.417L44.0227 14.372C44.2867 14.5407 44.602 14.68 44.9687 14.79C45.3353 14.9 45.702 14.955 46.0687 14.955C46.5013 14.955 46.813 14.8963 47.0037 14.779C47.2017 14.6617 47.3007 14.504 47.3007 14.306C47.3007 14.1447 47.2347 14.0237 47.1027 13.943C46.9707 13.855 46.7983 13.789 46.5857 13.745C46.373 13.701 46.1347 13.6607 45.8707 13.624C45.614 13.5873 45.3537 13.5397 45.0897 13.481C44.833 13.415 44.5983 13.3233 44.3857 13.206C44.173 13.0813 44.0007 12.9163 43.8687 12.711C43.7367 12.5057 43.6707 12.2343 43.6707 11.897C43.6707 11.523 43.777 11.2003 43.9897 10.929C44.2023 10.6503 44.4993 10.4377 44.8807 10.291C45.2693 10.137 45.7277 10.06 46.2557 10.06C46.6517 10.06 47.0513 10.104 47.4547 10.192C47.858 10.28 48.1917 10.4047 48.4557 10.566L47.9277 11.611C47.649 11.4423 47.3667 11.3287 47.0807 11.27C46.802 11.204 46.5233 11.171 46.2447 11.171C45.8267 11.171 45.515 11.2333 45.3097 11.358C45.1117 11.4827 45.0127 11.6403 45.0127 11.831C45.0127 12.007 45.0787 12.139 45.2107 12.227C45.3427 12.315 45.515 12.3847 45.7277 12.436C45.9403 12.4873 46.175 12.5313 46.4317 12.568C46.6957 12.5973 46.956 12.645 47.2127 12.711C47.4693 12.777 47.704 12.8687 47.9167 12.986C48.1367 13.096 48.3127 13.2537 48.4447 13.459C48.5767 13.6643 48.6427 13.932 48.6427 14.262C48.6427 14.6287 48.5327 14.9477 48.3127 15.219C48.1 15.4903 47.7957 15.703 47.3997 15.857C47.0037 16.0037 46.5307 16.077 45.9807 16.077ZM48.5948 17.1L52.2248 6.738H53.4568L49.8268 17.1H48.5948ZM57.4068 9.257L55.9328 10.071V9.829L57.4068 10.643L56.9778 11.391L55.5588 10.566L55.7018 10.489L55.7128 12.062H54.8768L54.8878 10.489L55.0308 10.566L53.6228 11.391L53.1828 10.643L54.6678 9.829V10.071L53.1828 9.257L53.6228 8.498L55.0308 9.334L54.8878 9.422L54.8768 7.838H55.7128L55.7018 9.422L55.5588 9.334L56.9778 8.498L57.4068 9.257Z" fill="#5D87F2"/>
</svg>
