<svg width="124" height="48" viewBox="0 0 124 48" fill="none" xmlns="http://www.w3.org/2000/svg">
<rect x="2" y="2" width="120" height="44" rx="3" stroke="#5D87F2" stroke-width="4" stroke-linejoin="round"/>
<path d="M7.34 35.2L14.6 14.476H17.064L9.804 35.2H7.34ZM31.3566 21.12C32.2953 21.12 33.1239 21.3033 33.8426 21.67C34.5759 22.0367 35.1479 22.6013 35.5586 23.364C35.9693 24.112 36.1746 25.08 36.1746 26.268V33H33.4246V26.62C33.4246 25.5787 33.1973 24.8013 32.7426 24.288C32.2879 23.7747 31.6353 23.518 30.7846 23.518C30.1833 23.518 29.6479 23.65 29.1786 23.914C28.7239 24.178 28.3646 24.5667 28.1006 25.08C27.8513 25.5933 27.7266 26.246 27.7266 27.038V33H24.9766V26.62C24.9766 25.5787 24.7493 24.8013 24.2946 24.288C23.8399 23.7747 23.1873 23.518 22.3366 23.518C21.7353 23.518 21.1999 23.65 20.7306 23.914C20.2759 24.178 19.9166 24.5667 19.6526 25.08C19.4033 25.5933 19.2786 26.246 19.2786 27.038V33H16.5286V21.252H19.1466V24.376L18.6846 23.452C19.0806 22.6893 19.6526 22.11 20.4006 21.714C21.1633 21.318 22.0286 21.12 22.9966 21.12C24.0966 21.12 25.0499 21.3913 25.8566 21.934C26.6779 22.4767 27.2206 23.298 27.4846 24.398L26.4066 24.024C26.7879 23.144 27.4186 22.44 28.2986 21.912C29.1786 21.384 30.1979 21.12 31.3566 21.12ZM44.9903 33.154C43.7876 33.154 42.7169 32.8973 41.7783 32.384C40.8396 31.856 40.0989 31.1373 39.5563 30.228C39.0136 29.3187 38.7423 28.2847 38.7423 27.126C38.7423 25.9527 39.0136 24.9187 39.5563 24.024C40.0989 23.1147 40.8396 22.4033 41.7783 21.89C42.7169 21.3767 43.7876 21.12 44.9903 21.12C46.2076 21.12 47.2856 21.3767 48.2243 21.89C49.1776 22.4033 49.9183 23.1073 50.4463 24.002C50.9889 24.8967 51.2603 25.938 51.2603 27.126C51.2603 28.2847 50.9889 29.3187 50.4463 30.228C49.9183 31.1373 49.1776 31.856 48.2243 32.384C47.2856 32.8973 46.2076 33.154 44.9903 33.154ZM44.9903 30.8C45.6649 30.8 46.2663 30.6533 46.7943 30.36C47.3223 30.0667 47.7329 29.6413 48.0263 29.084C48.3343 28.5267 48.4883 27.874 48.4883 27.126C48.4883 26.3633 48.3343 25.7107 48.0263 25.168C47.7329 24.6107 47.3223 24.1853 46.7943 23.892C46.2663 23.5987 45.6723 23.452 45.0123 23.452C44.3376 23.452 43.7363 23.5987 43.2083 23.892C42.6949 24.1853 42.2843 24.6107 41.9763 25.168C41.6683 25.7107 41.5143 26.3633 41.5143 27.126C41.5143 27.874 41.6683 28.5267 41.9763 29.084C42.2843 29.6413 42.6949 30.0667 43.2083 30.36C43.7363 30.6533 44.3303 30.8 44.9903 30.8ZM56.6917 33L51.6537 21.252H54.5137L58.8477 31.614H57.4397L61.9277 21.252H64.5677L59.5297 33H56.6917ZM66.2864 33V21.252H69.0364V33H66.2864ZM67.6724 19.316C67.1591 19.316 66.7338 19.1547 66.3964 18.832C66.0738 18.5093 65.9124 18.1207 65.9124 17.666C65.9124 17.1967 66.0738 16.808 66.3964 16.5C66.7338 16.1773 67.1591 16.016 67.6724 16.016C68.1858 16.016 68.6038 16.17 68.9264 16.478C69.2638 16.7713 69.4324 17.1453 69.4324 17.6C69.4324 18.084 69.2711 18.4947 68.9484 18.832C68.6258 19.1547 68.2004 19.316 67.6724 19.316ZM78.1678 33.154C76.8625 33.154 75.7185 32.8973 74.7358 32.384C73.7678 31.856 73.0125 31.1373 72.4698 30.228C71.9418 29.3187 71.6778 28.2847 71.6778 27.126C71.6778 25.9527 71.9345 24.9187 72.4478 24.024C72.9758 23.1147 73.6945 22.4033 74.6038 21.89C75.5278 21.3767 76.5765 21.12 77.7498 21.12C78.8938 21.12 79.9131 21.3693 80.8078 21.868C81.7025 22.3667 82.4065 23.0707 82.9198 23.98C83.4331 24.8893 83.6898 25.96 83.6898 27.192C83.6898 27.3093 83.6825 27.4413 83.6678 27.588C83.6678 27.7347 83.6605 27.874 83.6458 28.006H73.8558V26.18H82.1938L81.1158 26.752C81.1305 26.0773 80.9911 25.4833 80.6978 24.97C80.4045 24.4567 80.0011 24.0533 79.4878 23.76C78.9891 23.4667 78.4098 23.32 77.7498 23.32C77.0751 23.32 76.4811 23.4667 75.9678 23.76C75.4691 24.0533 75.0731 24.464 74.7798 24.992C74.5011 25.5053 74.3618 26.114 74.3618 26.818V27.258C74.3618 27.962 74.5231 28.5853 74.8458 29.128C75.1685 29.6707 75.6231 30.0887 76.2098 30.382C76.7965 30.6753 77.4711 30.822 78.2338 30.822C78.8938 30.822 79.4878 30.7193 80.0158 30.514C80.5438 30.3087 81.0131 29.986 81.4238 29.546L82.8978 31.24C82.3698 31.856 81.7025 32.3327 80.8958 32.67C80.1038 32.9927 79.1945 33.154 78.1678 33.154ZM89.9613 33.154C88.9787 33.154 88.0327 33.0293 87.1233 32.78C86.2287 32.516 85.5173 32.2007 84.9893 31.834L86.0453 29.744C86.5733 30.0813 87.204 30.36 87.9373 30.58C88.6707 30.8 89.404 30.91 90.1373 30.91C91.0027 30.91 91.626 30.7927 92.0073 30.558C92.4033 30.3233 92.6013 30.008 92.6013 29.612C92.6013 29.2893 92.4693 29.0473 92.2053 28.886C91.9413 28.71 91.5967 28.578 91.1713 28.49C90.746 28.402 90.2693 28.3213 89.7413 28.248C89.228 28.1747 88.7073 28.0793 88.1793 27.962C87.666 27.83 87.1967 27.6467 86.7713 27.412C86.346 27.1627 86.0013 26.8327 85.7373 26.422C85.4733 26.0113 85.3413 25.4687 85.3413 24.794C85.3413 24.046 85.554 23.4007 85.9793 22.858C86.4047 22.3007 86.9987 21.8753 87.7613 21.582C88.5387 21.274 89.4553 21.12 90.5113 21.12C91.3033 21.12 92.1027 21.208 92.9093 21.384C93.716 21.56 94.3833 21.8093 94.9113 22.132L93.8553 24.222C93.298 23.8847 92.7333 23.6573 92.1613 23.54C91.604 23.408 91.0467 23.342 90.4893 23.342C89.6533 23.342 89.03 23.4667 88.6193 23.716C88.2233 23.9653 88.0253 24.2807 88.0253 24.662C88.0253 25.014 88.1573 25.278 88.4213 25.454C88.6853 25.63 89.03 25.7693 89.4553 25.872C89.8807 25.9747 90.35 26.0627 90.8633 26.136C91.3913 26.1947 91.912 26.29 92.4253 26.422C92.9387 26.554 93.408 26.7373 93.8333 26.972C94.2733 27.192 94.6253 27.5073 94.8893 27.918C95.1533 28.3287 95.2853 28.864 95.2853 29.524C95.2853 30.2573 95.0653 30.8953 94.6253 31.438C94.2 31.9807 93.5913 32.406 92.7993 32.714C92.0073 33.0073 91.0613 33.154 89.9613 33.154ZM95.1896 35.2L102.45 14.476H104.914L97.6536 35.2H95.1896ZM112.814 19.514L109.866 21.142V20.658L112.814 22.286L111.956 23.782L109.118 22.132L109.404 21.978L109.426 25.124H107.754L107.776 21.978L108.062 22.132L105.246 23.782L104.366 22.286L107.336 20.658V21.142L104.366 19.514L105.246 17.996L108.062 19.668L107.776 19.844L107.754 16.676H109.426L109.404 19.844L109.118 19.668L111.956 17.996L112.814 19.514Z" fill="#5D87F2"/>
</svg>
