<svg width="52" height="24" viewBox="0 0 52 24" fill="none" xmlns="http://www.w3.org/2000/svg">
<mask id="mask0_57_483" style="mask-type:alpha" maskUnits="userSpaceOnUse" x="0" y="0" width="19" height="24">
<rect width="19" height="24" fill="white"/>
</mask>
<g mask="url(#mask0_57_483)">
<path d="M19 0H5C3.67441 0.00158786 2.40356 0.528882 1.46622 1.46622C0.528882 2.40356 0.00158786 3.67441 0 5L0 19C0.00158786 20.3256 0.528882 21.5964 1.46622 22.5338C2.40356 23.4711 3.67441 23.9984 5 24H19C20.3256 23.9984 21.5964 23.4711 22.5338 22.5338C23.4711 21.5964 23.9984 20.3256 24 19V5C23.9984 3.67441 23.4711 2.40356 22.5338 1.46622C21.5964 0.528882 20.3256 0.00158786 19 0V0ZM22 19C22 19.7956 21.6839 20.5587 21.1213 21.1213C20.5587 21.6839 19.7956 22 19 22H5C4.20435 22 3.44129 21.6839 2.87868 21.1213C2.31607 20.5587 2 19.7956 2 19V5C2 4.20435 2.31607 3.44129 2.87868 2.87868C3.44129 2.31607 4.20435 2 5 2H19C19.7956 2 20.5587 2.31607 21.1213 2.87868C21.6839 3.44129 22 4.20435 22 5V19Z" fill="#5D87F2"/>
</g>
<mask id="mask1_57_483" style="mask-type:alpha" maskUnits="userSpaceOnUse" x="19" y="0" width="14" height="24">
<rect x="19" width="14" height="24" fill="white"/>
</mask>
<g mask="url(#mask1_57_483)">
<path d="M33 0H19C17.6744 0.00158786 16.4036 0.528882 15.4662 1.46622C14.5289 2.40356 14.0016 3.67441 14 5L14 19C14.0016 20.3256 14.5289 21.5964 15.4662 22.5338C16.4036 23.4711 17.6744 23.9984 19 24H33C34.3256 23.9984 35.5964 23.4711 36.5338 22.5338C37.4711 21.5964 37.9984 20.3256 38 19V5C37.9984 3.67441 37.4711 2.40356 36.5338 1.46622C35.5964 0.528882 34.3256 0.00158786 33 0V0ZM36 19C36 19.7956 35.6839 20.5587 35.1213 21.1213C34.5587 21.6839 33.7956 22 33 22H19C18.2044 22 17.4413 21.6839 16.8787 21.1213C16.3161 20.5587 16 19.7956 16 19V5C16 4.20435 16.3161 3.44129 16.8787 2.87868C17.4413 2.31607 18.2044 2 19 2H33C33.7956 2 34.5587 2.31607 35.1213 2.87868C35.6839 3.44129 36 4.20435 36 5V19Z" fill="#5D87F2"/>
</g>
<mask id="mask2_57_483" style="mask-type:alpha" maskUnits="userSpaceOnUse" x="33" y="0" width="19" height="24">
<rect width="19" height="24" transform="matrix(-1 0 0 1 52 0)" fill="white"/>
</mask>
<g mask="url(#mask2_57_483)">
<path d="M33 0H47C48.3256 0.00158786 49.5964 0.528882 50.5338 1.46622C51.4711 2.40356 51.9984 3.67441 52 5V19C51.9984 20.3256 51.4711 21.5964 50.5338 22.5338C49.5964 23.4711 48.3256 23.9984 47 24H33C31.6744 23.9984 30.4036 23.4711 29.4662 22.5338C28.5289 21.5964 28.0016 20.3256 28 19V5C28.0016 3.67441 28.5289 2.40356 29.4662 1.46622C30.4036 0.528882 31.6744 0.00158786 33 0V0ZM30 19C30 19.7956 30.3161 20.5587 30.8787 21.1213C31.4413 21.6839 32.2044 22 33 22H47C47.7956 22 48.5587 21.6839 49.1213 21.1213C49.6839 20.5587 50 19.7956 50 19V5C50 4.20435 49.6839 3.44129 49.1213 2.87868C48.5587 2.31607 47.7956 2 47 2H33C32.2044 2 31.4413 2.31607 30.8787 2.87868C30.3161 3.44129 30 4.20435 30 5V19Z" fill="#5D87F2"/>
</g>
<path d="M5.67 17.1L9.3 6.738H10.532L6.902 17.1H5.67ZM12.0793 16.077C11.588 16.077 11.115 16.0147 10.6603 15.89C10.213 15.758 9.8573 15.6003 9.5933 15.417L10.1213 14.372C10.3853 14.5407 10.7006 14.68 11.0673 14.79C11.434 14.9 11.8006 14.955 12.1673 14.955C12.6 14.955 12.9116 14.8963 13.1023 14.779C13.3003 14.6617 13.3993 14.504 13.3993 14.306C13.3993 14.1447 13.3333 14.0237 13.2013 13.943C13.0693 13.855 12.897 13.789 12.6843 13.745C12.4716 13.701 12.2333 13.6607 11.9693 13.624C11.7126 13.5873 11.4523 13.5397 11.1883 13.481C10.9316 13.415 10.697 13.3233 10.4843 13.206C10.2716 13.0813 10.0993 12.9163 9.9673 12.711C9.8353 12.5057 9.7693 12.2343 9.7693 11.897C9.7693 11.523 9.87564 11.2003 10.0883 10.929C10.301 10.6503 10.598 10.4377 10.9793 10.291C11.368 10.137 11.8263 10.06 12.3543 10.06C12.7503 10.06 13.15 10.104 13.5533 10.192C13.9566 10.28 14.2903 10.4047 14.5543 10.566L14.0263 11.611C13.7476 11.4423 13.4653 11.3287 13.1793 11.27C12.9006 11.204 12.622 11.171 12.3433 11.171C11.9253 11.171 11.6136 11.2333 11.4083 11.358C11.2103 11.4827 11.1113 11.6403 11.1113 11.831C11.1113 12.007 11.1773 12.139 11.3093 12.227C11.4413 12.315 11.6136 12.3847 11.8263 12.436C12.039 12.4873 12.2736 12.5313 12.5303 12.568C12.7943 12.5973 13.0546 12.645 13.3113 12.711C13.568 12.777 13.8026 12.8687 14.0153 12.986C14.2353 13.096 14.4113 13.2537 14.5433 13.459C14.6753 13.6643 14.7413 13.932 14.7413 14.262C14.7413 14.6287 14.6313 14.9477 14.4113 15.219C14.1986 15.4903 13.8943 15.703 13.4983 15.857C13.1023 16.0037 12.6293 16.077 12.0793 16.077ZM18.6864 16.077C18.0338 16.077 17.4618 15.9487 16.9704 15.692C16.4864 15.428 16.1088 15.0687 15.8374 14.614C15.5734 14.1593 15.4414 13.6423 15.4414 13.063C15.4414 12.4763 15.5698 11.9593 15.8264 11.512C16.0904 11.0573 16.4498 10.7017 16.9044 10.445C17.3664 10.1883 17.8908 10.06 18.4774 10.06C19.0494 10.06 19.5591 10.1847 20.0064 10.434C20.4538 10.6833 20.8058 11.0353 21.0624 11.49C21.3191 11.9447 21.4474 12.48 21.4474 13.096C21.4474 13.1547 21.4438 13.2207 21.4364 13.294C21.4364 13.3673 21.4328 13.437 21.4254 13.503H16.5304V12.59H20.6994L20.1604 12.876C20.1678 12.5387 20.0981 12.2417 19.9514 11.985C19.8048 11.7283 19.6031 11.5267 19.3464 11.38C19.0971 11.2333 18.8074 11.16 18.4774 11.16C18.1401 11.16 17.8431 11.2333 17.5864 11.38C17.3371 11.5267 17.1391 11.732 16.9924 11.996C16.8531 12.2527 16.7834 12.557 16.7834 12.909V13.129C16.7834 13.481 16.8641 13.7927 17.0254 14.064C17.1868 14.3353 17.4141 14.5443 17.7074 14.691C18.0008 14.8377 18.3381 14.911 18.7194 14.911C19.0494 14.911 19.3464 14.8597 19.6104 14.757C19.8744 14.6543 20.1091 14.493 20.3144 14.273L21.0514 15.12C20.7874 15.428 20.4538 15.6663 20.0504 15.835C19.6544 15.9963 19.1998 16.077 18.6864 16.077ZM26.2261 16V14.812L26.1491 14.559V12.48C26.1491 12.0767 26.0281 11.765 25.7861 11.545C25.5441 11.3177 25.1774 11.204 24.6861 11.204C24.3561 11.204 24.0297 11.2553 23.7071 11.358C23.3917 11.4607 23.1241 11.6037 22.9041 11.787L22.3651 10.786C22.6804 10.544 23.0544 10.3643 23.4871 10.247C23.9271 10.1223 24.3817 10.06 24.8511 10.06C25.7017 10.06 26.3581 10.2653 26.8201 10.676C27.2894 11.0793 27.5241 11.7063 27.5241 12.557V16H26.2261ZM24.3781 16.077C23.9381 16.077 23.5531 16.0037 23.2231 15.857C22.8931 15.703 22.6364 15.494 22.4531 15.23C22.2771 14.9587 22.1891 14.6543 22.1891 14.317C22.1891 13.987 22.2661 13.69 22.4201 13.426C22.5814 13.162 22.8417 12.953 23.2011 12.799C23.5604 12.645 24.0371 12.568 24.6311 12.568H26.3361V13.481H24.7301C24.2607 13.481 23.9454 13.558 23.7841 13.712C23.6227 13.8587 23.5421 14.042 23.5421 14.262C23.5421 14.5113 23.6411 14.7093 23.8391 14.856C24.0371 15.0027 24.3121 15.076 24.6641 15.076C25.0014 15.076 25.3021 14.999 25.5661 14.845C25.8374 14.691 26.0317 14.4637 26.1491 14.163L26.3801 14.988C26.2481 15.3327 26.0097 15.6003 25.6651 15.791C25.3277 15.9817 24.8987 16.077 24.3781 16.077ZM29.2887 16V10.126H30.5977V11.743L30.4437 11.27C30.6197 10.874 30.8947 10.5733 31.2687 10.368C31.6501 10.1627 32.1231 10.06 32.6877 10.06V11.369C32.6291 11.3543 32.5741 11.347 32.5227 11.347C32.4714 11.3397 32.4201 11.336 32.3687 11.336C31.8481 11.336 31.4337 11.49 31.1257 11.798C30.8177 12.0987 30.6637 12.5497 30.6637 13.151V16H29.2887ZM36.4954 16.077C35.8794 16.077 35.3294 15.9487 34.8454 15.692C34.3688 15.428 33.9948 15.0687 33.7234 14.614C33.4521 14.1593 33.3164 13.6423 33.3164 13.063C33.3164 12.4763 33.4521 11.9593 33.7234 11.512C33.9948 11.0573 34.3688 10.7017 34.8454 10.445C35.3294 10.1883 35.8794 10.06 36.4954 10.06C37.0674 10.06 37.5698 10.1773 38.0024 10.412C38.4424 10.6393 38.7761 10.9767 39.0034 11.424L37.9474 12.04C37.7714 11.7613 37.5551 11.556 37.2984 11.424C37.0491 11.292 36.7778 11.226 36.4844 11.226C36.1471 11.226 35.8428 11.2993 35.5714 11.446C35.3001 11.5927 35.0874 11.8053 34.9334 12.084C34.7794 12.3553 34.7024 12.6817 34.7024 13.063C34.7024 13.4443 34.7794 13.7743 34.9334 14.053C35.0874 14.3243 35.3001 14.5333 35.5714 14.68C35.8428 14.8267 36.1471 14.9 36.4844 14.9C36.7778 14.9 37.0491 14.834 37.2984 14.702C37.5551 14.57 37.7714 14.3647 37.9474 14.086L39.0034 14.702C38.7761 15.142 38.4424 15.483 38.0024 15.725C37.5698 15.9597 37.0674 16.077 36.4954 16.077ZM43.4713 10.06C43.9407 10.06 44.3587 10.1517 44.7253 10.335C45.0993 10.5183 45.3927 10.8007 45.6053 11.182C45.818 11.556 45.9243 12.04 45.9243 12.634V16H44.5493V12.81C44.5493 12.2893 44.4247 11.9007 44.1753 11.644C43.9333 11.3873 43.5923 11.259 43.1523 11.259C42.8297 11.259 42.5437 11.325 42.2943 11.457C42.045 11.589 41.8507 11.787 41.7113 12.051C41.5793 12.3077 41.5133 12.634 41.5133 13.03V16H40.1383V7.838H41.5133V11.71L41.2163 11.226C41.4217 10.852 41.7187 10.566 42.1073 10.368C42.5033 10.1627 42.958 10.06 43.4713 10.06Z" fill="#5D87F2"/>
</svg>
