<svg width="104" height="48" viewBox="0 0 104 48" fill="none" xmlns="http://www.w3.org/2000/svg">
<rect x="2" y="2" width="100" height="44" rx="3" stroke="#5D87F2" stroke-width="4" stroke-linejoin="round"/>
<path d="M9.34 35.2L16.6 14.476H19.064L11.804 35.2H9.34ZM22.1586 33.154C21.1759 33.154 20.2299 33.0293 19.3206 32.78C18.4259 32.516 17.7146 32.2007 17.1866 31.834L18.2426 29.744C18.7706 30.0813 19.4013 30.36 20.1346 30.58C20.8679 30.8 21.6013 30.91 22.3346 30.91C23.1999 30.91 23.8233 30.7927 24.2046 30.558C24.6006 30.3233 24.7986 30.008 24.7986 29.612C24.7986 29.2893 24.6666 29.0473 24.4026 28.886C24.1386 28.71 23.7939 28.578 23.3686 28.49C22.9433 28.402 22.4666 28.3213 21.9386 28.248C21.4253 28.1747 20.9046 28.0793 20.3766 27.962C19.8633 27.83 19.3939 27.6467 18.9686 27.412C18.5433 27.1627 18.1986 26.8327 17.9346 26.422C17.6706 26.0113 17.5386 25.4687 17.5386 24.794C17.5386 24.046 17.7513 23.4007 18.1766 22.858C18.6019 22.3007 19.1959 21.8753 19.9586 21.582C20.7359 21.274 21.6526 21.12 22.7086 21.12C23.5006 21.12 24.2999 21.208 25.1066 21.384C25.9133 21.56 26.5806 21.8093 27.1086 22.132L26.0526 24.222C25.4953 23.8847 24.9306 23.6573 24.3586 23.54C23.8013 23.408 23.2439 23.342 22.6866 23.342C21.8506 23.342 21.2273 23.4667 20.8166 23.716C20.4206 23.9653 20.2226 24.2807 20.2226 24.662C20.2226 25.014 20.3546 25.278 20.6186 25.454C20.8826 25.63 21.2273 25.7693 21.6526 25.872C22.0779 25.9747 22.5473 26.0627 23.0606 26.136C23.5886 26.1947 24.1093 26.29 24.6226 26.422C25.1359 26.554 25.6053 26.7373 26.0306 26.972C26.4706 27.192 26.8226 27.5073 27.0866 27.918C27.3506 28.3287 27.4826 28.864 27.4826 29.524C27.4826 30.2573 27.2626 30.8953 26.8226 31.438C26.3973 31.9807 25.7886 32.406 24.9966 32.714C24.2046 33.0073 23.2586 33.154 22.1586 33.154ZM35.3729 33.154C34.0675 33.154 32.9235 32.8973 31.9409 32.384C30.9729 31.856 30.2175 31.1373 29.6749 30.228C29.1469 29.3187 28.8829 28.2847 28.8829 27.126C28.8829 25.9527 29.1395 24.9187 29.6529 24.024C30.1809 23.1147 30.8995 22.4033 31.8089 21.89C32.7329 21.3767 33.7815 21.12 34.9549 21.12C36.0989 21.12 37.1182 21.3693 38.0129 21.868C38.9075 22.3667 39.6115 23.0707 40.1249 23.98C40.6382 24.8893 40.8949 25.96 40.8949 27.192C40.8949 27.3093 40.8875 27.4413 40.8729 27.588C40.8729 27.7347 40.8655 27.874 40.8509 28.006H31.0609V26.18H39.3989L38.3209 26.752C38.3355 26.0773 38.1962 25.4833 37.9029 24.97C37.6095 24.4567 37.2062 24.0533 36.6929 23.76C36.1942 23.4667 35.6149 23.32 34.9549 23.32C34.2802 23.32 33.6862 23.4667 33.1729 23.76C32.6742 24.0533 32.2782 24.464 31.9849 24.992C31.7062 25.5053 31.5669 26.114 31.5669 26.818V27.258C31.5669 27.962 31.7282 28.5853 32.0509 29.128C32.3735 29.6707 32.8282 30.0887 33.4149 30.382C34.0015 30.6753 34.6762 30.822 35.4389 30.822C36.0989 30.822 36.6929 30.7193 37.2209 30.514C37.7489 30.3087 38.2182 29.986 38.6289 29.546L40.1029 31.24C39.5749 31.856 38.9075 32.3327 38.1009 32.67C37.3089 32.9927 36.3995 33.154 35.3729 33.154ZM50.4522 33V30.624L50.2982 30.118V25.96C50.2982 25.1533 50.0562 24.53 49.5722 24.09C49.0882 23.6353 48.3548 23.408 47.3722 23.408C46.7122 23.408 46.0595 23.5107 45.4142 23.716C44.7835 23.9213 44.2482 24.2073 43.8082 24.574L42.7302 22.572C43.3608 22.088 44.1088 21.7287 44.9742 21.494C45.8542 21.2447 46.7635 21.12 47.7022 21.12C49.4035 21.12 50.7162 21.5307 51.6402 22.352C52.5788 23.1587 53.0482 24.4127 53.0482 26.114V33H50.4522ZM46.7562 33.154C45.8762 33.154 45.1062 33.0073 44.4462 32.714C43.7862 32.406 43.2728 31.988 42.9062 31.46C42.5542 30.9173 42.3782 30.3087 42.3782 29.634C42.3782 28.974 42.5322 28.38 42.8402 27.852C43.1628 27.324 43.6835 26.906 44.4022 26.598C45.1208 26.29 46.0742 26.136 47.2622 26.136H50.6722V27.962H47.4602C46.5215 27.962 45.8908 28.116 45.5682 28.424C45.2455 28.7173 45.0842 29.084 45.0842 29.524C45.0842 30.0227 45.2822 30.4187 45.6782 30.712C46.0742 31.0053 46.6242 31.152 47.3282 31.152C48.0028 31.152 48.6042 30.998 49.1322 30.69C49.6748 30.382 50.0635 29.9273 50.2982 29.326L50.7602 30.976C50.4962 31.6653 50.0195 32.2007 49.3302 32.582C48.6555 32.9633 47.7975 33.154 46.7562 33.154ZM56.5774 33V21.252H59.1954V24.486L58.8874 23.54C59.2394 22.748 59.7894 22.1467 60.5374 21.736C61.3001 21.3253 62.2461 21.12 63.3754 21.12V23.738C63.2581 23.7087 63.1481 23.694 63.0454 23.694C62.9428 23.6793 62.8401 23.672 62.7374 23.672C61.6961 23.672 60.8674 23.98 60.2514 24.596C59.6354 25.1973 59.3274 26.0993 59.3274 27.302V33H56.5774ZM70.9909 33.154C69.7589 33.154 68.6589 32.8973 67.6909 32.384C66.7375 31.856 65.9895 31.1373 65.4469 30.228C64.9042 29.3187 64.6329 28.2847 64.6329 27.126C64.6329 25.9527 64.9042 24.9187 65.4469 24.024C65.9895 23.1147 66.7375 22.4033 67.6909 21.89C68.6589 21.3767 69.7589 21.12 70.9909 21.12C72.1349 21.12 73.1395 21.3547 74.0049 21.824C74.8849 22.2787 75.5522 22.9533 76.0069 23.848L73.8949 25.08C73.5429 24.5227 73.1102 24.112 72.5969 23.848C72.0982 23.584 71.5555 23.452 70.9689 23.452C70.2942 23.452 69.6855 23.5987 69.1429 23.892C68.6002 24.1853 68.1749 24.6107 67.8669 25.168C67.5589 25.7107 67.4049 26.3633 67.4049 27.126C67.4049 27.8887 67.5589 28.5487 67.8669 29.106C68.1749 29.6487 68.6002 30.0667 69.1429 30.36C69.6855 30.6533 70.2942 30.8 70.9689 30.8C71.5555 30.8 72.0982 30.668 72.5969 30.404C73.1102 30.14 73.5429 29.7293 73.8949 29.172L76.0069 30.404C75.5522 31.284 74.8849 31.966 74.0049 32.45C73.1395 32.9193 72.1349 33.154 70.9909 33.154ZM84.9427 21.12C85.8813 21.12 86.7173 21.3033 87.4507 21.67C88.1987 22.0367 88.7853 22.6013 89.2107 23.364C89.636 24.112 89.8487 25.08 89.8487 26.268V33H87.0987V26.62C87.0987 25.5787 86.8493 24.8013 86.3507 24.288C85.8667 23.7747 85.1847 23.518 84.3047 23.518C83.6593 23.518 83.0873 23.65 82.5887 23.914C82.09 24.178 81.7013 24.574 81.4227 25.102C81.1587 25.6153 81.0267 26.268 81.0267 27.06V33H78.2767V16.676H81.0267V24.42L80.4327 23.452C80.8433 22.704 81.4373 22.132 82.2147 21.736C83.0067 21.3253 83.916 21.12 84.9427 21.12Z" fill="#5D87F2"/>
</svg>
