<svg width="52" height="24" viewBox="0 0 52 24" fill="none" xmlns="http://www.w3.org/2000/svg">
<mask id="mask0_57_495" style="mask-type:alpha" maskUnits="userSpaceOnUse" x="0" y="0" width="19" height="24">
<rect width="19" height="24" fill="white"/>
</mask>
<g mask="url(#mask0_57_495)">
<path d="M19 0H5C3.67441 0.00158786 2.40356 0.528882 1.46622 1.46622C0.528882 2.40356 0.00158786 3.67441 0 5L0 19C0.00158786 20.3256 0.528882 21.5964 1.46622 22.5338C2.40356 23.4711 3.67441 23.9984 5 24H19C20.3256 23.9984 21.5964 23.4711 22.5338 22.5338C23.4711 21.5964 23.9984 20.3256 24 19V5C23.9984 3.67441 23.4711 2.40356 22.5338 1.46622C21.5964 0.528882 20.3256 0.00158786 19 0V0ZM22 19C22 19.7956 21.6839 20.5587 21.1213 21.1213C20.5587 21.6839 19.7956 22 19 22H5C4.20435 22 3.44129 21.6839 2.87868 21.1213C2.31607 20.5587 2 19.7956 2 19V5C2 4.20435 2.31607 3.44129 2.87868 2.87868C3.44129 2.31607 4.20435 2 5 2H19C19.7956 2 20.5587 2.31607 21.1213 2.87868C21.6839 3.44129 22 4.20435 22 5V19Z" fill="#5D87F2"/>
</g>
<mask id="mask1_57_495" style="mask-type:alpha" maskUnits="userSpaceOnUse" x="19" y="0" width="14" height="24">
<rect x="19" width="14" height="24" fill="white"/>
</mask>
<g mask="url(#mask1_57_495)">
<path d="M33 0H19C17.6744 0.00158786 16.4036 0.528882 15.4662 1.46622C14.5289 2.40356 14.0016 3.67441 14 5L14 19C14.0016 20.3256 14.5289 21.5964 15.4662 22.5338C16.4036 23.4711 17.6744 23.9984 19 24H33C34.3256 23.9984 35.5964 23.4711 36.5338 22.5338C37.4711 21.5964 37.9984 20.3256 38 19V5C37.9984 3.67441 37.4711 2.40356 36.5338 1.46622C35.5964 0.528882 34.3256 0.00158786 33 0V0ZM36 19C36 19.7956 35.6839 20.5587 35.1213 21.1213C34.5587 21.6839 33.7956 22 33 22H19C18.2044 22 17.4413 21.6839 16.8787 21.1213C16.3161 20.5587 16 19.7956 16 19V5C16 4.20435 16.3161 3.44129 16.8787 2.87868C17.4413 2.31607 18.2044 2 19 2H33C33.7956 2 34.5587 2.31607 35.1213 2.87868C35.6839 3.44129 36 4.20435 36 5V19Z" fill="#5D87F2"/>
</g>
<mask id="mask2_57_495" style="mask-type:alpha" maskUnits="userSpaceOnUse" x="33" y="0" width="19" height="24">
<rect width="19" height="24" transform="matrix(-1 0 0 1 52 0)" fill="white"/>
</mask>
<g mask="url(#mask2_57_495)">
<path d="M33 0H47C48.3256 0.00158786 49.5964 0.528882 50.5338 1.46622C51.4711 2.40356 51.9984 3.67441 52 5V19C51.9984 20.3256 51.4711 21.5964 50.5338 22.5338C49.5964 23.4711 48.3256 23.9984 47 24H33C31.6744 23.9984 30.4036 23.4711 29.4662 22.5338C28.5289 21.5964 28.0016 20.3256 28 19V5C28.0016 3.67441 28.5289 2.40356 29.4662 1.46622C30.4036 0.528882 31.6744 0.00158786 33 0V0ZM30 19C30 19.7956 30.3161 20.5587 30.8787 21.1213C31.4413 21.6839 32.2044 22 33 22H47C47.7956 22 48.5587 21.6839 49.1213 21.1213C49.6839 20.5587 50 19.7956 50 19V5C50 4.20435 49.6839 3.44129 49.1213 2.87868C48.5587 2.31607 47.7956 2 47 2H33C32.2044 2 31.4413 2.31607 30.8787 2.87868C30.3161 3.44129 30 4.20435 30 5V19Z" fill="#5D87F2"/>
</g>
<path d="M5.67 17.1L9.3 6.738H10.532L6.902 17.1H5.67ZM12.0793 16.077C11.588 16.077 11.115 16.0147 10.6603 15.89C10.213 15.758 9.8573 15.6003 9.5933 15.417L10.1213 14.372C10.3853 14.5407 10.7006 14.68 11.0673 14.79C11.434 14.9 11.8006 14.955 12.1673 14.955C12.6 14.955 12.9116 14.8963 13.1023 14.779C13.3003 14.6617 13.3993 14.504 13.3993 14.306C13.3993 14.1447 13.3333 14.0237 13.2013 13.943C13.0693 13.855 12.897 13.789 12.6843 13.745C12.4716 13.701 12.2333 13.6607 11.9693 13.624C11.7126 13.5873 11.4523 13.5397 11.1883 13.481C10.9316 13.415 10.697 13.3233 10.4843 13.206C10.2716 13.0813 10.0993 12.9163 9.9673 12.711C9.8353 12.5057 9.7693 12.2343 9.7693 11.897C9.7693 11.523 9.87564 11.2003 10.0883 10.929C10.301 10.6503 10.598 10.4377 10.9793 10.291C11.368 10.137 11.8263 10.06 12.3543 10.06C12.7503 10.06 13.15 10.104 13.5533 10.192C13.9566 10.28 14.2903 10.4047 14.5543 10.566L14.0263 11.611C13.7476 11.4423 13.4653 11.3287 13.1793 11.27C12.9006 11.204 12.622 11.171 12.3433 11.171C11.9253 11.171 11.6136 11.2333 11.4083 11.358C11.2103 11.4827 11.1113 11.6403 11.1113 11.831C11.1113 12.007 11.1773 12.139 11.3093 12.227C11.4413 12.315 11.6136 12.3847 11.8263 12.436C12.039 12.4873 12.2736 12.5313 12.5303 12.568C12.7943 12.5973 13.0546 12.645 13.3113 12.711C13.568 12.777 13.8026 12.8687 14.0153 12.986C14.2353 13.096 14.4113 13.2537 14.5433 13.459C14.6753 13.6643 14.7413 13.932 14.7413 14.262C14.7413 14.6287 14.6313 14.9477 14.4113 15.219C14.1986 15.4903 13.8943 15.703 13.4983 15.857C13.1023 16.0037 12.6293 16.077 12.0793 16.077ZM19.2584 10.06C19.7278 10.06 20.1458 10.1517 20.5124 10.335C20.8864 10.5183 21.1798 10.8007 21.3924 11.182C21.6051 11.556 21.7114 12.04 21.7114 12.634V16H20.3364V12.81C20.3364 12.2893 20.2118 11.9007 19.9624 11.644C19.7204 11.3873 19.3794 11.259 18.9394 11.259C18.6168 11.259 18.3308 11.325 18.0814 11.457C17.8321 11.589 17.6378 11.787 17.4984 12.051C17.3664 12.3077 17.3004 12.634 17.3004 13.03V16H15.9254V7.838H17.3004V11.71L17.0034 11.226C17.2088 10.852 17.5058 10.566 17.8944 10.368C18.2904 10.1627 18.7451 10.06 19.2584 10.06ZM26.1065 16.077C25.5051 16.077 24.9698 15.9487 24.5005 15.692C24.0311 15.428 23.6608 15.0687 23.3895 14.614C23.1181 14.1593 22.9825 13.6423 22.9825 13.063C22.9825 12.4763 23.1181 11.9593 23.3895 11.512C23.6608 11.0573 24.0311 10.7017 24.5005 10.445C24.9698 10.1883 25.5051 10.06 26.1065 10.06C26.7151 10.06 27.2541 10.1883 27.7235 10.445C28.2001 10.7017 28.5705 11.0537 28.8345 11.501C29.1058 11.9483 29.2415 12.469 29.2415 13.063C29.2415 13.6423 29.1058 14.1593 28.8345 14.614C28.5705 15.0687 28.2001 15.428 27.7235 15.692C27.2541 15.9487 26.7151 16.077 26.1065 16.077ZM26.1065 14.9C26.4438 14.9 26.7445 14.8267 27.0085 14.68C27.2725 14.5333 27.4778 14.3207 27.6245 14.042C27.7785 13.7633 27.8555 13.437 27.8555 13.063C27.8555 12.6817 27.7785 12.3553 27.6245 12.084C27.4778 11.8053 27.2725 11.5927 27.0085 11.446C26.7445 11.2993 26.4475 11.226 26.1175 11.226C25.7801 11.226 25.4795 11.2993 25.2155 11.446C24.9588 11.5927 24.7535 11.8053 24.5995 12.084C24.4455 12.3553 24.3685 12.6817 24.3685 13.063C24.3685 13.437 24.4455 13.7633 24.5995 14.042C24.7535 14.3207 24.9588 14.5333 25.2155 14.68C25.4795 14.8267 25.7765 14.9 26.1065 14.9ZM31.6932 16L29.5372 10.126H30.8352L32.6832 15.307H32.0672L34.0032 10.126H35.1582L37.0392 15.307H36.4342L38.3372 10.126H39.5582L37.3912 16H36.0712L34.3552 11.413H34.7622L33.0132 16H31.6932ZM38.9063 17.1L42.5363 6.738H43.7683L40.1383 17.1H38.9063ZM47.7184 9.257L46.2444 10.071V9.829L47.7184 10.643L47.2894 11.391L45.8704 10.566L46.0134 10.489L46.0244 12.062H45.1884L45.1994 10.489L45.3424 10.566L43.9344 11.391L43.4944 10.643L44.9794 9.829V10.071L43.4944 9.257L43.9344 8.498L45.3424 9.334L45.1994 9.422L45.1884 7.838H46.0244L46.0134 9.422L45.8704 9.334L47.2894 8.498L47.7184 9.257Z" fill="#5D87F2"/>
</svg>
