<svg width="48" height="100" viewBox="0 0 48 100" fill="none" xmlns="http://www.w3.org/2000/svg">
<g clip-path="url(#clip0_101_1354)">
<mask id="mask0_101_1354" style="mask-type:alpha" maskUnits="userSpaceOnUse" x="0" y="62" width="48" height="38">
<rect y="100" width="38" height="48" transform="rotate(-90 0 100)" fill="white"/>
</mask>
<g mask="url(#mask0_101_1354)">
<path d="M0 62L0 90C0.00317572 92.6512 1.05776 95.1929 2.93244 97.0676C4.80712 98.9422 7.34881 99.9968 10 100H38C40.6512 99.9968 43.1929 98.9422 45.0676 97.0676C46.9422 95.1929 47.9968 92.6512 48 90V62C47.9968 59.3488 46.9422 56.8071 45.0676 54.9324C43.1929 53.0578 40.6512 52.0032 38 52H10C7.34881 52.0032 4.80712 53.0578 2.93244 54.9324C1.05776 56.8071 0.00317572 59.3488 0 62H0ZM38 56C39.5913 56 41.1174 56.6321 42.2426 57.7574C43.3679 58.8826 44 60.4087 44 62V90C44 91.5913 43.3679 93.1174 42.2426 94.2426C41.1174 95.3679 39.5913 96 38 96H10C8.4087 96 6.88258 95.3679 5.75736 94.2426C4.63214 93.1174 4 91.5913 4 90L4 62C4 60.4087 4.63214 58.8826 5.75736 57.7574C6.88258 56.6321 8.4087 56 10 56H38Z" fill="#5D87F2"/>
</g>
<mask id="mask1_101_1354" style="mask-type:alpha" maskUnits="userSpaceOnUse" x="0" y="0" width="48" height="38">
<rect width="38" height="48" transform="matrix(0 1 1 0 0 0)" fill="white"/>
</mask>
<g mask="url(#mask1_101_1354)">
<path d="M0 38L0 10C0.00317572 7.34881 1.05776 4.80712 2.93244 2.93244C4.80712 1.05776 7.34881 0.00317572 10 0L38 0C40.6512 0.00317572 43.1929 1.05776 45.0676 2.93244C46.9422 4.80712 47.9968 7.34881 48 10V38C47.9968 40.6512 46.9422 43.1929 45.0676 45.0676C43.1929 46.9422 40.6512 47.9968 38 48H10C7.34881 47.9968 4.80712 46.9422 2.93244 45.0676C1.05776 43.1929 0.00317572 40.6512 0 38H0ZM38 44C39.5913 44 41.1174 43.3679 42.2426 42.2426C43.3679 41.1174 44 39.5913 44 38V10C44 8.4087 43.3679 6.88258 42.2426 5.75736C41.1174 4.63214 39.5913 4 38 4L10 4C8.4087 4 6.88258 4.63214 5.75736 5.75736C4.63214 6.88258 4 8.4087 4 10L4 38C4 39.5913 4.63214 41.1174 5.75736 42.2426C6.88258 43.3679 8.4087 44 10 44H38Z" fill="#5D87F2"/>
</g>
<mask id="mask2_101_1354" style="mask-type:alpha" maskUnits="userSpaceOnUse" x="0" y="38" width="48" height="24">
<rect width="24" height="48" transform="matrix(0 -1 1 0 0 62)" fill="white"/>
</mask>
<g mask="url(#mask2_101_1354)">
<path d="M0 38L0 66C0.00317572 68.6512 1.05776 71.1929 2.93244 73.0676C4.80712 74.9422 7.34881 75.9968 10 76H38C40.6512 75.9968 43.1929 74.9422 45.0676 73.0676C46.9422 71.1929 47.9968 68.6512 48 66V38C47.9968 35.3488 46.9422 32.8071 45.0676 30.9324C43.1929 29.0578 40.6512 28.0032 38 28H10C7.34881 28.0032 4.80712 29.0578 2.93244 30.9324C1.05776 32.8071 0.00317572 35.3488 0 38H0ZM38 32C39.5913 32 41.1174 32.6321 42.2426 33.7574C43.3679 34.8826 44 36.4087 44 38V66C44 67.5913 43.3679 69.1174 42.2426 70.2426C41.1174 71.3679 39.5913 72 38 72H10C8.4087 72 6.88258 71.3679 5.75736 70.2426C4.63214 69.1174 4 67.5913 4 66L4 38C4 36.4087 4.63214 34.8826 5.75736 33.7574C6.88258 32.6321 8.4087 32 10 32H38Z" fill="#5D87F2"/>
</g>
<path d="M16 13.89L31.4 20.82V23.636L16 30.588V27.596L29.882 21.634V22.778L16 16.838V13.89ZM19.564 17.08L21.808 17.85V26.166L19.564 26.936V17.08ZM15.846 37.5651C15.846 36.3331 16.1027 35.2331 16.616 34.2651C17.144 33.3118 17.8627 32.5638 18.772 32.0211C19.6813 31.4784 20.7153 31.2071 21.874 31.2071C23.0473 31.2071 24.0813 31.4784 24.976 32.0211C25.8853 32.5638 26.5967 33.3118 27.11 34.2651C27.6233 35.2331 27.88 36.3331 27.88 37.5651C27.88 38.7091 27.6453 39.7138 27.176 40.5791C26.7213 41.4591 26.0467 42.1264 25.152 42.5811L23.92 40.4691C24.4773 40.1171 24.888 39.6844 25.152 39.1711C25.416 38.6724 25.548 38.1298 25.548 37.5431C25.548 36.8684 25.4013 36.2598 25.108 35.7171C24.8147 35.1744 24.3893 34.7491 23.832 34.4411C23.2893 34.1331 22.6367 33.9791 21.874 33.9791C21.1113 33.9791 20.4513 34.1331 19.894 34.4411C19.3513 34.7491 18.9333 35.1744 18.64 35.7171C18.3467 36.2598 18.2 36.8684 18.2 37.5431C18.2 38.1298 18.332 38.6724 18.596 39.1711C18.86 39.6844 19.2707 40.1171 19.828 40.4691L18.596 42.5811C17.716 42.1264 17.034 41.4591 16.55 40.5791C16.0807 39.7138 15.846 38.7091 15.846 37.5651ZM15.846 49.5307C15.846 48.24 16.176 47.2427 16.836 46.5387C17.5107 45.8347 18.5007 45.4827 19.806 45.4827H30.344V48.2327H19.872C19.3147 48.2327 18.882 48.372 18.574 48.6507C18.266 48.944 18.112 49.3474 18.112 49.8607C18.112 50.4767 18.2733 50.99 18.596 51.4007L16.638 52.1707C16.374 51.848 16.176 51.452 16.044 50.9827C15.912 50.5134 15.846 50.0294 15.846 49.5307ZM25.46 43.5467H27.66V51.3787H25.46V43.5467ZM16 54.4329H27.748V57.1829H16V54.4329ZM29.684 55.8189C29.684 55.3056 29.8453 54.8802 30.168 54.5429C30.4907 54.2202 30.8793 54.0589 31.334 54.0589C31.8033 54.0589 32.192 54.2202 32.5 54.5429C32.8227 54.8802 32.984 55.3056 32.984 55.8189C32.984 56.3322 32.83 56.7502 32.522 57.0729C32.2287 57.4102 31.8547 57.5789 31.4 57.5789C30.916 57.5789 30.5053 57.4176 30.168 57.0949C29.8453 56.7722 29.684 56.3469 29.684 55.8189ZM16 63.9163L27.748 58.8783V61.7383L17.386 66.0723V64.6643L27.748 69.1523V71.7923L16 66.7543V63.9163ZM15.846 78.7108C15.846 77.4054 16.1027 76.2614 16.616 75.2788C17.144 74.3108 17.8627 73.5554 18.772 73.0128C19.6813 72.4848 20.7153 72.2208 21.874 72.2208C23.0473 72.2208 24.0813 72.4774 24.976 72.9908C25.8853 73.5188 26.5967 74.2374 27.11 75.1468C27.6233 76.0708 27.88 77.1194 27.88 78.2928C27.88 79.4368 27.6307 80.4561 27.132 81.3508C26.6333 82.2454 25.9293 82.9494 25.02 83.4628C24.1107 83.9761 23.04 84.2328 21.808 84.2328C21.6907 84.2328 21.5587 84.2254 21.412 84.2108C21.2653 84.2108 21.126 84.2034 20.994 84.1888V74.3988H22.82V82.7368L22.248 81.6588C22.9227 81.6734 23.5167 81.5341 24.03 81.2408C24.5433 80.9474 24.9467 80.5441 25.24 80.0308C25.5333 79.5321 25.68 78.9528 25.68 78.2928C25.68 77.6181 25.5333 77.0241 25.24 76.5108C24.9467 76.0121 24.536 75.6161 24.008 75.3228C23.4947 75.0441 22.886 74.9048 22.182 74.9048H21.742C21.038 74.9048 20.4147 75.0661 19.872 75.3888C19.3293 75.7114 18.9113 76.1661 18.618 76.7528C18.3247 77.3394 18.178 78.0141 18.178 78.7768C18.178 79.4368 18.2807 80.0308 18.486 80.5588C18.6913 81.0868 19.014 81.5561 19.454 81.9668L17.76 83.4408C17.144 82.9128 16.6673 82.2454 16.33 81.4388C16.0073 80.6468 15.846 79.7374 15.846 78.7108Z" fill="#5D87F2"/>
</g>
<defs>
<clipPath id="clip0_101_1354">
<rect width="100" height="48" fill="white" transform="matrix(0 -1 1 0 0 100)"/>
</clipPath>
</defs>
</svg>
