<svg width="48" height="99" viewBox="0 0 48 99" fill="none" xmlns="http://www.w3.org/2000/svg">
<rect x="1" y="98" width="97" height="46" rx="4" transform="rotate(-90 1 98)" stroke="#5D87F2" stroke-width="2" stroke-linejoin="round"/>
<path d="M16 15.044L31.4 22.084V23.69L16 30.73V29.014L30.454 22.546V23.206L16 16.738V15.044ZM20.114 17.816L21.434 18.3V27.254L20.114 27.738V17.816ZM15.89 37.6361C15.89 36.4921 16.1393 35.4654 16.638 34.5561C17.1513 33.6614 17.848 32.9574 18.728 32.4441C19.6227 31.9308 20.642 31.6741 21.786 31.6741C22.9447 31.6741 23.964 31.9308 24.844 32.4441C25.724 32.9574 26.4133 33.6614 26.912 34.5561C27.4107 35.4654 27.66 36.4921 27.66 37.6361C27.66 38.6188 27.4693 39.5061 27.088 40.2981C26.7067 41.0901 26.1347 41.7134 25.372 42.1681L24.58 41.0021C25.1667 40.6061 25.5993 40.1148 25.878 39.5281C26.1567 38.9414 26.296 38.3034 26.296 37.6141C26.296 36.7928 26.1053 36.0521 25.724 35.3921C25.3573 34.7321 24.8367 34.2114 24.162 33.8301C23.4873 33.4488 22.6953 33.2581 21.786 33.2581C20.8767 33.2581 20.0847 33.4488 19.41 33.8301C18.7353 34.2114 18.2073 34.7321 17.826 35.3921C17.4593 36.0521 17.276 36.7928 17.276 37.6141C17.276 38.3034 17.4153 38.9414 17.694 39.5281C17.9727 40.1148 18.398 40.6061 18.97 41.0021L18.178 42.1681C17.43 41.7134 16.858 41.0901 16.462 40.2981C16.0807 39.5061 15.89 38.6188 15.89 37.6361ZM15.89 49.0175C15.89 47.9322 16.1833 47.0962 16.77 46.5095C17.3567 45.9228 18.1853 45.6295 19.256 45.6295H30.102V47.1915H19.344C18.6693 47.1915 18.1487 47.3602 17.782 47.6975C17.4153 48.0495 17.232 48.5482 17.232 49.1935C17.232 49.8828 17.43 50.4548 17.826 50.9095L16.704 51.4595C16.4253 51.1515 16.22 50.7775 16.088 50.3375C15.956 49.9122 15.89 49.4722 15.89 49.0175ZM26.252 43.5615H27.55V50.7115H26.252V43.5615ZM16 54.303H27.55V55.865H16V54.303ZM30.102 55.095C30.102 54.7723 30.212 54.501 30.432 54.281C30.652 54.061 30.916 53.951 31.224 53.951C31.532 53.951 31.7887 54.061 31.994 54.281C32.214 54.501 32.324 54.7723 32.324 55.095C32.324 55.4177 32.2213 55.689 32.016 55.909C31.8107 56.129 31.554 56.239 31.246 56.239C30.9233 56.239 30.652 56.129 30.432 55.909C30.212 55.7037 30.102 55.4323 30.102 55.095ZM16 63.1812L27.55 58.0552L27.55 59.6832L16.836 64.3912V63.6212L27.55 68.3952V69.9352L16 64.7872V63.1812ZM15.89 76.7188C15.89 75.5161 16.1393 74.4601 16.638 73.5508C17.1513 72.6414 17.848 71.9301 18.728 71.4168C19.6227 70.9034 20.642 70.6468 21.786 70.6468C22.93 70.6468 23.942 70.8888 24.822 71.3728C25.702 71.8714 26.3913 72.5461 26.89 73.3968C27.4033 74.2621 27.66 75.2301 27.66 76.3008C27.66 77.3861 27.4107 78.3468 26.912 79.1828C26.428 80.0334 25.7387 80.7008 24.844 81.1848C23.964 81.6688 22.9447 81.9108 21.786 81.9108C21.7127 81.9108 21.632 81.9034 21.544 81.8888C21.4707 81.8888 21.39 81.8888 21.302 81.8888V71.8348H22.468V81.0528L22.006 80.4368C22.842 80.4368 23.5827 80.2534 24.228 79.8868C24.888 79.5348 25.4013 79.0508 25.768 78.4348C26.1347 77.8188 26.318 77.1074 26.318 76.3008C26.318 75.5088 26.1347 74.7974 25.768 74.1668C25.4013 73.5361 24.888 73.0448 24.228 72.6928C23.568 72.3408 22.8127 72.1648 21.962 72.1648H21.72C20.84 72.1648 20.0627 72.3554 19.388 72.7368C18.728 73.1328 18.2073 73.6754 17.826 74.3648C17.4593 75.0688 17.276 75.8681 17.276 76.7628C17.276 77.4668 17.4007 78.1194 17.65 78.7208C17.8993 79.3368 18.2807 79.8648 18.794 80.3048L17.782 81.1848C17.166 80.6714 16.6967 80.0261 16.374 79.2488C16.0513 78.4861 15.89 77.6428 15.89 76.7188Z" fill="#5D87F2"/>
</svg>
