<svg width="48" height="100" viewBox="0 0 48 100" fill="none" xmlns="http://www.w3.org/2000/svg">
<g clip-path="url(#clip0_101_1392)">
<mask id="mask0_101_1392" style="mask-type:alpha" maskUnits="userSpaceOnUse" x="0" y="62" width="48" height="38">
<rect y="100" width="38" height="48" transform="rotate(-90 0 100)" fill="white"/>
</mask>
<g mask="url(#mask0_101_1392)">
<path d="M0 62L0 90C0.00317572 92.6512 1.05776 95.1929 2.93244 97.0676C4.80712 98.9422 7.34881 99.9968 10 100H38C40.6512 99.9968 43.1929 98.9422 45.0676 97.0676C46.9422 95.1929 47.9968 92.6512 48 90V62C47.9968 59.3488 46.9422 56.8071 45.0676 54.9324C43.1929 53.0578 40.6512 52.0032 38 52H10C7.34881 52.0032 4.80712 53.0578 2.93244 54.9324C1.05776 56.8071 0.00317572 59.3488 0 62H0ZM38 56C39.5913 56 41.1174 56.6321 42.2426 57.7574C43.3679 58.8826 44 60.4087 44 62V90C44 91.5913 43.3679 93.1174 42.2426 94.2426C41.1174 95.3679 39.5913 96 38 96H10C8.4087 96 6.88258 95.3679 5.75736 94.2426C4.63214 93.1174 4 91.5913 4 90V62C4 60.4087 4.63214 58.8826 5.75736 57.7574C6.88258 56.6321 8.4087 56 10 56H38Z" fill="#5D87F2"/>
</g>
<mask id="mask1_101_1392" style="mask-type:alpha" maskUnits="userSpaceOnUse" x="0" y="0" width="48" height="38">
<rect width="38" height="48" transform="matrix(0 1 1 0 0 0)" fill="white"/>
</mask>
<g mask="url(#mask1_101_1392)">
<path d="M0 38L0 10C0.00317572 7.34881 1.05776 4.80712 2.93244 2.93244C4.80712 1.05776 7.34881 0.00317572 10 0L38 0C40.6512 0.00317572 43.1929 1.05776 45.0676 2.93244C46.9422 4.80712 47.9968 7.34881 48 10V38C47.9968 40.6512 46.9422 43.1929 45.0676 45.0676C43.1929 46.9422 40.6512 47.9968 38 48H10C7.34881 47.9968 4.80712 46.9422 2.93244 45.0676C1.05776 43.1929 0.00317572 40.6512 0 38H0ZM38 44C39.5913 44 41.1174 43.3679 42.2426 42.2426C43.3679 41.1174 44 39.5913 44 38V10C44 8.4087 43.3679 6.88258 42.2426 5.75736C41.1174 4.63214 39.5913 4 38 4H10C8.4087 4 6.88258 4.63214 5.75736 5.75736C4.63214 6.88258 4 8.4087 4 10V38C4 39.5913 4.63214 41.1174 5.75736 42.2426C6.88258 43.3679 8.4087 44 10 44H38Z" fill="#5D87F2"/>
</g>
<mask id="mask2_101_1392" style="mask-type:alpha" maskUnits="userSpaceOnUse" x="1" y="1" width="46" height="37">
<rect width="36.4167" height="46" transform="matrix(0 1 1 0 1 1)" fill="white"/>
</mask>
<g mask="url(#mask2_101_1392)">
<path d="M1 37.4167V10.5833C1.00304 8.04261 2.01369 5.60682 3.81025 3.81025C5.60682 2.01369 8.04261 1.00304 10.5833 1L37.4167 1C39.9574 1.00304 42.3932 2.01369 44.1897 3.81025C45.9863 5.60682 46.997 8.04261 47 10.5833V37.4167C46.997 39.9574 45.9863 42.3932 44.1897 44.1897C42.3932 45.9863 39.9574 46.997 37.4167 47H10.5833C8.04261 46.997 5.60682 45.9863 3.81025 44.1897C2.01369 42.3932 1.00304 39.9574 1 37.4167H1ZM37.4167 43.1667C38.9417 43.1667 40.4042 42.5609 41.4825 41.4825C42.5609 40.4042 43.1667 38.9417 43.1667 37.4167V10.5833C43.1667 9.05834 42.5609 7.5958 41.4825 6.51747C40.4042 5.43914 38.9417 4.83333 37.4167 4.83333H10.5833C9.05834 4.83333 7.5958 5.43914 6.51747 6.51747C5.43914 7.5958 4.83333 9.05834 4.83333 10.5833V37.4167C4.83333 38.9417 5.43914 40.4042 6.51747 41.4825C7.5958 42.5609 9.05834 43.1667 10.5833 43.1667H37.4167Z" fill="white"/>
</g>
<mask id="mask3_101_1392" style="mask-type:alpha" maskUnits="userSpaceOnUse" x="1" y="62" width="46" height="37">
<rect x="1" y="99" width="36.4167" height="46" transform="rotate(-90 1 99)" fill="white"/>
</mask>
<g mask="url(#mask3_101_1392)">
<path d="M1 62.5833V89.4167C1.00304 91.9574 2.01369 94.3932 3.81025 96.1897C5.60682 97.9863 8.04261 98.997 10.5833 99H37.4167C39.9574 98.997 42.3932 97.9863 44.1897 96.1897C45.9863 94.3932 46.997 91.9574 47 89.4167V62.5833C46.997 60.0426 45.9863 57.6068 44.1897 55.8103C42.3932 54.0137 39.9574 53.003 37.4167 53H10.5833C8.04261 53.003 5.60682 54.0137 3.81025 55.8103C2.01369 57.6068 1.00304 60.0426 1 62.5833H1ZM37.4167 56.8333C38.9417 56.8333 40.4042 57.4391 41.4825 58.5175C42.5609 59.5958 43.1667 61.0583 43.1667 62.5833V89.4167C43.1667 90.9417 42.5609 92.4042 41.4825 93.4825C40.4042 94.5609 38.9417 95.1667 37.4167 95.1667H10.5833C9.05834 95.1667 7.5958 94.5609 6.51747 93.4825C5.43914 92.4042 4.83333 90.9417 4.83333 89.4167V62.5833C4.83333 61.0583 5.43914 59.5958 6.51747 58.5175C7.5958 57.4391 9.05834 56.8333 10.5833 56.8333H37.4167Z" fill="white"/>
</g>
<mask id="mask4_101_1392" style="mask-type:alpha" maskUnits="userSpaceOnUse" x="0" y="37" width="48" height="26">
<rect width="26" height="48" transform="matrix(0 -1 1 0 0 63)" fill="white"/>
</mask>
<g mask="url(#mask4_101_1392)">
<path d="M0 36L0 64C0.00317572 66.6512 1.05776 69.1929 2.93244 71.0676C4.80712 72.9422 7.34881 73.9968 10 74H38C40.6512 73.9968 43.1929 72.9422 45.0676 71.0676C46.9422 69.1929 47.9968 66.6512 48 64V36C47.9968 33.3488 46.9422 30.8071 45.0676 28.9324C43.1929 27.0578 40.6512 26.0032 38 26H10C7.34881 26.0032 4.80712 27.0578 2.93244 28.9324C1.05776 30.8071 0.00317572 33.3488 0 36H0ZM38 30C39.5913 30 41.1174 30.6321 42.2426 31.7574C43.3679 32.8826 44 34.4087 44 36V64C44 65.5913 43.3679 67.1174 42.2426 68.2426C41.1174 69.3679 39.5913 70 38 70H10C8.4087 70 6.88258 69.3679 5.75736 68.2426C4.63214 67.1174 4 65.5913 4 64V36C4 34.4087 4.63214 32.8826 5.75736 31.7574C6.88258 30.6321 8.4087 30 10 30H38Z" fill="#5D87F2"/>
<path d="M1 37.5833V64.4167C1.00304 66.9574 2.01369 69.3932 3.81025 71.1897C5.60682 72.9863 8.04261 73.997 10.5833 74H37.4167C39.9574 73.997 42.3932 72.9863 44.1897 71.1897C45.9863 69.3932 46.997 66.9574 47 64.4167V37.5833C46.997 35.0426 45.9863 32.6068 44.1897 30.8103C42.3932 29.0137 39.9574 28.003 37.4167 28H10.5833C8.04261 28.003 5.60682 29.0137 3.81025 30.8103C2.01369 32.6068 1.00304 35.0426 1 37.5833H1ZM37.4167 31.8333C38.9417 31.8333 40.4042 32.4391 41.4825 33.5175C42.5609 34.5958 43.1667 36.0583 43.1667 37.5833V64.4167C43.1667 65.9417 42.5609 67.4042 41.4825 68.4825C40.4042 69.5609 38.9417 70.1667 37.4167 70.1667H10.5833C9.05834 70.1667 7.5958 69.5609 6.51747 68.4825C5.43914 67.4042 4.83333 65.9417 4.83333 64.4167V37.5833C4.83333 36.0583 5.43914 34.5958 6.51747 33.5175C7.5958 32.4391 9.05834 31.8333 10.5833 31.8333H37.4167Z" fill="white"/>
</g>
<mask id="mask5_101_1392" style="mask-type:alpha" maskUnits="userSpaceOnUse" x="0" y="46" width="48" height="26">
<rect width="26" height="48" transform="matrix(0 -1 1 0 0 72)" fill="white"/>
</mask>
<g mask="url(#mask5_101_1392)">
<path d="M0 45L0 73C0.00317572 75.6512 1.05776 78.1929 2.93244 80.0676C4.80712 81.9422 7.34881 82.9968 10 83H38C40.6512 82.9968 43.1929 81.9422 45.0676 80.0676C46.9422 78.1929 47.9968 75.6512 48 73V45C47.9968 42.3488 46.9422 39.8071 45.0676 37.9324C43.1929 36.0578 40.6512 35.0032 38 35H10C7.34881 35.0032 4.80712 36.0578 2.93244 37.9324C1.05776 39.8071 0.00317572 42.3488 0 45H0ZM38 39C39.5913 39 41.1174 39.6321 42.2426 40.7574C43.3679 41.8826 44 43.4087 44 45V73C44 74.5913 43.3679 76.1174 42.2426 77.2426C41.1174 78.3679 39.5913 79 38 79H10C8.4087 79 6.88258 78.3679 5.75736 77.2426C4.63214 76.1174 4 74.5913 4 73V45C4 43.4087 4.63214 41.8826 5.75736 40.7574C6.88258 39.6321 8.4087 39 10 39H38Z" fill="#5D87F2"/>
<path d="M1 46.5833V73.4167C1.00304 75.9574 2.01369 78.3932 3.81025 80.1897C5.60682 81.9863 8.04261 82.997 10.5833 83H37.4167C39.9574 82.997 42.3932 81.9863 44.1897 80.1897C45.9863 78.3932 46.997 75.9574 47 73.4167V46.5833C46.997 44.0426 45.9863 41.6068 44.1897 39.8103C42.3932 38.0137 39.9574 37.003 37.4167 37H10.5833C8.04261 37.003 5.60682 38.0137 3.81025 39.8103C2.01369 41.6068 1.00304 44.0426 1 46.5833H1ZM37.4167 40.8333C38.9417 40.8333 40.4042 41.4391 41.4825 42.5175C42.5609 43.5958 43.1667 45.0583 43.1667 46.5833V73.4167C43.1667 74.9417 42.5609 76.4042 41.4825 77.4825C40.4042 78.5609 38.9417 79.1667 37.4167 79.1667H10.5833C9.05834 79.1667 7.5958 78.5609 6.51747 77.4825C5.43914 76.4042 4.83333 74.9417 4.83333 73.4167V46.5833C4.83333 45.0583 5.43914 43.5958 6.51747 42.5175C7.5958 41.4391 9.05834 40.8333 10.5833 40.8333H37.4167Z" fill="white"/>
</g>
<path d="M16 16.044L31.4 23.084V24.69L16 31.73L16 30.014L30.454 23.546V24.206L16 17.738V16.044ZM20.114 18.816L21.434 19.3V28.254L20.114 28.738V18.816ZM15.89 38.6361C15.89 37.4921 16.1393 36.4654 16.638 35.5561C17.1513 34.6614 17.848 33.9574 18.728 33.4441C19.6227 32.9308 20.642 32.6741 21.786 32.6741C22.9447 32.6741 23.964 32.9308 24.844 33.4441C25.724 33.9574 26.4133 34.6614 26.912 35.5561C27.4107 36.4654 27.66 37.4921 27.66 38.6361C27.66 39.6188 27.4693 40.5061 27.088 41.2981C26.7067 42.0901 26.1347 42.7134 25.372 43.1681L24.58 42.0021C25.1667 41.6061 25.5993 41.1148 25.878 40.5281C26.1567 39.9414 26.296 39.3034 26.296 38.6141C26.296 37.7928 26.1053 37.0521 25.724 36.3921C25.3573 35.7321 24.8367 35.2114 24.162 34.8301C23.4873 34.4488 22.6953 34.2581 21.786 34.2581C20.8767 34.2581 20.0847 34.4488 19.41 34.8301C18.7353 35.2114 18.2073 35.7321 17.826 36.3921C17.4593 37.0521 17.276 37.7928 17.276 38.6141C17.276 39.3034 17.4153 39.9414 17.694 40.5281C17.9727 41.1148 18.398 41.6061 18.97 42.0021L18.178 43.1681C17.43 42.7134 16.858 42.0901 16.462 41.2981C16.0807 40.5061 15.89 39.6188 15.89 38.6361ZM15.89 50.0175C15.89 48.9322 16.1833 48.0962 16.77 47.5095C17.3567 46.9228 18.1853 46.6295 19.256 46.6295H30.102V48.1915H19.344C18.6693 48.1915 18.1487 48.3602 17.782 48.6975C17.4153 49.0495 17.232 49.5482 17.232 50.1935C17.232 50.8828 17.43 51.4548 17.826 51.9095L16.704 52.4595C16.4253 52.1515 16.22 51.7775 16.088 51.3375C15.956 50.9122 15.89 50.4722 15.89 50.0175ZM26.252 44.5615H27.55V51.7115H26.252V44.5615ZM16 55.303H27.55V56.865H16V55.303ZM30.102 56.095C30.102 55.7723 30.212 55.501 30.432 55.281C30.652 55.061 30.916 54.951 31.224 54.951C31.532 54.951 31.7887 55.061 31.994 55.281C32.214 55.501 32.324 55.7723 32.324 56.095C32.324 56.4177 32.2213 56.689 32.016 56.909C31.8107 57.129 31.554 57.239 31.246 57.239C30.9233 57.239 30.652 57.129 30.432 56.909C30.212 56.7037 30.102 56.4323 30.102 56.095ZM16 64.1812L27.55 59.0552V60.6832L16.836 65.3912V64.6212L27.55 69.3952V70.9352L16 65.7872V64.1812ZM15.89 77.7188C15.89 76.5161 16.1393 75.4601 16.638 74.5508C17.1513 73.6414 17.848 72.9301 18.728 72.4168C19.6227 71.9034 20.642 71.6468 21.786 71.6468C22.93 71.6468 23.942 71.8888 24.822 72.3728C25.702 72.8714 26.3913 73.5461 26.89 74.3968C27.4033 75.2621 27.66 76.2301 27.66 77.3008C27.66 78.3861 27.4107 79.3468 26.912 80.1828C26.428 81.0334 25.7387 81.7008 24.844 82.1848C23.964 82.6688 22.9447 82.9108 21.786 82.9108C21.7127 82.9108 21.632 82.9034 21.544 82.8888C21.4707 82.8888 21.39 82.8888 21.302 82.8888V72.8348H22.468V82.0528L22.006 81.4368C22.842 81.4368 23.5827 81.2534 24.228 80.8868C24.888 80.5348 25.4013 80.0508 25.768 79.4348C26.1347 78.8188 26.318 78.1074 26.318 77.3008C26.318 76.5088 26.1347 75.7974 25.768 75.1668C25.4013 74.5361 24.888 74.0448 24.228 73.6928C23.568 73.3408 22.8127 73.1648 21.962 73.1648H21.72C20.84 73.1648 20.0627 73.3554 19.388 73.7368C18.728 74.1328 18.2073 74.6754 17.826 75.3648C17.4593 76.0688 17.276 76.8681 17.276 77.7628C17.276 78.4668 17.4007 79.1194 17.65 79.7208C17.8993 80.3368 18.2807 80.8648 18.794 81.3048L17.782 82.1848C17.166 81.6714 16.6967 81.0261 16.374 80.2488C16.0513 79.4861 15.89 78.6428 15.89 77.7188Z" fill="#5D87F2"/>
</g>
<defs>
<clipPath id="clip0_101_1392">
<rect width="100" height="48" fill="white" transform="matrix(0 -1 1 0 0 100)"/>
</clipPath>
</defs>
</svg>
