<svg width="48" height="99" viewBox="0 0 48 99" fill="none" xmlns="http://www.w3.org/2000/svg">
<rect x="2" y="97" width="95" height="44" rx="3" transform="rotate(-90 2 97)" stroke="#5D87F2" stroke-width="4" stroke-linejoin="round"/>
<path d="M16 14.89L31.4 21.82V24.636L16 31.588V28.596L29.882 22.634V23.778L16 17.838V14.89ZM19.564 18.08L21.808 18.85V27.166L19.564 27.936V18.08ZM15.846 38.5651C15.846 37.3331 16.1027 36.2331 16.616 35.2651C17.144 34.3118 17.8627 33.5638 18.772 33.0211C19.6813 32.4784 20.7153 32.2071 21.874 32.2071C23.0473 32.2071 24.0813 32.4784 24.976 33.0211C25.8853 33.5638 26.5967 34.3118 27.11 35.2651C27.6233 36.2331 27.88 37.3331 27.88 38.5651C27.88 39.7091 27.6453 40.7138 27.176 41.5791C26.7213 42.4591 26.0467 43.1264 25.152 43.5811L23.92 41.4691C24.4773 41.1171 24.888 40.6844 25.152 40.1711C25.416 39.6724 25.548 39.1298 25.548 38.5431C25.548 37.8684 25.4013 37.2598 25.108 36.7171C24.8147 36.1744 24.3893 35.7491 23.832 35.4411C23.2893 35.1331 22.6367 34.9791 21.874 34.9791C21.1113 34.9791 20.4513 35.1331 19.894 35.4411C19.3513 35.7491 18.9333 36.1744 18.64 36.7171C18.3467 37.2598 18.2 37.8684 18.2 38.5431C18.2 39.1298 18.332 39.6724 18.596 40.1711C18.86 40.6844 19.2707 41.1171 19.828 41.4691L18.596 43.5811C17.716 43.1264 17.034 42.4591 16.55 41.5791C16.0807 40.7138 15.846 39.7091 15.846 38.5651ZM15.846 50.5307C15.846 49.24 16.176 48.2427 16.836 47.5387C17.5107 46.8347 18.5007 46.4827 19.806 46.4827H30.344V49.2327H19.872C19.3147 49.2327 18.882 49.372 18.574 49.6507C18.266 49.944 18.112 50.3474 18.112 50.8607C18.112 51.4767 18.2733 51.99 18.596 52.4007L16.638 53.1707C16.374 52.848 16.176 52.452 16.044 51.9827C15.912 51.5134 15.846 51.0294 15.846 50.5307ZM25.46 44.5467H27.66V52.3787H25.46V44.5467ZM16 55.4329H27.748V58.1829H16V55.4329ZM29.684 56.8189C29.684 56.3056 29.8453 55.8802 30.168 55.5429C30.4907 55.2202 30.8793 55.0589 31.334 55.0589C31.8033 55.0589 32.192 55.2202 32.5 55.5429C32.8227 55.8802 32.984 56.3056 32.984 56.8189C32.984 57.3322 32.83 57.7502 32.522 58.0729C32.2287 58.4102 31.8547 58.5789 31.4 58.5789C30.916 58.5789 30.5053 58.4176 30.168 58.0949C29.8453 57.7722 29.684 57.3469 29.684 56.8189ZM16 64.9163L27.748 59.8783V62.7383L17.386 67.0723V65.6643L27.748 70.1523V72.7923L16 67.7543V64.9163ZM15.846 79.7108C15.846 78.4054 16.1027 77.2614 16.616 76.2788C17.144 75.3108 17.8627 74.5554 18.772 74.0128C19.6813 73.4848 20.7153 73.2208 21.874 73.2208C23.0473 73.2208 24.0813 73.4774 24.976 73.9908C25.8853 74.5188 26.5967 75.2374 27.11 76.1468C27.6233 77.0708 27.88 78.1194 27.88 79.2928C27.88 80.4368 27.6307 81.4561 27.132 82.3508C26.6333 83.2454 25.9293 83.9494 25.02 84.4628C24.1107 84.9761 23.04 85.2328 21.808 85.2328C21.6907 85.2328 21.5587 85.2254 21.412 85.2108C21.2653 85.2108 21.126 85.2034 20.994 85.1888V75.3988H22.82V83.7368L22.248 82.6588C22.9227 82.6734 23.5167 82.5341 24.03 82.2408C24.5433 81.9474 24.9467 81.5441 25.24 81.0308C25.5333 80.5321 25.68 79.9528 25.68 79.2928C25.68 78.6181 25.5333 78.0241 25.24 77.5108C24.9467 77.0121 24.536 76.6161 24.008 76.3228C23.4947 76.0441 22.886 75.9048 22.182 75.9048H21.742C21.038 75.9048 20.4147 76.0661 19.872 76.3888C19.3293 76.7114 18.9113 77.1661 18.618 77.7528C18.3247 78.3394 18.178 79.0141 18.178 79.7768C18.178 80.4368 18.2807 81.0308 18.486 81.5588C18.6913 82.0868 19.014 82.5561 19.454 82.9668L17.76 84.4408C17.144 83.9128 16.6673 83.2454 16.33 82.4388C16.0073 81.6468 15.846 80.7374 15.846 79.7108Z" fill="#5D87F2"/>
</svg>
