<svg width="52" height="24" viewBox="0 0 52 24" fill="none" xmlns="http://www.w3.org/2000/svg">
<mask id="mask0_80_230" style="mask-type:alpha" maskUnits="userSpaceOnUse" x="0" y="0" width="19" height="24">
<rect width="19" height="24" fill="white"/>
</mask>
<g mask="url(#mask0_80_230)">
<path d="M19 0H5C3.67441 0.00158786 2.40356 0.528882 1.46622 1.46622C0.528882 2.40356 0.00158786 3.67441 0 5L0 19C0.00158786 20.3256 0.528882 21.5964 1.46622 22.5338C2.40356 23.4711 3.67441 23.9984 5 24H19C20.3256 23.9984 21.5964 23.4711 22.5338 22.5338C23.4711 21.5964 23.9984 20.3256 24 19V5C23.9984 3.67441 23.4711 2.40356 22.5338 1.46622C21.5964 0.528882 20.3256 0.00158786 19 0V0ZM22 19C22 19.7956 21.6839 20.5587 21.1213 21.1213C20.5587 21.6839 19.7956 22 19 22H5C4.20435 22 3.44129 21.6839 2.87868 21.1213C2.31607 20.5587 2 19.7956 2 19V5C2 4.20435 2.31607 3.44129 2.87868 2.87868C3.44129 2.31607 4.20435 2 5 2H19C19.7956 2 20.5587 2.31607 21.1213 2.87868C21.6839 3.44129 22 4.20435 22 5V19Z" fill="#5D87F2"/>
</g>
<mask id="mask1_80_230" style="mask-type:alpha" maskUnits="userSpaceOnUse" x="19" y="0" width="14" height="24">
<rect x="19" width="14" height="24" fill="white"/>
</mask>
<g mask="url(#mask1_80_230)">
<path d="M33 0H19C17.6744 0.00158786 16.4036 0.528882 15.4662 1.46622C14.5289 2.40356 14.0016 3.67441 14 5L14 19C14.0016 20.3256 14.5289 21.5964 15.4662 22.5338C16.4036 23.4711 17.6744 23.9984 19 24H33C34.3256 23.9984 35.5964 23.4711 36.5338 22.5338C37.4711 21.5964 37.9984 20.3256 38 19V5C37.9984 3.67441 37.4711 2.40356 36.5338 1.46622C35.5964 0.528882 34.3256 0.00158786 33 0V0ZM36 19C36 19.7956 35.6839 20.5587 35.1213 21.1213C34.5587 21.6839 33.7956 22 33 22H19C18.2044 22 17.4413 21.6839 16.8787 21.1213C16.3161 20.5587 16 19.7956 16 19V5C16 4.20435 16.3161 3.44129 16.8787 2.87868C17.4413 2.31607 18.2044 2 19 2H33C33.7956 2 34.5587 2.31607 35.1213 2.87868C35.6839 3.44129 36 4.20435 36 5V19Z" fill="#5D87F2"/>
<path d="M14.5833 1H27.4167C28.6318 1.00146 29.7967 1.48481 30.656 2.34403C31.5152 3.20326 31.9985 4.3682 32 5.58333V18.4167C31.9985 19.6318 31.5152 20.7967 30.656 21.656C29.7967 22.5152 28.6318 22.9985 27.4167 23H14.5833C13.3682 22.9985 12.2033 22.5152 11.344 21.656C10.4848 20.7967 10.0015 19.6318 10 18.4167V5.58333C10.0015 4.3682 10.4848 3.20326 11.344 2.34403C12.2033 1.48481 13.3682 1.00146 14.5833 1V1ZM11.8333 18.4167C11.8333 19.146 12.1231 19.8455 12.6388 20.3612C13.1545 20.8769 13.854 21.1667 14.5833 21.1667H27.4167C28.146 21.1667 28.8455 20.8769 29.3612 20.3612C29.8769 19.8455 30.1667 19.146 30.1667 18.4167V5.58333C30.1667 4.85399 29.8769 4.15451 29.3612 3.63879C28.8455 3.12306 28.146 2.83333 27.4167 2.83333H14.5833C13.854 2.83333 13.1545 3.12306 12.6388 3.63879C12.1231 4.15451 11.8333 4.85399 11.8333 5.58333V18.4167Z" fill="white"/>
<path d="M20.5833 1H33.4167C34.6318 1.00146 35.7967 1.48481 36.656 2.34403C37.5152 3.20326 37.9985 4.3682 38 5.58333V18.4167C37.9985 19.6318 37.5152 20.7967 36.656 21.656C35.7967 22.5152 34.6318 22.9985 33.4167 23H20.5833C19.3682 22.9985 18.2033 22.5152 17.344 21.656C16.4848 20.7967 16.0015 19.6318 16 18.4167V5.58333C16.0015 4.3682 16.4848 3.20326 17.344 2.34403C18.2033 1.48481 19.3682 1.00146 20.5833 1V1ZM17.8333 18.4167C17.8333 19.146 18.1231 19.8455 18.6388 20.3612C19.1545 20.8769 19.854 21.1667 20.5833 21.1667H33.4167C34.146 21.1667 34.8455 20.8769 35.3612 20.3612C35.8769 19.8455 36.1667 19.146 36.1667 18.4167V5.58333C36.1667 4.85399 35.8769 4.15451 35.3612 3.63879C34.8455 3.12306 34.146 2.83333 33.4167 2.83333H20.5833C19.854 2.83333 19.1545 3.12306 18.6388 3.63879C18.1231 4.15451 17.8333 4.85399 17.8333 5.58333V18.4167Z" fill="white"/>
</g>
<mask id="mask2_80_230" style="mask-type:alpha" maskUnits="userSpaceOnUse" x="33" y="0" width="19" height="24">
<rect width="19" height="24" transform="matrix(-1 0 0 1 52 0)" fill="white"/>
</mask>
<g mask="url(#mask2_80_230)">
<path d="M33 0H47C48.3256 0.00158786 49.5964 0.528882 50.5338 1.46622C51.4711 2.40356 51.9984 3.67441 52 5V19C51.9984 20.3256 51.4711 21.5964 50.5338 22.5338C49.5964 23.4711 48.3256 23.9984 47 24H33C31.6744 23.9984 30.4036 23.4711 29.4662 22.5338C28.5289 21.5964 28.0016 20.3256 28 19V5C28.0016 3.67441 28.5289 2.40356 29.4662 1.46622C30.4036 0.528882 31.6744 0.00158786 33 0V0ZM30 19C30 19.7956 30.3161 20.5587 30.8787 21.1213C31.4413 21.6839 32.2044 22 33 22H47C47.7956 22 48.5587 21.6839 49.1213 21.1213C49.6839 20.5587 50 19.7956 50 19V5C50 4.20435 49.6839 3.44129 49.1213 2.87868C48.5587 2.31607 47.7956 2 47 2H33C32.2044 2 31.4413 2.31607 30.8787 2.87868C30.3161 3.44129 30 4.20435 30 5V19Z" fill="#5D87F2"/>
<path d="M33.5833 1H46.4167C47.6318 1.00146 48.7967 1.48481 49.656 2.34403C50.5152 3.20326 50.9985 4.3682 51 5.58333V18.4167C50.9985 19.6318 50.5152 20.7967 49.656 21.656C48.7967 22.5152 47.6318 22.9985 46.4167 23H33.5833C32.3682 22.9985 31.2033 22.5152 30.344 21.656C29.4848 20.7967 29.0015 19.6318 29 18.4167V5.58333C29.0015 4.3682 29.4848 3.20326 30.344 2.34403C31.2033 1.48481 32.3682 1.00146 33.5833 1V1ZM30.8333 18.4167C30.8333 19.146 31.1231 19.8455 31.6388 20.3612C32.1545 20.8769 32.854 21.1667 33.5833 21.1667H46.4167C47.146 21.1667 47.8455 20.8769 48.3612 20.3612C48.8769 19.8455 49.1667 19.146 49.1667 18.4167V5.58333C49.1667 4.85399 48.8769 4.15451 48.3612 3.63879C47.8455 3.12306 47.146 2.83333 46.4167 2.83333H33.5833C32.854 2.83333 32.1545 3.12306 31.6388 3.63879C31.1231 4.15451 30.8333 4.85399 30.8333 5.58333V18.4167Z" fill="white"/>
</g>
<path d="M5.80671 1H19.1534C20.4171 1.00146 21.6287 1.48481 22.5222 2.34403C23.4158 3.20326 23.9185 4.3682 23.92 5.58333V18.4167C23.9185 19.6318 23.4158 20.7967 22.5222 21.656C21.6287 22.5152 20.4171 22.9985 19.1534 23H5.80671C4.54298 22.9985 3.33143 22.5152 2.43784 21.656C1.54424 20.7967 1.04156 19.6318 1.04004 18.4167V5.58333C1.04156 4.3682 1.54424 3.20326 2.43784 2.34403C3.33143 1.48481 4.54298 1.00146 5.80671 1V1ZM2.94671 18.4167C2.94671 19.146 3.24803 19.8455 3.78439 20.3612C4.32074 20.8769 5.04819 21.1667 5.80671 21.1667H19.1534C19.9119 21.1667 20.6393 20.8769 21.1757 20.3612C21.7121 19.8455 22.0134 19.146 22.0134 18.4167V5.58333C22.0134 4.85399 21.7121 4.15451 21.1757 3.63879C20.6393 3.12306 19.9119 2.83333 19.1534 2.83333H5.80671C5.04819 2.83333 4.32074 3.12306 3.78439 3.63879C3.24803 4.15451 2.94671 4.85399 2.94671 5.58333V18.4167Z" fill="white"/>
<path d="M4.022 16L7.542 8.3H8.345L11.865 16H11.007L7.773 8.773H8.103L4.869 16H4.022ZM5.408 13.943L5.65 13.283H10.127L10.369 13.943H5.408ZM15.3181 16.055C14.7461 16.055 14.2327 15.9303 13.7781 15.681C13.3307 15.4243 12.9787 15.076 12.7221 14.636C12.4654 14.1887 12.3371 13.679 12.3371 13.107C12.3371 12.5277 12.4654 12.018 12.7221 11.578C12.9787 11.138 13.3307 10.7933 13.7781 10.544C14.2327 10.2947 14.7461 10.17 15.3181 10.17C15.8094 10.17 16.2531 10.2653 16.6491 10.456C17.0451 10.6467 17.3567 10.9327 17.5841 11.314L17.0011 11.71C16.8031 11.4167 16.5574 11.2003 16.2641 11.061C15.9707 10.9217 15.6517 10.852 15.3071 10.852C14.8964 10.852 14.5261 10.9473 14.1961 11.138C13.8661 11.3213 13.6057 11.5817 13.4151 11.919C13.2244 12.2563 13.1291 12.6523 13.1291 13.107C13.1291 13.5617 13.2244 13.9577 13.4151 14.295C13.6057 14.6323 13.8661 14.8963 14.1961 15.087C14.5261 15.2703 14.8964 15.362 15.3071 15.362C15.6517 15.362 15.9707 15.2923 16.2641 15.153C16.5574 15.0137 16.8031 14.801 17.0011 14.515L17.5841 14.911C17.3567 15.285 17.0451 15.571 16.6491 15.769C16.2531 15.9597 15.8094 16.055 15.3181 16.055ZM21.0088 16.055C20.4661 16.055 20.0481 15.9083 19.7548 15.615C19.4614 15.3217 19.3148 14.9073 19.3148 14.372V8.949H20.0958V14.328C20.0958 14.6653 20.1801 14.9257 20.3488 15.109C20.5248 15.2923 20.7741 15.384 21.0968 15.384C21.4414 15.384 21.7274 15.285 21.9548 15.087L22.2298 15.648C22.0758 15.7873 21.8888 15.89 21.6688 15.956C21.4561 16.022 21.2361 16.055 21.0088 16.055ZM18.2808 10.874V10.225H21.8558V10.874H18.2808ZM23.6515 16V10.225H24.4325V16H23.6515ZM24.0475 8.949C23.8862 8.949 23.7505 8.894 23.6405 8.784C23.5305 8.674 23.4755 8.542 23.4755 8.388C23.4755 8.234 23.5305 8.10567 23.6405 8.003C23.7505 7.893 23.8862 7.838 24.0475 7.838C24.2088 7.838 24.3445 7.88933 24.4545 7.992C24.5645 8.09467 24.6195 8.223 24.6195 8.377C24.6195 8.53833 24.5645 8.674 24.4545 8.784C24.3518 8.894 24.2162 8.949 24.0475 8.949ZM28.0906 16L25.5276 10.225H26.3416L28.6956 15.582H28.3106L30.6976 10.225H31.4676L28.8936 16H28.0906ZM36.0146 16V14.724L35.9816 14.515V12.381C35.9816 11.8897 35.8423 11.512 35.5636 11.248C35.2923 10.984 34.8853 10.852 34.3426 10.852C33.9686 10.852 33.613 10.9143 33.2756 11.039C32.9383 11.1637 32.6523 11.3287 32.4176 11.534L32.0656 10.951C32.359 10.7017 32.711 10.511 33.1216 10.379C33.5323 10.2397 33.965 10.17 34.4196 10.17C35.1676 10.17 35.7433 10.357 36.1466 10.731C36.5573 11.0977 36.7626 11.6587 36.7626 12.414V16H36.0146ZM34.0236 16.055C33.591 16.055 33.2133 15.9853 32.8906 15.846C32.5753 15.6993 32.3333 15.5013 32.1646 15.252C31.996 14.9953 31.9116 14.702 31.9116 14.372C31.9116 14.0713 31.9813 13.8 32.1206 13.558C32.2673 13.3087 32.502 13.1107 32.8246 12.964C33.1546 12.81 33.5946 12.733 34.1446 12.733H36.1356V13.316H34.1666C33.6093 13.316 33.2206 13.415 33.0006 13.613C32.788 13.811 32.6816 14.0567 32.6816 14.35C32.6816 14.68 32.81 14.944 33.0666 15.142C33.3233 15.34 33.6826 15.439 34.1446 15.439C34.5846 15.439 34.9623 15.34 35.2776 15.142C35.6003 14.9367 35.835 14.6433 35.9816 14.262L36.1576 14.801C36.011 15.1823 35.7543 15.4867 35.3876 15.714C35.0283 15.9413 34.5736 16.055 34.0236 16.055ZM40.7099 16.055C40.1673 16.055 39.7493 15.9083 39.4559 15.615C39.1626 15.3217 39.0159 14.9073 39.0159 14.372V8.949H39.7969V14.328C39.7969 14.6653 39.8813 14.9257 40.0499 15.109C40.2259 15.2923 40.4753 15.384 40.7979 15.384C41.1426 15.384 41.4286 15.285 41.6559 15.087L41.9309 15.648C41.7769 15.7873 41.5899 15.89 41.3699 15.956C41.1573 16.022 40.9373 16.055 40.7099 16.055ZM37.9819 10.874V10.225H41.5569V10.874H37.9819ZM45.6016 16.055C45.0002 16.055 44.4722 15.9303 44.0176 15.681C43.5629 15.4243 43.2072 15.076 42.9506 14.636C42.6939 14.1887 42.5656 13.679 42.5656 13.107C42.5656 12.535 42.6866 12.029 42.9286 11.589C43.1779 11.149 43.5152 10.8043 43.9406 10.555C44.3732 10.2983 44.8572 10.17 45.3926 10.17C45.9352 10.17 46.4156 10.2947 46.8336 10.544C47.2589 10.786 47.5926 11.1307 47.8346 11.578C48.0766 12.018 48.1976 12.5277 48.1976 13.107C48.1976 13.1437 48.1939 13.184 48.1866 13.228C48.1866 13.2647 48.1866 13.305 48.1866 13.349H43.1596V12.766H47.7686L47.4606 12.997C47.4606 12.579 47.3689 12.2087 47.1856 11.886C47.0096 11.556 46.7676 11.2993 46.4596 11.116C46.1516 10.9327 45.7959 10.841 45.3926 10.841C44.9966 10.841 44.6409 10.9327 44.3256 11.116C44.0102 11.2993 43.7646 11.556 43.5886 11.886C43.4126 12.216 43.3246 12.5937 43.3246 13.019V13.14C43.3246 13.58 43.4199 13.9687 43.6106 14.306C43.8086 14.636 44.0799 14.8963 44.4246 15.087C44.7766 15.2703 45.1762 15.362 45.6236 15.362C45.9756 15.362 46.3019 15.2997 46.6026 15.175C46.9106 15.0503 47.1746 14.8597 47.3946 14.603L47.8346 15.109C47.5779 15.417 47.2552 15.6517 46.8666 15.813C46.4852 15.9743 46.0636 16.055 45.6016 16.055Z" fill="#5D87F2"/>
</svg>
