<svg width="52" height="24" viewBox="0 0 52 24" fill="none" xmlns="http://www.w3.org/2000/svg">
<mask id="mask0_56_63" style="mask-type:alpha" maskUnits="userSpaceOnUse" x="0" y="0" width="19" height="24">
<rect width="19" height="24" fill="white"/>
</mask>
<g mask="url(#mask0_56_63)">
<path d="M19 0H5C3.67441 0.00158786 2.40356 0.528882 1.46622 1.46622C0.528882 2.40356 0.00158786 3.67441 0 5L0 19C0.00158786 20.3256 0.528882 21.5964 1.46622 22.5338C2.40356 23.4711 3.67441 23.9984 5 24H19C20.3256 23.9984 21.5964 23.4711 22.5338 22.5338C23.4711 21.5964 23.9984 20.3256 24 19V5C23.9984 3.67441 23.4711 2.40356 22.5338 1.46622C21.5964 0.528882 20.3256 0.00158786 19 0V0ZM22 19C22 19.7956 21.6839 20.5587 21.1213 21.1213C20.5587 21.6839 19.7956 22 19 22H5C4.20435 22 3.44129 21.6839 2.87868 21.1213C2.31607 20.5587 2 19.7956 2 19V5C2 4.20435 2.31607 3.44129 2.87868 2.87868C3.44129 2.31607 4.20435 2 5 2H19C19.7956 2 20.5587 2.31607 21.1213 2.87868C21.6839 3.44129 22 4.20435 22 5V19Z" fill="#5D87F2"/>
</g>
<mask id="mask1_56_63" style="mask-type:alpha" maskUnits="userSpaceOnUse" x="19" y="0" width="14" height="24">
<rect x="19" width="14" height="24" fill="white"/>
</mask>
<g mask="url(#mask1_56_63)">
<path d="M33 0H19C17.6744 0.00158786 16.4036 0.528882 15.4662 1.46622C14.5289 2.40356 14.0016 3.67441 14 5L14 19C14.0016 20.3256 14.5289 21.5964 15.4662 22.5338C16.4036 23.4711 17.6744 23.9984 19 24H33C34.3256 23.9984 35.5964 23.4711 36.5338 22.5338C37.4711 21.5964 37.9984 20.3256 38 19V5C37.9984 3.67441 37.4711 2.40356 36.5338 1.46622C35.5964 0.528882 34.3256 0.00158786 33 0V0ZM36 19C36 19.7956 35.6839 20.5587 35.1213 21.1213C34.5587 21.6839 33.7956 22 33 22H19C18.2044 22 17.4413 21.6839 16.8787 21.1213C16.3161 20.5587 16 19.7956 16 19V5C16 4.20435 16.3161 3.44129 16.8787 2.87868C17.4413 2.31607 18.2044 2 19 2H33C33.7956 2 34.5587 2.31607 35.1213 2.87868C35.6839 3.44129 36 4.20435 36 5V19Z" fill="#5D87F2"/>
</g>
<mask id="mask2_56_63" style="mask-type:alpha" maskUnits="userSpaceOnUse" x="33" y="0" width="19" height="24">
<rect width="19" height="24" transform="matrix(-1 0 0 1 52 0)" fill="white"/>
</mask>
<g mask="url(#mask2_56_63)">
<path d="M33 0H47C48.3256 0.00158786 49.5964 0.528882 50.5338 1.46622C51.4711 2.40356 51.9984 3.67441 52 5V19C51.9984 20.3256 51.4711 21.5964 50.5338 22.5338C49.5964 23.4711 48.3256 23.9984 47 24H33C31.6744 23.9984 30.4036 23.4711 29.4662 22.5338C28.5289 21.5964 28.0016 20.3256 28 19V5C28.0016 3.67441 28.5289 2.40356 29.4662 1.46622C30.4036 0.528882 31.6744 0.00158786 33 0V0ZM30 19C30 19.7956 30.3161 20.5587 30.8787 21.1213C31.4413 21.6839 32.2044 22 33 22H47C47.7956 22 48.5587 21.6839 49.1213 21.1213C49.6839 20.5587 50 19.7956 50 19V5C50 4.20435 49.6839 3.44129 49.1213 2.87868C48.5587 2.31607 47.7956 2 47 2H33C32.2044 2 31.4413 2.31607 30.8787 2.87868C30.3161 3.44129 30 4.20435 30 5V19Z" fill="#5D87F2"/>
</g>
<path d="M2.945 16L6.41 8.3H7.818L11.294 16H9.798L6.817 9.059H7.389L4.419 16H2.945ZM4.54 14.218L4.925 13.096H9.083L9.468 14.218H4.54ZM14.7825 16.077C14.1665 16.077 13.6165 15.9487 13.1325 15.692C12.6559 15.428 12.2819 15.0687 12.0105 14.614C11.7392 14.1593 11.6035 13.6423 11.6035 13.063C11.6035 12.4763 11.7392 11.9593 12.0105 11.512C12.2819 11.0573 12.6559 10.7017 13.1325 10.445C13.6165 10.1883 14.1665 10.06 14.7825 10.06C15.3545 10.06 15.8569 10.1773 16.2895 10.412C16.7295 10.6393 17.0632 10.9767 17.2905 11.424L16.2345 12.04C16.0585 11.7613 15.8422 11.556 15.5855 11.424C15.3362 11.292 15.0649 11.226 14.7715 11.226C14.4342 11.226 14.1299 11.2993 13.8585 11.446C13.5872 11.5927 13.3745 11.8053 13.2205 12.084C13.0665 12.3553 12.9895 12.6817 12.9895 13.063C12.9895 13.4443 13.0665 13.7743 13.2205 14.053C13.3745 14.3243 13.5872 14.5333 13.8585 14.68C14.1299 14.8267 14.4342 14.9 14.7715 14.9C15.0649 14.9 15.3362 14.834 15.5855 14.702C15.8422 14.57 16.0585 14.3647 16.2345 14.086L17.2905 14.702C17.0632 15.142 16.7295 15.483 16.2895 15.725C15.8569 15.9597 15.3545 16.077 14.7825 16.077ZM20.7653 16.077C20.12 16.077 19.6213 15.912 19.2693 15.582C18.9173 15.2447 18.7413 14.7497 18.7413 14.097V8.828H20.1163V14.064C20.1163 14.3427 20.186 14.559 20.3253 14.713C20.472 14.867 20.6737 14.944 20.9303 14.944C21.2383 14.944 21.495 14.8633 21.7003 14.702L22.0853 15.681C21.924 15.813 21.726 15.912 21.4913 15.978C21.2567 16.044 21.0147 16.077 20.7653 16.077ZM17.7733 11.27V10.17H21.6893V11.27H17.7733ZM23.2165 16V10.126H24.5915V16H23.2165ZM23.9095 9.158C23.6528 9.158 23.4401 9.07733 23.2715 8.916C23.1101 8.75467 23.0295 8.56033 23.0295 8.333C23.0295 8.09833 23.1101 7.904 23.2715 7.75C23.4401 7.58867 23.6528 7.508 23.9095 7.508C24.1661 7.508 24.3751 7.585 24.5365 7.739C24.7051 7.88567 24.7895 8.07267 24.7895 8.3C24.7895 8.542 24.7088 8.74733 24.5475 8.916C24.3861 9.07733 24.1735 9.158 23.9095 9.158ZM27.9581 16L25.4391 10.126H26.8691L29.0361 15.307H28.3321L30.5761 10.126H31.8961L29.3771 16H27.9581ZM36.1919 16V14.812L36.1149 14.559V12.48C36.1149 12.0767 35.9939 11.765 35.7519 11.545C35.5099 11.3177 35.1432 11.204 34.6519 11.204C34.3219 11.204 33.9956 11.2553 33.6729 11.358C33.3576 11.4607 33.0899 11.6037 32.8699 11.787L32.3309 10.786C32.6462 10.544 33.0202 10.3643 33.4529 10.247C33.8929 10.1223 34.3476 10.06 34.8169 10.06C35.6676 10.06 36.3239 10.2653 36.7859 10.676C37.2552 11.0793 37.4899 11.7063 37.4899 12.557V16H36.1919ZM34.3439 16.077C33.9039 16.077 33.5189 16.0037 33.1889 15.857C32.8589 15.703 32.6022 15.494 32.4189 15.23C32.2429 14.9587 32.1549 14.6543 32.1549 14.317C32.1549 13.987 32.2319 13.69 32.3859 13.426C32.5472 13.162 32.8076 12.953 33.1669 12.799C33.5262 12.645 34.0029 12.568 34.5969 12.568H36.3019V13.481H34.6959C34.2266 13.481 33.9112 13.558 33.7499 13.712C33.5886 13.8587 33.5079 14.042 33.5079 14.262C33.5079 14.5113 33.6069 14.7093 33.8049 14.856C34.0029 15.0027 34.2779 15.076 34.6299 15.076C34.9672 15.076 35.2679 14.999 35.5319 14.845C35.8032 14.691 35.9976 14.4637 36.1149 14.163L36.3459 14.988C36.2139 15.3327 35.9756 15.6003 35.6309 15.791C35.2936 15.9817 34.8646 16.077 34.3439 16.077ZM41.4655 16.077C40.8202 16.077 40.3215 15.912 39.9695 15.582C39.6175 15.2447 39.4415 14.7497 39.4415 14.097V8.828H40.8165V14.064C40.8165 14.3427 40.8862 14.559 41.0255 14.713C41.1722 14.867 41.3739 14.944 41.6305 14.944C41.9385 14.944 42.1952 14.8633 42.4005 14.702L42.7855 15.681C42.6242 15.813 42.4262 15.912 42.1915 15.978C41.9569 16.044 41.7149 16.077 41.4655 16.077ZM38.4735 11.27V10.17H42.3895V11.27H38.4735ZM46.4843 16.077C45.8316 16.077 45.2596 15.9487 44.7683 15.692C44.2843 15.428 43.9066 15.0687 43.6353 14.614C43.3713 14.1593 43.2393 13.6423 43.2393 13.063C43.2393 12.4763 43.3676 11.9593 43.6243 11.512C43.8883 11.0573 44.2476 10.7017 44.7023 10.445C45.1643 10.1883 45.6886 10.06 46.2753 10.06C46.8473 10.06 47.357 10.1847 47.8043 10.434C48.2516 10.6833 48.6036 11.0353 48.8603 11.49C49.117 11.9447 49.2453 12.48 49.2453 13.096C49.2453 13.1547 49.2416 13.2207 49.2343 13.294C49.2343 13.3673 49.2306 13.437 49.2233 13.503H44.3283V12.59H48.4973L47.9583 12.876C47.9656 12.5387 47.896 12.2417 47.7493 11.985C47.6026 11.7283 47.401 11.5267 47.1443 11.38C46.895 11.2333 46.6053 11.16 46.2753 11.16C45.938 11.16 45.641 11.2333 45.3843 11.38C45.135 11.5267 44.937 11.732 44.7903 11.996C44.651 12.2527 44.5813 12.557 44.5813 12.909V13.129C44.5813 13.481 44.662 13.7927 44.8233 14.064C44.9846 14.3353 45.212 14.5443 45.5053 14.691C45.7986 14.8377 46.136 14.911 46.5173 14.911C46.8473 14.911 47.1443 14.8597 47.4083 14.757C47.6723 14.6543 47.907 14.493 48.1123 14.273L48.8493 15.12C48.5853 15.428 48.2516 15.6663 47.8483 15.835C47.4523 15.9963 46.9976 16.077 46.4843 16.077Z" fill="#5D87F2"/>
</svg>
