<svg width="24" height="24" viewBox="0 0 24 24" fill="none" xmlns="http://www.w3.org/2000/svg">
<g clip-path="url(#clip0_80_257)">
<path d="M17.9619 7.15238L15.3489 4.53788C14.8624 4.04899 14.2838 3.66138 13.6465 3.39748C13.0093 3.13357 12.3261 2.99861 11.6364 3.00038H8.25012C7.25593 3.00157 6.30279 3.39704 5.59979 4.10005C4.89678 4.80305 4.50131 5.75619 4.50012 6.75038V17.2504C4.50131 18.2446 4.89678 19.1977 5.59979 19.9007C6.30279 20.6037 7.25593 20.9992 8.25012 21.0004H15.7501C16.7443 20.9992 17.6975 20.6037 18.4005 19.9007C19.1035 19.1977 19.4989 18.2446 19.5001 17.2504V10.8641C19.502 10.1745 19.367 9.49125 19.1029 8.85411C18.8389 8.21698 18.451 7.63856 17.9619 7.15238ZM16.9014 8.21288C17.1304 8.44849 17.3273 8.71328 17.4871 9.00038H14.2501C14.0512 9.00038 13.8604 8.92137 13.7198 8.78071C13.5791 8.64006 13.5001 8.4493 13.5001 8.25038V5.01338C13.7873 5.17308 14.0523 5.36975 14.2884 5.59838L16.9014 8.21288ZM18.0001 17.2504C18.0001 17.8471 17.7631 18.4194 17.3411 18.8414C16.9192 19.2633 16.3469 19.5004 15.7501 19.5004H8.25012C7.65338 19.5004 7.08109 19.2633 6.65913 18.8414C6.23717 18.4194 6.00012 17.8471 6.00012 17.2504V6.75038C6.00012 6.15365 6.23717 5.58135 6.65913 5.15939C7.08109 4.73744 7.65338 4.50038 8.25012 4.50038H11.6364C11.7594 4.50038 11.8786 4.52438 12.0001 4.53563V8.25038C12.0001 8.84712 12.2372 9.41942 12.6591 9.84137C13.0811 10.2633 13.6534 10.5004 14.2501 10.5004H17.9649C17.9761 10.6219 18.0001 10.7404 18.0001 10.8641V17.2504Z" fill="#5D87F2"/>
</g>
<path d="M19 0H5C3.67441 0.00158786 2.40356 0.528882 1.46622 1.46622C0.528882 2.40356 0.00158786 3.67441 0 5L0 19C0.00158786 20.3256 0.528882 21.5964 1.46622 22.5338C2.40356 23.4711 3.67441 23.9984 5 24H19C20.3256 23.9984 21.5964 23.4711 22.5338 22.5338C23.4711 21.5964 23.9984 20.3256 24 19V5C23.9984 3.67441 23.4711 2.40356 22.5338 1.46622C21.5964 0.528882 20.3256 0.00158786 19 0V0ZM22 19C22 19.7956 21.6839 20.5587 21.1213 21.1213C20.5587 21.6839 19.7956 22 19 22H5C4.20435 22 3.44129 21.6839 2.87868 21.1213C2.31607 20.5587 2 19.7956 2 19V5C2 4.20435 2.31607 3.44129 2.87868 2.87868C3.44129 2.31607 4.20435 2 5 2H19C19.7956 2 20.5587 2.31607 21.1213 2.87868C21.6839 3.44129 22 4.20435 22 5V19Z" fill="#5D87F2"/>
<path d="M19 0H5C3.67441 0.00158786 2.40356 0.528882 1.46622 1.46622C0.528882 2.40356 0.00158786 3.67441 0 5L0 19C0.00158786 20.3256 0.528882 21.5964 1.46622 22.5338C2.40356 23.4711 3.67441 23.9984 5 24H19C20.3256 23.9984 21.5964 23.4711 22.5338 22.5338C23.4711 21.5964 23.9984 20.3256 24 19V5C23.9984 3.67441 23.4711 2.40356 22.5338 1.46622C21.5964 0.528882 20.3256 0.00158786 19 0V0ZM22 19C22 19.7956 21.6839 20.5587 21.1213 21.1213C20.5587 21.6839 19.7956 22 19 22H5C4.20435 22 3.44129 21.6839 2.87868 21.1213C2.31607 20.5587 2 19.7956 2 19V5C2 4.20435 2.31607 3.44129 2.87868 2.87868C3.44129 2.31607 4.20435 2 5 2H19C19.7956 2 20.5587 2.31607 21.1213 2.87868C21.6839 3.44129 22 4.20435 22 5V19Z" fill="#5D87F2"/>
<defs>
<clipPath id="clip0_80_257">
<rect width="18" height="18" fill="white" transform="translate(3 3)"/>
</clipPath>
</defs>
</svg>
