<svg width="52" height="24" viewBox="0 0 52 24" fill="none" xmlns="http://www.w3.org/2000/svg">
<mask id="mask0_92_117" style="mask-type:alpha" maskUnits="userSpaceOnUse" x="0" y="0" width="19" height="24">
<rect width="19" height="24" fill="white"/>
</mask>
<g mask="url(#mask0_92_117)">
<path d="M19 0H5C3.6744 0.00158786 2.40356 0.528882 1.46622 1.46622C0.528882 2.40356 0.00158786 3.6744 0 5L0 19C0.00158786 20.3256 0.528882 21.5964 1.46622 22.5338C2.40356 23.4711 3.6744 23.9984 5 24H19C20.3256 23.9984 21.5964 23.4711 22.5338 22.5338C23.4711 21.5964 23.9984 20.3256 24 19V5C23.9984 3.6744 23.4711 2.40356 22.5338 1.46622C21.5964 0.528882 20.3256 0.00158786 19 0V0ZM22 19C22 19.7956 21.6839 20.5587 21.1213 21.1213C20.5587 21.6839 19.7956 22 19 22H5C4.20435 22 3.44129 21.6839 2.87868 21.1213C2.31607 20.5587 2 19.7956 2 19V5C2 4.20435 2.31607 3.44129 2.87868 2.87868C3.44129 2.31607 4.20435 2 5 2H19C19.7956 2 20.5587 2.31607 21.1213 2.87868C21.6839 3.44129 22 4.20435 22 5V19Z" fill="#5D87F2"/>
</g>
<mask id="mask1_92_117" style="mask-type:alpha" maskUnits="userSpaceOnUse" x="19" y="0" width="14" height="24">
<rect x="19" width="14" height="24" fill="white"/>
</mask>
<g mask="url(#mask1_92_117)">
<path d="M33 0H19C17.6744 0.00158786 16.4036 0.528882 15.4662 1.46622C14.5289 2.40356 14.0016 3.6744 14 5L14 19C14.0016 20.3256 14.5289 21.5964 15.4662 22.5338C16.4036 23.4711 17.6744 23.9984 19 24H33C34.3256 23.9984 35.5964 23.4711 36.5338 22.5338C37.4711 21.5964 37.9984 20.3256 38 19V5C37.9984 3.6744 37.4711 2.40356 36.5338 1.46622C35.5964 0.528882 34.3256 0.00158786 33 0V0ZM36 19C36 19.7956 35.6839 20.5587 35.1213 21.1213C34.5587 21.6839 33.7956 22 33 22H19C18.2044 22 17.4413 21.6839 16.8787 21.1213C16.3161 20.5587 16 19.7956 16 19V5C16 4.20435 16.3161 3.44129 16.8787 2.87868C17.4413 2.31607 18.2044 2 19 2H33C33.7956 2 34.5587 2.31607 35.1213 2.87868C35.6839 3.44129 36 4.20435 36 5V19Z" fill="#5D87F2"/>
</g>
<mask id="mask2_92_117" style="mask-type:alpha" maskUnits="userSpaceOnUse" x="33" y="0" width="19" height="24">
<rect width="19" height="24" transform="matrix(-1 0 0 1 52 0)" fill="white"/>
</mask>
<g mask="url(#mask2_92_117)">
<path d="M33 0H47C48.3256 0.00158786 49.5964 0.528882 50.5338 1.46622C51.4711 2.40356 51.9984 3.6744 52 5V19C51.9984 20.3256 51.4711 21.5964 50.5338 22.5338C49.5964 23.4711 48.3256 23.9984 47 24H33C31.6744 23.9984 30.4036 23.4711 29.4662 22.5338C28.5289 21.5964 28.0016 20.3256 28 19V5C28.0016 3.6744 28.5289 2.40356 29.4662 1.46622C30.4036 0.528882 31.6744 0.00158786 33 0V0ZM30 19C30 19.7956 30.3161 20.5587 30.8787 21.1213C31.4413 21.6839 32.2044 22 33 22H47C47.7956 22 48.5587 21.6839 49.1213 21.1213C49.6839 20.5587 50 19.7956 50 19V5C50 4.20435 49.6839 3.44129 49.1213 2.87868C48.5587 2.31607 47.7956 2 47 2H33C32.2044 2 31.4413 2.31607 30.8787 2.87868C30.3161 3.44129 30 4.20435 30 5V19Z" fill="#5D87F2"/>
</g>
<path d="M7.945 16L11.41 8.3H12.818L16.294 16H14.798L11.817 9.059H12.389L9.419 16H7.945ZM9.54 14.218L9.925 13.096H14.083L14.468 14.218H9.54ZM17.1413 16V7.838H18.5163V16H17.1413ZM20.3209 16V7.838H21.6959V16H20.3209Z" fill="#5D87F2"/>
<g clip-path="url(#clip0_92_117)">
<path d="M42.9619 7.15238L40.3489 4.53788C39.8624 4.04899 39.2838 3.66138 38.6465 3.39748C38.0093 3.13357 37.3261 2.99861 36.6364 3.00038H33.2501C32.2559 3.00157 31.3028 3.39704 30.5998 4.10005C29.8968 4.80305 29.5013 5.75619 29.5001 6.75038V17.2504C29.5013 18.2446 29.8968 19.1977 30.5998 19.9007C31.3028 20.6037 32.2559 20.9992 33.2501 21.0004H40.7501C41.7443 20.9992 42.6975 20.6037 43.4005 19.9007C44.1035 19.1977 44.4989 18.2446 44.5001 17.2504V10.8641C44.502 10.1745 44.367 9.49125 44.1029 8.85411C43.8389 8.21698 43.451 7.63856 42.9619 7.15238V7.15238ZM41.9014 8.21288C42.1304 8.44849 42.3273 8.71328 42.4871 9.00038H39.2501C39.0512 9.00038 38.8604 8.92137 38.7198 8.78071C38.5791 8.64006 38.5001 8.4493 38.5001 8.25038V5.01338C38.7873 5.17308 39.0523 5.36975 39.2884 5.59838L41.9014 8.21288ZM43.0001 17.2504C43.0001 17.8471 42.7631 18.4194 42.3411 18.8414C41.9192 19.2633 41.3469 19.5004 40.7501 19.5004H33.2501C32.6534 19.5004 32.0811 19.2633 31.6591 18.8414C31.2372 18.4194 31.0001 17.8471 31.0001 17.2504V6.75038C31.0001 6.15365 31.2372 5.58135 31.6591 5.15939C32.0811 4.73744 32.6534 4.50038 33.2501 4.50038H36.6364C36.7594 4.50038 36.8786 4.52438 37.0001 4.53563V8.25038C37.0001 8.84712 37.2372 9.41942 37.6591 9.84137C38.0811 10.2633 38.6534 10.5004 39.2501 10.5004H42.9649C42.9761 10.6219 43.0001 10.7404 43.0001 10.8641V17.2504Z" fill="#5D87F2"/>
</g>
<defs>
<clipPath id="clip0_92_117">
<rect width="18" height="18" fill="white" transform="translate(28 3)"/>
</clipPath>
</defs>
</svg>
