<svg width="48" height="48" viewBox="0 0 48 48" fill="none" xmlns="http://www.w3.org/2000/svg">
<path d="M34.5989 15.3819L29.9535 10.7339C29.0886 9.8647 28.06 9.17563 26.9272 8.70646C25.7943 8.2373 24.5797 7.99736 23.3535 8.00052H17.3335C15.5661 8.00264 13.8716 8.70569 12.6218 9.95548C11.372 11.2053 10.669 12.8997 10.6669 14.6672V33.3339C10.669 35.1013 11.372 36.7958 12.6218 38.0456C13.8716 39.2953 15.5661 39.9984 17.3335 40.0005H30.6669C32.4343 39.9984 34.1288 39.2953 35.3786 38.0456C36.6284 36.7958 37.3314 35.1013 37.3335 33.3339V21.9805C37.3369 20.7544 37.0969 19.5398 36.6274 18.4072C36.158 17.2745 35.4685 16.2462 34.5989 15.3819V15.3819ZM32.7135 17.2672C33.1207 17.686 33.4708 18.1568 33.7549 18.6672H28.0002C27.6466 18.6672 27.3074 18.5267 27.0574 18.2767C26.8073 18.0266 26.6669 17.6875 26.6669 17.3339V11.5792C27.1774 11.8631 27.6486 12.2127 28.0682 12.6192L32.7135 17.2672ZM34.6669 33.3339C34.6669 34.3947 34.2454 35.4121 33.4953 36.1623C32.7452 36.9124 31.7277 37.3339 30.6669 37.3339H17.3335C16.2727 37.3339 15.2553 36.9124 14.5051 36.1623C13.755 35.4121 13.3335 34.3947 13.3335 33.3339V14.6672C13.3335 13.6063 13.755 12.5889 14.5051 11.8388C15.2553 11.0886 16.2727 10.6672 17.3335 10.6672H23.3535C23.5722 10.6672 23.7842 10.7099 24.0002 10.7299V17.3339C24.0002 18.3947 24.4216 19.4121 25.1718 20.1623C25.9219 20.9124 26.9393 21.3339 28.0002 21.3339H34.6042C34.6242 21.5499 34.6669 21.7605 34.6669 21.9805V33.3339Z" fill="#5D87F2"/>
<rect x="2" y="2" width="44" height="44" rx="3" stroke="#5D87F2" stroke-width="4" stroke-linejoin="round"/>
</svg>
