<svg width="99" height="48" viewBox="0 0 99 48" fill="none" xmlns="http://www.w3.org/2000/svg">
<rect x="2" y="2" width="95" height="44" rx="3" stroke="#5D87F2" stroke-width="4" stroke-linejoin="round"/>
<mask id="mask0_113_510" style="mask-type:alpha" maskUnits="userSpaceOnUse" x="42" y="6" width="25" height="30">
<path d="M43.5306 6H67V36H56.2857V33.5L55.7755 32L54.2449 21.5L51.6939 19L48.6327 16.5L42 12L43.5306 6Z" fill="#D9D9D9"/>
</mask>
<g mask="url(#mask0_113_510)">
<path d="M64.274 12.9205L60.2093 8.56302C59.4525 7.74819 58.5525 7.10218 57.5613 6.66234C56.57 6.2225 55.5072 5.99756 54.4343 6.00052H49.1668C47.6203 6.0025 46.1376 6.66162 45.0441 7.83329C43.9505 9.00496 43.3353 10.5935 43.3335 12.2505V29.7505C43.3353 31.4075 43.9505 32.9961 45.0441 34.1677C46.1376 35.3394 47.6203 35.9985 49.1668 36.0005H60.8335C62.38 35.9985 63.8627 35.3394 64.9562 34.1677C66.0498 32.9961 66.665 31.4075 66.6668 29.7505V19.1068C66.6697 17.9573 66.4597 16.8186 66.049 15.7567C65.6383 14.6948 65.0349 13.7308 64.274 12.9205V12.9205ZM62.6243 14.688C62.9806 15.0807 63.2869 15.522 63.5355 16.0005H58.5002C58.1907 16.0005 57.894 15.8688 57.6752 15.6344C57.4564 15.4 57.3335 15.082 57.3335 14.7505V9.35552C57.7803 9.62167 58.1925 9.94947 58.5597 10.3305L62.6243 14.688ZM64.3335 29.7505C64.3335 30.7451 63.9647 31.6989 63.3084 32.4022C62.652 33.1054 61.7618 33.5005 60.8335 33.5005H49.1668C48.2386 33.5005 47.3483 33.1054 46.692 32.4022C46.0356 31.6989 45.6668 30.7451 45.6668 29.7505V12.2505C45.6668 11.256 46.0356 10.3021 46.692 9.59887C47.3483 8.89561 48.2386 8.50052 49.1668 8.50052H54.4343C54.6257 8.50052 54.8112 8.54052 55.0002 8.55927V14.7505C55.0002 15.7451 55.3689 16.6989 56.0253 17.4022C56.6817 18.1054 57.5719 18.5005 58.5002 18.5005H64.2787C64.2962 18.703 64.3335 18.9005 64.3335 19.1068V29.7505Z" fill="#5D87F2"/>
</g>
<g clip-path="url(#clip0_113_510)">
<path d="M55.1052 18.9205L50.8954 14.563C50.1116 13.7482 49.1794 13.1022 48.1528 12.6623C47.1261 12.2225 46.0254 11.9976 44.9142 12.0005H39.4585C37.8568 12.0025 36.3212 12.6616 35.1886 13.8333C34.0559 15.005 33.4188 16.5935 33.4169 18.2505V35.7505C33.4188 37.4075 34.0559 38.9961 35.1886 40.1677C36.3212 41.3394 37.8568 41.9985 39.4585 42.0005H51.5419C53.1436 41.9985 54.6792 41.3394 55.8119 40.1677C56.9445 38.9961 57.5816 37.4075 57.5835 35.7505V25.1068C57.5865 23.9573 57.369 22.8186 56.9436 21.7567C56.5182 20.6948 55.8934 19.7308 55.1052 18.9205V18.9205ZM53.3967 20.688C53.7656 21.0807 54.0829 21.522 54.3404 22.0005H49.1252C48.8047 22.0005 48.4974 21.8688 48.2708 21.6344C48.0442 21.4 47.9169 21.082 47.9169 20.7505V15.3555C48.3796 15.6217 48.8065 15.9495 49.1868 16.3305L53.3967 20.688ZM55.1669 35.7505C55.1669 36.7451 54.785 37.6989 54.1051 38.4022C53.4253 39.1054 52.5033 39.5005 51.5419 39.5005H39.4585C38.4971 39.5005 37.5751 39.1054 36.8953 38.4022C36.2155 37.6989 35.8335 36.7451 35.8335 35.7505V18.2505C35.8335 17.256 36.2155 16.3021 36.8953 15.5989C37.5751 14.8956 38.4971 14.5005 39.4585 14.5005H44.9142C45.1123 14.5005 45.3045 14.5405 45.5002 14.5593V20.7505C45.5002 21.7451 45.8821 22.6989 46.5619 23.4022C47.2418 24.1054 48.1638 24.5005 49.1252 24.5005H55.1101C55.1282 24.703 55.1669 24.9005 55.1669 25.1068V35.7505Z" fill="#5D87F2"/>
</g>
<defs>
<clipPath id="clip0_113_510">
<rect width="29" height="30" fill="white" transform="translate(31 12)"/>
</clipPath>
</defs>
</svg>
