<svg width="50" height="24" viewBox="0 0 50 24" fill="none" xmlns="http://www.w3.org/2000/svg">
<mask id="mask0_93_1097" style="mask-type:alpha" maskUnits="userSpaceOnUse" x="0" y="0" width="19" height="24">
<rect width="19" height="24" fill="white"/>
</mask>
<g mask="url(#mask0_93_1097)">
<path d="M19 0H5C3.6744 0.00158786 2.40356 0.528882 1.46622 1.46622C0.528882 2.40356 0.00158786 3.6744 0 5L0 19C0.00158786 20.3256 0.528882 21.5964 1.46622 22.5338C2.40356 23.4711 3.6744 23.9984 5 24H19C20.3256 23.9984 21.5964 23.4711 22.5338 22.5338C23.4711 21.5964 23.9984 20.3256 24 19V5C23.9984 3.6744 23.4711 2.40356 22.5338 1.46622C21.5964 0.528882 20.3256 0.00158786 19 0V0ZM22 19C22 19.7956 21.6839 20.5587 21.1213 21.1213C20.5587 21.6839 19.7956 22 19 22H5C4.20435 22 3.44129 21.6839 2.87868 21.1213C2.31607 20.5587 2 19.7956 2 19V5C2 4.20435 2.31607 3.44129 2.87868 2.87868C3.44129 2.31607 4.20435 2 5 2H19C19.7956 2 20.5587 2.31607 21.1213 2.87868C21.6839 3.44129 22 4.20435 22 5V19Z" fill="#5D87F2"/>
</g>
<mask id="mask1_93_1097" style="mask-type:alpha" maskUnits="userSpaceOnUse" x="30" y="0" width="20" height="24">
<rect width="19" height="24" transform="matrix(-1 0 0 1 49.5 0)" fill="white"/>
</mask>
<g mask="url(#mask1_93_1097)">
<path d="M30.5 0H44.5C45.8256 0.00158786 47.0964 0.528882 48.0338 1.46622C48.9711 2.40356 49.4984 3.6744 49.5 5V19C49.4984 20.3256 48.9711 21.5964 48.0338 22.5338C47.0964 23.4711 45.8256 23.9984 44.5 24H30.5C29.1744 23.9984 27.9036 23.4711 26.9662 22.5338C26.0289 21.5964 25.5016 20.3256 25.5 19V5C25.5016 3.6744 26.0289 2.40356 26.9662 1.46622C27.9036 0.528882 29.1744 0.00158786 30.5 0V0ZM27.5 19C27.5 19.7956 27.8161 20.5587 28.3787 21.1213C28.9413 21.6839 29.7044 22 30.5 22H44.5C45.2956 22 46.0587 21.6839 46.6213 21.1213C47.1839 20.5587 47.5 19.7956 47.5 19V5C47.5 4.20435 47.1839 3.44129 46.6213 2.87868C46.0587 2.31607 45.2956 2 44.5 2H30.5C29.7044 2 28.9413 2.31607 28.3787 2.87868C27.8161 3.44129 27.5 4.20435 27.5 5V19Z" fill="#5D87F2"/>
</g>
<mask id="mask2_93_1097" style="mask-type:alpha" maskUnits="userSpaceOnUse" x="21" y="3" width="13" height="15">
<path d="M21.2106 3H34V16.2632L32.579 17.2105H30.6843H28.7895H27.8421V12.4737L26.6048 10.1053L23.7047 7.73684L21.2106 7.26316V3Z" fill="#D9D9D9"/>
</mask>
<g mask="url(#mask2_93_1097)">
<path d="M32.5488 6.27815L30.4859 4.21407C30.1019 3.8281 29.6451 3.5221 29.142 3.31375C28.6389 3.10541 28.0995 2.99886 27.555 3.00026H24.8817C24.0968 3.0012 23.3443 3.31341 22.7893 3.86841C22.2343 4.42342 21.9221 5.17589 21.9211 5.96078V14.2503C21.9221 15.0351 22.2343 15.7876 22.7893 16.3426C23.3443 16.8976 24.0968 17.2098 24.8817 17.2108H30.8027C31.5876 17.2098 32.3401 16.8976 32.8951 16.3426C33.4501 15.7876 33.7623 15.0351 33.7632 14.2503V9.20848C33.7647 8.66399 33.6581 8.12463 33.4497 7.62162C33.2412 7.11862 32.935 6.66198 32.5488 6.27815V6.27815ZM31.7116 7.11539C31.8924 7.3014 32.0479 7.51044 32.174 7.7371H29.6185C29.4615 7.7371 29.3109 7.67472 29.1998 7.56368C29.0888 7.45263 29.0264 7.30203 29.0264 7.14499V4.58947C29.2531 4.71554 29.4624 4.87081 29.6487 5.05131L31.7116 7.11539ZM32.579 14.2503C32.579 14.7214 32.3919 15.1732 32.0588 15.5063C31.7256 15.8394 31.2738 16.0266 30.8027 16.0266H24.8817C24.4106 16.0266 23.9587 15.8394 23.6256 15.5063C23.2925 15.1732 23.1054 14.7214 23.1054 14.2503V5.96078C23.1054 5.48968 23.2925 5.03786 23.6256 4.70474C23.9587 4.37162 24.4106 4.18447 24.8817 4.18447H27.555C27.6521 4.18447 27.7463 4.20342 27.8422 4.2123V7.14499C27.8422 7.6161 28.0293 8.06792 28.3625 8.40104C28.6956 8.73416 29.1474 8.92131 29.6185 8.92131H32.5512C32.5601 9.01723 32.579 9.11078 32.579 9.20848V14.2503Z" fill="#5D87F2"/>
</g>
<g clip-path="url(#clip0_93_1097)">
<path d="M26.8646 10.0676L24.8017 8.0035C24.4177 7.61753 23.9609 7.31153 23.4578 7.10318C22.9547 6.89484 22.4153 6.78829 21.8708 6.78969H19.1975C18.4126 6.79063 17.6601 7.10284 17.1051 7.65784C16.5501 8.21285 16.2379 8.96532 16.2369 9.75021V18.0397C16.2379 18.8246 16.5501 19.5771 17.1051 20.1321C17.6601 20.6871 18.4126 20.9993 19.1975 21.0002H25.1185C25.9034 20.9993 26.6559 20.6871 27.2109 20.1321C27.7659 19.5771 28.0781 18.8246 28.079 18.0397V12.9979C28.0805 12.4534 27.9739 11.9141 27.7655 11.4111C27.557 10.908 27.2508 10.4514 26.8646 10.0676V10.0676ZM26.0274 10.9048C26.2082 11.0908 26.3637 11.2999 26.4898 11.5265H23.9343C23.7773 11.5265 23.6267 11.4641 23.5156 11.3531C23.4046 11.2421 23.3422 11.0915 23.3422 10.9344V8.3789C23.5689 8.50497 23.7782 8.66024 23.9645 8.84074L26.0274 10.9048ZM26.8948 18.0397C26.8948 18.5108 26.7077 18.9626 26.3746 19.2957C26.0414 19.6289 25.5896 19.816 25.1185 19.816H19.1975C18.7264 19.816 18.2745 19.6289 17.9414 19.2957C17.6083 18.9626 17.4211 18.5108 17.4211 18.0397V9.75021C17.4211 9.2791 17.6083 8.82729 17.9414 8.49417C18.2745 8.16104 18.7264 7.9739 19.1975 7.9739H21.8708C21.9679 7.9739 22.0621 7.99284 22.158 8.00173V10.9344C22.158 11.4055 22.3451 11.8573 22.6783 12.1905C23.0114 12.5236 23.4632 12.7107 23.9343 12.7107H26.867C26.8759 12.8067 26.8948 12.9002 26.8948 12.9979V18.0397Z" fill="#5D87F2"/>
</g>
<mask id="mask3_93_1097" style="mask-type:alpha" maskUnits="userSpaceOnUse" x="24" y="0" width="14" height="24">
<rect width="14" height="24" transform="translate(24)" fill="white"/>
</mask>
<g mask="url(#mask3_93_1097)">
<path d="M38 0H24C22.6744 0.00158786 21.4036 0.528882 20.4662 1.46622C19.5289 2.40356 19.0016 3.6744 19 5V19C19.0016 20.3256 19.5289 21.5964 20.4662 22.5338C21.4036 23.4711 22.6744 23.9984 24 24H38C39.3256 23.9984 40.5964 23.4711 41.5338 22.5338C42.4711 21.5964 42.9984 20.3256 43 19V5C42.9984 3.6744 42.4711 2.40356 41.5338 1.46622C40.5964 0.528882 39.3256 0.00158786 38 0V0ZM41 19C41 19.7956 40.6839 20.5587 40.1213 21.1213C39.5587 21.6839 38.7956 22 38 22H24C23.2044 22 22.4413 21.6839 21.8787 21.1213C21.3161 20.5587 21 19.7956 21 19V5C21 4.20435 21.3161 3.44129 21.8787 2.87868C22.4413 2.31607 23.2044 2 24 2H38C38.7956 2 39.5587 2.31607 40.1213 2.87868C40.6839 3.44129 41 4.20435 41 5V19Z" fill="#5D87F2"/>
</g>
<mask id="mask4_93_1097" style="mask-type:alpha" maskUnits="userSpaceOnUse" x="13" y="0" width="14" height="24">
<rect width="14" height="24" transform="translate(13)" fill="white"/>
</mask>
<g mask="url(#mask4_93_1097)">
<path d="M27 0H13C11.6744 0.00158786 10.4036 0.528882 9.46622 1.46622C8.52888 2.40356 8.00159 3.6744 8 5L8 19C8.00159 20.3256 8.52888 21.5964 9.46622 22.5338C10.4036 23.4711 11.6744 23.9984 13 24H27C28.3256 23.9984 29.5964 23.4711 30.5338 22.5338C31.4711 21.5964 31.9984 20.3256 32 19V5C31.9984 3.6744 31.4711 2.40356 30.5338 1.46622C29.5964 0.528882 28.3256 0.00158786 27 0V0ZM30 19C30 19.7956 29.6839 20.5587 29.1213 21.1213C28.5587 21.6839 27.7956 22 27 22H13C12.2044 22 11.4413 21.6839 10.8787 21.1213C10.3161 20.5587 10 19.7956 10 19V5C10 4.20435 10.3161 3.44129 10.8787 2.87868C11.4413 2.31607 12.2044 2 13 2H27C27.7956 2 28.5587 2.31607 29.1213 2.87868C29.6839 3.44129 30 4.20435 30 5V19Z" fill="#5D87F2"/>
</g>
<defs>
<clipPath id="clip0_93_1097">
<rect width="14.2105" height="14.2105" fill="white" transform="translate(15.0526 6.78943)"/>
</clipPath>
</defs>
</svg>
