<svg width="50" height="24" viewBox="0 0 50 24" fill="none" xmlns="http://www.w3.org/2000/svg">
<mask id="mask0_94_1192" style="mask-type:alpha" maskUnits="userSpaceOnUse" x="0" y="0" width="19" height="24">
<rect width="19" height="24" fill="white"/>
</mask>
<g mask="url(#mask0_94_1192)">
<path d="M19 0H5C3.6744 0.00158786 2.40356 0.528882 1.46622 1.46622C0.528882 2.40356 0.00158786 3.6744 0 5L0 19C0.00158786 20.3256 0.528882 21.5964 1.46622 22.5338C2.40356 23.4711 3.6744 23.9984 5 24H19C20.3256 23.9984 21.5964 23.4711 22.5338 22.5338C23.4711 21.5964 23.9984 20.3256 24 19V5C23.9984 3.6744 23.4711 2.40356 22.5338 1.46622C21.5964 0.528882 20.3256 0.00158786 19 0V0ZM22 19C22 19.7956 21.6839 20.5587 21.1213 21.1213C20.5587 21.6839 19.7956 22 19 22H5C4.20435 22 3.44129 21.6839 2.87868 21.1213C2.31607 20.5587 2 19.7956 2 19V5C2 4.20435 2.31607 3.44129 2.87868 2.87868C3.44129 2.31607 4.20435 2 5 2H19C19.7956 2 20.5587 2.31607 21.1213 2.87868C21.6839 3.44129 22 4.20435 22 5V19Z" fill="#5D87F2"/>
</g>
<mask id="mask1_94_1192" style="mask-type:alpha" maskUnits="userSpaceOnUse" x="30" y="0" width="20" height="24">
<rect width="19" height="24" transform="matrix(-1 0 0 1 49.5 0)" fill="white"/>
</mask>
<g mask="url(#mask1_94_1192)">
<path d="M30.5 0H44.5C45.8256 0.00158786 47.0964 0.528882 48.0338 1.46622C48.9711 2.40356 49.4984 3.6744 49.5 5V19C49.4984 20.3256 48.9711 21.5964 48.0338 22.5338C47.0964 23.4711 45.8256 23.9984 44.5 24H30.5C29.1744 23.9984 27.9036 23.4711 26.9662 22.5338C26.0289 21.5964 25.5016 20.3256 25.5 19V5C25.5016 3.6744 26.0289 2.40356 26.9662 1.46622C27.9036 0.528882 29.1744 0.00158786 30.5 0V0ZM27.5 19C27.5 19.7956 27.8161 20.5587 28.3787 21.1213C28.9413 21.6839 29.7044 22 30.5 22H44.5C45.2956 22 46.0587 21.6839 46.6213 21.1213C47.1839 20.5587 47.5 19.7956 47.5 19V5C47.5 4.20435 47.1839 3.44129 46.6213 2.87868C46.0587 2.31607 45.2956 2 44.5 2H30.5C29.7044 2 28.9413 2.31607 28.3787 2.87868C27.8161 3.44129 27.5 4.20435 27.5 5V19Z" fill="#5D87F2"/>
</g>
<mask id="mask2_94_1192" style="mask-type:alpha" maskUnits="userSpaceOnUse" x="24" y="0" width="14" height="24">
<rect width="14" height="24" transform="translate(24)" fill="white"/>
</mask>
<g mask="url(#mask2_94_1192)">
<path d="M38 0H24C22.6744 0.00158786 21.4036 0.528882 20.4662 1.46622C19.5289 2.40356 19.0016 3.6744 19 5V19C19.0016 20.3256 19.5289 21.5964 20.4662 22.5338C21.4036 23.4711 22.6744 23.9984 24 24H38C39.3256 23.9984 40.5964 23.4711 41.5338 22.5338C42.4711 21.5964 42.9984 20.3256 43 19V5C42.9984 3.6744 42.4711 2.40356 41.5338 1.46622C40.5964 0.528882 39.3256 0.00158786 38 0V0ZM41 19C41 19.7956 40.6839 20.5587 40.1213 21.1213C39.5587 21.6839 38.7956 22 38 22H24C23.2044 22 22.4413 21.6839 21.8787 21.1213C21.3161 20.5587 21 19.7956 21 19V5C21 4.20435 21.3161 3.44129 21.8787 2.87868C22.4413 2.31607 23.2044 2 24 2H38C38.7956 2 39.5587 2.31607 40.1213 2.87868C40.6839 3.44129 41 4.20435 41 5V19Z" fill="#5D87F2"/>
</g>
<mask id="mask3_94_1192" style="mask-type:alpha" maskUnits="userSpaceOnUse" x="13" y="0" width="14" height="24">
<rect width="14" height="24" transform="translate(13)" fill="white"/>
</mask>
<g mask="url(#mask3_94_1192)">
<path d="M27 0H13C11.6744 0.00158786 10.4036 0.528882 9.46622 1.46622C8.52888 2.40356 8.00159 3.6744 8 5L8 19C8.00159 20.3256 8.52888 21.5964 9.46622 22.5338C10.4036 23.4711 11.6744 23.9984 13 24H27C28.3256 23.9984 29.5964 23.4711 30.5338 22.5338C31.4711 21.5964 31.9984 20.3256 32 19V5C31.9984 3.6744 31.4711 2.40356 30.5338 1.46622C29.5964 0.528882 28.3256 0.00158786 27 0V0ZM30 19C30 19.7956 29.6839 20.5587 29.1213 21.1213C28.5587 21.6839 27.7956 22 27 22H13C12.2044 22 11.4413 21.6839 10.8787 21.1213C10.3161 20.5587 10 19.7956 10 19V5C10 4.20435 10.3161 3.44129 10.8787 2.87868C11.4413 2.31607 12.2044 2 13 2H27C27.7956 2 28.5587 2.31607 29.1213 2.87868C29.6839 3.44129 30 4.20435 30 5V19Z" fill="#5D87F2"/>
</g>
<g clip-path="url(#clip0_94_1192)">
<path d="M31.9012 13.655C31.5536 14.0037 31.1403 14.28 30.6853 14.468C30.2302 14.656 29.7423 14.7518 29.25 14.75V14.75H17.1L20.325 17.975C20.4654 18.116 20.5441 18.307 20.5436 18.5061C20.5432 18.7051 20.4638 18.8958 20.3227 19.0362C20.1817 19.1766 19.9907 19.2553 19.7916 19.2549C19.5926 19.2545 19.4019 19.175 19.2615 19.034L15.549 15.3222C15.1975 14.9706 15 14.4938 15 13.9966C15 13.4994 15.1975 13.0226 15.549 12.671L19.2615 8.95772C19.3311 8.88788 19.4138 8.83245 19.5049 8.79459C19.5959 8.75672 19.6935 8.73716 19.7922 8.73702C19.8908 8.73688 19.9885 8.75616 20.0796 8.79377C20.1708 8.83138 20.2536 8.88658 20.3235 8.95621C20.3933 9.02585 20.4487 9.10855 20.4866 9.19961C20.5245 9.29067 20.544 9.38829 20.5442 9.4869C20.5443 9.58552 20.525 9.6832 20.4874 9.77436C20.4498 9.86552 20.3946 9.94838 20.325 10.0182L17.091 13.25H29.25C29.8467 13.25 30.419 13.0129 30.841 12.591C31.2629 12.169 31.5 11.5967 31.5 11V5.74997C31.5 5.15323 31.2629 4.58093 30.841 4.15898C30.419 3.73702 29.8467 3.49997 29.25 3.49997H18.75C18.5511 3.49997 18.3603 3.42095 18.2196 3.2803C18.079 3.13964 18 2.94888 18 2.74997C18 2.55105 18.079 2.36029 18.2196 2.21964C18.3603 2.07898 18.5511 1.99997 18.75 1.99997H29.25C30.2442 2.00116 31.1973 2.39663 31.9003 3.09963C32.6033 3.80263 32.9988 4.75577 33 5.74997V11C33.0016 11.4932 32.9054 11.9819 32.7168 12.4376C32.5282 12.8934 32.251 13.3071 31.9012 13.655Z" fill="#5D87F2"/>
</g>
<rect width="16" height="6" transform="translate(17 2)" fill="white"/>
<defs>
<clipPath id="clip0_94_1192">
<rect width="18" height="18" fill="white" transform="matrix(1 0 0 -1 15 20)"/>
</clipPath>
</defs>
</svg>
