<svg width="48" height="99" viewBox="0 0 48 99" fill="none" xmlns="http://www.w3.org/2000/svg">
<rect x="2" y="97" width="95" height="44" rx="3" transform="rotate(-90 2 97)" stroke="#5D87F2" stroke-width="4" stroke-linejoin="round"/>
<g clip-path="url(#clip0_113_522)">
<path d="M38.0466 53.7199C37.4287 54.3399 36.694 54.8311 35.8849 55.1653C35.0759 55.4994 34.2086 55.6698 33.3333 55.6665V55.6665H11.7333L17.4666 61.3999C17.7163 61.6506 17.8561 61.9902 17.8554 62.344C17.8546 62.6979 17.7133 63.0369 17.4626 63.2865C17.2119 63.5362 16.8723 63.676 16.5185 63.6753C16.1646 63.6745 15.8256 63.5333 15.576 63.2825L8.97595 56.6839C8.35105 56.0588 8 55.2111 8 54.3272C8 53.4433 8.35105 52.5956 8.97595 51.9705L15.576 45.3692C15.6997 45.2451 15.8468 45.1465 16.0087 45.0792C16.1705 45.0119 16.3441 44.9771 16.5194 44.9769C16.6947 44.9766 16.8684 45.0109 17.0304 45.0778C17.1925 45.1446 17.3398 45.2428 17.464 45.3665C17.5881 45.4903 17.6866 45.6374 17.754 45.7993C17.8213 45.9611 17.8561 46.1347 17.8563 46.31C17.8566 46.4853 17.8223 46.659 17.7554 46.821C17.6885 46.9831 17.5904 47.1304 17.4666 47.2545L11.7173 52.9999H33.3333C34.3942 52.9999 35.4116 52.5785 36.1617 51.8283C36.9119 51.0782 37.3333 50.0607 37.3333 48.9999V39.6666C37.3333 38.6057 36.9119 37.5883 36.1617 36.8381C35.4116 36.088 34.3942 35.6666 33.3333 35.6666H14.6666C14.313 35.6666 13.9739 35.5261 13.7238 35.276C13.4738 35.026 13.3333 34.6868 13.3333 34.3332C13.3333 33.9796 13.4738 33.6405 13.7238 33.3904C13.9739 33.1404 14.313 32.9999 14.6666 32.9999H33.3333C35.1007 33.002 36.7952 33.7051 38.045 34.9548C39.2948 36.2046 39.9978 37.8991 40 39.6666V48.9999C40.0029 49.8767 39.8318 50.7455 39.4965 51.5557C39.1612 52.3659 38.6684 53.1015 38.0466 53.7199Z" fill="#5D87F2"/>
</g>
<defs>
<clipPath id="clip0_113_522">
<rect width="32" height="32" fill="white" transform="matrix(1 0 0 -1 8 65)"/>
</clipPath>
</defs>
</svg>
