<svg width="24" height="24" viewBox="0 0 24 24" fill="none" xmlns="http://www.w3.org/2000/svg">
<g clip-path="url(#clip0_81_270)">
<path d="M19.9012 12.655C19.5536 13.0037 19.1404 13.28 18.6853 13.468C18.2302 13.656 17.7423 13.7518 17.25 13.75H5.09997L8.32497 16.975C8.46541 17.116 8.54406 17.307 8.54364 17.5061C8.54322 17.7051 8.46375 17.8958 8.32272 18.0362C8.1817 18.1766 7.99066 18.2553 7.79163 18.2549C7.59261 18.2545 7.40191 18.175 7.26147 18.034L3.54897 14.3222C3.19747 13.9706 3 13.4938 3 12.9966C3 12.4994 3.19747 12.0226 3.54897 11.671L7.26147 7.95772C7.33111 7.88789 7.41381 7.83245 7.50487 7.79459C7.59592 7.75672 7.69355 7.73716 7.79216 7.73702C7.89078 7.73688 7.98846 7.75616 8.07962 7.79377C8.17078 7.83138 8.25364 7.88658 8.32347 7.95621C8.3933 8.02585 8.44874 8.10855 8.4866 8.19961C8.52447 8.29067 8.54403 8.38829 8.54417 8.4869C8.54431 8.58552 8.52502 8.6832 8.48742 8.77436C8.44981 8.86552 8.39461 8.94838 8.32497 9.01822L5.09097 12.25H17.25C17.8467 12.25 18.419 12.0129 18.841 11.591C19.2629 11.169 19.5 10.5967 19.5 9.99996V4.74997C19.5 4.15323 19.2629 3.58093 18.841 3.15898C18.419 2.73702 17.8467 2.49997 17.25 2.49997H6.74997C6.55106 2.49997 6.3603 2.42095 6.21964 2.2803C6.07899 2.13964 5.99997 1.94888 5.99997 1.74997C5.99997 1.55105 6.07899 1.36029 6.21964 1.21964C6.3603 1.07898 6.55106 0.999966 6.74997 0.999966H17.25C18.2442 1.00116 19.1973 1.39663 19.9003 2.09963C20.6033 2.80263 20.9988 3.75577 21 4.74997V9.99996C21.0016 10.4932 20.9054 10.9819 20.7168 11.4376C20.5282 11.8934 20.2509 12.3071 19.9012 12.655Z" fill="#5D87F2"/>
</g>
<rect width="16" height="6" transform="translate(5 1)" fill="white"/>
<path d="M19 0H5C3.67441 0.00158786 2.40356 0.528882 1.46622 1.46622C0.528882 2.40356 0.00158786 3.67441 0 5L0 19C0.00158786 20.3256 0.528882 21.5964 1.46622 22.5338C2.40356 23.4711 3.67441 23.9984 5 24H19C20.3256 23.9984 21.5964 23.4711 22.5338 22.5338C23.4711 21.5964 23.9984 20.3256 24 19V5C23.9984 3.67441 23.4711 2.40356 22.5338 1.46622C21.5964 0.528882 20.3256 0.00158786 19 0V0ZM22 19C22 19.7956 21.6839 20.5587 21.1213 21.1213C20.5587 21.6839 19.7956 22 19 22H5C4.20435 22 3.44129 21.6839 2.87868 21.1213C2.31607 20.5587 2 19.7956 2 19V5C2 4.20435 2.31607 3.44129 2.87868 2.87868C3.44129 2.31607 4.20435 2 5 2H19C19.7956 2 20.5587 2.31607 21.1213 2.87868C21.6839 3.44129 22 4.20435 22 5V19Z" fill="#5D87F2"/>
<defs>
<clipPath id="clip0_81_270">
<rect width="18" height="18" fill="white" transform="matrix(1 0 0 -1 3 19)"/>
</clipPath>
</defs>
</svg>
