<svg width="48" height="100" viewBox="0 0 48 100" fill="none" xmlns="http://www.w3.org/2000/svg">
<g clip-path="url(#clip0_98_1325)">
<mask id="mask0_98_1325" style="mask-type:alpha" maskUnits="userSpaceOnUse" x="0" y="62" width="48" height="38">
<rect y="100" width="38" height="48" transform="rotate(-90 0 100)" fill="white"/>
</mask>
<g mask="url(#mask0_98_1325)">
<path d="M0 62L0 90C0.00317572 92.6512 1.05776 95.1929 2.93244 97.0676C4.80712 98.9422 7.34881 99.9968 10 100H38C40.6512 99.9968 43.1929 98.9422 45.0676 97.0676C46.9422 95.1929 47.9968 92.6512 48 90V62C47.9968 59.3488 46.9422 56.8071 45.0676 54.9324C43.1929 53.0578 40.6512 52.0032 38 52H10C7.34881 52.0032 4.80712 53.0578 2.93244 54.9324C1.05776 56.8071 0.00317572 59.3488 0 62H0ZM38 56C39.5913 56 41.1174 56.6321 42.2426 57.7574C43.3679 58.8826 44 60.4087 44 62V90C44 91.5913 43.3679 93.1174 42.2426 94.2426C41.1174 95.3679 39.5913 96 38 96H10C8.4087 96 6.88258 95.3679 5.75736 94.2426C4.63214 93.1174 4 91.5913 4 90L4 62C4 60.4087 4.63214 58.8826 5.75736 57.7574C6.88258 56.6321 8.4087 56 10 56H38Z" fill="#5D87F2"/>
</g>
<mask id="mask1_98_1325" style="mask-type:alpha" maskUnits="userSpaceOnUse" x="0" y="0" width="48" height="38">
<rect width="38" height="48" transform="matrix(0 1 1 0 0 0)" fill="white"/>
</mask>
<g mask="url(#mask1_98_1325)">
<path d="M0 38L0 10C0.00317572 7.34881 1.05776 4.80712 2.93244 2.93244C4.80712 1.05776 7.34881 0.00317572 10 0L38 0C40.6512 0.00317572 43.1929 1.05776 45.0676 2.93244C46.9422 4.80712 47.9968 7.34881 48 10V38C47.9968 40.6512 46.9422 43.1929 45.0676 45.0676C43.1929 46.9422 40.6512 47.9968 38 48H10C7.34881 47.9968 4.80712 46.9422 2.93244 45.0676C1.05776 43.1929 0.00317572 40.6512 0 38H0ZM38 44C39.5913 44 41.1174 43.3679 42.2426 42.2426C43.3679 41.1174 44 39.5913 44 38V10C44 8.4087 43.3679 6.88258 42.2426 5.75736C41.1174 4.63214 39.5913 4 38 4L10 4C8.4087 4 6.88258 4.63214 5.75736 5.75736C4.63214 6.88258 4 8.4087 4 10L4 38C4 39.5913 4.63214 41.1174 5.75736 42.2426C6.88258 43.3679 8.4087 44 10 44H38Z" fill="#5D87F2"/>
</g>
<mask id="mask2_98_1325" style="mask-type:alpha" maskUnits="userSpaceOnUse" x="0" y="38" width="48" height="24">
<rect width="24" height="48" transform="matrix(0 -1 1 0 0 62)" fill="white"/>
</mask>
<g mask="url(#mask2_98_1325)">
<path d="M0 38L0 66C0.00317572 68.6512 1.05776 71.1929 2.93244 73.0676C4.80712 74.9422 7.34881 75.9968 10 76H38C40.6512 75.9968 43.1929 74.9422 45.0676 73.0676C46.9422 71.1929 47.9968 68.6512 48 66V38C47.9968 35.3488 46.9422 32.8071 45.0676 30.9324C43.1929 29.0578 40.6512 28.0032 38 28H10C7.34881 28.0032 4.80712 29.0578 2.93244 30.9324C1.05776 32.8071 0.00317572 35.3488 0 38H0ZM38 32C39.5913 32 41.1174 32.6321 42.2426 33.7574C43.3679 34.8826 44 36.4087 44 38V66C44 67.5913 43.3679 69.1174 42.2426 70.2426C41.1174 71.3679 39.5913 72 38 72H10C8.4087 72 6.88258 71.3679 5.75736 70.2426C4.63214 69.1174 4 67.5913 4 66L4 38C4 36.4087 4.63214 34.8826 5.75736 33.7574C6.88258 32.6321 8.4087 32 10 32H38Z" fill="#5D87F2"/>
</g>
<g clip-path="url(#clip1_98_1325)">
<path d="M39.8024 57.3099C39.1073 58.0074 38.2807 58.5601 37.3705 58.936C36.4604 59.3119 35.4847 59.5036 34.4999 59.4999V59.4999H10.1999L16.6499 65.9499C16.9308 66.232 17.0881 66.6141 17.0873 67.0121C17.0864 67.4102 16.9275 67.7916 16.6454 68.0724C16.3634 68.3533 15.9813 68.5106 15.5833 68.5098C15.1852 68.5089 14.8038 68.35 14.5229 68.0679L7.09795 60.6444C6.39493 59.9412 6 58.9875 6 57.9932C6 56.9988 6.39493 56.0452 7.09795 55.3419L14.5229 47.9154C14.6622 47.7758 14.8276 47.6649 15.0097 47.5892C15.1918 47.5134 15.3871 47.4743 15.5843 47.474C15.7816 47.4738 15.9769 47.5123 16.1592 47.5875C16.3416 47.6628 16.5073 47.7732 16.6469 47.9124C16.7866 48.0517 16.8975 48.2171 16.9732 48.3992C17.0489 48.5813 17.0881 48.7766 17.0883 48.9738C17.0886 49.171 17.0501 49.3664 16.9748 49.5487C16.8996 49.731 16.7892 49.8968 16.6499 50.0364L10.1819 56.4999H34.4999C35.6934 56.4999 36.838 56.0258 37.6819 55.1819C38.5258 54.338 38.9999 53.1934 38.9999 51.9999V41.4999C38.9999 40.3065 38.5258 39.1619 37.6819 38.318C36.838 37.474 35.6934 36.9999 34.4999 36.9999H13.4999C13.1021 36.9999 12.7206 36.8419 12.4393 36.5606C12.158 36.2793 11.9999 35.8978 11.9999 35.4999C11.9999 35.1021 12.158 34.7206 12.4393 34.4393C12.7206 34.158 13.1021 33.9999 13.4999 33.9999H34.4999C36.4883 34.0023 38.3946 34.7933 39.8006 36.1993C41.2066 37.6053 41.9976 39.5115 41.9999 41.4999V51.9999C42.0033 52.9864 41.8107 53.9637 41.4335 54.8752C41.0563 55.7867 40.5019 56.6143 39.8024 57.3099Z" fill="#5D87F2"/>
</g>
</g>
<defs>
<clipPath id="clip0_98_1325">
<rect width="100" height="48" fill="white" transform="matrix(0 -1 1 0 0 100)"/>
</clipPath>
<clipPath id="clip1_98_1325">
<rect width="36" height="36" fill="white" transform="matrix(1 0 0 -1 6 70)"/>
</clipPath>
</defs>
</svg>
