<svg width="50" height="50" viewBox="0 0 50 50" fill="none" xmlns="http://www.w3.org/2000/svg">
<mask id="mask0_94_1219" style="mask-type:alpha" maskUnits="userSpaceOnUse" x="0" y="0" width="19" height="24">
<rect width="19" height="24" fill="white"/>
</mask>
<g mask="url(#mask0_94_1219)">
<path d="M19 0H5C3.6744 0.00158786 2.40356 0.528882 1.46622 1.46622C0.528882 2.40356 0.00158786 3.6744 0 5L0 19C0.00158786 20.3256 0.528882 21.5964 1.46622 22.5338C2.40356 23.4711 3.6744 23.9984 5 24H19C20.3256 23.9984 21.5964 23.4711 22.5338 22.5338C23.4711 21.5964 23.9984 20.3256 24 19V5C23.9984 3.6744 23.4711 2.40356 22.5338 1.46622C21.5964 0.528882 20.3256 0.00158786 19 0V0ZM22 19C22 19.7956 21.6839 20.5587 21.1213 21.1213C20.5587 21.6839 19.7956 22 19 22H5C4.20435 22 3.44129 21.6839 2.87868 21.1213C2.31607 20.5587 2 19.7956 2 19V5C2 4.20435 2.31607 3.44129 2.87868 2.87868C3.44129 2.31607 4.20435 2 5 2H19C19.7956 2 20.5587 2.31607 21.1213 2.87868C21.6839 3.44129 22 4.20435 22 5V19Z" fill="#5D87F2"/>
</g>
<mask id="mask1_94_1219" style="mask-type:alpha" maskUnits="userSpaceOnUse" x="31" y="0" width="19" height="24">
<rect width="19" height="24" transform="matrix(-1 0 0 1 50 0)" fill="white"/>
</mask>
<g mask="url(#mask1_94_1219)">
<path d="M31 0H45C46.3256 0.00158786 47.5964 0.528882 48.5338 1.46622C49.4711 2.40356 49.9984 3.6744 50 5V19C49.9984 20.3256 49.4711 21.5964 48.5338 22.5338C47.5964 23.4711 46.3256 23.9984 45 24H31C29.6744 23.9984 28.4036 23.4711 27.4662 22.5338C26.5289 21.5964 26.0016 20.3256 26 19V5C26.0016 3.6744 26.5289 2.40356 27.4662 1.46622C28.4036 0.528882 29.6744 0.00158786 31 0V0ZM28 19C28 19.7956 28.3161 20.5587 28.8787 21.1213C29.4413 21.6839 30.2044 22 31 22H45C45.7956 22 46.5587 21.6839 47.1213 21.1213C47.6839 20.5587 48 19.7956 48 19V5C48 4.20435 47.6839 3.44129 47.1213 2.87868C46.5587 2.31607 45.7956 2 45 2H31C30.2044 2 29.4413 2.31607 28.8787 2.87868C28.3161 3.44129 28 4.20435 28 5V19Z" fill="#5D87F2"/>
</g>
<mask id="mask2_94_1219" style="mask-type:alpha" maskUnits="userSpaceOnUse" x="24" y="0" width="14" height="24">
<rect width="14" height="24" transform="translate(24)" fill="white"/>
</mask>
<g mask="url(#mask2_94_1219)">
<path d="M38 0H24C22.6744 0.00158786 21.4036 0.528882 20.4662 1.46622C19.5289 2.40356 19.0016 3.6744 19 5V19C19.0016 20.3256 19.5289 21.5964 20.4662 22.5338C21.4036 23.4711 22.6744 23.9984 24 24H38C39.3256 23.9984 40.5964 23.4711 41.5338 22.5338C42.4711 21.5964 42.9984 20.3256 43 19V5C42.9984 3.6744 42.4711 2.40356 41.5338 1.46622C40.5964 0.528882 39.3256 0.00158786 38 0V0ZM41 19C41 19.7956 40.6839 20.5587 40.1213 21.1213C39.5587 21.6839 38.7956 22 38 22H24C23.2044 22 22.4413 21.6839 21.8787 21.1213C21.3161 20.5587 21 19.7956 21 19V5C21 4.20435 21.3161 3.44129 21.8787 2.87868C22.4413 2.31607 23.2044 2 24 2H38C38.7956 2 39.5587 2.31607 40.1213 2.87868C40.6839 3.44129 41 4.20435 41 5V19Z" fill="#5D87F2"/>
</g>
<mask id="mask3_94_1219" style="mask-type:alpha" maskUnits="userSpaceOnUse" x="13" y="0" width="14" height="24">
<rect width="14" height="24" transform="translate(13)" fill="white"/>
</mask>
<g mask="url(#mask3_94_1219)">
<path d="M27 0H13C11.6744 0.00158786 10.4036 0.528882 9.46622 1.46622C8.52888 2.40356 8.00159 3.6744 8 5L8 19C8.00159 20.3256 8.52888 21.5964 9.46622 22.5338C10.4036 23.4711 11.6744 23.9984 13 24H27C28.3256 23.9984 29.5964 23.4711 30.5338 22.5338C31.4711 21.5964 31.9984 20.3256 32 19V5C31.9984 3.6744 31.4711 2.40356 30.5338 1.46622C29.5964 0.528882 28.3256 0.00158786 27 0V0ZM30 19C30 19.7956 29.6839 20.5587 29.1213 21.1213C28.5587 21.6839 27.7956 22 27 22H13C12.2044 22 11.4413 21.6839 10.8787 21.1213C10.3161 20.5587 10 19.7956 10 19V5C10 4.20435 10.3161 3.44129 10.8787 2.87868C11.4413 2.31607 12.2044 2 13 2H27C27.7956 2 28.5587 2.31607 29.1213 2.87868C29.6839 3.44129 30 4.20435 30 5V19Z" fill="#5D87F2"/>
</g>
<mask id="mask4_94_1219" style="mask-type:alpha" maskUnits="userSpaceOnUse" x="0" y="25" width="19" height="25">
<rect y="25.5" width="19" height="24" fill="white"/>
</mask>
<g mask="url(#mask4_94_1219)">
<path d="M19 25.5H5C3.6744 25.5016 2.40356 26.0289 1.46622 26.9662C0.528882 27.9036 0.00158786 29.1744 0 30.5L0 44.5C0.00158786 45.8256 0.528882 47.0964 1.46622 48.0338C2.40356 48.9711 3.6744 49.4984 5 49.5H19C20.3256 49.4984 21.5964 48.9711 22.5338 48.0338C23.4711 47.0964 23.9984 45.8256 24 44.5V30.5C23.9984 29.1744 23.4711 27.9036 22.5338 26.9662C21.5964 26.0289 20.3256 25.5016 19 25.5V25.5ZM22 44.5C22 45.2956 21.6839 46.0587 21.1213 46.6213C20.5587 47.1839 19.7956 47.5 19 47.5H5C4.20435 47.5 3.44129 47.1839 2.87868 46.6213C2.31607 46.0587 2 45.2956 2 44.5V30.5C2 29.7044 2.31607 28.9413 2.87868 28.3787C3.44129 27.8161 4.20435 27.5 5 27.5H19C19.7956 27.5 20.5587 27.8161 21.1213 28.3787C21.6839 28.9413 22 29.7044 22 30.5V44.5Z" fill="#5D87F2"/>
</g>
<mask id="mask5_94_1219" style="mask-type:alpha" maskUnits="userSpaceOnUse" x="31" y="25" width="19" height="25">
<rect width="19" height="24" transform="matrix(-1 0 0 1 50 25.5)" fill="white"/>
</mask>
<g mask="url(#mask5_94_1219)">
<path d="M31 25.5H45C46.3256 25.5016 47.5964 26.0289 48.5338 26.9662C49.4711 27.9036 49.9984 29.1744 50 30.5V44.5C49.9984 45.8256 49.4711 47.0964 48.5338 48.0338C47.5964 48.9711 46.3256 49.4984 45 49.5H31C29.6744 49.4984 28.4036 48.9711 27.4662 48.0338C26.5289 47.0964 26.0016 45.8256 26 44.5V30.5C26.0016 29.1744 26.5289 27.9036 27.4662 26.9662C28.4036 26.0289 29.6744 25.5016 31 25.5V25.5ZM28 44.5C28 45.2956 28.3161 46.0587 28.8787 46.6213C29.4413 47.1839 30.2044 47.5 31 47.5H45C45.7956 47.5 46.5587 47.1839 47.1213 46.6213C47.6839 46.0587 48 45.2956 48 44.5V30.5C48 29.7044 47.6839 28.9413 47.1213 28.3787C46.5587 27.8161 45.7956 27.5 45 27.5H31C30.2044 27.5 29.4413 27.8161 28.8787 28.3787C28.3161 28.9413 28 29.7044 28 30.5V44.5Z" fill="#5D87F2"/>
</g>
<mask id="mask6_94_1219" style="mask-type:alpha" maskUnits="userSpaceOnUse" x="24" y="25" width="14" height="25">
<rect width="14" height="24" transform="translate(24 25.5)" fill="white"/>
</mask>
<g mask="url(#mask6_94_1219)">
<path d="M38 25.5H24C22.6744 25.5016 21.4036 26.0289 20.4662 26.9662C19.5289 27.9036 19.0016 29.1744 19 30.5V44.5C19.0016 45.8256 19.5289 47.0964 20.4662 48.0338C21.4036 48.9711 22.6744 49.4984 24 49.5H38C39.3256 49.4984 40.5964 48.9711 41.5338 48.0338C42.4711 47.0964 42.9984 45.8256 43 44.5V30.5C42.9984 29.1744 42.4711 27.9036 41.5338 26.9662C40.5964 26.0289 39.3256 25.5016 38 25.5V25.5ZM41 44.5C41 45.2956 40.6839 46.0587 40.1213 46.6213C39.5587 47.1839 38.7956 47.5 38 47.5H24C23.2044 47.5 22.4413 47.1839 21.8787 46.6213C21.3161 46.0587 21 45.2956 21 44.5V30.5C21 29.7044 21.3161 28.9413 21.8787 28.3787C22.4413 27.8161 23.2044 27.5 24 27.5H38C38.7956 27.5 39.5587 27.8161 40.1213 28.3787C40.6839 28.9413 41 29.7044 41 30.5V44.5Z" fill="#5D87F2"/>
</g>
<mask id="mask7_94_1219" style="mask-type:alpha" maskUnits="userSpaceOnUse" x="0" y="18" width="50" height="14">
<rect width="14" height="50" transform="matrix(0 -1 1 0 0 32)" fill="white"/>
</mask>
<g mask="url(#mask7_94_1219)">
<path d="M0 18L0 32C0.00158786 33.3256 0.528882 34.5964 1.46622 35.5338C2.40356 36.4711 3.6744 36.9984 5 37H19C20.3256 36.9984 21.5964 36.4711 22.5338 35.5338C23.4711 34.5964 23.9984 33.3256 24 32V18C23.9984 16.6744 23.4711 15.4036 22.5338 14.4662C21.5964 13.5289 20.3256 13.0016 19 13H5C3.6744 13.0016 2.40356 13.5289 1.46622 14.4662C0.528882 15.4036 0.00158786 16.6744 0 18H0ZM19 15C19.7956 15 20.5587 15.3161 21.1213 15.8787C21.6839 16.4413 22 17.2044 22 18V32C22 32.7956 21.6839 33.5587 21.1213 34.1213C20.5587 34.6839 19.7956 35 19 35H5C4.20435 35 3.44129 34.6839 2.87868 34.1213C2.31607 33.5587 2 32.7956 2 32L2 18C2 17.2044 2.31607 16.4413 2.87868 15.8787C3.44129 15.3161 4.20435 15 5 15H19Z" fill="#5D87F2"/>
<path d="M26 16V30C26.0016 31.3256 26.5289 32.5964 27.4662 33.5338C28.4036 34.4711 29.6744 34.9984 31 35H45C46.3256 34.9984 47.5964 34.4711 48.5338 33.5338C49.4711 32.5964 49.9984 31.3256 50 30V16C49.9984 14.6744 49.4711 13.4036 48.5338 12.4662C47.5964 11.5289 46.3256 11.0016 45 11H31C29.6744 11.0016 28.4036 11.5289 27.4662 12.4662C26.5289 13.4036 26.0016 14.6744 26 16V16ZM45 13C45.7956 13 46.5587 13.3161 47.1213 13.8787C47.6839 14.4413 48 15.2044 48 16V30C48 30.7956 47.6839 31.5587 47.1213 32.1213C46.5587 32.6839 45.7956 33 45 33H31C30.2044 33 29.4413 32.6839 28.8787 32.1213C28.3161 31.5587 28 30.7956 28 30V16C28 15.2044 28.3161 14.4413 28.8787 13.8787C29.4413 13.3161 30.2044 13 31 13H45Z" fill="#5D87F2"/>
</g>
<mask id="mask8_94_1219" style="mask-type:alpha" maskUnits="userSpaceOnUse" x="13" y="25" width="14" height="25">
<rect width="14" height="24" transform="translate(13 25.5)" fill="white"/>
</mask>
<g mask="url(#mask8_94_1219)">
<path d="M27 25.5H13C11.6744 25.5016 10.4036 26.0289 9.46622 26.9662C8.52888 27.9036 8.00159 29.1744 8 30.5L8 44.5C8.00159 45.8256 8.52888 47.0964 9.46622 48.0338C10.4036 48.9711 11.6744 49.4984 13 49.5H27C28.3256 49.4984 29.5964 48.9711 30.5338 48.0338C31.4711 47.0964 31.9984 45.8256 32 44.5V30.5C31.9984 29.1744 31.4711 27.9036 30.5338 26.9662C29.5964 26.0289 28.3256 25.5016 27 25.5V25.5ZM30 44.5C30 45.2956 29.6839 46.0587 29.1213 46.6213C28.5587 47.1839 27.7956 47.5 27 47.5H13C12.2044 47.5 11.4413 47.1839 10.8787 46.6213C10.3161 46.0587 10 45.2956 10 44.5V30.5C10 29.7044 10.3161 28.9413 10.8787 28.3787C11.4413 27.8161 12.2044 27.5 13 27.5H27C27.7956 27.5 28.5587 27.8161 29.1213 28.3787C29.6839 28.9413 30 29.7044 30 30.5V44.5Z" fill="#5D87F2"/>
</g>
<rect width="46" height="18" transform="translate(2 16)" fill="white"/>
<g clip-path="url(#clip0_94_1219)">
<path d="M32.9012 24.655C32.5536 25.0037 32.1403 25.28 31.6853 25.468C31.2302 25.656 30.7423 25.7518 30.25 25.75V25.75H18.1L21.325 28.975C21.4654 29.116 21.5441 29.307 21.5436 29.5061C21.5432 29.7051 21.4638 29.8958 21.3227 30.0362C21.1817 30.1766 20.9907 30.2553 20.7916 30.2549C20.5926 30.2545 20.4019 30.175 20.2615 30.034L16.549 26.3222C16.1975 25.9706 16 25.4938 16 24.9966C16 24.4994 16.1975 24.0226 16.549 23.671L20.2615 19.9577C20.3311 19.8879 20.4138 19.8325 20.5049 19.7946C20.5959 19.7567 20.6935 19.7372 20.7922 19.737C20.8908 19.7369 20.9885 19.7562 21.0796 19.7938C21.1708 19.8314 21.2536 19.8866 21.3235 19.9562C21.3933 20.0258 21.4487 20.1086 21.4866 20.1996C21.5245 20.2907 21.544 20.3883 21.5442 20.4869C21.5443 20.5855 21.525 20.6832 21.4874 20.7744C21.4498 20.8655 21.3946 20.9484 21.325 21.0182L18.091 24.25H30.25C30.8467 24.25 31.419 24.0129 31.841 23.591C32.2629 23.169 32.5 22.5967 32.5 22V16.75C32.5 16.1532 32.2629 15.5809 31.841 15.159C31.419 14.737 30.8467 14.5 30.25 14.5H19.75C19.5511 14.5 19.3603 14.4209 19.2196 14.2803C19.079 14.1396 19 13.9489 19 13.75C19 13.5511 19.079 13.3603 19.2196 13.2196C19.3603 13.079 19.5511 13 19.75 13H30.25C31.2442 13.0012 32.1973 13.3966 32.9003 14.0996C33.6033 14.8026 33.9988 15.7558 34 16.75V22C34.0016 22.4932 33.9054 22.9819 33.7168 23.4376C33.5282 23.8934 33.251 24.3071 32.9012 24.655Z" fill="#5D87F2"/>
</g>
<rect width="16" height="6" transform="translate(18 13)" fill="white"/>
<defs>
<clipPath id="clip0_94_1219">
<rect width="18" height="18" fill="white" transform="matrix(1 0 0 -1 16 31)"/>
</clipPath>
</defs>
</svg>
