<svg width="24" height="24" viewBox="0 0 24 24" fill="none" xmlns="http://www.w3.org/2000/svg">
<path d="M19 0H5C3.67441 0.00158786 2.40356 0.528882 1.46622 1.46622C0.528882 2.40356 0.00158786 3.67441 0 5L0 19C0.00158786 20.3256 0.528882 21.5964 1.46622 22.5338C2.40356 23.4711 3.67441 23.9984 5 24H19C20.3256 23.9984 21.5964 23.4711 22.5338 22.5338C23.4711 21.5964 23.9984 20.3256 24 19V5C23.9984 3.67441 23.4711 2.40356 22.5338 1.46622C21.5964 0.528882 20.3256 0.00158786 19 0V0ZM22 19C22 19.7956 21.6839 20.5587 21.1213 21.1213C20.5587 21.6839 19.7956 22 19 22H5C4.20435 22 3.44129 21.6839 2.87868 21.1213C2.31607 20.5587 2 19.7956 2 19V5C2 4.20435 2.31607 3.44129 2.87868 2.87868C3.44129 2.31607 4.20435 2 5 2H19C19.7956 2 20.5587 2.31607 21.1213 2.87868C21.6839 3.44129 22 4.20435 22 5V19Z" fill="#5D87F2"/>
<path d="M17.9999 5.99994C17.8124 5.81247 17.5581 5.70715 17.2929 5.70715C17.0278 5.70715 16.7735 5.81247 16.5859 5.99994L11.9999 10.5859L7.41394 5.99994C7.22641 5.81247 6.9721 5.70715 6.70694 5.70715C6.44178 5.70715 6.18747 5.81247 5.99994 5.99994C5.81247 6.18747 5.70715 6.44178 5.70715 6.70694C5.70715 6.9721 5.81247 7.22641 5.99994 7.41394L10.5859 11.9999L5.99994 16.5859C5.81247 16.7735 5.70715 17.0278 5.70715 17.2929C5.70715 17.5581 5.81247 17.8124 5.99994 17.9999C6.18747 18.1874 6.44178 18.2927 6.70694 18.2927C6.9721 18.2927 7.22641 18.1874 7.41394 17.9999L11.9999 13.4139L16.5859 17.9999C16.7735 18.1874 17.0278 18.2927 17.2929 18.2927C17.5581 18.2927 17.8124 18.1874 17.9999 17.9999C18.1874 17.8124 18.2927 17.5581 18.2927 17.2929C18.2927 17.0278 18.1874 16.7735 17.9999 16.5859L13.4139 11.9999L17.9999 7.41394C18.1874 7.22641 18.2927 6.9721 18.2927 6.70694C18.2927 6.44178 18.1874 6.18747 17.9999 5.99994Z" fill="#5D87F2"/>
</svg>
