<svg width="48" height="48" viewBox="0 0 48 48" fill="none" xmlns="http://www.w3.org/2000/svg">
<rect x="2" y="2" width="44" height="44" rx="3" stroke="#5D87F2" stroke-width="4" stroke-linejoin="round"/>
<path d="M35.5942 11.5858C35.219 11.2107 34.7102 11 34.1797 11C33.6492 11 33.1404 11.2107 32.7652 11.5858L23.59 20.761L14.4148 11.5858C14.0396 11.2107 13.5308 11 13.0003 11C12.4698 11 11.961 11.2107 11.5858 11.5858C11.2107 11.961 11 12.4698 11 13.0003C11 13.5308 11.2107 14.0396 11.5858 14.4148L20.761 23.59L11.5858 32.7652C11.2107 33.1404 11 33.6492 11 34.1797C11 34.7102 11.2107 35.219 11.5858 35.5942C11.961 35.9693 12.4698 36.18 13.0003 36.18C13.5308 36.18 14.0396 35.9693 14.4148 35.5942L23.59 26.419L32.7652 35.5942C33.1404 35.9693 33.6492 36.18 34.1797 36.18C34.7102 36.18 35.219 35.9693 35.5942 35.5942C35.9693 35.219 36.18 34.7102 36.18 34.1797C36.18 33.6492 35.9693 33.1404 35.5942 32.7652L26.419 23.59L35.5942 14.4148C35.9693 14.0396 36.18 13.5308 36.18 13.0003C36.18 12.4698 35.9693 11.961 35.5942 11.5858V11.5858Z" fill="#5D87F2"/>
</svg>
