<svg width="24" height="24" viewBox="0 0 24 24" fill="none" xmlns="http://www.w3.org/2000/svg">
<path d="M7.642 16.11C7.04067 16.11 6.487 16.011 5.981 15.813C5.475 15.615 5.035 15.34 4.661 14.988C4.287 14.6287 3.99733 14.2107 3.792 13.734C3.58667 13.25 3.484 12.722 3.484 12.15C3.484 11.578 3.58667 11.0537 3.792 10.577C3.99733 10.093 4.287 9.675 4.661 9.323C5.035 8.96367 5.475 8.685 5.981 8.487C6.487 8.289 7.037 8.19 7.631 8.19C8.23233 8.19 8.78233 8.289 9.281 8.487C9.787 8.685 10.227 8.96367 10.601 9.323C10.975 9.675 11.2647 10.093 11.47 10.577C11.6753 11.0537 11.778 11.578 11.778 12.15C11.778 12.722 11.6753 13.25 11.47 13.734C11.2647 14.218 10.975 14.636 10.601 14.988C10.227 15.34 9.787 15.615 9.281 15.813C8.78233 16.011 8.236 16.11 7.642 16.11ZM7.631 14.856C8.01967 14.856 8.379 14.79 8.709 14.658C9.039 14.526 9.325 14.339 9.567 14.097C9.809 13.8477 9.996 13.5617 10.128 13.239C10.2673 12.909 10.337 12.546 10.337 12.15C10.337 11.754 10.2673 11.3947 10.128 11.072C9.996 10.742 9.809 10.456 9.567 10.214C9.325 9.96467 9.039 9.774 8.709 9.642C8.379 9.51 8.01967 9.444 7.631 9.444C7.24233 9.444 6.883 9.51 6.553 9.642C6.23033 9.774 5.94433 9.96467 5.695 10.214C5.453 10.456 5.26233 10.742 5.123 11.072C4.991 11.3947 4.925 11.754 4.925 12.15C4.925 12.5387 4.991 12.898 5.123 13.228C5.26233 13.558 5.453 13.8477 5.695 14.097C5.937 14.339 6.223 14.526 6.553 14.658C6.883 14.79 7.24233 14.856 7.631 14.856ZM13.3488 16V9.796C13.3488 9.18 13.5284 8.68867 13.8878 8.322C14.2544 7.948 14.7751 7.761 15.4498 7.761C15.6918 7.761 15.9191 7.78667 16.1318 7.838C16.3518 7.88933 16.5351 7.97 16.6818 8.08L16.3078 9.114C16.2051 9.03333 16.0878 8.97467 15.9558 8.938C15.8238 8.894 15.6881 8.872 15.5488 8.872C15.2628 8.872 15.0464 8.95267 14.8998 9.114C14.7531 9.268 14.6798 9.50267 14.6798 9.818V10.478L14.7238 11.094V16H13.3488ZM12.3808 11.27V10.17H16.2968V11.27H12.3808ZM17.4415 16V9.796C17.4415 9.18 17.6212 8.68867 17.9805 8.322C18.3472 7.948 18.8679 7.761 19.5425 7.761C19.7845 7.761 20.0119 7.78667 20.2245 7.838C20.4445 7.88933 20.6279 7.97 20.7745 8.08L20.4005 9.114C20.2979 9.03333 20.1805 8.97467 20.0485 8.938C19.9165 8.894 19.7809 8.872 19.6415 8.872C19.3555 8.872 19.1392 8.95267 18.9925 9.114C18.8459 9.268 18.7725 9.50267 18.7725 9.818V10.478L18.8165 11.094V16H17.4415ZM16.4735 11.27V10.17H20.3895V11.27H16.4735Z" fill="#5D87F2"/>
<path d="M19 0H5C3.67441 0.00158786 2.40356 0.528882 1.46622 1.46622C0.528882 2.40356 0.00158786 3.67441 0 5L0 19C0.00158786 20.3256 0.528882 21.5964 1.46622 22.5338C2.40356 23.4711 3.67441 23.9984 5 24H19C20.3256 23.9984 21.5964 23.4711 22.5338 22.5338C23.4711 21.5964 23.9984 20.3256 24 19V5C23.9984 3.67441 23.4711 2.40356 22.5338 1.46622C21.5964 0.528882 20.3256 0.00158786 19 0V0ZM22 19C22 19.7956 21.6839 20.5587 21.1213 21.1213C20.5587 21.6839 19.7956 22 19 22H5C4.20435 22 3.44129 21.6839 2.87868 21.1213C2.31607 20.5587 2 19.7956 2 19V5C2 4.20435 2.31607 3.44129 2.87868 2.87868C3.44129 2.31607 4.20435 2 5 2H19C19.7956 2 20.5587 2.31607 21.1213 2.87868C21.6839 3.44129 22 4.20435 22 5V19Z" fill="#5D87F2"/>
</svg>
