<svg width="48" height="48" viewBox="0 0 48 48" fill="none" xmlns="http://www.w3.org/2000/svg">
<rect x="2" y="2" width="44" height="44" rx="3" stroke="#5D87F2" stroke-width="4" stroke-linejoin="round"/>
<path d="M15.284 32.22C14.0813 32.22 12.974 32.022 11.962 31.626C10.95 31.23 10.07 30.68 9.322 29.976C8.574 29.2573 7.99467 28.4213 7.584 27.468C7.17333 26.5 6.968 25.444 6.968 24.3C6.968 23.156 7.17333 22.1073 7.584 21.154C7.99467 20.186 8.574 19.35 9.322 18.646C10.07 17.9273 10.95 17.37 11.962 16.974C12.974 16.578 14.074 16.38 15.262 16.38C16.4647 16.38 17.5647 16.578 18.562 16.974C19.574 17.37 20.454 17.9273 21.202 18.646C21.95 19.35 22.5293 20.186 22.94 21.154C23.3507 22.1073 23.556 23.156 23.556 24.3C23.556 25.444 23.3507 26.5 22.94 27.468C22.5293 28.436 21.95 29.272 21.202 29.976C20.454 30.68 19.574 31.23 18.562 31.626C17.5647 32.022 16.472 32.22 15.284 32.22ZM15.262 29.712C16.0393 29.712 16.758 29.58 17.418 29.316C18.078 29.052 18.65 28.678 19.134 28.194C19.618 27.6953 19.992 27.1233 20.256 26.478C20.5347 25.818 20.674 25.092 20.674 24.3C20.674 23.508 20.5347 22.7893 20.256 22.144C19.992 21.484 19.618 20.912 19.134 20.428C18.65 19.9293 18.078 19.548 17.418 19.284C16.758 19.02 16.0393 18.888 15.262 18.888C14.4847 18.888 13.766 19.02 13.106 19.284C12.4607 19.548 11.8887 19.9293 11.39 20.428C10.906 20.912 10.5247 21.484 10.246 22.144C9.982 22.7893 9.85 23.508 9.85 24.3C9.85 25.0773 9.982 25.796 10.246 26.456C10.5247 27.116 10.906 27.6953 11.39 28.194C11.874 28.678 12.446 29.052 13.106 29.316C13.766 29.58 14.4847 29.712 15.262 29.712ZM26.6975 32V19.592C26.6975 18.36 27.0569 17.3773 27.7755 16.644C28.5089 15.896 29.5502 15.522 30.8995 15.522C31.3835 15.522 31.8382 15.5733 32.2635 15.676C32.7035 15.7787 33.0702 15.94 33.3635 16.16L32.6155 18.228C32.4102 18.0667 32.1755 17.9493 31.9115 17.876C31.6475 17.788 31.3762 17.744 31.0975 17.744C30.5255 17.744 30.0929 17.9053 29.7995 18.228C29.5062 18.536 29.3595 19.0053 29.3595 19.636V20.956L29.4475 22.188V32H26.6975ZM24.7615 22.54V20.34H32.5935V22.54H24.7615ZM34.8831 32V19.592C34.8831 18.36 35.2424 17.3773 35.9611 16.644C36.6944 15.896 37.7357 15.522 39.0851 15.522C39.5691 15.522 40.0237 15.5733 40.4491 15.676C40.8891 15.7787 41.2557 15.94 41.5491 16.16L40.8011 18.228C40.5957 18.0667 40.3611 17.9493 40.0971 17.876C39.8331 17.788 39.5617 17.744 39.2831 17.744C38.7111 17.744 38.2784 17.9053 37.9851 18.228C37.6917 18.536 37.5451 19.0053 37.5451 19.636V20.956L37.6331 22.188V32H34.8831ZM32.9471 22.54V20.34H40.7791V22.54H32.9471Z" fill="#5D87F2"/>
</svg>
