<svg width="48" height="48" viewBox="0 0 48 48" fill="none" xmlns="http://www.w3.org/2000/svg">
<rect x="2" y="2" width="44" height="44" rx="3" stroke="#5D87F2" stroke-width="4" stroke-linejoin="round"/>
<path d="M18.2546 31.0815L10.4145 23.2468C10.0393 22.8721 9.53058 22.6615 9.00011 22.6615C8.46964 22.6615 7.96088 22.8721 7.58573 23.2468C7.21069 23.6217 7 24.1301 7 24.6602C7 25.1903 7.21069 25.6987 7.58573 26.0736L15.4258 33.9083C15.7974 34.2798 16.2385 34.5745 16.7241 34.7755C17.2096 34.9765 17.73 35.08 18.2556 35.08C18.7811 35.08 19.3016 34.9765 19.7871 34.7755C20.2726 34.5745 20.7138 34.2798 21.0853 33.9083L39.5943 15.4121C39.9693 15.0372 40.18 14.5288 40.18 13.9987C40.18 13.4686 39.9693 12.9602 39.5943 12.5853V12.5853C39.2191 12.2105 38.7104 12 38.1799 12C37.6494 12 37.1407 12.2105 36.7655 12.5853L18.2546 31.0815Z" fill="#5D87F2"/>
</svg>
