<svg width="24" height="24" viewBox="0 0 24 24" fill="none" xmlns="http://www.w3.org/2000/svg">
<path d="M8.642 16.11C8.04067 16.11 7.487 16.011 6.981 15.813C6.475 15.615 6.035 15.34 5.661 14.988C5.287 14.6287 4.99733 14.2107 4.792 13.734C4.58667 13.25 4.484 12.722 4.484 12.15C4.484 11.578 4.58667 11.0537 4.792 10.577C4.99733 10.093 5.287 9.675 5.661 9.323C6.035 8.96367 6.475 8.685 6.981 8.487C7.487 8.289 8.037 8.19 8.631 8.19C9.23233 8.19 9.78233 8.289 10.281 8.487C10.787 8.685 11.227 8.96367 11.601 9.323C11.975 9.675 12.2647 10.093 12.47 10.577C12.6753 11.0537 12.778 11.578 12.778 12.15C12.778 12.722 12.6753 13.25 12.47 13.734C12.2647 14.218 11.975 14.636 11.601 14.988C11.227 15.34 10.787 15.615 10.281 15.813C9.78233 16.011 9.236 16.11 8.642 16.11ZM8.631 14.856C9.01967 14.856 9.379 14.79 9.709 14.658C10.039 14.526 10.325 14.339 10.567 14.097C10.809 13.8477 10.996 13.5617 11.128 13.239C11.2673 12.909 11.337 12.546 11.337 12.15C11.337 11.754 11.2673 11.3947 11.128 11.072C10.996 10.742 10.809 10.456 10.567 10.214C10.325 9.96467 10.039 9.774 9.709 9.642C9.379 9.51 9.01967 9.444 8.631 9.444C8.24233 9.444 7.883 9.51 7.553 9.642C7.23033 9.774 6.94433 9.96467 6.695 10.214C6.453 10.456 6.26233 10.742 6.123 11.072C5.991 11.3947 5.925 11.754 5.925 12.15C5.925 12.5387 5.991 12.898 6.123 13.228C6.26233 13.558 6.453 13.8477 6.695 14.097C6.937 14.339 7.223 14.526 7.553 14.658C7.883 14.79 8.24233 14.856 8.631 14.856ZM17.4948 10.06C17.9641 10.06 18.3821 10.1517 18.7488 10.335C19.1228 10.5183 19.4161 10.8007 19.6288 11.182C19.8414 11.556 19.9478 12.04 19.9478 12.634V16H18.5728V12.81C18.5728 12.2893 18.4481 11.9007 18.1988 11.644C17.9568 11.3873 17.6158 11.259 17.1758 11.259C16.8531 11.259 16.5671 11.325 16.3178 11.457C16.0684 11.589 15.8741 11.787 15.7348 12.051C15.6028 12.3077 15.5368 12.634 15.5368 13.03V16H14.1618V10.126H15.4708V11.71L15.2398 11.226C15.4451 10.852 15.7421 10.566 16.1308 10.368C16.5268 10.1627 16.9814 10.06 17.4948 10.06Z" fill="#5D87F2"/>
<path d="M19 0H5C3.67441 0.00158786 2.40356 0.528882 1.46622 1.46622C0.528882 2.40356 0.00158786 3.67441 0 5L0 19C0.00158786 20.3256 0.528882 21.5964 1.46622 22.5338C2.40356 23.4711 3.67441 23.9984 5 24H19C20.3256 23.9984 21.5964 23.4711 22.5338 22.5338C23.4711 21.5964 23.9984 20.3256 24 19V5C23.9984 3.67441 23.4711 2.40356 22.5338 1.46622C21.5964 0.528882 20.3256 0.00158786 19 0V0ZM22 19C22 19.7956 21.6839 20.5587 21.1213 21.1213C20.5587 21.6839 19.7956 22 19 22H5C4.20435 22 3.44129 21.6839 2.87868 21.1213C2.31607 20.5587 2 19.7956 2 19V5C2 4.20435 2.31607 3.44129 2.87868 2.87868C3.44129 2.31607 4.20435 2 5 2H19C19.7956 2 20.5587 2.31607 21.1213 2.87868C21.6839 3.44129 22 4.20435 22 5V19Z" fill="#5D87F2"/>
</svg>
