<svg width="48" height="48" viewBox="0 0 48 48" fill="none" xmlns="http://www.w3.org/2000/svg">
<rect x="2" y="2" width="44" height="44" rx="3" stroke="#5D87F2" stroke-width="4" stroke-linejoin="round"/>
<path d="M16.284 32.22C15.0813 32.22 13.974 32.022 12.962 31.626C11.95 31.23 11.07 30.68 10.322 29.976C9.574 29.2573 8.99467 28.4213 8.584 27.468C8.17333 26.5 7.968 25.444 7.968 24.3C7.968 23.156 8.17333 22.1073 8.584 21.154C8.99467 20.186 9.574 19.35 10.322 18.646C11.07 17.9273 11.95 17.37 12.962 16.974C13.974 16.578 15.074 16.38 16.262 16.38C17.4647 16.38 18.5647 16.578 19.562 16.974C20.574 17.37 21.454 17.9273 22.202 18.646C22.95 19.35 23.5293 20.186 23.94 21.154C24.3507 22.1073 24.556 23.156 24.556 24.3C24.556 25.444 24.3507 26.5 23.94 27.468C23.5293 28.436 22.95 29.272 22.202 29.976C21.454 30.68 20.574 31.23 19.562 31.626C18.5647 32.022 17.472 32.22 16.284 32.22ZM16.262 29.712C17.0393 29.712 17.758 29.58 18.418 29.316C19.078 29.052 19.65 28.678 20.134 28.194C20.618 27.6953 20.992 27.1233 21.256 26.478C21.5347 25.818 21.674 25.092 21.674 24.3C21.674 23.508 21.5347 22.7893 21.256 22.144C20.992 21.484 20.618 20.912 20.134 20.428C19.65 19.9293 19.078 19.548 18.418 19.284C17.758 19.02 17.0393 18.888 16.262 18.888C15.4847 18.888 14.766 19.02 14.106 19.284C13.4607 19.548 12.8887 19.9293 12.39 20.428C11.906 20.912 11.5247 21.484 11.246 22.144C10.982 22.7893 10.85 23.508 10.85 24.3C10.85 25.0773 10.982 25.796 11.246 26.456C11.5247 27.116 11.906 27.6953 12.39 28.194C12.874 28.678 13.446 29.052 14.106 29.316C14.766 29.58 15.4847 29.712 16.262 29.712ZM33.9895 20.12C34.9282 20.12 35.7642 20.3033 36.4975 20.67C37.2455 21.0367 37.8322 21.6013 38.2575 22.364C38.6829 23.112 38.8955 24.08 38.8955 25.268V32H36.1455V25.62C36.1455 24.5787 35.8962 23.8013 35.3975 23.288C34.9135 22.7747 34.2315 22.518 33.3515 22.518C32.7062 22.518 32.1342 22.65 31.6355 22.914C31.1369 23.178 30.7482 23.574 30.4695 24.102C30.2055 24.6153 30.0735 25.268 30.0735 26.06V32H27.3235V20.252H29.9415V23.42L29.4795 22.452C29.8902 21.704 30.4842 21.132 31.2615 20.736C32.0535 20.3253 32.9629 20.12 33.9895 20.12Z" fill="#5D87F2"/>
</svg>
