<svg width="52" height="24" viewBox="0 0 52 24" fill="none" xmlns="http://www.w3.org/2000/svg">
<path d="M0 5C0 2.23858 2.23858 0 5 0H52V24H5C2.23858 24 0 21.7614 0 19V5Z" fill="#5D87F2"/>
<path d="M5.003 21L2.407 13.3H3.243L5.674 20.549H5.256L7.764 13.3H8.512L10.987 20.549H10.591L13.044 13.3H13.825L11.229 21H10.371L8.006 14.125H8.226L5.85 21H5.003ZM17.165 21.055C16.5637 21.055 16.0357 20.9303 15.581 20.681C15.1264 20.4243 14.7707 20.076 14.514 19.636C14.2574 19.1887 14.129 18.679 14.129 18.107C14.129 17.535 14.25 17.029 14.492 16.589C14.7414 16.149 15.0787 15.8043 15.504 15.555C15.9367 15.2983 16.4207 15.17 16.956 15.17C17.4987 15.17 17.979 15.2947 18.397 15.544C18.8224 15.786 19.156 16.1307 19.398 16.578C19.64 17.018 19.761 17.5277 19.761 18.107C19.761 18.1437 19.7574 18.184 19.75 18.228C19.75 18.2647 19.75 18.305 19.75 18.349H14.723V17.766H19.332L19.024 17.997C19.024 17.579 18.9324 17.2087 18.749 16.886C18.573 16.556 18.331 16.2993 18.023 16.116C17.715 15.9327 17.3594 15.841 16.956 15.841C16.56 15.841 16.2044 15.9327 15.889 16.116C15.5737 16.2993 15.328 16.556 15.152 16.886C14.976 17.216 14.888 17.5937 14.888 18.019V18.14C14.888 18.58 14.9834 18.9687 15.174 19.306C15.372 19.636 15.6434 19.8963 15.988 20.087C16.34 20.2703 16.7397 20.362 17.187 20.362C17.539 20.362 17.8654 20.2997 18.166 20.175C18.474 20.0503 18.738 19.8597 18.958 19.603L19.398 20.109C19.1414 20.417 18.8187 20.6517 18.43 20.813C18.0487 20.9743 17.627 21.055 17.165 21.055ZM24.3317 21.055C23.8257 21.055 23.3711 20.9413 22.9677 20.714C22.5644 20.4793 22.2454 20.142 22.0107 19.702C21.7761 19.262 21.6587 18.7303 21.6587 18.107C21.6587 17.4763 21.7761 16.9447 22.0107 16.512C22.2527 16.072 22.5754 15.7383 22.9787 15.511C23.3821 15.2837 23.8331 15.17 24.3317 15.17C24.8817 15.17 25.3731 15.2947 25.8057 15.544C26.2457 15.786 26.5904 16.127 26.8397 16.567C27.0891 17.007 27.2137 17.5203 27.2137 18.107C27.2137 18.6863 27.0891 19.1997 26.8397 19.647C26.5904 20.087 26.2457 20.4317 25.8057 20.681C25.3731 20.9303 24.8817 21.055 24.3317 21.055ZM21.3507 21V12.838H22.1317V16.93L22.0217 18.096L22.0987 19.262V21H21.3507ZM24.2767 20.362C24.6874 20.362 25.0541 20.2703 25.3767 20.087C25.6994 19.8963 25.9561 19.6323 26.1467 19.295C26.3374 18.9503 26.4327 18.5543 26.4327 18.107C26.4327 17.6523 26.3374 17.2563 26.1467 16.919C25.9561 16.5817 25.6994 16.3213 25.3767 16.138C25.0541 15.9473 24.6874 15.852 24.2767 15.852C23.8661 15.852 23.4957 15.9473 23.1657 16.138C22.8431 16.3213 22.5864 16.5817 22.3957 16.919C22.2124 17.2563 22.1207 17.6523 22.1207 18.107C22.1207 18.5543 22.2124 18.9503 22.3957 19.295C22.5864 19.6323 22.8431 19.8963 23.1657 20.087C23.4957 20.2703 23.8661 20.362 24.2767 20.362ZM30.8408 21.066C30.3421 21.066 29.8985 20.9853 29.5098 20.824C29.1211 20.6553 28.8131 20.4243 28.5858 20.131C28.3658 19.8377 28.2558 19.4967 28.2558 19.108C28.2558 18.778 28.3291 18.4773 28.4758 18.206C28.6225 17.9273 28.8571 17.656 29.1798 17.392C29.5098 17.1207 29.9461 16.8383 30.4888 16.545C30.9508 16.2883 31.3101 16.0683 31.5668 15.885C31.8308 15.6943 32.0178 15.5147 32.1278 15.346C32.2378 15.17 32.2928 14.983 32.2928 14.785C32.2928 14.499 32.1938 14.268 31.9958 14.092C31.8051 13.916 31.5301 13.828 31.1708 13.828C30.7821 13.828 30.4815 13.927 30.2688 14.125C30.0561 14.3157 29.9498 14.565 29.9498 14.873C29.9498 15.027 29.9718 15.1737 30.0158 15.313C30.0671 15.4523 30.1588 15.6063 30.2908 15.775C30.4301 15.9437 30.6208 16.1563 30.8628 16.413L34.9328 20.604L34.4818 21.121L30.2358 16.754C29.9791 16.4827 29.7738 16.248 29.6198 16.05C29.4731 15.8447 29.3705 15.6503 29.3118 15.467C29.2531 15.2837 29.2238 15.0893 29.2238 14.884C29.2238 14.554 29.3008 14.268 29.4548 14.026C29.6161 13.7767 29.8435 13.586 30.1368 13.454C30.4301 13.3147 30.7748 13.245 31.1708 13.245C31.5301 13.245 31.8418 13.3073 32.1058 13.432C32.3771 13.5493 32.5861 13.7217 32.7328 13.949C32.8868 14.1763 32.9638 14.4513 32.9638 14.774C32.9638 15.0527 32.8941 15.313 32.7548 15.555C32.6228 15.797 32.4028 16.0353 32.0948 16.27C31.7868 16.4973 31.3688 16.754 30.8408 17.04C30.3788 17.2967 30.0121 17.5313 29.7408 17.744C29.4768 17.9567 29.2898 18.1657 29.1798 18.371C29.0698 18.569 29.0148 18.789 29.0148 19.031C29.0148 19.3097 29.0918 19.5553 29.2458 19.768C29.4071 19.9733 29.6271 20.1347 29.9058 20.252C30.1918 20.362 30.5181 20.417 30.8848 20.417C31.3981 20.417 31.8565 20.3107 32.2598 20.098C32.6631 19.8853 33.0005 19.5627 33.2718 19.13C33.5505 18.6973 33.7521 18.1547 33.8768 17.502L34.5038 17.7C34.3645 18.4333 34.1261 19.0493 33.7888 19.548C33.4515 20.0467 33.0335 20.4243 32.5348 20.681C32.0361 20.9377 31.4715 21.066 30.8408 21.066ZM37.5137 21V14.004H34.8077V13.3H41.0337V14.004H38.3277V21H37.5137ZM44.4694 21L41.0594 13.3H41.9394L45.1294 20.549H44.6454L47.8574 13.3H48.6824L45.2724 21H44.4694Z" fill="white"/>
<path d="M11.377 11.066C10.805 11.066 10.255 10.9743 9.727 10.791C9.20633 10.6003 8.803 10.3583 8.517 10.065L8.836 9.438C9.10733 9.702 9.47033 9.92567 9.925 10.109C10.387 10.285 10.871 10.373 11.377 10.373C11.861 10.373 12.2533 10.3143 12.554 10.197C12.862 10.0723 13.0857 9.90733 13.225 9.702C13.3717 9.49667 13.445 9.26933 13.445 9.02C13.445 8.71933 13.357 8.47733 13.181 8.294C13.0123 8.11067 12.7887 7.96767 12.51 7.865C12.2313 7.755 11.9233 7.65967 11.586 7.579C11.2487 7.49833 10.9113 7.414 10.574 7.326C10.2367 7.23067 9.925 7.106 9.639 6.952C9.36033 6.798 9.133 6.59633 8.957 6.347C8.78833 6.09033 8.704 5.75667 8.704 5.346C8.704 4.96467 8.803 4.61633 9.001 4.301C9.20633 3.97833 9.518 3.72167 9.936 3.531C10.354 3.333 10.8893 3.234 11.542 3.234C11.9747 3.234 12.4037 3.29633 12.829 3.421C13.2543 3.53833 13.621 3.70333 13.929 3.916L13.654 4.565C13.324 4.345 12.972 4.18367 12.598 4.081C12.2313 3.97833 11.8757 3.927 11.531 3.927C11.069 3.927 10.6877 3.98933 10.387 4.114C10.0863 4.23867 9.86267 4.40733 9.716 4.62C9.57667 4.82533 9.507 5.06 9.507 5.324C9.507 5.62467 9.59133 5.86667 9.76 6.05C9.936 6.23333 10.1633 6.37633 10.442 6.479C10.728 6.58167 11.0397 6.67333 11.377 6.754C11.7143 6.83467 12.048 6.92267 12.378 7.018C12.7153 7.11333 13.0233 7.238 13.302 7.392C13.588 7.53867 13.8153 7.73667 13.984 7.986C14.16 8.23533 14.248 8.56167 14.248 8.965C14.248 9.339 14.1453 9.68733 13.94 10.01C13.7347 10.3253 13.4193 10.582 12.994 10.78C12.576 10.9707 12.037 11.066 11.377 11.066ZM23.0726 5.17C23.5419 5.17 23.9489 5.26167 24.2936 5.445C24.6456 5.621 24.9169 5.89233 25.1076 6.259C25.3056 6.62567 25.4046 7.08767 25.4046 7.645V11H24.6236V7.722C24.6236 7.11333 24.4769 6.655 24.1836 6.347C23.8976 6.03167 23.4906 5.874 22.9626 5.874C22.5666 5.874 22.2219 5.95833 21.9286 6.127C21.6426 6.28833 21.4189 6.52667 21.2576 6.842C21.1036 7.15 21.0266 7.524 21.0266 7.964V11H20.2456V7.722C20.2456 7.11333 20.0989 6.655 19.8056 6.347C19.5122 6.03167 19.1016 5.874 18.5736 5.874C18.1849 5.874 17.8439 5.95833 17.5506 6.127C17.2572 6.28833 17.0299 6.52667 16.8686 6.842C16.7146 7.15 16.6376 7.524 16.6376 7.964V11H15.8566V5.225H16.6046V6.787L16.4836 6.512C16.6596 6.094 16.9419 5.76767 17.3306 5.533C17.7266 5.291 18.1922 5.17 18.7276 5.17C19.2922 5.17 19.7726 5.313 20.1686 5.599C20.5646 5.87767 20.8212 6.29933 20.9386 6.864L20.6306 6.743C20.7992 6.27367 21.0962 5.896 21.5216 5.61C21.9542 5.31667 22.4712 5.17 23.0726 5.17ZM31.1416 11V9.724L31.1086 9.515V7.381C31.1086 6.88967 30.9693 6.512 30.6906 6.248C30.4193 5.984 30.0123 5.852 29.4696 5.852C29.0956 5.852 28.7399 5.91433 28.4026 6.039C28.0653 6.16367 27.7793 6.32867 27.5446 6.534L27.1926 5.951C27.4859 5.70167 27.8379 5.511 28.2486 5.379C28.6593 5.23967 29.0919 5.17 29.5466 5.17C30.2946 5.17 30.8703 5.357 31.2736 5.731C31.6843 6.09767 31.8896 6.65867 31.8896 7.414V11H31.1416ZM29.1506 11.055C28.7179 11.055 28.3403 10.9853 28.0176 10.846C27.7023 10.6993 27.4603 10.5013 27.2916 10.252C27.1229 9.99533 27.0386 9.702 27.0386 9.372C27.0386 9.07133 27.1083 8.8 27.2476 8.558C27.3943 8.30867 27.6289 8.11067 27.9516 7.964C28.2816 7.81 28.7216 7.733 29.2716 7.733H31.2626V8.316H29.2936C28.7363 8.316 28.3476 8.415 28.1276 8.613C27.9149 8.811 27.8086 9.05667 27.8086 9.35C27.8086 9.68 27.9369 9.944 28.1936 10.142C28.4503 10.34 28.8096 10.439 29.2716 10.439C29.7116 10.439 30.0893 10.34 30.4046 10.142C30.7273 9.93667 30.9619 9.64333 31.1086 9.262L31.2846 9.801C31.1379 10.1823 30.8813 10.4867 30.5146 10.714C30.1553 10.9413 29.7006 11.055 29.1506 11.055ZM34.0109 11V5.225H34.7589V6.798L34.6819 6.523C34.8432 6.083 35.1145 5.74933 35.4959 5.522C35.8772 5.28733 36.3502 5.17 36.9149 5.17V5.929C36.8855 5.929 36.8562 5.929 36.8269 5.929C36.7975 5.92167 36.7682 5.918 36.7389 5.918C36.1302 5.918 35.6535 6.105 35.3089 6.479C34.9642 6.84567 34.7919 7.37 34.7919 8.052V11H34.0109ZM40.413 11.055C39.8704 11.055 39.4524 10.9083 39.159 10.615C38.8657 10.3217 38.719 9.90733 38.719 9.372V3.949H39.5V9.328C39.5 9.66533 39.5844 9.92567 39.753 10.109C39.929 10.2923 40.1784 10.384 40.501 10.384C40.8457 10.384 41.1317 10.285 41.359 10.087L41.634 10.648C41.48 10.7873 41.293 10.89 41.073 10.956C40.8604 11.022 40.6404 11.055 40.413 11.055ZM37.685 5.874V5.225H41.26V5.874H37.685Z" fill="white"/>
</svg>
