<svg width="24" height="24" viewBox="0 0 24 24" fill="none" xmlns="http://www.w3.org/2000/svg">
<path d="M18.7499 6H16.4249C16.2508 5.15356 15.7902 4.39301 15.1208 3.84654C14.4514 3.30007 13.614 3.00109 12.7499 3L11.2499 3C10.3857 3.00109 9.54837 3.30007 8.87894 3.84654C8.20951 4.39301 7.74895 5.15356 7.57488 6H5.24988C5.05097 6 4.8602 6.07902 4.71955 6.21967C4.5789 6.36032 4.49988 6.55109 4.49988 6.75C4.49988 6.94891 4.5789 7.13968 4.71955 7.28033C4.8602 7.42098 5.05097 7.5 5.24988 7.5H5.99988V17.25C6.00107 18.2442 6.39654 19.1973 7.09954 19.9003C7.80255 20.6033 8.75568 20.9988 9.74988 21H14.2499C15.2441 20.9988 16.1972 20.6033 16.9002 19.9003C17.6032 19.1973 17.9987 18.2442 17.9999 17.25V7.5H18.7499C18.9488 7.5 19.1396 7.42098 19.2802 7.28033C19.4209 7.13968 19.4999 6.94891 19.4999 6.75C19.4999 6.55109 19.4209 6.36032 19.2802 6.21967C19.1396 6.07902 18.9488 6 18.7499 6ZM11.2499 4.5H12.7499C13.2151 4.50057 13.6687 4.64503 14.0486 4.91358C14.4285 5.18213 14.7159 5.56162 14.8716 6H9.12813C9.28381 5.56162 9.5713 5.18213 9.95117 4.91358C10.331 4.64503 10.7847 4.50057 11.2499 4.5ZM16.4999 17.25C16.4999 17.8467 16.2628 18.419 15.8409 18.841C15.4189 19.2629 14.8466 19.5 14.2499 19.5H9.74988C9.15314 19.5 8.58084 19.2629 8.15889 18.841C7.73693 18.419 7.49988 17.8467 7.49988 17.25V7.5H16.4999V17.25Z" fill="#5D87F2"/>
<path d="M10.5 16.4995C10.6989 16.4995 10.8897 16.4205 11.0303 16.2798C11.171 16.1392 11.25 15.9484 11.25 15.7495V11.2495C11.25 11.0506 11.171 10.8598 11.0303 10.7192C10.8897 10.5785 10.6989 10.4995 10.5 10.4995C10.3011 10.4995 10.1103 10.5785 9.96967 10.7192C9.82902 10.8598 9.75 11.0506 9.75 11.2495V15.7495C9.75 15.9484 9.82902 16.1392 9.96967 16.2798C10.1103 16.4205 10.3011 16.4995 10.5 16.4995Z" fill="#5D87F2"/>
<path d="M13.4999 16.4995C13.6988 16.4995 13.8896 16.4205 14.0302 16.2798C14.1709 16.1392 14.2499 15.9484 14.2499 15.7495V11.2495C14.2499 11.0506 14.1709 10.8598 14.0302 10.7192C13.8896 10.5785 13.6988 10.4995 13.4999 10.4995C13.301 10.4995 13.1102 10.5785 12.9695 10.7192C12.8289 10.8598 12.7499 11.0506 12.7499 11.2495V15.7495C12.7499 15.9484 12.8289 16.1392 12.9695 16.2798C13.1102 16.4205 13.301 16.4995 13.4999 16.4995Z" fill="#5D87F2"/>
<path d="M19 0H5C3.67441 0.00158786 2.40356 0.528882 1.46622 1.46622C0.528882 2.40356 0.00158786 3.67441 0 5L0 19C0.00158786 20.3256 0.528882 21.5964 1.46622 22.5338C2.40356 23.4711 3.67441 23.9984 5 24H19C20.3256 23.9984 21.5964 23.4711 22.5338 22.5338C23.4711 21.5964 23.9984 20.3256 24 19V5C23.9984 3.67441 23.4711 2.40356 22.5338 1.46622C21.5964 0.528882 20.3256 0.00158786 19 0V0ZM22 19C22 19.7956 21.6839 20.5587 21.1213 21.1213C20.5587 21.6839 19.7956 22 19 22H5C4.20435 22 3.44129 21.6839 2.87868 21.1213C2.31607 20.5587 2 19.7956 2 19V5C2 4.20435 2.31607 3.44129 2.87868 2.87868C3.44129 2.31607 4.20435 2 5 2H19C19.7956 2 20.5587 2.31607 21.1213 2.87868C21.6839 3.44129 22 4.20435 22 5V19Z" fill="#5D87F2"/>
</svg>
