<svg width="48" height="48" viewBox="0 0 48 48" fill="none" xmlns="http://www.w3.org/2000/svg">
<rect x="2" y="2" width="44" height="44" rx="3" stroke="#5D87F2" stroke-width="4" stroke-linejoin="round"/>
<path d="M35.9999 13.3333H31.8666C31.5571 11.8286 30.7383 10.4765 29.5482 9.50496C28.3581 8.53345 26.8695 8.00194 25.3332 8L22.6666 8C21.1303 8.00194 19.6417 8.53345 18.4516 9.50496C17.2615 10.4765 16.4427 11.8286 16.1332 13.3333H11.9999C11.6463 13.3333 11.3071 13.4738 11.0571 13.7239C10.807 13.9739 10.6666 14.313 10.6666 14.6667C10.6666 15.0203 10.807 15.3594 11.0571 15.6095C11.3071 15.8595 11.6463 16 11.9999 16H13.3332V33.3333C13.3353 35.1008 14.0384 36.7953 15.2882 38.045C16.538 39.2948 18.2324 39.9979 19.9999 40H27.9999C29.7674 39.9979 31.4618 39.2948 32.7116 38.045C33.9614 36.7953 34.6644 35.1008 34.6666 33.3333V16H35.9999C36.3535 16 36.6927 15.8595 36.9427 15.6095C37.1928 15.3594 37.3332 15.0203 37.3332 14.6667C37.3332 14.313 37.1928 13.9739 36.9427 13.7239C36.6927 13.4738 36.3535 13.3333 35.9999 13.3333V13.3333ZM22.6666 10.6667H25.3332C26.1603 10.6677 26.9667 10.9245 27.642 11.4019C28.3174 11.8793 28.8285 12.554 29.1052 13.3333H18.8946C19.1713 12.554 19.6824 11.8793 20.3577 11.4019C21.0331 10.9245 21.8395 10.6677 22.6666 10.6667V10.6667ZM31.9999 33.3333C31.9999 34.3942 31.5785 35.4116 30.8283 36.1618C30.0782 36.9119 29.0608 37.3333 27.9999 37.3333H19.9999C18.939 37.3333 17.9216 36.9119 17.1715 36.1618C16.4213 35.4116 15.9999 34.3942 15.9999 33.3333V16H31.9999V33.3333Z" fill="#5D87F2"/>
<path d="M21.3333 31.9992C21.687 31.9992 22.0261 31.8587 22.2761 31.6086C22.5262 31.3586 22.6667 31.0195 22.6667 30.6658V22.6659C22.6667 22.3122 22.5262 21.9731 22.2761 21.723C22.0261 21.473 21.687 21.3325 21.3333 21.3325C20.9797 21.3325 20.6406 21.473 20.3905 21.723C20.1405 21.9731 20 22.3122 20 22.6659V30.6658C20 31.0195 20.1405 31.3586 20.3905 31.6086C20.6406 31.8587 20.9797 31.9992 21.3333 31.9992Z" fill="#5D87F2"/>
<path d="M26.6665 31.9992C27.0201 31.9992 27.3592 31.8587 27.6093 31.6086C27.8593 31.3586 27.9998 31.0195 27.9998 30.6658V22.6659C27.9998 22.3122 27.8593 21.9731 27.6093 21.723C27.3592 21.473 27.0201 21.3325 26.6665 21.3325C26.3128 21.3325 25.9737 21.473 25.7237 21.723C25.4736 21.9731 25.3331 22.3122 25.3331 22.6659V30.6658C25.3331 31.0195 25.4736 31.3586 25.7237 31.6086C25.9737 31.8587 26.3128 31.9992 26.6665 31.9992Z" fill="#5D87F2"/>
</svg>
