<svg width="176" height="48" viewBox="0 0 176 48" fill="none" xmlns="http://www.w3.org/2000/svg">
<rect x="1" y="1" width="174" height="46" rx="4" stroke="#5D87F2" stroke-width="2" stroke-linejoin="round"/>
<path d="M8.45 35.2L15.71 14.476H17.14L9.88 35.2H8.45ZM21.8392 33.11C20.6952 33.11 19.6686 32.8607 18.7592 32.362C17.8646 31.8487 17.1606 31.152 16.6472 30.272C16.1339 29.3773 15.8772 28.358 15.8772 27.214C15.8772 26.0553 16.1339 25.036 16.6472 24.156C17.1606 23.276 17.8646 22.5867 18.7592 22.088C19.6686 21.5893 20.6952 21.34 21.8392 21.34C22.8219 21.34 23.7092 21.5307 24.5012 21.912C25.2932 22.2933 25.9166 22.8653 26.3712 23.628L25.2052 24.42C24.8092 23.8333 24.3179 23.4007 23.7312 23.122C23.1446 22.8433 22.5066 22.704 21.8172 22.704C20.9959 22.704 20.2552 22.8947 19.5952 23.276C18.9352 23.6427 18.4146 24.1633 18.0332 24.838C17.6519 25.5127 17.4612 26.3047 17.4612 27.214C17.4612 28.1233 17.6519 28.9153 18.0332 29.59C18.4146 30.2647 18.9352 30.7927 19.5952 31.174C20.2552 31.5407 20.9959 31.724 21.8172 31.724C22.5066 31.724 23.1446 31.5847 23.7312 31.306C24.3179 31.0273 24.8092 30.602 25.2052 30.03L26.3712 30.822C25.9166 31.57 25.2932 32.142 24.5012 32.538C23.7092 32.9193 22.8219 33.11 21.8392 33.11ZM33.9544 33.11C32.8397 33.11 31.835 32.8607 30.9404 32.362C30.0604 31.8487 29.3637 31.152 28.8504 30.272C28.337 29.3773 28.0804 28.358 28.0804 27.214C28.0804 26.0553 28.337 25.036 28.8504 24.156C29.3637 23.276 30.0604 22.5867 30.9404 22.088C31.8204 21.5893 32.825 21.34 33.9544 21.34C35.0984 21.34 36.1104 21.5893 36.9904 22.088C37.885 22.5867 38.5817 23.276 39.0804 24.156C39.5937 25.036 39.8504 26.0553 39.8504 27.214C39.8504 28.358 39.5937 29.3773 39.0804 30.272C38.5817 31.152 37.885 31.8487 36.9904 32.362C36.0957 32.8607 35.0837 33.11 33.9544 33.11ZM33.9544 31.724C34.7904 31.724 35.531 31.5407 36.1764 31.174C36.8217 30.7927 37.3277 30.2647 37.6944 29.59C38.0757 28.9007 38.2664 28.1087 38.2664 27.214C38.2664 26.3047 38.0757 25.5127 37.6944 24.838C37.3277 24.1633 36.8217 23.6427 36.1764 23.276C35.531 22.8947 34.7977 22.704 33.9764 22.704C33.155 22.704 32.4217 22.8947 31.7764 23.276C31.131 23.6427 30.6177 24.1633 30.2364 24.838C29.855 25.5127 29.6644 26.3047 29.6644 27.214C29.6644 28.1087 29.855 28.9007 30.2364 29.59C30.6177 30.2647 31.131 30.7927 31.7764 31.174C32.4217 31.5407 33.1477 31.724 33.9544 31.724ZM43.0393 33V16.676H44.6013V33H43.0393ZM48.9475 33V16.676H50.5095V33H48.9475ZM59.7617 33.11C58.5591 33.11 57.5031 32.8607 56.5937 32.362C55.6844 31.8487 54.9731 31.152 54.4597 30.272C53.9464 29.3773 53.6897 28.358 53.6897 27.214C53.6897 26.07 53.9317 25.058 54.4157 24.178C54.9144 23.298 55.5891 22.6087 56.4397 22.11C57.3051 21.5967 58.2731 21.34 59.3437 21.34C60.4291 21.34 61.3897 21.5893 62.2257 22.088C63.0764 22.572 63.7437 23.2613 64.2277 24.156C64.7117 25.036 64.9537 26.0553 64.9537 27.214C64.9537 27.2873 64.9464 27.368 64.9317 27.456C64.9317 27.5293 64.9317 27.61 64.9317 27.698H54.8777V26.532H64.0957L63.4797 26.994C63.4797 26.158 63.2964 25.4173 62.9297 24.772C62.5777 24.112 62.0937 23.5987 61.4777 23.232C60.8617 22.8653 60.1504 22.682 59.3437 22.682C58.5517 22.682 57.8404 22.8653 57.2097 23.232C56.5791 23.5987 56.0877 24.112 55.7357 24.772C55.3837 25.432 55.2077 26.1873 55.2077 27.038V27.28C55.2077 28.16 55.3984 28.9373 55.7797 29.612C56.1757 30.272 56.7184 30.7927 57.4077 31.174C58.1117 31.5407 58.9111 31.724 59.8057 31.724C60.5097 31.724 61.1624 31.5993 61.7637 31.35C62.3797 31.1007 62.9077 30.7193 63.3477 30.206L64.2277 31.218C63.7144 31.834 63.0691 32.3033 62.2917 32.626C61.5291 32.9487 60.6857 33.11 59.7617 33.11ZM72.9291 33.11C71.7851 33.11 70.7584 32.8607 69.8491 32.362C68.9544 31.8487 68.2504 31.152 67.7371 30.272C67.2237 29.3773 66.9671 28.358 66.9671 27.214C66.9671 26.0553 67.2237 25.036 67.7371 24.156C68.2504 23.276 68.9544 22.5867 69.8491 22.088C70.7584 21.5893 71.7851 21.34 72.9291 21.34C73.9117 21.34 74.7991 21.5307 75.5911 21.912C76.3831 22.2933 77.0064 22.8653 77.4611 23.628L76.2951 24.42C75.8991 23.8333 75.4077 23.4007 74.8211 23.122C74.2344 22.8433 73.5964 22.704 72.9071 22.704C72.0857 22.704 71.3451 22.8947 70.6851 23.276C70.0251 23.6427 69.5044 24.1633 69.1231 24.838C68.7417 25.5127 68.5511 26.3047 68.5511 27.214C68.5511 28.1233 68.7417 28.9153 69.1231 29.59C69.5044 30.2647 70.0251 30.7927 70.6851 31.174C71.3451 31.5407 72.0857 31.724 72.9071 31.724C73.5964 31.724 74.2344 31.5847 74.8211 31.306C75.4077 31.0273 75.8991 30.602 76.2951 30.03L77.4611 30.822C77.0064 31.57 76.3831 32.142 75.5911 32.538C74.7991 32.9193 73.9117 33.11 72.9291 33.11ZM84.3105 33.11C83.2251 33.11 82.3891 32.8167 81.8025 32.23C81.2158 31.6433 80.9225 30.8147 80.9225 29.744V18.898H82.4845V29.656C82.4845 30.3307 82.6531 30.8513 82.9905 31.218C83.3425 31.5847 83.8411 31.768 84.4865 31.768C85.1758 31.768 85.7478 31.57 86.2025 31.174L86.7525 32.296C86.4445 32.5747 86.0705 32.78 85.6305 32.912C85.2051 33.044 84.7651 33.11 84.3105 33.11ZM78.8545 22.748V21.45H86.0045V22.748H78.8545ZM89.596 33V21.45H91.158V33H89.596ZM90.388 18.898C90.0653 18.898 89.794 18.788 89.574 18.568C89.354 18.348 89.244 18.084 89.244 17.776C89.244 17.468 89.354 17.2113 89.574 17.006C89.794 16.786 90.0653 16.676 90.388 16.676C90.7106 16.676 90.982 16.7787 91.202 16.984C91.422 17.1893 91.532 17.446 91.532 17.754C91.532 18.0767 91.422 18.348 91.202 18.568C90.9966 18.788 90.7253 18.898 90.388 18.898ZM100.212 33.11C99.0975 33.11 98.0928 32.8607 97.1982 32.362C96.3182 31.8487 95.6215 31.152 95.1082 30.272C94.5948 29.3773 94.3382 28.358 94.3382 27.214C94.3382 26.0553 94.5948 25.036 95.1082 24.156C95.6215 23.276 96.3182 22.5867 97.1982 22.088C98.0782 21.5893 99.0828 21.34 100.212 21.34C101.356 21.34 102.368 21.5893 103.248 22.088C104.143 22.5867 104.84 23.276 105.338 24.156C105.852 25.036 106.108 26.0553 106.108 27.214C106.108 28.358 105.852 29.3773 105.338 30.272C104.84 31.152 104.143 31.8487 103.248 32.362C102.354 32.8607 101.342 33.11 100.212 33.11ZM100.212 31.724C101.048 31.724 101.789 31.5407 102.434 31.174C103.08 30.7927 103.586 30.2647 103.952 29.59C104.334 28.9007 104.524 28.1087 104.524 27.214C104.524 26.3047 104.334 25.5127 103.952 24.838C103.586 24.1633 103.08 23.6427 102.434 23.276C101.789 22.8947 101.056 22.704 100.234 22.704C99.4128 22.704 98.6795 22.8947 98.0342 23.276C97.3888 23.6427 96.8755 24.1633 96.4942 24.838C96.1128 25.5127 95.9222 26.3047 95.9222 27.214C95.9222 28.1087 96.1128 28.9007 96.4942 29.59C96.8755 30.2647 97.3888 30.7927 98.0342 31.174C98.6795 31.5407 99.4055 31.724 100.212 31.724ZM115.193 21.34C116.132 21.34 116.953 21.5233 117.657 21.89C118.376 22.242 118.933 22.7847 119.329 23.518C119.74 24.2513 119.945 25.1753 119.945 26.29V33H118.383V26.444C118.383 25.2267 118.075 24.31 117.459 23.694C116.858 23.0633 116.007 22.748 114.907 22.748C114.086 22.748 113.367 22.9167 112.751 23.254C112.15 23.5767 111.68 24.0533 111.343 24.684C111.02 25.3 110.859 26.048 110.859 26.928V33H109.297V21.45H110.793V24.618L110.551 24.024C110.918 23.188 111.504 22.5353 112.311 22.066C113.118 21.582 114.078 21.34 115.193 21.34ZM127.266 33.11C126.313 33.11 125.411 32.978 124.56 32.714C123.71 32.4353 123.042 32.0907 122.558 31.68L123.262 30.448C123.732 30.8 124.333 31.108 125.066 31.372C125.8 31.6213 126.57 31.746 127.376 31.746C128.476 31.746 129.268 31.5773 129.752 31.24C130.236 30.888 130.478 30.426 130.478 29.854C130.478 29.4287 130.339 29.0987 130.06 28.864C129.796 28.6147 129.444 28.4313 129.004 28.314C128.564 28.182 128.073 28.072 127.53 27.984C126.988 27.896 126.445 27.7933 125.902 27.676C125.374 27.5587 124.89 27.39 124.45 27.17C124.01 26.9353 123.651 26.62 123.372 26.224C123.108 25.828 122.976 25.3 122.976 24.64C122.976 24.0093 123.152 23.4447 123.504 22.946C123.856 22.4473 124.37 22.0587 125.044 21.78C125.734 21.4867 126.57 21.34 127.552 21.34C128.3 21.34 129.048 21.4427 129.796 21.648C130.544 21.8387 131.16 22.0953 131.644 22.418L130.962 23.672C130.449 23.32 129.899 23.0707 129.312 22.924C128.726 22.7627 128.139 22.682 127.552 22.682C126.511 22.682 125.741 22.8653 125.242 23.232C124.758 23.584 124.516 24.0387 124.516 24.596C124.516 25.036 124.648 25.3807 124.912 25.63C125.191 25.8793 125.55 26.0773 125.99 26.224C126.445 26.356 126.936 26.466 127.464 26.554C128.007 26.642 128.542 26.752 129.07 26.884C129.613 27.0013 130.104 27.17 130.544 27.39C130.999 27.5953 131.358 27.896 131.622 28.292C131.901 28.6733 132.04 29.1793 132.04 29.81C132.04 30.4847 131.85 31.0713 131.468 31.57C131.102 32.054 130.559 32.4353 129.84 32.714C129.136 32.978 128.278 33.11 127.266 33.11ZM134.049 27.72V26.356H139.813V27.72H134.049ZM150.545 33V30.448L150.479 30.03V25.762C150.479 24.7793 150.2 24.024 149.643 23.496C149.1 22.968 148.286 22.704 147.201 22.704C146.453 22.704 145.742 22.8287 145.067 23.078C144.392 23.3273 143.82 23.6573 143.351 24.068L142.647 22.902C143.234 22.4033 143.938 22.022 144.759 21.758C145.58 21.4793 146.446 21.34 147.355 21.34C148.851 21.34 150.002 21.714 150.809 22.462C151.63 23.1953 152.041 24.3173 152.041 25.828V33H150.545ZM146.563 33.11C145.698 33.11 144.942 32.9707 144.297 32.692C143.666 32.3987 143.182 32.0027 142.845 31.504C142.508 30.9907 142.339 30.404 142.339 29.744C142.339 29.1427 142.478 28.6 142.757 28.116C143.05 27.6173 143.52 27.2213 144.165 26.928C144.825 26.62 145.705 26.466 146.805 26.466H150.787V27.632H146.849C145.734 27.632 144.957 27.83 144.517 28.226C144.092 28.622 143.879 29.1133 143.879 29.7C143.879 30.36 144.136 30.888 144.649 31.284C145.162 31.68 145.881 31.878 146.805 31.878C147.685 31.878 148.44 31.68 149.071 31.284C149.716 30.8733 150.186 30.2867 150.479 29.524L150.831 30.602C150.538 31.3647 150.024 31.9733 149.291 32.428C148.572 32.8827 147.663 33.11 146.563 33.11ZM156.283 33V16.676H157.845V33H156.283ZM162.192 33V16.676H163.754V33H162.192Z" fill="#5D87F2"/>
</svg>
