<svg width="73" height="24" viewBox="0 0 73 24" fill="none" xmlns="http://www.w3.org/2000/svg">
<mask id="mask0_60_908" style="mask-type:alpha" maskUnits="userSpaceOnUse" x="0" y="0" width="19" height="24">
<rect width="19" height="24" fill="white"/>
</mask>
<g mask="url(#mask0_60_908)">
<path d="M19 0H5C3.6744 0.00158786 2.40356 0.528882 1.46622 1.46622C0.528882 2.40356 0.00158786 3.6744 0 5L0 19C0.00158786 20.3256 0.528882 21.5964 1.46622 22.5338C2.40356 23.4711 3.6744 23.9984 5 24H19C20.3256 23.9984 21.5964 23.4711 22.5338 22.5338C23.4711 21.5964 23.9984 20.3256 24 19V5C23.9984 3.6744 23.4711 2.40356 22.5338 1.46622C21.5964 0.528882 20.3256 0.00158786 19 0V0ZM22 19C22 19.7956 21.6839 20.5587 21.1213 21.1213C20.5587 21.6839 19.7956 22 19 22H5C4.20435 22 3.44129 21.6839 2.87868 21.1213C2.31607 20.5587 2 19.7956 2 19V5C2 4.20435 2.31607 3.44129 2.87868 2.87868C3.44129 2.31607 4.20435 2 5 2H19C19.7956 2 20.5587 2.31607 21.1213 2.87868C21.6839 3.44129 22 4.20435 22 5V19Z" fill="#5D87F2"/>
</g>
<mask id="mask1_60_908" style="mask-type:alpha" maskUnits="userSpaceOnUse" x="19" y="0" width="14" height="24">
<rect x="19" width="14" height="24" fill="white"/>
</mask>
<g mask="url(#mask1_60_908)">
<path d="M33 0H19C17.6744 0.00158786 16.4036 0.528882 15.4662 1.46622C14.5289 2.40356 14.0016 3.6744 14 5L14 19C14.0016 20.3256 14.5289 21.5964 15.4662 22.5338C16.4036 23.4711 17.6744 23.9984 19 24H33C34.3256 23.9984 35.5964 23.4711 36.5338 22.5338C37.4711 21.5964 37.9984 20.3256 38 19V5C37.9984 3.6744 37.4711 2.40356 36.5338 1.46622C35.5964 0.528882 34.3256 0.00158786 33 0V0ZM36 19C36 19.7956 35.6839 20.5587 35.1213 21.1213C34.5587 21.6839 33.7956 22 33 22H19C18.2044 22 17.4413 21.6839 16.8787 21.1213C16.3161 20.5587 16 19.7956 16 19V5C16 4.20435 16.3161 3.44129 16.8787 2.87868C17.4413 2.31607 18.2044 2 19 2H33C33.7956 2 34.5587 2.31607 35.1213 2.87868C35.6839 3.44129 36 4.20435 36 5V19Z" fill="#5D87F2"/>
</g>
<mask id="mask2_60_908" style="mask-type:alpha" maskUnits="userSpaceOnUse" x="33" y="0" width="14" height="24">
<rect x="33" width="14" height="24" fill="white"/>
</mask>
<g mask="url(#mask2_60_908)">
<path d="M47 0H33C31.6744 0.00158786 30.4036 0.528882 29.4662 1.46622C28.5289 2.40356 28.0016 3.6744 28 5V19C28.0016 20.3256 28.5289 21.5964 29.4662 22.5338C30.4036 23.4711 31.6744 23.9984 33 24H47C48.3256 23.9984 49.5964 23.4711 50.5338 22.5338C51.4711 21.5964 51.9984 20.3256 52 19V5C51.9984 3.6744 51.4711 2.40356 50.5338 1.46622C49.5964 0.528882 48.3256 0.00158786 47 0V0ZM50 19C50 19.7956 49.6839 20.5587 49.1213 21.1213C48.5587 21.6839 47.7956 22 47 22H33C32.2044 22 31.4413 21.6839 30.8787 21.1213C30.3161 20.5587 30 19.7956 30 19V5C30 4.20435 30.3161 3.44129 30.8787 2.87868C31.4413 2.31607 32.2044 2 33 2H47C47.7956 2 48.5587 2.31607 49.1213 2.87868C49.6839 3.44129 50 4.20435 50 5V19Z" fill="#5D87F2"/>
</g>
<mask id="mask3_60_908" style="mask-type:alpha" maskUnits="userSpaceOnUse" x="40" y="0" width="14" height="24">
<rect x="40" width="14" height="24" fill="white"/>
</mask>
<g mask="url(#mask3_60_908)">
<path d="M54 0H40C38.6744 0.00158786 37.4036 0.528882 36.4662 1.46622C35.5289 2.40356 35.0016 3.6744 35 5V19C35.0016 20.3256 35.5289 21.5964 36.4662 22.5338C37.4036 23.4711 38.6744 23.9984 40 24H54C55.3256 23.9984 56.5964 23.4711 57.5338 22.5338C58.4711 21.5964 58.9984 20.3256 59 19V5C58.9984 3.6744 58.4711 2.40356 57.5338 1.46622C56.5964 0.528882 55.3256 0.00158786 54 0V0ZM57 19C57 19.7956 56.6839 20.5587 56.1213 21.1213C55.5587 21.6839 54.7956 22 54 22H40C39.2044 22 38.4413 21.6839 37.8787 21.1213C37.3161 20.5587 37 19.7956 37 19V5C37 4.20435 37.3161 3.44129 37.8787 2.87868C38.4413 2.31607 39.2044 2 40 2H54C54.7956 2 55.5587 2.31607 56.1213 2.87868C56.6839 3.44129 57 4.20435 57 5V19Z" fill="#5D87F2"/>
</g>
<mask id="mask4_60_908" style="mask-type:alpha" maskUnits="userSpaceOnUse" x="54" y="0" width="19" height="24">
<rect width="19" height="24" transform="matrix(-1 0 0 1 73 0)" fill="white"/>
</mask>
<g mask="url(#mask4_60_908)">
<path d="M54 0H68C69.3256 0.00158786 70.5964 0.528882 71.5338 1.46622C72.4711 2.40356 72.9984 3.6744 73 5V19C72.9984 20.3256 72.4711 21.5964 71.5338 22.5338C70.5964 23.4711 69.3256 23.9984 68 24H54C52.6744 23.9984 51.4036 23.4711 50.4662 22.5338C49.5289 21.5964 49.0016 20.3256 49 19V5C49.0016 3.6744 49.5289 2.40356 50.4662 1.46622C51.4036 0.528882 52.6744 0.00158786 54 0V0ZM51 19C51 19.7956 51.3161 20.5587 51.8787 21.1213C52.4413 21.6839 53.2044 22 54 22H68C68.7956 22 69.5587 21.6839 70.1213 21.1213C70.6839 20.5587 71 19.7956 71 19V5C71 4.20435 70.6839 3.44129 70.1213 2.87868C69.5587 2.31607 68.7956 2 68 2H54C53.2044 2 52.4413 2.31607 51.8787 2.87868C51.3161 3.44129 51 4.20435 51 5V19Z" fill="#5D87F2"/>
</g>
<path d="M18.4167 1H5.58333C4.3682 1.00146 3.20326 1.48481 2.34403 2.34403C1.48481 3.20326 1.00146 4.3682 1 5.58333L1 18.4167C1.00146 19.6318 1.48481 20.7967 2.34403 21.656C3.20326 22.5152 4.3682 22.9985 5.58333 23H18.4167C19.6318 22.9985 20.7967 22.5152 21.656 21.656C22.5152 20.7967 22.9985 19.6318 23 18.4167V5.58333C22.9985 4.3682 22.5152 3.20326 21.656 2.34403C20.7967 1.48481 19.6318 1.00146 18.4167 1V1ZM21.1667 18.4167C21.1667 19.146 20.8769 19.8455 20.3612 20.3612C19.8455 20.8769 19.146 21.1667 18.4167 21.1667H5.58333C4.85399 21.1667 4.15451 20.8769 3.63879 20.3612C3.12306 19.8455 2.83333 19.146 2.83333 18.4167V5.58333C2.83333 4.85399 3.12306 4.15451 3.63879 3.63879C4.15451 3.12306 4.85399 2.83333 5.58333 2.83333H18.4167C19.146 2.83333 19.8455 3.12306 20.3612 3.63879C20.8769 4.15451 21.1667 4.85399 21.1667 5.58333V18.4167Z" fill="white"/>
<path d="M32.4167 1H19.5833C18.3682 1.00146 17.2033 1.48481 16.344 2.34403C15.4848 3.20326 15.0015 4.3682 15 5.58333L15 18.4167C15.0015 19.6318 15.4848 20.7967 16.344 21.656C17.2033 22.5152 18.3682 22.9985 19.5833 23H32.4167C33.6318 22.9985 34.7967 22.5152 35.656 21.656C36.5152 20.7967 36.9985 19.6318 37 18.4167V5.58333C36.9985 4.3682 36.5152 3.20326 35.656 2.34403C34.7967 1.48481 33.6318 1.00146 32.4167 1V1ZM35.1667 18.4167C35.1667 19.146 34.8769 19.8455 34.3612 20.3612C33.8455 20.8769 33.146 21.1667 32.4167 21.1667H19.5833C18.854 21.1667 18.1545 20.8769 17.6388 20.3612C17.1231 19.8455 16.8333 19.146 16.8333 18.4167V5.58333C16.8333 4.85399 17.1231 4.15451 17.6388 3.63879C18.1545 3.12306 18.854 2.83333 19.5833 2.83333H32.4167C33.146 2.83333 33.8455 3.12306 34.3612 3.63879C34.8769 4.15451 35.1667 4.85399 35.1667 5.58333V18.4167Z" fill="white"/>
<path d="M26.4167 1H13.5833C12.3682 1.00146 11.2033 1.48481 10.344 2.34403C9.48481 3.20326 9.00146 4.3682 9 5.58333L9 18.4167C9.00146 19.6318 9.48481 20.7967 10.344 21.656C11.2033 22.5152 12.3682 22.9985 13.5833 23H26.4167C27.6318 22.9985 28.7967 22.5152 29.656 21.656C30.5152 20.7967 30.9985 19.6318 31 18.4167V5.58333C30.9985 4.3682 30.5152 3.20326 29.656 2.34403C28.7967 1.48481 27.6318 1.00146 26.4167 1V1ZM29.1667 18.4167C29.1667 19.146 28.8769 19.8455 28.3612 20.3612C27.8455 20.8769 27.146 21.1667 26.4167 21.1667H13.5833C12.854 21.1667 12.1545 20.8769 11.6388 20.3612C11.1231 19.8455 10.8333 19.146 10.8333 18.4167V5.58333C10.8333 4.85399 11.1231 4.15451 11.6388 3.63879C12.1545 3.12306 12.854 2.83333 13.5833 2.83333H26.4167C27.146 2.83333 27.8455 3.12306 28.3612 3.63879C28.8769 4.15451 29.1667 4.85399 29.1667 5.58333V18.4167Z" fill="white"/>
<path d="M38.4167 1H25.5833C24.3682 1.00146 23.2033 1.48481 22.344 2.34403C21.4848 3.20326 21.0015 4.3682 21 5.58333V18.4167C21.0015 19.6318 21.4848 20.7967 22.344 21.656C23.2033 22.5152 24.3682 22.9985 25.5833 23H38.4167C39.6318 22.9985 40.7967 22.5152 41.656 21.656C42.5152 20.7967 42.9985 19.6318 43 18.4167V5.58333C42.9985 4.3682 42.5152 3.20326 41.656 2.34403C40.7967 1.48481 39.6318 1.00146 38.4167 1V1ZM41.1667 18.4167C41.1667 19.146 40.8769 19.8455 40.3612 20.3612C39.8455 20.8769 39.146 21.1667 38.4167 21.1667H25.5833C24.854 21.1667 24.1545 20.8769 23.6388 20.3612C23.1231 19.8455 22.8333 19.146 22.8333 18.4167V5.58333C22.8333 4.85399 23.1231 4.15451 23.6388 3.63879C24.1545 3.12306 24.854 2.83333 25.5833 2.83333H38.4167C39.146 2.83333 39.8455 3.12306 40.3612 3.63879C40.8769 4.15451 41.1667 4.85399 41.1667 5.58333V18.4167Z" fill="white"/>
<path d="M31.5833 1H44.4167C45.6318 1.00146 46.7967 1.48481 47.656 2.34403C48.5152 3.20326 48.9985 4.3682 49 5.58333V18.4167C48.9985 19.6318 48.5152 20.7967 47.656 21.656C46.7967 22.5152 45.6318 22.9985 44.4167 23H31.5833C30.3682 22.9985 29.2033 22.5152 28.344 21.656C27.4848 20.7967 27.0015 19.6318 27 18.4167V5.58333C27.0015 4.3682 27.4848 3.20326 28.344 2.34403C29.2033 1.48481 30.3682 1.00146 31.5833 1V1ZM28.8333 18.4167C28.8333 19.146 29.1231 19.8455 29.6388 20.3612C30.1545 20.8769 30.854 21.1667 31.5833 21.1667H44.4167C45.146 21.1667 45.8455 20.8769 46.3612 20.3612C46.8769 19.8455 47.1667 19.146 47.1667 18.4167V5.58333C47.1667 4.85399 46.8769 4.15451 46.3612 3.63879C45.8455 3.12306 45.146 2.83333 44.4167 2.83333H31.5833C30.854 2.83333 30.1545 3.12306 29.6388 3.63879C29.1231 4.15451 28.8333 4.85399 28.8333 5.58333V18.4167Z" fill="white"/>
<path d="M54.5833 1H67.4167C68.6318 1.00146 69.7967 1.48481 70.656 2.34403C71.5152 3.20326 71.9985 4.3682 72 5.58333V18.4167C71.9985 19.6318 71.5152 20.7967 70.656 21.656C69.7967 22.5152 68.6318 22.9985 67.4167 23H54.5833C53.3682 22.9985 52.2033 22.5152 51.344 21.656C50.4848 20.7967 50.0015 19.6318 50 18.4167V5.58333C50.0015 4.3682 50.4848 3.20326 51.344 2.34403C52.2033 1.48481 53.3682 1.00146 54.5833 1V1ZM51.8333 18.4167C51.8333 19.146 52.1231 19.8455 52.6388 20.3612C53.1545 20.8769 53.854 21.1667 54.5833 21.1667H67.4167C68.146 21.1667 68.8455 20.8769 69.3612 20.3612C69.8769 19.8455 70.1667 19.146 70.1667 18.4167V5.58333C70.1667 4.85399 69.8769 4.15451 69.3612 3.63879C68.8455 3.12306 68.146 2.83333 67.4167 2.83333H54.5833C53.854 2.83333 53.1545 3.12306 52.6388 3.63879C52.1231 4.15451 51.8333 4.85399 51.8333 5.58333V18.4167Z" fill="white"/>
<path d="M39.5833 1H52.4167C53.6318 1.00146 54.7967 1.48481 55.656 2.34403C56.5152 3.20326 56.9985 4.3682 57 5.58333V18.4167C56.9985 19.6318 56.5152 20.7967 55.656 21.656C54.7967 22.5152 53.6318 22.9985 52.4167 23H39.5833C38.3682 22.9985 37.2033 22.5152 36.344 21.656C35.4848 20.7967 35.0015 19.6318 35 18.4167V5.58333C35.0015 4.3682 35.4848 3.20326 36.344 2.34403C37.2033 1.48481 38.3682 1.00146 39.5833 1V1ZM36.8333 18.4167C36.8333 19.146 37.1231 19.8455 37.6388 20.3612C38.1545 20.8769 38.854 21.1667 39.5833 21.1667H52.4167C53.146 21.1667 53.8455 20.8769 54.3612 20.3612C54.8769 19.8455 55.1667 19.146 55.1667 18.4167V5.58333C55.1667 4.85399 54.8769 4.15451 54.3612 3.63879C53.8455 3.12306 53.146 2.83333 52.4167 2.83333H39.5833C38.854 2.83333 38.1545 3.12306 37.6388 3.63879C37.1231 4.15451 36.8333 4.85399 36.8333 5.58333V18.4167Z" fill="white"/>
<path d="M43.5833 1H56.4167C57.6318 1.00146 58.7967 1.48481 59.656 2.34403C60.5152 3.20326 60.9985 4.3682 61 5.58333V18.4167C60.9985 19.6318 60.5152 20.7967 59.656 21.656C58.7967 22.5152 57.6318 22.9985 56.4167 23H43.5833C42.3682 22.9985 41.2033 22.5152 40.344 21.656C39.4848 20.7967 39.0015 19.6318 39 18.4167V5.58333C39.0015 4.3682 39.4848 3.20326 40.344 2.34403C41.2033 1.48481 42.3682 1.00146 43.5833 1V1ZM40.8333 18.4167C40.8333 19.146 41.1231 19.8455 41.6388 20.3612C42.1545 20.8769 42.854 21.1667 43.5833 21.1667H56.4167C57.146 21.1667 57.8455 20.8769 58.3612 20.3612C58.8769 19.8455 59.1667 19.146 59.1667 18.4167V5.58333C59.1667 4.85399 58.8769 4.15451 58.3612 3.63879C57.8455 3.12306 57.146 2.83333 56.4167 2.83333H43.5833C42.854 2.83333 42.1545 3.12306 41.6388 3.63879C41.1231 4.15451 40.8333 4.85399 40.8333 5.58333V18.4167Z" fill="white"/>
<path d="M4.725 17.1L8.355 6.738H9.07L5.44 17.1H4.725ZM11.4196 16.055C10.8476 16.055 10.3343 15.9303 9.87962 15.681C9.43228 15.4243 9.08028 15.076 8.82362 14.636C8.56695 14.1887 8.43862 13.679 8.43862 13.107C8.43862 12.5277 8.56695 12.018 8.82362 11.578C9.08028 11.138 9.43228 10.7933 9.87962 10.544C10.3343 10.2947 10.8476 10.17 11.4196 10.17C11.911 10.17 12.3546 10.2653 12.7506 10.456C13.1466 10.6467 13.4583 10.9327 13.6856 11.314L13.1026 11.71C12.9046 11.4167 12.659 11.2003 12.3656 11.061C12.0723 10.9217 11.7533 10.852 11.4086 10.852C10.998 10.852 10.6276 10.9473 10.2976 11.138C9.96762 11.3213 9.70728 11.5817 9.51662 11.919C9.32595 12.2563 9.23062 12.6523 9.23062 13.107C9.23062 13.5617 9.32595 13.9577 9.51662 14.295C9.70728 14.6323 9.96762 14.8963 10.2976 15.087C10.6276 15.2703 10.998 15.362 11.4086 15.362C11.7533 15.362 12.0723 15.2923 12.3656 15.153C12.659 15.0137 12.9046 14.801 13.1026 14.515L13.6856 14.911C13.4583 15.285 13.1466 15.571 12.7506 15.769C12.3546 15.9597 11.911 16.055 11.4196 16.055ZM17.4772 16.055C16.9198 16.055 16.4175 15.9303 15.9702 15.681C15.5302 15.4243 15.1818 15.076 14.9252 14.636C14.6685 14.1887 14.5402 13.679 14.5402 13.107C14.5402 12.5277 14.6685 12.018 14.9252 11.578C15.1818 11.138 15.5302 10.7933 15.9702 10.544C16.4102 10.2947 16.9125 10.17 17.4772 10.17C18.0492 10.17 18.5552 10.2947 18.9952 10.544C19.4425 10.7933 19.7908 11.138 20.0402 11.578C20.2968 12.018 20.4252 12.5277 20.4252 13.107C20.4252 13.679 20.2968 14.1887 20.0402 14.636C19.7908 15.076 19.4425 15.4243 18.9952 15.681C18.5478 15.9303 18.0418 16.055 17.4772 16.055ZM17.4772 15.362C17.8952 15.362 18.2655 15.2703 18.5882 15.087C18.9108 14.8963 19.1638 14.6323 19.3472 14.295C19.5378 13.9503 19.6332 13.5543 19.6332 13.107C19.6332 12.6523 19.5378 12.2563 19.3472 11.919C19.1638 11.5817 18.9108 11.3213 18.5882 11.138C18.2655 10.9473 17.8988 10.852 17.4882 10.852C17.0775 10.852 16.7108 10.9473 16.3882 11.138C16.0655 11.3213 15.8088 11.5817 15.6182 11.919C15.4275 12.2563 15.3322 12.6523 15.3322 13.107C15.3322 13.5543 15.4275 13.9503 15.6182 14.295C15.8088 14.6323 16.0655 14.8963 16.3882 15.087C16.7108 15.2703 17.0738 15.362 17.4772 15.362ZM22.0197 16V7.838H22.8007V16H22.0197ZM24.9738 16V7.838H25.7548V16H24.9738ZM30.3809 16.055C29.7795 16.055 29.2515 15.9303 28.7969 15.681C28.3422 15.4243 27.9865 15.076 27.7299 14.636C27.4732 14.1887 27.3449 13.679 27.3449 13.107C27.3449 12.535 27.4659 12.029 27.7079 11.589C27.9572 11.149 28.2945 10.8043 28.7199 10.555C29.1525 10.2983 29.6365 10.17 30.1719 10.17C30.7145 10.17 31.1949 10.2947 31.6129 10.544C32.0382 10.786 32.3719 11.1307 32.6139 11.578C32.8559 12.018 32.9769 12.5277 32.9769 13.107C32.9769 13.1437 32.9732 13.184 32.9659 13.228C32.9659 13.2647 32.9659 13.305 32.9659 13.349H27.9389V12.766H32.5479L32.2399 12.997C32.2399 12.579 32.1482 12.2087 31.9649 11.886C31.7889 11.556 31.5469 11.2993 31.2389 11.116C30.9309 10.9327 30.5752 10.841 30.1719 10.841C29.7759 10.841 29.4202 10.9327 29.1049 11.116C28.7895 11.2993 28.5439 11.556 28.3679 11.886C28.1919 12.216 28.1039 12.5937 28.1039 13.019V13.14C28.1039 13.58 28.1992 13.9687 28.3899 14.306C28.5879 14.636 28.8592 14.8963 29.2039 15.087C29.5559 15.2703 29.9555 15.362 30.4029 15.362C30.7549 15.362 31.0812 15.2997 31.3819 15.175C31.6899 15.0503 31.9539 14.8597 32.1739 14.603L32.6139 15.109C32.3572 15.417 32.0345 15.6517 31.6459 15.813C31.2645 15.9743 30.8429 16.055 30.3809 16.055ZM36.9645 16.055C36.3925 16.055 35.8792 15.9303 35.4245 15.681C34.9772 15.4243 34.6252 15.076 34.3685 14.636C34.1119 14.1887 33.9835 13.679 33.9835 13.107C33.9835 12.5277 34.1119 12.018 34.3685 11.578C34.6252 11.138 34.9772 10.7933 35.4245 10.544C35.8792 10.2947 36.3925 10.17 36.9645 10.17C37.4559 10.17 37.8995 10.2653 38.2955 10.456C38.6915 10.6467 39.0032 10.9327 39.2305 11.314L38.6475 11.71C38.4495 11.4167 38.2039 11.2003 37.9105 11.061C37.6172 10.9217 37.2982 10.852 36.9535 10.852C36.5429 10.852 36.1725 10.9473 35.8425 11.138C35.5125 11.3213 35.2522 11.5817 35.0615 11.919C34.8709 12.2563 34.7755 12.6523 34.7755 13.107C34.7755 13.5617 34.8709 13.9577 35.0615 14.295C35.2522 14.6323 35.5125 14.8963 35.8425 15.087C36.1725 15.2703 36.5429 15.362 36.9535 15.362C37.2982 15.362 37.6172 15.2923 37.9105 15.153C38.2039 15.0137 38.4495 14.801 38.6475 14.515L39.2305 14.911C39.0032 15.285 38.6915 15.571 38.2955 15.769C37.8995 15.9597 37.4559 16.055 36.9645 16.055ZM42.6552 16.055C42.1126 16.055 41.6946 15.9083 41.4012 15.615C41.1079 15.3217 40.9612 14.9073 40.9612 14.372V8.949H41.7422V14.328C41.7422 14.6653 41.8266 14.9257 41.9952 15.109C42.1712 15.2923 42.4206 15.384 42.7432 15.384C43.0879 15.384 43.3739 15.285 43.6012 15.087L43.8762 15.648C43.7222 15.7873 43.5352 15.89 43.3152 15.956C43.1026 16.022 42.8826 16.055 42.6552 16.055ZM39.9272 10.874V10.225H43.5022V10.874H39.9272ZM45.298 16V10.225H46.079V16H45.298ZM45.694 8.949C45.5327 8.949 45.397 8.894 45.287 8.784C45.177 8.674 45.122 8.542 45.122 8.388C45.122 8.234 45.177 8.10567 45.287 8.003C45.397 7.893 45.5327 7.838 45.694 7.838C45.8553 7.838 45.991 7.88933 46.101 7.992C46.211 8.09467 46.266 8.223 46.266 8.377C46.266 8.53833 46.211 8.674 46.101 8.784C45.9983 8.894 45.8627 8.949 45.694 8.949ZM50.6061 16.055C50.0488 16.055 49.5464 15.9303 49.0991 15.681C48.6591 15.4243 48.3108 15.076 48.0541 14.636C47.7974 14.1887 47.6691 13.679 47.6691 13.107C47.6691 12.5277 47.7974 12.018 48.0541 11.578C48.3108 11.138 48.6591 10.7933 49.0991 10.544C49.5391 10.2947 50.0414 10.17 50.6061 10.17C51.1781 10.17 51.6841 10.2947 52.1241 10.544C52.5714 10.7933 52.9198 11.138 53.1691 11.578C53.4258 12.018 53.5541 12.5277 53.5541 13.107C53.5541 13.679 53.4258 14.1887 53.1691 14.636C52.9198 15.076 52.5714 15.4243 52.1241 15.681C51.6768 15.9303 51.1708 16.055 50.6061 16.055ZM50.6061 15.362C51.0241 15.362 51.3944 15.2703 51.7171 15.087C52.0398 14.8963 52.2928 14.6323 52.4761 14.295C52.6668 13.9503 52.7621 13.5543 52.7621 13.107C52.7621 12.6523 52.6668 12.2563 52.4761 11.919C52.2928 11.5817 52.0398 11.3213 51.7171 11.138C51.3944 10.9473 51.0278 10.852 50.6171 10.852C50.2064 10.852 49.8398 10.9473 49.5171 11.138C49.1944 11.3213 48.9378 11.5817 48.7471 11.919C48.5564 12.2563 48.4611 12.6523 48.4611 13.107C48.4611 13.5543 48.5564 13.9503 48.7471 14.295C48.9378 14.6323 49.1944 14.8963 49.5171 15.087C49.8398 15.2703 50.2028 15.362 50.6061 15.362ZM58.0966 10.17C58.5659 10.17 58.9766 10.2617 59.3286 10.445C59.6879 10.621 59.9666 10.8923 60.1646 11.259C60.3699 11.6257 60.4726 12.0877 60.4726 12.645V16H59.6916V12.722C59.6916 12.1133 59.5376 11.655 59.2296 11.347C58.9289 11.0317 58.5036 10.874 57.9536 10.874C57.5429 10.874 57.1836 10.9583 56.8756 11.127C56.5749 11.2883 56.3402 11.5267 56.1716 11.842C56.0102 12.15 55.9296 12.524 55.9296 12.964V16H55.1486V10.225H55.8966V11.809L55.7756 11.512C55.9589 11.094 56.2522 10.7677 56.6556 10.533C57.0589 10.291 57.5392 10.17 58.0966 10.17ZM64.1332 16.055C63.6565 16.055 63.2055 15.989 62.7802 15.857C62.3548 15.7177 62.0212 15.5453 61.7792 15.34L62.1312 14.724C62.3658 14.9 62.6665 15.054 63.0332 15.186C63.3998 15.3107 63.7848 15.373 64.1882 15.373C64.7382 15.373 65.1342 15.2887 65.3762 15.12C65.6182 14.944 65.7392 14.713 65.7392 14.427C65.7392 14.2143 65.6695 14.0493 65.5302 13.932C65.3982 13.8073 65.2222 13.7157 65.0022 13.657C64.7822 13.591 64.5365 13.536 64.2652 13.492C63.9938 13.448 63.7225 13.3967 63.4512 13.338C63.1872 13.2793 62.9452 13.195 62.7252 13.085C62.5052 12.9677 62.3255 12.81 62.1862 12.612C62.0542 12.414 61.9882 12.15 61.9882 11.82C61.9882 11.5047 62.0762 11.2223 62.2522 10.973C62.4282 10.7237 62.6848 10.5293 63.0222 10.39C63.3668 10.2433 63.7848 10.17 64.2762 10.17C64.6502 10.17 65.0242 10.2213 65.3982 10.324C65.7722 10.4193 66.0802 10.5477 66.3222 10.709L65.9812 11.336C65.7245 11.16 65.4495 11.0353 65.1562 10.962C64.8628 10.8813 64.5695 10.841 64.2762 10.841C63.7555 10.841 63.3705 10.9327 63.1212 11.116C62.8792 11.292 62.7582 11.5193 62.7582 11.798C62.7582 12.018 62.8242 12.1903 62.9562 12.315C63.0955 12.4397 63.2752 12.5387 63.4952 12.612C63.7225 12.678 63.9682 12.733 64.2322 12.777C64.5035 12.821 64.7712 12.876 65.0352 12.942C65.3065 13.0007 65.5522 13.085 65.7722 13.195C65.9995 13.2977 66.1792 13.448 66.3112 13.646C66.4505 13.8367 66.5202 14.0897 66.5202 14.405C66.5202 14.7423 66.4248 15.0357 66.2342 15.285C66.0508 15.527 65.7795 15.7177 65.4202 15.857C65.0682 15.989 64.6392 16.055 64.1332 16.055Z" fill="#5D87F2"/>
</svg>
