<svg width="146" height="48" viewBox="0 0 146 48" fill="none" xmlns="http://www.w3.org/2000/svg">
<rect x="1" y="1" width="144" height="46" rx="4" stroke="#5D87F2" stroke-width="2" stroke-linejoin="round"/>
<path d="M7.45 35.2L14.71 14.476H16.14L8.88 35.2H7.45ZM20.8392 33.11C19.6952 33.11 18.6686 32.8607 17.7592 32.362C16.8646 31.8487 16.1606 31.152 15.6472 30.272C15.1339 29.3773 14.8772 28.358 14.8772 27.214C14.8772 26.0553 15.1339 25.036 15.6472 24.156C16.1606 23.276 16.8646 22.5867 17.7592 22.088C18.6686 21.5893 19.6952 21.34 20.8392 21.34C21.8219 21.34 22.7092 21.5307 23.5012 21.912C24.2932 22.2933 24.9166 22.8653 25.3712 23.628L24.2052 24.42C23.8092 23.8333 23.3179 23.4007 22.7312 23.122C22.1446 22.8433 21.5066 22.704 20.8172 22.704C19.9959 22.704 19.2552 22.8947 18.5952 23.276C17.9352 23.6427 17.4146 24.1633 17.0332 24.838C16.6519 25.5127 16.4612 26.3047 16.4612 27.214C16.4612 28.1233 16.6519 28.9153 17.0332 29.59C17.4146 30.2647 17.9352 30.7927 18.5952 31.174C19.2552 31.5407 19.9959 31.724 20.8172 31.724C21.5066 31.724 22.1446 31.5847 22.7312 31.306C23.3179 31.0273 23.8092 30.602 24.2052 30.03L25.3712 30.822C24.9166 31.57 24.2932 32.142 23.5012 32.538C22.7092 32.9193 21.8219 33.11 20.8392 33.11ZM32.9544 33.11C31.8397 33.11 30.835 32.8607 29.9404 32.362C29.0604 31.8487 28.3637 31.152 27.8504 30.272C27.337 29.3773 27.0804 28.358 27.0804 27.214C27.0804 26.0553 27.337 25.036 27.8504 24.156C28.3637 23.276 29.0604 22.5867 29.9404 22.088C30.8204 21.5893 31.825 21.34 32.9544 21.34C34.0984 21.34 35.1104 21.5893 35.9904 22.088C36.885 22.5867 37.5817 23.276 38.0804 24.156C38.5937 25.036 38.8504 26.0553 38.8504 27.214C38.8504 28.358 38.5937 29.3773 38.0804 30.272C37.5817 31.152 36.885 31.8487 35.9904 32.362C35.0957 32.8607 34.0837 33.11 32.9544 33.11ZM32.9544 31.724C33.7904 31.724 34.531 31.5407 35.1764 31.174C35.8217 30.7927 36.3277 30.2647 36.6944 29.59C37.0757 28.9007 37.2664 28.1087 37.2664 27.214C37.2664 26.3047 37.0757 25.5127 36.6944 24.838C36.3277 24.1633 35.8217 23.6427 35.1764 23.276C34.531 22.8947 33.7977 22.704 32.9764 22.704C32.155 22.704 31.4217 22.8947 30.7764 23.276C30.131 23.6427 29.6177 24.1633 29.2364 24.838C28.855 25.5127 28.6644 26.3047 28.6644 27.214C28.6644 28.1087 28.855 28.9007 29.2364 29.59C29.6177 30.2647 30.131 30.7927 30.7764 31.174C31.4217 31.5407 32.1477 31.724 32.9544 31.724ZM42.0393 33V16.676H43.6013V33H42.0393ZM47.9475 33V16.676H49.5095V33H47.9475ZM58.7617 33.11C57.5591 33.11 56.5031 32.8607 55.5937 32.362C54.6844 31.8487 53.9731 31.152 53.4597 30.272C52.9464 29.3773 52.6897 28.358 52.6897 27.214C52.6897 26.07 52.9317 25.058 53.4157 24.178C53.9144 23.298 54.5891 22.6087 55.4397 22.11C56.3051 21.5967 57.2731 21.34 58.3437 21.34C59.4291 21.34 60.3897 21.5893 61.2257 22.088C62.0764 22.572 62.7437 23.2613 63.2277 24.156C63.7117 25.036 63.9537 26.0553 63.9537 27.214C63.9537 27.2873 63.9464 27.368 63.9317 27.456C63.9317 27.5293 63.9317 27.61 63.9317 27.698H53.8777V26.532H63.0957L62.4797 26.994C62.4797 26.158 62.2964 25.4173 61.9297 24.772C61.5777 24.112 61.0937 23.5987 60.4777 23.232C59.8617 22.8653 59.1504 22.682 58.3437 22.682C57.5517 22.682 56.8404 22.8653 56.2097 23.232C55.5791 23.5987 55.0877 24.112 54.7357 24.772C54.3837 25.432 54.2077 26.1873 54.2077 27.038V27.28C54.2077 28.16 54.3984 28.9373 54.7797 29.612C55.1757 30.272 55.7184 30.7927 56.4077 31.174C57.1117 31.5407 57.9111 31.724 58.8057 31.724C59.5097 31.724 60.1624 31.5993 60.7637 31.35C61.3797 31.1007 61.9077 30.7193 62.3477 30.206L63.2277 31.218C62.7144 31.834 62.0691 32.3033 61.2917 32.626C60.5291 32.9487 59.6857 33.11 58.7617 33.11ZM71.9291 33.11C70.7851 33.11 69.7584 32.8607 68.8491 32.362C67.9544 31.8487 67.2504 31.152 66.7371 30.272C66.2237 29.3773 65.9671 28.358 65.9671 27.214C65.9671 26.0553 66.2237 25.036 66.7371 24.156C67.2504 23.276 67.9544 22.5867 68.8491 22.088C69.7584 21.5893 70.7851 21.34 71.9291 21.34C72.9117 21.34 73.7991 21.5307 74.5911 21.912C75.3831 22.2933 76.0064 22.8653 76.4611 23.628L75.2951 24.42C74.8991 23.8333 74.4077 23.4007 73.8211 23.122C73.2344 22.8433 72.5964 22.704 71.9071 22.704C71.0857 22.704 70.3451 22.8947 69.6851 23.276C69.0251 23.6427 68.5044 24.1633 68.1231 24.838C67.7417 25.5127 67.5511 26.3047 67.5511 27.214C67.5511 28.1233 67.7417 28.9153 68.1231 29.59C68.5044 30.2647 69.0251 30.7927 69.6851 31.174C70.3451 31.5407 71.0857 31.724 71.9071 31.724C72.5964 31.724 73.2344 31.5847 73.8211 31.306C74.4077 31.0273 74.8991 30.602 75.2951 30.03L76.4611 30.822C76.0064 31.57 75.3831 32.142 74.5911 32.538C73.7991 32.9193 72.9117 33.11 71.9291 33.11ZM83.3105 33.11C82.2251 33.11 81.3891 32.8167 80.8025 32.23C80.2158 31.6433 79.9225 30.8147 79.9225 29.744V18.898H81.4845V29.656C81.4845 30.3307 81.6531 30.8513 81.9905 31.218C82.3425 31.5847 82.8411 31.768 83.4865 31.768C84.1758 31.768 84.7478 31.57 85.2025 31.174L85.7525 32.296C85.4445 32.5747 85.0705 32.78 84.6305 32.912C84.2051 33.044 83.7651 33.11 83.3105 33.11ZM77.8545 22.748V21.45H85.0045V22.748H77.8545ZM88.596 33V21.45H90.158V33H88.596ZM89.388 18.898C89.0653 18.898 88.794 18.788 88.574 18.568C88.354 18.348 88.244 18.084 88.244 17.776C88.244 17.468 88.354 17.2113 88.574 17.006C88.794 16.786 89.0653 16.676 89.388 16.676C89.7106 16.676 89.982 16.7787 90.202 16.984C90.422 17.1893 90.532 17.446 90.532 17.754C90.532 18.0767 90.422 18.348 90.202 18.568C89.9966 18.788 89.7253 18.898 89.388 18.898ZM99.2122 33.11C98.0975 33.11 97.0928 32.8607 96.1982 32.362C95.3182 31.8487 94.6215 31.152 94.1082 30.272C93.5948 29.3773 93.3382 28.358 93.3382 27.214C93.3382 26.0553 93.5948 25.036 94.1082 24.156C94.6215 23.276 95.3182 22.5867 96.1982 22.088C97.0782 21.5893 98.0828 21.34 99.2122 21.34C100.356 21.34 101.368 21.5893 102.248 22.088C103.143 22.5867 103.84 23.276 104.338 24.156C104.852 25.036 105.108 26.0553 105.108 27.214C105.108 28.358 104.852 29.3773 104.338 30.272C103.84 31.152 103.143 31.8487 102.248 32.362C101.354 32.8607 100.342 33.11 99.2122 33.11ZM99.2122 31.724C100.048 31.724 100.789 31.5407 101.434 31.174C102.08 30.7927 102.586 30.2647 102.952 29.59C103.334 28.9007 103.524 28.1087 103.524 27.214C103.524 26.3047 103.334 25.5127 102.952 24.838C102.586 24.1633 102.08 23.6427 101.434 23.276C100.789 22.8947 100.056 22.704 99.2342 22.704C98.4128 22.704 97.6795 22.8947 97.0342 23.276C96.3888 23.6427 95.8755 24.1633 95.4942 24.838C95.1128 25.5127 94.9222 26.3047 94.9222 27.214C94.9222 28.1087 95.1128 28.9007 95.4942 29.59C95.8755 30.2647 96.3888 30.7927 97.0342 31.174C97.6795 31.5407 98.4055 31.724 99.2122 31.724ZM114.193 21.34C115.132 21.34 115.953 21.5233 116.657 21.89C117.376 22.242 117.933 22.7847 118.329 23.518C118.74 24.2513 118.945 25.1753 118.945 26.29V33H117.383V26.444C117.383 25.2267 117.075 24.31 116.459 23.694C115.858 23.0633 115.007 22.748 113.907 22.748C113.086 22.748 112.367 22.9167 111.751 23.254C111.15 23.5767 110.68 24.0533 110.343 24.684C110.02 25.3 109.859 26.048 109.859 26.928V33H108.297V21.45H109.793V24.618L109.551 24.024C109.918 23.188 110.504 22.5353 111.311 22.066C112.118 21.582 113.078 21.34 114.193 21.34ZM126.266 33.11C125.313 33.11 124.411 32.978 123.56 32.714C122.71 32.4353 122.042 32.0907 121.558 31.68L122.262 30.448C122.732 30.8 123.333 31.108 124.066 31.372C124.8 31.6213 125.57 31.746 126.376 31.746C127.476 31.746 128.268 31.5773 128.752 31.24C129.236 30.888 129.478 30.426 129.478 29.854C129.478 29.4287 129.339 29.0987 129.06 28.864C128.796 28.6147 128.444 28.4313 128.004 28.314C127.564 28.182 127.073 28.072 126.53 27.984C125.988 27.896 125.445 27.7933 124.902 27.676C124.374 27.5587 123.89 27.39 123.45 27.17C123.01 26.9353 122.651 26.62 122.372 26.224C122.108 25.828 121.976 25.3 121.976 24.64C121.976 24.0093 122.152 23.4447 122.504 22.946C122.856 22.4473 123.37 22.0587 124.044 21.78C124.734 21.4867 125.57 21.34 126.552 21.34C127.3 21.34 128.048 21.4427 128.796 21.648C129.544 21.8387 130.16 22.0953 130.644 22.418L129.962 23.672C129.449 23.32 128.899 23.0707 128.312 22.924C127.726 22.7627 127.139 22.682 126.552 22.682C125.511 22.682 124.741 22.8653 124.242 23.232C123.758 23.584 123.516 24.0387 123.516 24.596C123.516 25.036 123.648 25.3807 123.912 25.63C124.191 25.8793 124.55 26.0773 124.99 26.224C125.445 26.356 125.936 26.466 126.464 26.554C127.007 26.642 127.542 26.752 128.07 26.884C128.613 27.0013 129.104 27.17 129.544 27.39C129.999 27.5953 130.358 27.896 130.622 28.292C130.901 28.6733 131.04 29.1793 131.04 29.81C131.04 30.4847 130.85 31.0713 130.468 31.57C130.102 32.054 129.559 32.4353 128.84 32.714C128.136 32.978 127.278 33.11 126.266 33.11Z" fill="#5D87F2"/>
</svg>
