<svg width="114" height="48" viewBox="0 0 114 48" fill="none" xmlns="http://www.w3.org/2000/svg">
<rect x="1" y="1" width="112" height="46" rx="4" stroke="#5D87F2" stroke-width="2" stroke-linejoin="round"/>
<path d="M12.45 35.2L19.71 14.476H21.14L13.88 35.2H12.45ZM35.4752 21.34C36.4139 21.34 37.2279 21.5233 37.9172 21.89C38.6212 22.242 39.1639 22.7847 39.5452 23.518C39.9412 24.2513 40.1392 25.1753 40.1392 26.29V33H38.5772V26.444C38.5772 25.2267 38.2839 24.31 37.6972 23.694C37.1252 23.0633 36.3112 22.748 35.2552 22.748C34.4632 22.748 33.7739 22.9167 33.1872 23.254C32.6152 23.5767 32.1679 24.0533 31.8452 24.684C31.5372 25.3 31.3832 26.048 31.3832 26.928V33H29.8212V26.444C29.8212 25.2267 29.5279 24.31 28.9412 23.694C28.3546 23.0633 27.5332 22.748 26.4772 22.748C25.6999 22.748 25.0179 22.9167 24.4312 23.254C23.8446 23.5767 23.3899 24.0533 23.0672 24.684C22.7592 25.3 22.6052 26.048 22.6052 26.928V33H21.0432V21.45H22.5392V24.574L22.2972 24.024C22.6492 23.188 23.2139 22.5353 23.9912 22.066C24.7832 21.582 25.7146 21.34 26.7852 21.34C27.9146 21.34 28.8752 21.626 29.6672 22.198C30.4592 22.7553 30.9726 23.5987 31.2072 24.728L30.5912 24.486C30.9286 23.5473 31.5226 22.792 32.3732 22.22C33.2386 21.6333 34.2726 21.34 35.4752 21.34ZM49.0833 33.11C47.9686 33.11 46.9639 32.8607 46.0693 32.362C45.1893 31.8487 44.4926 31.152 43.9793 30.272C43.4659 29.3773 43.2093 28.358 43.2093 27.214C43.2093 26.0553 43.4659 25.036 43.9793 24.156C44.4926 23.276 45.1893 22.5867 46.0693 22.088C46.9493 21.5893 47.9539 21.34 49.0833 21.34C50.2273 21.34 51.2393 21.5893 52.1193 22.088C53.0139 22.5867 53.7106 23.276 54.2093 24.156C54.7226 25.036 54.9793 26.0553 54.9793 27.214C54.9793 28.358 54.7226 29.3773 54.2093 30.272C53.7106 31.152 53.0139 31.8487 52.1193 32.362C51.2246 32.8607 50.2126 33.11 49.0833 33.11ZM49.0833 31.724C49.9193 31.724 50.6599 31.5407 51.3053 31.174C51.9506 30.7927 52.4566 30.2647 52.8233 29.59C53.2046 28.9007 53.3953 28.1087 53.3953 27.214C53.3953 26.3047 53.2046 25.5127 52.8233 24.838C52.4566 24.1633 51.9506 23.6427 51.3053 23.276C50.6599 22.8947 49.9266 22.704 49.1053 22.704C48.2839 22.704 47.5506 22.8947 46.9053 23.276C46.2599 23.6427 45.7466 24.1633 45.3653 24.838C44.9839 25.5127 44.7933 26.3047 44.7933 27.214C44.7933 28.1087 44.9839 28.9007 45.3653 29.59C45.7466 30.2647 46.2599 30.7927 46.9053 31.174C47.5506 31.5407 48.2766 31.724 49.0833 31.724ZM60.816 33L55.69 21.45H57.318L62.026 32.164H61.256L66.03 21.45H67.57L62.422 33H60.816ZM69.7698 33V21.45H71.3318V33H69.7698ZM70.5618 18.898C70.2391 18.898 69.9678 18.788 69.7478 18.568C69.5278 18.348 69.4178 18.084 69.4178 17.776C69.4178 17.468 69.5278 17.2113 69.7478 17.006C69.9678 16.786 70.2391 16.676 70.5618 16.676C70.8845 16.676 71.1558 16.7787 71.3758 16.984C71.5958 17.1893 71.7058 17.446 71.7058 17.754C71.7058 18.0767 71.5958 18.348 71.3758 18.568C71.1705 18.788 70.8991 18.898 70.5618 18.898ZM80.584 33.11C79.3813 33.11 78.3253 32.8607 77.416 32.362C76.5067 31.8487 75.7953 31.152 75.282 30.272C74.7687 29.3773 74.512 28.358 74.512 27.214C74.512 26.07 74.754 25.058 75.238 24.178C75.7367 23.298 76.4113 22.6087 77.262 22.11C78.1273 21.5967 79.0953 21.34 80.166 21.34C81.2513 21.34 82.212 21.5893 83.048 22.088C83.8987 22.572 84.566 23.2613 85.05 24.156C85.534 25.036 85.776 26.0553 85.776 27.214C85.776 27.2873 85.7687 27.368 85.754 27.456C85.754 27.5293 85.754 27.61 85.754 27.698H75.7V26.532H84.918L84.302 26.994C84.302 26.158 84.1187 25.4173 83.752 24.772C83.4 24.112 82.916 23.5987 82.3 23.232C81.684 22.8653 80.9727 22.682 80.166 22.682C79.374 22.682 78.6627 22.8653 78.032 23.232C77.4013 23.5987 76.91 24.112 76.558 24.772C76.206 25.432 76.03 26.1873 76.03 27.038V27.28C76.03 28.16 76.2207 28.9373 76.602 29.612C76.998 30.272 77.5407 30.7927 78.23 31.174C78.934 31.5407 79.7333 31.724 80.628 31.724C81.332 31.724 81.9847 31.5993 82.586 31.35C83.202 31.1007 83.73 30.7193 84.17 30.206L85.05 31.218C84.5367 31.834 83.8913 32.3033 83.114 32.626C82.3513 32.9487 81.508 33.11 80.584 33.11ZM92.0573 33.11C91.104 33.11 90.202 32.978 89.3513 32.714C88.5007 32.4353 87.8333 32.0907 87.3493 31.68L88.0533 30.448C88.5227 30.8 89.124 31.108 89.8573 31.372C90.5907 31.6213 91.3607 31.746 92.1673 31.746C93.2673 31.746 94.0593 31.5773 94.5433 31.24C95.0273 30.888 95.2693 30.426 95.2693 29.854C95.2693 29.4287 95.13 29.0987 94.8513 28.864C94.5873 28.6147 94.2353 28.4313 93.7953 28.314C93.3553 28.182 92.864 28.072 92.3213 27.984C91.7787 27.896 91.236 27.7933 90.6933 27.676C90.1653 27.5587 89.6813 27.39 89.2413 27.17C88.8013 26.9353 88.442 26.62 88.1633 26.224C87.8993 25.828 87.7673 25.3 87.7673 24.64C87.7673 24.0093 87.9433 23.4447 88.2953 22.946C88.6473 22.4473 89.1607 22.0587 89.8353 21.78C90.5247 21.4867 91.3607 21.34 92.3433 21.34C93.0913 21.34 93.8393 21.4427 94.5873 21.648C95.3353 21.8387 95.9513 22.0953 96.4353 22.418L95.7533 23.672C95.24 23.32 94.69 23.0707 94.1033 22.924C93.5167 22.7627 92.93 22.682 92.3433 22.682C91.302 22.682 90.532 22.8653 90.0333 23.232C89.5493 23.584 89.3073 24.0387 89.3073 24.596C89.3073 25.036 89.4393 25.3807 89.7033 25.63C89.982 25.8793 90.3413 26.0773 90.7813 26.224C91.236 26.356 91.7273 26.466 92.2553 26.554C92.798 26.642 93.3333 26.752 93.8613 26.884C94.404 27.0013 94.8953 27.17 95.3353 27.39C95.79 27.5953 96.1493 27.896 96.4133 28.292C96.692 28.6733 96.8313 29.1793 96.8313 29.81C96.8313 30.4847 96.6407 31.0713 96.2593 31.57C95.8927 32.054 95.35 32.4353 94.6313 32.714C93.9273 32.978 93.0693 33.11 92.0573 33.11Z" fill="#5D87F2"/>
</svg>
