<svg width="57" height="24" viewBox="0 0 57 24" fill="none" xmlns="http://www.w3.org/2000/svg">
<mask id="mask0_76_193" style="mask-type:alpha" maskUnits="userSpaceOnUse" x="0" y="0" width="19" height="24">
<rect width="19" height="24" fill="white"/>
</mask>
<g mask="url(#mask0_76_193)">
<path d="M19 0H5C3.6744 0.00158786 2.40356 0.528882 1.46622 1.46622C0.528882 2.40356 0.00158786 3.6744 0 5L0 19C0.00158786 20.3256 0.528882 21.5964 1.46622 22.5338C2.40356 23.4711 3.6744 23.9984 5 24H19C20.3256 23.9984 21.5964 23.4711 22.5338 22.5338C23.4711 21.5964 23.9984 20.3256 24 19V5C23.9984 3.6744 23.4711 2.40356 22.5338 1.46622C21.5964 0.528882 20.3256 0.00158786 19 0V0ZM22 19C22 19.7956 21.6839 20.5587 21.1213 21.1213C20.5587 21.6839 19.7956 22 19 22H5C4.20435 22 3.44129 21.6839 2.87868 21.1213C2.31607 20.5587 2 19.7956 2 19V5C2 4.20435 2.31607 3.44129 2.87868 2.87868C3.44129 2.31607 4.20435 2 5 2H19C19.7956 2 20.5587 2.31607 21.1213 2.87868C21.6839 3.44129 22 4.20435 22 5V19Z" fill="#5D87F2"/>
</g>
<mask id="mask1_76_193" style="mask-type:alpha" maskUnits="userSpaceOnUse" x="38" y="0" width="19" height="24">
<rect width="19" height="24" transform="matrix(-1 0 0 1 57 0)" fill="white"/>
</mask>
<g mask="url(#mask1_76_193)">
<path d="M38 0H52C53.3256 0.00158786 54.5964 0.528882 55.5338 1.46622C56.4711 2.40356 56.9984 3.6744 57 5V19C56.9984 20.3256 56.4711 21.5964 55.5338 22.5338C54.5964 23.4711 53.3256 23.9984 52 24H38C36.6744 23.9984 35.4036 23.4711 34.4662 22.5338C33.5289 21.5964 33.0016 20.3256 33 19V5C33.0016 3.6744 33.5289 2.40356 34.4662 1.46622C35.4036 0.528882 36.6744 0.00158786 38 0V0ZM35 19C35 19.7956 35.3161 20.5587 35.8787 21.1213C36.4413 21.6839 37.2044 22 38 22H52C52.7956 22 53.5587 21.6839 54.1213 21.1213C54.6839 20.5587 55 19.7956 55 19V5C55 4.20435 54.6839 3.44129 54.1213 2.87868C53.5587 2.31607 52.7956 2 52 2H38C37.2044 2 36.4413 2.31607 35.8787 2.87868C35.3161 3.44129 35 4.20435 35 5V19Z" fill="#5D87F2"/>
</g>
<mask id="mask2_76_193" style="mask-type:alpha" maskUnits="userSpaceOnUse" x="24" y="0" width="14" height="24">
<rect width="14" height="24" transform="translate(24)" fill="white"/>
</mask>
<g mask="url(#mask2_76_193)">
<path d="M38 0H24C22.6744 0.00158786 21.4036 0.528882 20.4662 1.46622C19.5289 2.40356 19.0016 3.6744 19 5V19C19.0016 20.3256 19.5289 21.5964 20.4662 22.5338C21.4036 23.4711 22.6744 23.9984 24 24H38C39.3256 23.9984 40.5964 23.4711 41.5338 22.5338C42.4711 21.5964 42.9984 20.3256 43 19V5C42.9984 3.6744 42.4711 2.40356 41.5338 1.46622C40.5964 0.528882 39.3256 0.00158786 38 0V0ZM41 19C41 19.7956 40.6839 20.5587 40.1213 21.1213C39.5587 21.6839 38.7956 22 38 22H24C23.2044 22 22.4413 21.6839 21.8787 21.1213C21.3161 20.5587 21 19.7956 21 19V5C21 4.20435 21.3161 3.44129 21.8787 2.87868C22.4413 2.31607 23.2044 2 24 2H38C38.7956 2 39.5587 2.31607 40.1213 2.87868C40.6839 3.44129 41 4.20435 41 5V19Z" fill="#5D87F2"/>
</g>
<mask id="mask3_76_193" style="mask-type:alpha" maskUnits="userSpaceOnUse" x="17" y="0" width="14" height="24">
<rect width="14" height="24" transform="translate(17)" fill="white"/>
</mask>
<g mask="url(#mask3_76_193)">
<path d="M31 0H17C15.6744 0.00158786 14.4036 0.528882 13.4662 1.46622C12.5289 2.40356 12.0016 3.6744 12 5L12 19C12.0016 20.3256 12.5289 21.5964 13.4662 22.5338C14.4036 23.4711 15.6744 23.9984 17 24H31C32.3256 23.9984 33.5964 23.4711 34.5338 22.5338C35.4711 21.5964 35.9984 20.3256 36 19V5C35.9984 3.6744 35.4711 2.40356 34.5338 1.46622C33.5964 0.528882 32.3256 0.00158786 31 0V0ZM34 19C34 19.7956 33.6839 20.5587 33.1213 21.1213C32.5587 21.6839 31.7956 22 31 22H17C16.2044 22 15.4413 21.6839 14.8787 21.1213C14.3161 20.5587 14 19.7956 14 19V5C14 4.20435 14.3161 3.44129 14.8787 2.87868C15.4413 2.31607 16.2044 2 17 2H31C31.7956 2 32.5587 2.31607 33.1213 2.87868C33.6839 3.44129 34 4.20435 34 5V19Z" fill="#5D87F2"/>
</g>
<path d="M5.58333 1H18.4167C19.6318 1.00146 20.7967 1.48481 21.656 2.34403C22.5152 3.20326 22.9985 4.3682 23 5.58333V18.4167C22.9985 19.6318 22.5152 20.7967 21.656 21.656C20.7967 22.5152 19.6318 22.9985 18.4167 23H5.58333C4.3682 22.9985 3.20326 22.5152 2.34403 21.656C1.48481 20.7967 1.00146 19.6318 1 18.4167V5.58333C1.00146 4.3682 1.48481 3.20326 2.34403 2.34403C3.20326 1.48481 4.3682 1.00146 5.58333 1V1ZM2.83333 18.4167C2.83333 19.146 3.12306 19.8455 3.63879 20.3612C4.15451 20.8769 4.85399 21.1667 5.58333 21.1667H18.4167C19.146 21.1667 19.8455 20.8769 20.3612 20.3612C20.8769 19.8455 21.1667 19.146 21.1667 18.4167V5.58333C21.1667 4.85399 20.8769 4.15451 20.3612 3.63879C19.8455 3.12306 19.146 2.83333 18.4167 2.83333H5.58333C4.85399 2.83333 4.15451 3.12306 3.63879 3.63879C3.12306 4.15451 2.83333 4.85399 2.83333 5.58333V18.4167Z" fill="white"/>
<path d="M38.5833 1H51.4167C52.6318 1.00146 53.7967 1.48481 54.656 2.34403C55.5152 3.20326 55.9985 4.3682 56 5.58333V18.4167C55.9985 19.6318 55.5152 20.7967 54.656 21.656C53.7967 22.5152 52.6318 22.9985 51.4167 23H38.5833C37.3682 22.9985 36.2033 22.5152 35.344 21.656C34.4848 20.7967 34.0015 19.6318 34 18.4167V5.58333C34.0015 4.3682 34.4848 3.20326 35.344 2.34403C36.2033 1.48481 37.3682 1.00146 38.5833 1V1ZM35.8333 18.4167C35.8333 19.146 36.1231 19.8455 36.6388 20.3612C37.1545 20.8769 37.854 21.1667 38.5833 21.1667H51.4167C52.146 21.1667 52.8455 20.8769 53.3612 20.3612C53.8769 19.8455 54.1667 19.146 54.1667 18.4167V5.58333C54.1667 4.85399 53.8769 4.15451 53.3612 3.63879C52.8455 3.12306 52.146 2.83333 51.4167 2.83333H38.5833C37.854 2.83333 37.1545 3.12306 36.6388 3.63879C36.1231 4.15451 35.8333 4.85399 35.8333 5.58333V18.4167Z" fill="white"/>
<path d="M27.5833 1H40.4167C41.6318 1.00146 42.7967 1.48481 43.656 2.34403C44.5152 3.20326 44.9985 4.3682 45 5.58333V18.4167C44.9985 19.6318 44.5152 20.7967 43.656 21.656C42.7967 22.5152 41.6318 22.9985 40.4167 23H27.5833C26.3682 22.9985 25.2033 22.5152 24.344 21.656C23.4848 20.7967 23.0015 19.6318 23 18.4167V5.58333C23.0015 4.3682 23.4848 3.20326 24.344 2.34403C25.2033 1.48481 26.3682 1.00146 27.5833 1V1ZM24.8333 18.4167C24.8333 19.146 25.1231 19.8455 25.6388 20.3612C26.1545 20.8769 26.854 21.1667 27.5833 21.1667H40.4167C41.146 21.1667 41.8455 20.8769 42.3612 20.3612C42.8769 19.8455 43.1667 19.146 43.1667 18.4167V5.58333C43.1667 4.85399 42.8769 4.15451 42.3612 3.63879C41.8455 3.12306 41.146 2.83333 40.4167 2.83333H27.5833C26.854 2.83333 26.1545 3.12306 25.6388 3.63879C25.1231 4.15451 24.8333 4.85399 24.8333 5.58333V18.4167Z" fill="white"/>
<path d="M17.5833 1H30.4167C31.6318 1.00146 32.7967 1.48481 33.656 2.34403C34.5152 3.20326 34.9985 4.3682 35 5.58333V18.4167C34.9985 19.6318 34.5152 20.7967 33.656 21.656C32.7967 22.5152 31.6318 22.9985 30.4167 23H17.5833C16.3682 22.9985 15.2033 22.5152 14.344 21.656C13.4848 20.7967 13.0015 19.6318 13 18.4167V5.58333C13.0015 4.3682 13.4848 3.20326 14.344 2.34403C15.2033 1.48481 16.3682 1.00146 17.5833 1V1ZM14.8333 18.4167C14.8333 19.146 15.1231 19.8455 15.6388 20.3612C16.1545 20.8769 16.854 21.1667 17.5833 21.1667H30.4167C31.146 21.1667 31.8455 20.8769 32.3612 20.3612C32.8769 19.8455 33.1667 19.146 33.1667 18.4167V5.58333C33.1667 4.85399 32.8769 4.15451 32.3612 3.63879C31.8455 3.12306 31.146 2.83333 30.4167 2.83333H17.5833C16.854 2.83333 16.1545 3.12306 15.6388 3.63879C15.1231 4.15451 14.8333 4.85399 14.8333 5.58333V18.4167Z" fill="white"/>
<path d="M6.725 17.1L10.355 6.738H11.07L7.44 17.1H6.725ZM18.2376 10.17C18.707 10.17 19.114 10.2617 19.4586 10.445C19.8106 10.621 20.082 10.8923 20.2726 11.259C20.4706 11.6257 20.5696 12.0877 20.5696 12.645V16H19.7886V12.722C19.7886 12.1133 19.642 11.655 19.3486 11.347C19.0626 11.0317 18.6556 10.874 18.1276 10.874C17.7316 10.874 17.387 10.9583 17.0936 11.127C16.8076 11.2883 16.584 11.5267 16.4226 11.842C16.2686 12.15 16.1916 12.524 16.1916 12.964V16H15.4106V12.722C15.4106 12.1133 15.264 11.655 14.9706 11.347C14.6773 11.0317 14.2666 10.874 13.7386 10.874C13.35 10.874 13.009 10.9583 12.7156 11.127C12.4223 11.2883 12.195 11.5267 12.0336 11.842C11.8796 12.15 11.8026 12.524 11.8026 12.964V16H11.0216V10.225H11.7696V11.787L11.6486 11.512C11.8246 11.094 12.107 10.7677 12.4956 10.533C12.8916 10.291 13.3573 10.17 13.8926 10.17C14.4573 10.17 14.9376 10.313 15.3336 10.599C15.7296 10.8777 15.9863 11.2993 16.1036 11.864L15.7956 11.743C15.9643 11.2737 16.2613 10.896 16.6866 10.61C17.1193 10.3167 17.6363 10.17 18.2376 10.17ZM25.0416 16.055C24.4843 16.055 23.982 15.9303 23.5346 15.681C23.0946 15.4243 22.7463 15.076 22.4896 14.636C22.233 14.1887 22.1046 13.679 22.1046 13.107C22.1046 12.5277 22.233 12.018 22.4896 11.578C22.7463 11.138 23.0946 10.7933 23.5346 10.544C23.9746 10.2947 24.477 10.17 25.0416 10.17C25.6136 10.17 26.1196 10.2947 26.5596 10.544C27.007 10.7933 27.3553 11.138 27.6046 11.578C27.8613 12.018 27.9896 12.5277 27.9896 13.107C27.9896 13.679 27.8613 14.1887 27.6046 14.636C27.3553 15.076 27.007 15.4243 26.5596 15.681C26.1123 15.9303 25.6063 16.055 25.0416 16.055ZM25.0416 15.362C25.4596 15.362 25.83 15.2703 26.1526 15.087C26.4753 14.8963 26.7283 14.6323 26.9116 14.295C27.1023 13.9503 27.1976 13.5543 27.1976 13.107C27.1976 12.6523 27.1023 12.2563 26.9116 11.919C26.7283 11.5817 26.4753 11.3213 26.1526 11.138C25.83 10.9473 25.4633 10.852 25.0526 10.852C24.642 10.852 24.2753 10.9473 23.9526 11.138C23.63 11.3213 23.3733 11.5817 23.1826 11.919C22.992 12.2563 22.8966 12.6523 22.8966 13.107C22.8966 13.5543 22.992 13.9503 23.1826 14.295C23.3733 14.6323 23.63 14.8963 23.9526 15.087C24.2753 15.2703 24.6383 15.362 25.0416 15.362ZM30.908 16L28.345 10.225H29.159L31.513 15.582H31.128L33.515 10.225H34.285L31.711 16H30.908ZM35.3849 16V10.225H36.1659V16H35.3849ZM35.7809 8.949C35.6196 8.949 35.4839 8.894 35.3739 8.784C35.2639 8.674 35.2089 8.542 35.2089 8.388C35.2089 8.234 35.2639 8.10567 35.3739 8.003C35.4839 7.893 35.6196 7.838 35.7809 7.838C35.9422 7.838 36.0779 7.88933 36.1879 7.992C36.2979 8.09467 36.3529 8.223 36.3529 8.377C36.3529 8.53833 36.2979 8.674 36.1879 8.784C36.0852 8.894 35.9496 8.949 35.7809 8.949ZM40.792 16.055C40.1907 16.055 39.6627 15.9303 39.208 15.681C38.7533 15.4243 38.3977 15.076 38.141 14.636C37.8843 14.1887 37.756 13.679 37.756 13.107C37.756 12.535 37.877 12.029 38.119 11.589C38.3683 11.149 38.7057 10.8043 39.131 10.555C39.5637 10.2983 40.0477 10.17 40.583 10.17C41.1257 10.17 41.606 10.2947 42.024 10.544C42.4493 10.786 42.783 11.1307 43.025 11.578C43.267 12.018 43.388 12.5277 43.388 13.107C43.388 13.1437 43.3843 13.184 43.377 13.228C43.377 13.2647 43.377 13.305 43.377 13.349H38.35V12.766H42.959L42.651 12.997C42.651 12.579 42.5593 12.2087 42.376 11.886C42.2 11.556 41.958 11.2993 41.65 11.116C41.342 10.9327 40.9863 10.841 40.583 10.841C40.187 10.841 39.8313 10.9327 39.516 11.116C39.2007 11.2993 38.955 11.556 38.779 11.886C38.603 12.216 38.515 12.5937 38.515 13.019V13.14C38.515 13.58 38.6103 13.9687 38.801 14.306C38.999 14.636 39.2703 14.8963 39.615 15.087C39.967 15.2703 40.3667 15.362 40.814 15.362C41.166 15.362 41.4923 15.2997 41.793 15.175C42.101 15.0503 42.365 14.8597 42.585 14.603L43.025 15.109C42.7683 15.417 42.4457 15.6517 42.057 15.813C41.6757 15.9743 41.254 16.055 40.792 16.055ZM46.5287 16.055C46.052 16.055 45.601 15.989 45.1757 15.857C44.7503 15.7177 44.4167 15.5453 44.1747 15.34L44.5267 14.724C44.7613 14.9 45.062 15.054 45.4287 15.186C45.7953 15.3107 46.1803 15.373 46.5837 15.373C47.1337 15.373 47.5297 15.2887 47.7717 15.12C48.0137 14.944 48.1347 14.713 48.1347 14.427C48.1347 14.2143 48.065 14.0493 47.9257 13.932C47.7937 13.8073 47.6177 13.7157 47.3977 13.657C47.1777 13.591 46.932 13.536 46.6607 13.492C46.3893 13.448 46.118 13.3967 45.8467 13.338C45.5827 13.2793 45.3407 13.195 45.1207 13.085C44.9007 12.9677 44.721 12.81 44.5817 12.612C44.4497 12.414 44.3837 12.15 44.3837 11.82C44.3837 11.5047 44.4717 11.2223 44.6477 10.973C44.8237 10.7237 45.0803 10.5293 45.4177 10.39C45.7623 10.2433 46.1803 10.17 46.6717 10.17C47.0457 10.17 47.4197 10.2213 47.7937 10.324C48.1677 10.4193 48.4757 10.5477 48.7177 10.709L48.3767 11.336C48.12 11.16 47.845 11.0353 47.5517 10.962C47.2583 10.8813 46.965 10.841 46.6717 10.841C46.151 10.841 45.766 10.9327 45.5167 11.116C45.2747 11.292 45.1537 11.5193 45.1537 11.798C45.1537 12.018 45.2197 12.1903 45.3517 12.315C45.491 12.4397 45.6707 12.5387 45.8907 12.612C46.118 12.678 46.3637 12.733 46.6277 12.777C46.899 12.821 47.1667 12.876 47.4307 12.942C47.702 13.0007 47.9477 13.085 48.1677 13.195C48.395 13.2977 48.5747 13.448 48.7067 13.646C48.846 13.8367 48.9157 14.0897 48.9157 14.405C48.9157 14.7423 48.8203 15.0357 48.6297 15.285C48.4463 15.527 48.175 15.7177 47.8157 15.857C47.4637 15.989 47.0347 16.055 46.5287 16.055Z" fill="#5D87F2"/>
</svg>
