<svg width="52" height="24" viewBox="0 0 52 24" fill="none" xmlns="http://www.w3.org/2000/svg">
<mask id="mask0_60_857" style="mask-type:alpha" maskUnits="userSpaceOnUse" x="0" y="0" width="19" height="24">
<rect width="19" height="24" fill="white"/>
</mask>
<g mask="url(#mask0_60_857)">
<path d="M19 0H5C3.6744 0.00158786 2.40356 0.528882 1.46622 1.46622C0.528882 2.40356 0.00158786 3.6744 0 5L0 19C0.00158786 20.3256 0.528882 21.5964 1.46622 22.5338C2.40356 23.4711 3.6744 23.9984 5 24H19C20.3256 23.9984 21.5964 23.4711 22.5338 22.5338C23.4711 21.5964 23.9984 20.3256 24 19V5C23.9984 3.6744 23.4711 2.40356 22.5338 1.46622C21.5964 0.528882 20.3256 0.00158786 19 0V0ZM22 19C22 19.7956 21.6839 20.5587 21.1213 21.1213C20.5587 21.6839 19.7956 22 19 22H5C4.20435 22 3.44129 21.6839 2.87868 21.1213C2.31607 20.5587 2 19.7956 2 19V5C2 4.20435 2.31607 3.44129 2.87868 2.87868C3.44129 2.31607 4.20435 2 5 2H19C19.7956 2 20.5587 2.31607 21.1213 2.87868C21.6839 3.44129 22 4.20435 22 5V19Z" fill="#5D87F2"/>
</g>
<mask id="mask1_60_857" style="mask-type:alpha" maskUnits="userSpaceOnUse" x="19" y="0" width="14" height="24">
<rect x="19" width="14" height="24" fill="white"/>
</mask>
<g mask="url(#mask1_60_857)">
<path d="M33 0H19C17.6744 0.00158786 16.4036 0.528882 15.4662 1.46622C14.5289 2.40356 14.0016 3.6744 14 5L14 19C14.0016 20.3256 14.5289 21.5964 15.4662 22.5338C16.4036 23.4711 17.6744 23.9984 19 24H33C34.3256 23.9984 35.5964 23.4711 36.5338 22.5338C37.4711 21.5964 37.9984 20.3256 38 19V5C37.9984 3.6744 37.4711 2.40356 36.5338 1.46622C35.5964 0.528882 34.3256 0.00158786 33 0V0ZM36 19C36 19.7956 35.6839 20.5587 35.1213 21.1213C34.5587 21.6839 33.7956 22 33 22H19C18.2044 22 17.4413 21.6839 16.8787 21.1213C16.3161 20.5587 16 19.7956 16 19V5C16 4.20435 16.3161 3.44129 16.8787 2.87868C17.4413 2.31607 18.2044 2 19 2H33C33.7956 2 34.5587 2.31607 35.1213 2.87868C35.6839 3.44129 36 4.20435 36 5V19Z" fill="#5D87F2"/>
</g>
<mask id="mask2_60_857" style="mask-type:alpha" maskUnits="userSpaceOnUse" x="33" y="0" width="19" height="24">
<rect width="19" height="24" transform="matrix(-1 0 0 1 52 0)" fill="white"/>
</mask>
<g mask="url(#mask2_60_857)">
<path d="M33 0H47C48.3256 0.00158786 49.5964 0.528882 50.5338 1.46622C51.4711 2.40356 51.9984 3.6744 52 5V19C51.9984 20.3256 51.4711 21.5964 50.5338 22.5338C49.5964 23.4711 48.3256 23.9984 47 24H33C31.6744 23.9984 30.4036 23.4711 29.4662 22.5338C28.5289 21.5964 28.0016 20.3256 28 19V5C28.0016 3.6744 28.5289 2.40356 29.4662 1.46622C30.4036 0.528882 31.6744 0.00158786 33 0V0ZM30 19C30 19.7956 30.3161 20.5587 30.8787 21.1213C31.4413 21.6839 32.2044 22 33 22H47C47.7956 22 48.5587 21.6839 49.1213 21.1213C49.6839 20.5587 50 19.7956 50 19V5C50 4.20435 49.6839 3.44129 49.1213 2.87868C48.5587 2.31607 47.7956 2 47 2H33C32.2044 2 31.4413 2.31607 30.8787 2.87868C30.3161 3.44129 30 4.20435 30 5V19Z" fill="#5D87F2"/>
</g>
<path d="M33.5833 1H46.4167C47.6318 1.00146 48.7967 1.48481 49.656 2.34403C50.5152 3.20326 50.9985 4.3682 51 5.58333V18.4167C50.9985 19.6318 50.5152 20.7967 49.656 21.656C48.7967 22.5152 47.6318 22.9985 46.4167 23H33.5833C32.3682 22.9985 31.2033 22.5152 30.344 21.656C29.4848 20.7967 29.0015 19.6318 29 18.4167V5.58333C29.0015 4.3682 29.4848 3.20326 30.344 2.34403C31.2033 1.48481 32.3682 1.00146 33.5833 1V1ZM30.8333 18.4167C30.8333 19.146 31.1231 19.8455 31.6388 20.3612C32.1545 20.8769 32.854 21.1667 33.5833 21.1667H46.4167C47.146 21.1667 47.8455 20.8769 48.3612 20.3612C48.8769 19.8455 49.1667 19.146 49.1667 18.4167V5.58333C49.1667 4.85399 48.8769 4.15451 48.3612 3.63879C47.8455 3.12306 47.146 2.83333 46.4167 2.83333H33.5833C32.854 2.83333 32.1545 3.12306 31.6388 3.63879C31.1231 4.15451 30.8333 4.85399 30.8333 5.58333V18.4167Z" fill="white"/>
<path d="M19.5833 1H32.4167C33.6318 1.00146 34.7967 1.48481 35.656 2.34403C36.5152 3.20326 36.9985 4.3682 37 5.58333V18.4167C36.9985 19.6318 36.5152 20.7967 35.656 21.656C34.7967 22.5152 33.6318 22.9985 32.4167 23H19.5833C18.3682 22.9985 17.2033 22.5152 16.344 21.656C15.4848 20.7967 15.0015 19.6318 15 18.4167V5.58333C15.0015 4.3682 15.4848 3.20326 16.344 2.34403C17.2033 1.48481 18.3682 1.00146 19.5833 1V1ZM16.8333 18.4167C16.8333 19.146 17.1231 19.8455 17.6388 20.3612C18.1545 20.8769 18.854 21.1667 19.5833 21.1667H32.4167C33.146 21.1667 33.8455 20.8769 34.3612 20.3612C34.8769 19.8455 35.1667 19.146 35.1667 18.4167V5.58333C35.1667 4.85399 34.8769 4.15451 34.3612 3.63879C33.8455 3.12306 33.146 2.83333 32.4167 2.83333H19.5833C18.854 2.83333 18.1545 3.12306 17.6388 3.63879C17.1231 4.15451 16.8333 4.85399 16.8333 5.58333V18.4167Z" fill="white"/>
<path d="M5.58333 1H18.4167C19.6318 1.00146 20.7967 1.48481 21.656 2.34403C22.5152 3.20326 22.9985 4.3682 23 5.58333V18.4167C22.9985 19.6318 22.5152 20.7967 21.656 21.656C20.7967 22.5152 19.6318 22.9985 18.4167 23H5.58333C4.3682 22.9985 3.20326 22.5152 2.34403 21.656C1.48481 20.7967 1.00146 19.6318 1 18.4167V5.58333C1.00146 4.3682 1.48481 3.20326 2.34403 2.34403C3.20326 1.48481 4.3682 1.00146 5.58333 1V1ZM2.83333 18.4167C2.83333 19.146 3.12306 19.8455 3.63879 20.3612C4.15451 20.8769 4.85399 21.1667 5.58333 21.1667H18.4167C19.146 21.1667 19.8455 20.8769 20.3612 20.3612C20.8769 19.8455 21.1667 19.146 21.1667 18.4167V5.58333C21.1667 4.85399 20.8769 4.15451 20.3612 3.63879C19.8455 3.12306 19.146 2.83333 18.4167 2.83333H5.58333C4.85399 2.83333 4.15451 3.12306 3.63879 3.63879C3.12306 4.15451 2.83333 4.85399 2.83333 5.58333V18.4167Z" fill="white"/>
<path d="M6.725 17.1L10.355 6.738H11.07L7.44 17.1H6.725ZM12.5726 16.055C12.096 16.055 11.645 15.989 11.2196 15.857C10.7943 15.7177 10.4606 15.5453 10.2186 15.34L10.5706 14.724C10.8053 14.9 11.106 15.054 11.4726 15.186C11.8393 15.3107 12.2243 15.373 12.6276 15.373C13.1776 15.373 13.5736 15.2887 13.8156 15.12C14.0576 14.944 14.1786 14.713 14.1786 14.427C14.1786 14.2143 14.109 14.0493 13.9696 13.932C13.8376 13.8073 13.6616 13.7157 13.4416 13.657C13.2216 13.591 12.976 13.536 12.7046 13.492C12.4333 13.448 12.162 13.3967 11.8906 13.338C11.6266 13.2793 11.3846 13.195 11.1646 13.085C10.9446 12.9677 10.765 12.81 10.6256 12.612C10.4936 12.414 10.4276 12.15 10.4276 11.82C10.4276 11.5047 10.5156 11.2223 10.6916 10.973C10.8676 10.7237 11.1243 10.5293 11.4616 10.39C11.8063 10.2433 12.2243 10.17 12.7156 10.17C13.0896 10.17 13.4636 10.2213 13.8376 10.324C14.2116 10.4193 14.5196 10.5477 14.7616 10.709L14.4206 11.336C14.164 11.16 13.889 11.0353 13.5956 10.962C13.3023 10.8813 13.009 10.841 12.7156 10.841C12.195 10.841 11.81 10.9327 11.5606 11.116C11.3186 11.292 11.1976 11.5193 11.1976 11.798C11.1976 12.018 11.2636 12.1903 11.3956 12.315C11.535 12.4397 11.7146 12.5387 11.9346 12.612C12.162 12.678 12.4076 12.733 12.6716 12.777C12.943 12.821 13.2106 12.876 13.4746 12.942C13.746 13.0007 13.9916 13.085 14.2116 13.195C14.439 13.2977 14.6186 13.448 14.7506 13.646C14.89 13.8367 14.9596 14.0897 14.9596 14.405C14.9596 14.7423 14.8643 15.0357 14.6736 15.285C14.4903 15.527 14.219 15.7177 13.8596 15.857C13.5076 15.989 13.0786 16.055 12.5726 16.055ZM18.8457 16.055C18.2444 16.055 17.7164 15.9303 17.2617 15.681C16.807 15.4243 16.4514 15.076 16.1947 14.636C15.938 14.1887 15.8097 13.679 15.8097 13.107C15.8097 12.535 15.9307 12.029 16.1727 11.589C16.422 11.149 16.7594 10.8043 17.1847 10.555C17.6174 10.2983 18.1014 10.17 18.6367 10.17C19.1794 10.17 19.6597 10.2947 20.0777 10.544C20.503 10.786 20.8367 11.1307 21.0787 11.578C21.3207 12.018 21.4417 12.5277 21.4417 13.107C21.4417 13.1437 21.438 13.184 21.4307 13.228C21.4307 13.2647 21.4307 13.305 21.4307 13.349H16.4037V12.766H21.0127L20.7047 12.997C20.7047 12.579 20.613 12.2087 20.4297 11.886C20.2537 11.556 20.0117 11.2993 19.7037 11.116C19.3957 10.9327 19.04 10.841 18.6367 10.841C18.2407 10.841 17.885 10.9327 17.5697 11.116C17.2544 11.2993 17.0087 11.556 16.8327 11.886C16.6567 12.216 16.5687 12.5937 16.5687 13.019V13.14C16.5687 13.58 16.664 13.9687 16.8547 14.306C17.0527 14.636 17.324 14.8963 17.6687 15.087C18.0207 15.2703 18.4204 15.362 18.8677 15.362C19.2197 15.362 19.546 15.2997 19.8467 15.175C20.1547 15.0503 20.4187 14.8597 20.6387 14.603L21.0787 15.109C20.822 15.417 20.4994 15.6517 20.1107 15.813C19.7294 15.9743 19.3077 16.055 18.8457 16.055ZM26.4893 16V14.724L26.4563 14.515V12.381C26.4563 11.8897 26.3169 11.512 26.0383 11.248C25.7669 10.984 25.3599 10.852 24.8173 10.852C24.4433 10.852 24.0876 10.9143 23.7503 11.039C23.4129 11.1637 23.1269 11.3287 22.8923 11.534L22.5403 10.951C22.8336 10.7017 23.1856 10.511 23.5963 10.379C24.0069 10.2397 24.4396 10.17 24.8943 10.17C25.6423 10.17 26.2179 10.357 26.6213 10.731C27.0319 11.0977 27.2373 11.6587 27.2373 12.414V16H26.4893ZM24.4983 16.055C24.0656 16.055 23.6879 15.9853 23.3653 15.846C23.0499 15.6993 22.8079 15.5013 22.6393 15.252C22.4706 14.9953 22.3863 14.702 22.3863 14.372C22.3863 14.0713 22.4559 13.8 22.5953 13.558C22.7419 13.3087 22.9766 13.1107 23.2993 12.964C23.6293 12.81 24.0693 12.733 24.6193 12.733H26.6103V13.316H24.6413C24.0839 13.316 23.6953 13.415 23.4753 13.613C23.2626 13.811 23.1562 14.0567 23.1562 14.35C23.1562 14.68 23.2846 14.944 23.5413 15.142C23.7979 15.34 24.1573 15.439 24.6193 15.439C25.0593 15.439 25.4369 15.34 25.7523 15.142C26.0749 14.9367 26.3096 14.6433 26.4563 14.262L26.6323 14.801C26.4856 15.1823 26.2289 15.4867 25.8623 15.714C25.5029 15.9413 25.0483 16.055 24.4983 16.055ZM29.3585 16V10.225H30.1065V11.798L30.0295 11.523C30.1909 11.083 30.4622 10.7493 30.8435 10.522C31.2249 10.2873 31.6979 10.17 32.2625 10.17V10.929C32.2332 10.929 32.2039 10.929 32.1745 10.929C32.1452 10.9217 32.1159 10.918 32.0865 10.918C31.4779 10.918 31.0012 11.105 30.6565 11.479C30.3119 11.8457 30.1395 12.37 30.1395 13.052V16H29.3585ZM36.0319 16.055C35.4599 16.055 34.9466 15.9303 34.4919 15.681C34.0446 15.4243 33.6926 15.076 33.4359 14.636C33.1793 14.1887 33.0509 13.679 33.0509 13.107C33.0509 12.5277 33.1793 12.018 33.4359 11.578C33.6926 11.138 34.0446 10.7933 34.4919 10.544C34.9466 10.2947 35.4599 10.17 36.0319 10.17C36.5233 10.17 36.9669 10.2653 37.3629 10.456C37.7589 10.6467 38.0706 10.9327 38.2979 11.314L37.7149 11.71C37.5169 11.4167 37.2713 11.2003 36.9779 11.061C36.6846 10.9217 36.3656 10.852 36.0209 10.852C35.6103 10.852 35.2399 10.9473 34.9099 11.138C34.5799 11.3213 34.3196 11.5817 34.1289 11.919C33.9383 12.2563 33.8429 12.6523 33.8429 13.107C33.8429 13.5617 33.9383 13.9577 34.1289 14.295C34.3196 14.6323 34.5799 14.8963 34.9099 15.087C35.2399 15.2703 35.6103 15.362 36.0209 15.362C36.3656 15.362 36.6846 15.2923 36.9779 15.153C37.2713 15.0137 37.5169 14.801 37.7149 14.515L38.2979 14.911C38.0706 15.285 37.7589 15.571 37.3629 15.769C36.9669 15.9597 36.5233 16.055 36.0319 16.055ZM42.6942 10.17C43.1636 10.17 43.5742 10.2617 43.9262 10.445C44.2856 10.621 44.5642 10.8923 44.7622 11.259C44.9676 11.6257 45.0702 12.0877 45.0702 12.645V16H44.2892V12.722C44.2892 12.1133 44.1352 11.655 43.8272 11.347C43.5266 11.0317 43.1012 10.874 42.5512 10.874C42.1406 10.874 41.7812 10.9583 41.4732 11.127C41.1726 11.2883 40.9379 11.5267 40.7692 11.842C40.6079 12.15 40.5272 12.524 40.5272 12.964V16H39.7462V7.838H40.5272V11.809L40.3732 11.512C40.5566 11.094 40.8499 10.7677 41.2532 10.533C41.6566 10.291 42.1369 10.17 42.6942 10.17Z" fill="#5D87F2"/>
</svg>
