<svg width="104" height="48" viewBox="0 0 104 48" fill="none" xmlns="http://www.w3.org/2000/svg">
<rect x="1" y="1" width="102" height="46" rx="4" stroke="#5D87F2" stroke-width="2" stroke-linejoin="round"/>
<path d="M9.45 35.2L16.71 14.476H18.14L10.88 35.2H9.45ZM21.1452 33.11C20.1919 33.11 19.2899 32.978 18.4392 32.714C17.5886 32.4353 16.9212 32.0907 16.4372 31.68L17.1412 30.448C17.6106 30.8 18.2119 31.108 18.9452 31.372C19.6786 31.6213 20.4486 31.746 21.2552 31.746C22.3552 31.746 23.1472 31.5773 23.6312 31.24C24.1152 30.888 24.3572 30.426 24.3572 29.854C24.3572 29.4287 24.2179 29.0987 23.9392 28.864C23.6752 28.6147 23.3232 28.4313 22.8832 28.314C22.4432 28.182 21.9519 28.072 21.4092 27.984C20.8666 27.896 20.3239 27.7933 19.7812 27.676C19.2532 27.5587 18.7692 27.39 18.3292 27.17C17.8892 26.9353 17.5299 26.62 17.2512 26.224C16.9872 25.828 16.8552 25.3 16.8552 24.64C16.8552 24.0093 17.0312 23.4447 17.3832 22.946C17.7352 22.4473 18.2486 22.0587 18.9232 21.78C19.6126 21.4867 20.4486 21.34 21.4312 21.34C22.1792 21.34 22.9272 21.4427 23.6752 21.648C24.4232 21.8387 25.0392 22.0953 25.5232 22.418L24.8412 23.672C24.3279 23.32 23.7779 23.0707 23.1912 22.924C22.6046 22.7627 22.0179 22.682 21.4312 22.682C20.3899 22.682 19.6199 22.8653 19.1212 23.232C18.6372 23.584 18.3952 24.0387 18.3952 24.596C18.3952 25.036 18.5272 25.3807 18.7912 25.63C19.0699 25.8793 19.4292 26.0773 19.8692 26.224C20.3239 26.356 20.8152 26.466 21.3432 26.554C21.8859 26.642 22.4212 26.752 22.9492 26.884C23.4919 27.0013 23.9832 27.17 24.4232 27.39C24.8779 27.5953 25.2372 27.896 25.5012 28.292C25.7799 28.6733 25.9192 29.1793 25.9192 29.81C25.9192 30.4847 25.7286 31.0713 25.3472 31.57C24.9806 32.054 24.4379 32.4353 23.7192 32.714C23.0152 32.978 22.1572 33.11 21.1452 33.11ZM33.6914 33.11C32.4888 33.11 31.4328 32.8607 30.5234 32.362C29.6141 31.8487 28.9028 31.152 28.3894 30.272C27.8761 29.3773 27.6194 28.358 27.6194 27.214C27.6194 26.07 27.8614 25.058 28.3454 24.178C28.8441 23.298 29.5188 22.6087 30.3694 22.11C31.2348 21.5967 32.2028 21.34 33.2734 21.34C34.3588 21.34 35.3194 21.5893 36.1554 22.088C37.0061 22.572 37.6734 23.2613 38.1574 24.156C38.6414 25.036 38.8834 26.0553 38.8834 27.214C38.8834 27.2873 38.8761 27.368 38.8614 27.456C38.8614 27.5293 38.8614 27.61 38.8614 27.698H28.8074V26.532H38.0254L37.4094 26.994C37.4094 26.158 37.2261 25.4173 36.8594 24.772C36.5074 24.112 36.0234 23.5987 35.4074 23.232C34.7914 22.8653 34.0801 22.682 33.2734 22.682C32.4814 22.682 31.7701 22.8653 31.1394 23.232C30.5088 23.5987 30.0174 24.112 29.6654 24.772C29.3134 25.432 29.1374 26.1873 29.1374 27.038V27.28C29.1374 28.16 29.3281 28.9373 29.7094 29.612C30.1054 30.272 30.6481 30.7927 31.3374 31.174C32.0414 31.5407 32.8408 31.724 33.7354 31.724C34.4394 31.724 35.0921 31.5993 35.6934 31.35C36.3094 31.1007 36.8374 30.7193 37.2774 30.206L38.1574 31.218C37.6441 31.834 36.9988 32.3033 36.2214 32.626C35.4588 32.9487 34.6154 33.11 33.6914 33.11ZM48.9785 33V30.448L48.9125 30.03V25.762C48.9125 24.7793 48.6338 24.024 48.0765 23.496C47.5338 22.968 46.7198 22.704 45.6345 22.704C44.8865 22.704 44.1752 22.8287 43.5005 23.078C42.8258 23.3273 42.2538 23.6573 41.7845 24.068L41.0805 22.902C41.6672 22.4033 42.3712 22.022 43.1925 21.758C44.0138 21.4793 44.8792 21.34 45.7885 21.34C47.2845 21.34 48.4358 21.714 49.2425 22.462C50.0638 23.1953 50.4745 24.3173 50.4745 25.828V33H48.9785ZM44.9965 33.11C44.1312 33.11 43.3758 32.9707 42.7305 32.692C42.0998 32.3987 41.6158 32.0027 41.2785 31.504C40.9412 30.9907 40.7725 30.404 40.7725 29.744C40.7725 29.1427 40.9118 28.6 41.1905 28.116C41.4838 27.6173 41.9532 27.2213 42.5985 26.928C43.2585 26.62 44.1385 26.466 45.2385 26.466H49.2205V27.632H45.2825C44.1678 27.632 43.3905 27.83 42.9505 28.226C42.5252 28.622 42.3125 29.1133 42.3125 29.7C42.3125 30.36 42.5692 30.888 43.0825 31.284C43.5958 31.68 44.3145 31.878 45.2385 31.878C46.1185 31.878 46.8738 31.68 47.5045 31.284C48.1498 30.8733 48.6192 30.2867 48.9125 29.524L49.2645 30.602C48.9712 31.3647 48.4578 31.9733 47.7245 32.428C47.0058 32.8827 46.0965 33.11 44.9965 33.11ZM54.7171 33V21.45H56.2131V24.596L56.0591 24.046C56.3817 23.166 56.9244 22.4987 57.6871 22.044C58.4497 21.5747 59.3957 21.34 60.5251 21.34V22.858C60.4664 22.858 60.4077 22.858 60.3491 22.858C60.2904 22.8433 60.2317 22.836 60.1731 22.836C58.9557 22.836 58.0024 23.21 57.3131 23.958C56.6237 24.6913 56.2791 25.74 56.2791 27.104V33H54.7171ZM68.0638 33.11C66.9198 33.11 65.8932 32.8607 64.9838 32.362C64.0892 31.8487 63.3852 31.152 62.8718 30.272C62.3585 29.3773 62.1018 28.358 62.1018 27.214C62.1018 26.0553 62.3585 25.036 62.8718 24.156C63.3852 23.276 64.0892 22.5867 64.9838 22.088C65.8932 21.5893 66.9198 21.34 68.0638 21.34C69.0465 21.34 69.9338 21.5307 70.7258 21.912C71.5178 22.2933 72.1412 22.8653 72.5958 23.628L71.4298 24.42C71.0338 23.8333 70.5425 23.4007 69.9558 23.122C69.3692 22.8433 68.7312 22.704 68.0418 22.704C67.2205 22.704 66.4798 22.8947 65.8198 23.276C65.1598 23.6427 64.6392 24.1633 64.2578 24.838C63.8765 25.5127 63.6858 26.3047 63.6858 27.214C63.6858 28.1233 63.8765 28.9153 64.2578 29.59C64.6392 30.2647 65.1598 30.7927 65.8198 31.174C66.4798 31.5407 67.2205 31.724 68.0418 31.724C68.7312 31.724 69.3692 31.5847 69.9558 31.306C70.5425 31.0273 71.0338 30.602 71.4298 30.03L72.5958 30.822C72.1412 31.57 71.5178 32.142 70.7258 32.538C69.9338 32.9193 69.0465 33.11 68.0638 33.11ZM81.3885 21.34C82.3271 21.34 83.1485 21.5233 83.8525 21.89C84.5711 22.242 85.1285 22.7847 85.5245 23.518C85.9351 24.2513 86.1405 25.1753 86.1405 26.29V33H84.5785V26.444C84.5785 25.2267 84.2705 24.31 83.6545 23.694C83.0531 23.0633 82.2025 22.748 81.1025 22.748C80.2811 22.748 79.5625 22.9167 78.9465 23.254C78.3451 23.5767 77.8758 24.0533 77.5385 24.684C77.2158 25.3 77.0545 26.048 77.0545 26.928V33H75.4925V16.676H77.0545V24.618L76.7465 24.024C77.1131 23.188 77.6998 22.5353 78.5065 22.066C79.3131 21.582 80.2738 21.34 81.3885 21.34Z" fill="#5D87F2"/>
</svg>
