<svg width="48" height="24" viewBox="0 0 48 24" fill="none" xmlns="http://www.w3.org/2000/svg">
<mask id="mask0_60_928" style="mask-type:alpha" maskUnits="userSpaceOnUse" x="0" y="0" width="19" height="24">
<rect width="19" height="24" fill="white"/>
</mask>
<g mask="url(#mask0_60_928)">
<path d="M19 0H5C3.6744 0.00158786 2.40356 0.528882 1.46622 1.46622C0.528882 2.40356 0.00158786 3.6744 0 5L0 19C0.00158786 20.3256 0.528882 21.5964 1.46622 22.5338C2.40356 23.4711 3.6744 23.9984 5 24H19C20.3256 23.9984 21.5964 23.4711 22.5338 22.5338C23.4711 21.5964 23.9984 20.3256 24 19V5C23.9984 3.6744 23.4711 2.40356 22.5338 1.46622C21.5964 0.528882 20.3256 0.00158786 19 0V0ZM22 19C22 19.7956 21.6839 20.5587 21.1213 21.1213C20.5587 21.6839 19.7956 22 19 22H5C4.20435 22 3.44129 21.6839 2.87868 21.1213C2.31607 20.5587 2 19.7956 2 19V5C2 4.20435 2.31607 3.44129 2.87868 2.87868C3.44129 2.31607 4.20435 2 5 2H19C19.7956 2 20.5587 2.31607 21.1213 2.87868C21.6839 3.44129 22 4.20435 22 5V19Z" fill="#5D87F2"/>
</g>
<mask id="mask1_60_928" style="mask-type:alpha" maskUnits="userSpaceOnUse" x="19" y="0" width="14" height="24">
<rect x="19" width="14" height="24" fill="white"/>
</mask>
<g mask="url(#mask1_60_928)">
<path d="M33 0H19C17.6744 0.00158786 16.4036 0.528882 15.4662 1.46622C14.5289 2.40356 14.0016 3.6744 14 5L14 19C14.0016 20.3256 14.5289 21.5964 15.4662 22.5338C16.4036 23.4711 17.6744 23.9984 19 24H33C34.3256 23.9984 35.5964 23.4711 36.5338 22.5338C37.4711 21.5964 37.9984 20.3256 38 19V5C37.9984 3.6744 37.4711 2.40356 36.5338 1.46622C35.5964 0.528882 34.3256 0.00158786 33 0V0ZM36 19C36 19.7956 35.6839 20.5587 35.1213 21.1213C34.5587 21.6839 33.7956 22 33 22H19C18.2044 22 17.4413 21.6839 16.8787 21.1213C16.3161 20.5587 16 19.7956 16 19V5C16 4.20435 16.3161 3.44129 16.8787 2.87868C17.4413 2.31607 18.2044 2 19 2H33C33.7956 2 34.5587 2.31607 35.1213 2.87868C35.6839 3.44129 36 4.20435 36 5V19Z" fill="#5D87F2"/>
</g>
<mask id="mask2_60_928" style="mask-type:alpha" maskUnits="userSpaceOnUse" x="29" y="0" width="19" height="24">
<rect width="19" height="24" transform="matrix(-1 0 0 1 48 0)" fill="white"/>
</mask>
<g mask="url(#mask2_60_928)">
<path d="M29 0H43C44.3256 0.00158786 45.5964 0.528882 46.5338 1.46622C47.4711 2.40356 47.9984 3.6744 48 5V19C47.9984 20.3256 47.4711 21.5964 46.5338 22.5338C45.5964 23.4711 44.3256 23.9984 43 24H29C27.6744 23.9984 26.4036 23.4711 25.4662 22.5338C24.5289 21.5964 24.0016 20.3256 24 19V5C24.0016 3.6744 24.5289 2.40356 25.4662 1.46622C26.4036 0.528882 27.6744 0.00158786 29 0V0ZM26 19C26 19.7956 26.3161 20.5587 26.8787 21.1213C27.4413 21.6839 28.2044 22 29 22H43C43.7956 22 44.5587 21.6839 45.1213 21.1213C45.6839 20.5587 46 19.7956 46 19V5C46 4.20435 45.6839 3.44129 45.1213 2.87868C44.5587 2.31607 43.7956 2 43 2H29C28.2044 2 27.4413 2.31607 26.8787 2.87868C26.3161 3.44129 26 4.20435 26 5V19Z" fill="#5D87F2"/>
</g>
<path d="M29.5833 1H42.4167C43.6318 1.00146 44.7967 1.48481 45.656 2.34403C46.5152 3.20326 46.9985 4.3682 47 5.58333V18.4167C46.9985 19.6318 46.5152 20.7967 45.656 21.656C44.7967 22.5152 43.6318 22.9985 42.4167 23H29.5833C28.3682 22.9985 27.2033 22.5152 26.344 21.656C25.4848 20.7967 25.0015 19.6318 25 18.4167V5.58333C25.0015 4.3682 25.4848 3.20326 26.344 2.34403C27.2033 1.48481 28.3682 1.00146 29.5833 1V1ZM26.8333 18.4167C26.8333 19.146 27.1231 19.8455 27.6388 20.3612C28.1545 20.8769 28.854 21.1667 29.5833 21.1667H42.4167C43.146 21.1667 43.8455 20.8769 44.3612 20.3612C44.8769 19.8455 45.1667 19.146 45.1667 18.4167V5.58333C45.1667 4.85399 44.8769 4.15451 44.3612 3.63879C43.8455 3.12306 43.146 2.83333 42.4167 2.83333H29.5833C28.854 2.83333 28.1545 3.12306 27.6388 3.63879C27.1231 4.15451 26.8333 4.85399 26.8333 5.58333V18.4167Z" fill="white"/>
<path d="M5.58333 1H18.4167C19.6318 1.00146 20.7967 1.48481 21.656 2.34403C22.5152 3.20326 22.9985 4.3682 23 5.58333V18.4167C22.9985 19.6318 22.5152 20.7967 21.656 21.656C20.7967 22.5152 19.6318 22.9985 18.4167 23H5.58333C4.3682 22.9985 3.20326 22.5152 2.34403 21.656C1.48481 20.7967 1.00146 19.6318 1 18.4167V5.58333C1.00146 4.3682 1.48481 3.20326 2.34403 2.34403C3.20326 1.48481 4.3682 1.00146 5.58333 1V1ZM2.83333 18.4167C2.83333 19.146 3.12306 19.8455 3.63879 20.3612C4.15451 20.8769 4.85399 21.1667 5.58333 21.1667H18.4167C19.146 21.1667 19.8455 20.8769 20.3612 20.3612C20.8769 19.8455 21.1667 19.146 21.1667 18.4167V5.58333C21.1667 4.85399 20.8769 4.15451 20.3612 3.63879C19.8455 3.12306 19.146 2.83333 18.4167 2.83333H5.58333C4.85399 2.83333 4.15451 3.12306 3.63879 3.63879C3.12306 4.15451 2.83333 4.85399 2.83333 5.58333V18.4167Z" fill="white"/>
<path d="M17.5833 1H30.4167C31.6318 1.00146 32.7967 1.48481 33.656 2.34403C34.5152 3.20326 34.9985 4.3682 35 5.58333V18.4167C34.9985 19.6318 34.5152 20.7967 33.656 21.656C32.7967 22.5152 31.6318 22.9985 30.4167 23H17.5833C16.3682 22.9985 15.2033 22.5152 14.344 21.656C13.4848 20.7967 13.0015 19.6318 13 18.4167V5.58333C13.0015 4.3682 13.4848 3.20326 14.344 2.34403C15.2033 1.48481 16.3682 1.00146 17.5833 1V1ZM14.8333 18.4167C14.8333 19.146 15.1231 19.8455 15.6388 20.3612C16.1545 20.8769 16.854 21.1667 17.5833 21.1667H30.4167C31.146 21.1667 31.8455 20.8769 32.3612 20.3612C32.8769 19.8455 33.1667 19.146 33.1667 18.4167V5.58333C33.1667 4.85399 32.8769 4.15451 32.3612 3.63879C31.8455 3.12306 31.146 2.83333 30.4167 2.83333H17.5833C16.854 2.83333 16.1545 3.12306 15.6388 3.63879C15.1231 4.15451 14.8333 4.85399 14.8333 5.58333V18.4167Z" fill="white"/>
<path d="M5.725 17.1L9.355 6.738H10.07L6.44 17.1H5.725ZM11.5726 16.055C11.096 16.055 10.645 15.989 10.2196 15.857C9.79428 15.7177 9.46062 15.5453 9.21862 15.34L9.57062 14.724C9.80528 14.9 10.106 15.054 10.4726 15.186C10.8393 15.3107 11.2243 15.373 11.6276 15.373C12.1776 15.373 12.5736 15.2887 12.8156 15.12C13.0576 14.944 13.1786 14.713 13.1786 14.427C13.1786 14.2143 13.109 14.0493 12.9696 13.932C12.8376 13.8073 12.6616 13.7157 12.4416 13.657C12.2216 13.591 11.976 13.536 11.7046 13.492C11.4333 13.448 11.162 13.3967 10.8906 13.338C10.6266 13.2793 10.3846 13.195 10.1646 13.085C9.94462 12.9677 9.76495 12.81 9.62562 12.612C9.49362 12.414 9.42762 12.15 9.42762 11.82C9.42762 11.5047 9.51562 11.2223 9.69162 10.973C9.86762 10.7237 10.1243 10.5293 10.4616 10.39C10.8063 10.2433 11.2243 10.17 11.7156 10.17C12.0896 10.17 12.4636 10.2213 12.8376 10.324C13.2116 10.4193 13.5196 10.5477 13.7616 10.709L13.4206 11.336C13.164 11.16 12.889 11.0353 12.5956 10.962C12.3023 10.8813 12.009 10.841 11.7156 10.841C11.195 10.841 10.81 10.9327 10.5606 11.116C10.3186 11.292 10.1976 11.5193 10.1976 11.798C10.1976 12.018 10.2636 12.1903 10.3956 12.315C10.535 12.4397 10.7146 12.5387 10.9346 12.612C11.162 12.678 11.4076 12.733 11.6716 12.777C11.943 12.821 12.2106 12.876 12.4746 12.942C12.746 13.0007 12.9916 13.085 13.2116 13.195C13.439 13.2977 13.6186 13.448 13.7506 13.646C13.89 13.8367 13.9596 14.0897 13.9596 14.405C13.9596 14.7423 13.8643 15.0357 13.6736 15.285C13.4903 15.527 13.219 15.7177 12.8596 15.857C12.5076 15.989 12.0786 16.055 11.5726 16.055ZM17.8457 16.055C17.2444 16.055 16.7164 15.9303 16.2617 15.681C15.807 15.4243 15.4514 15.076 15.1947 14.636C14.938 14.1887 14.8097 13.679 14.8097 13.107C14.8097 12.535 14.9307 12.029 15.1727 11.589C15.422 11.149 15.7594 10.8043 16.1847 10.555C16.6174 10.2983 17.1014 10.17 17.6367 10.17C18.1794 10.17 18.6597 10.2947 19.0777 10.544C19.503 10.786 19.8367 11.1307 20.0787 11.578C20.3207 12.018 20.4417 12.5277 20.4417 13.107C20.4417 13.1437 20.438 13.184 20.4307 13.228C20.4307 13.2647 20.4307 13.305 20.4307 13.349H15.4037V12.766H20.0127L19.7047 12.997C19.7047 12.579 19.613 12.2087 19.4297 11.886C19.2537 11.556 19.0117 11.2993 18.7037 11.116C18.3957 10.9327 18.04 10.841 17.6367 10.841C17.2407 10.841 16.885 10.9327 16.5697 11.116C16.2544 11.2993 16.0087 11.556 15.8327 11.886C15.6567 12.216 15.5687 12.5937 15.5687 13.019V13.14C15.5687 13.58 15.664 13.9687 15.8547 14.306C16.0527 14.636 16.324 14.8963 16.6687 15.087C17.0207 15.2703 17.4204 15.362 17.8677 15.362C18.2197 15.362 18.546 15.2997 18.8467 15.175C19.1547 15.0503 19.4187 14.8597 19.6387 14.603L20.0787 15.109C19.822 15.417 19.4994 15.6517 19.1107 15.813C18.7294 15.9743 18.3077 16.055 17.8457 16.055ZM22.0314 16V10.225H22.7794V11.798L22.7024 11.523C22.8637 11.083 23.135 10.7493 23.5164 10.522C23.8977 10.2873 24.3707 10.17 24.9354 10.17V10.929C24.906 10.929 24.8767 10.929 24.8474 10.929C24.818 10.9217 24.7887 10.918 24.7594 10.918C24.1507 10.918 23.674 11.105 23.3294 11.479C22.9847 11.8457 22.8124 12.37 22.8124 13.052V16H22.0314ZM26.3605 16V10.225H27.1415V16H26.3605ZM26.7565 8.949C26.5952 8.949 26.4595 8.894 26.3495 8.784C26.2395 8.674 26.1845 8.542 26.1845 8.388C26.1845 8.234 26.2395 8.10567 26.3495 8.003C26.4595 7.893 26.5952 7.838 26.7565 7.838C26.9178 7.838 27.0535 7.88933 27.1635 7.992C27.2735 8.09467 27.3285 8.223 27.3285 8.377C27.3285 8.53833 27.2735 8.674 27.1635 8.784C27.0608 8.894 26.9252 8.949 26.7565 8.949ZM31.7676 16.055C31.1663 16.055 30.6383 15.9303 30.1836 15.681C29.7289 15.4243 29.3733 15.076 29.1166 14.636C28.8599 14.1887 28.7316 13.679 28.7316 13.107C28.7316 12.535 28.8526 12.029 29.0946 11.589C29.3439 11.149 29.6813 10.8043 30.1066 10.555C30.5393 10.2983 31.0233 10.17 31.5586 10.17C32.1013 10.17 32.5816 10.2947 32.9996 10.544C33.4249 10.786 33.7586 11.1307 34.0006 11.578C34.2426 12.018 34.3636 12.5277 34.3636 13.107C34.3636 13.1437 34.3599 13.184 34.3526 13.228C34.3526 13.2647 34.3526 13.305 34.3526 13.349H29.3256V12.766H33.9346L33.6266 12.997C33.6266 12.579 33.5349 12.2087 33.3516 11.886C33.1756 11.556 32.9336 11.2993 32.6256 11.116C32.3176 10.9327 31.9619 10.841 31.5586 10.841C31.1626 10.841 30.8069 10.9327 30.4916 11.116C30.1763 11.2993 29.9306 11.556 29.7546 11.886C29.5786 12.216 29.4906 12.5937 29.4906 13.019V13.14C29.4906 13.58 29.5859 13.9687 29.7766 14.306C29.9746 14.636 30.2459 14.8963 30.5906 15.087C30.9426 15.2703 31.3423 15.362 31.7896 15.362C32.1416 15.362 32.4679 15.2997 32.7686 15.175C33.0766 15.0503 33.3406 14.8597 33.5606 14.603L34.0006 15.109C33.7439 15.417 33.4213 15.6517 33.0326 15.813C32.6513 15.9743 32.2296 16.055 31.7676 16.055ZM37.5043 16.055C37.0276 16.055 36.5766 15.989 36.1513 15.857C35.7259 15.7177 35.3923 15.5453 35.1503 15.34L35.5023 14.724C35.7369 14.9 36.0376 15.054 36.4043 15.186C36.7709 15.3107 37.1559 15.373 37.5593 15.373C38.1093 15.373 38.5053 15.2887 38.7473 15.12C38.9893 14.944 39.1103 14.713 39.1103 14.427C39.1103 14.2143 39.0406 14.0493 38.9013 13.932C38.7693 13.8073 38.5933 13.7157 38.3733 13.657C38.1533 13.591 37.9076 13.536 37.6363 13.492C37.3649 13.448 37.0936 13.3967 36.8223 13.338C36.5583 13.2793 36.3163 13.195 36.0963 13.085C35.8763 12.9677 35.6966 12.81 35.5573 12.612C35.4253 12.414 35.3593 12.15 35.3593 11.82C35.3593 11.5047 35.4473 11.2223 35.6233 10.973C35.7993 10.7237 36.0559 10.5293 36.3933 10.39C36.7379 10.2433 37.1559 10.17 37.6473 10.17C38.0213 10.17 38.3953 10.2213 38.7693 10.324C39.1433 10.4193 39.4513 10.5477 39.6933 10.709L39.3523 11.336C39.0956 11.16 38.8206 11.0353 38.5273 10.962C38.2339 10.8813 37.9406 10.841 37.6473 10.841C37.1266 10.841 36.7416 10.9327 36.4923 11.116C36.2503 11.292 36.1293 11.5193 36.1293 11.798C36.1293 12.018 36.1953 12.1903 36.3273 12.315C36.4666 12.4397 36.6463 12.5387 36.8663 12.612C37.0936 12.678 37.3393 12.733 37.6033 12.777C37.8746 12.821 38.1423 12.876 38.4063 12.942C38.6776 13.0007 38.9233 13.085 39.1433 13.195C39.3706 13.2977 39.5503 13.448 39.6823 13.646C39.8216 13.8367 39.8913 14.0897 39.8913 14.405C39.8913 14.7423 39.7959 15.0357 39.6053 15.285C39.4219 15.527 39.1506 15.7177 38.7913 15.857C38.4393 15.989 38.0103 16.055 37.5043 16.055Z" fill="#5D87F2"/>
</svg>
