<svg width="96" height="48" viewBox="0 0 96 48" fill="none" xmlns="http://www.w3.org/2000/svg">
<rect x="1" y="1" width="94" height="46" rx="4" stroke="#5D87F2" stroke-width="2" stroke-linejoin="round"/>
<path d="M10.45 35.2L17.71 14.476H19.14L11.88 35.2H10.45ZM22.1452 33.11C21.1919 33.11 20.2899 32.978 19.4392 32.714C18.5886 32.4353 17.9212 32.0907 17.4372 31.68L18.1412 30.448C18.6106 30.8 19.2119 31.108 19.9452 31.372C20.6786 31.6213 21.4486 31.746 22.2552 31.746C23.3552 31.746 24.1472 31.5773 24.6312 31.24C25.1152 30.888 25.3572 30.426 25.3572 29.854C25.3572 29.4287 25.2179 29.0987 24.9392 28.864C24.6752 28.6147 24.3232 28.4313 23.8832 28.314C23.4432 28.182 22.9519 28.072 22.4092 27.984C21.8666 27.896 21.3239 27.7933 20.7812 27.676C20.2532 27.5587 19.7692 27.39 19.3292 27.17C18.8892 26.9353 18.5299 26.62 18.2512 26.224C17.9872 25.828 17.8552 25.3 17.8552 24.64C17.8552 24.0093 18.0312 23.4447 18.3832 22.946C18.7352 22.4473 19.2486 22.0587 19.9232 21.78C20.6126 21.4867 21.4486 21.34 22.4312 21.34C23.1792 21.34 23.9272 21.4427 24.6752 21.648C25.4232 21.8387 26.0392 22.0953 26.5232 22.418L25.8412 23.672C25.3279 23.32 24.7779 23.0707 24.1912 22.924C23.6046 22.7627 23.0179 22.682 22.4312 22.682C21.3899 22.682 20.6199 22.8653 20.1212 23.232C19.6372 23.584 19.3952 24.0387 19.3952 24.596C19.3952 25.036 19.5272 25.3807 19.7912 25.63C20.0699 25.8793 20.4292 26.0773 20.8692 26.224C21.3239 26.356 21.8152 26.466 22.3432 26.554C22.8859 26.642 23.4212 26.752 23.9492 26.884C24.4919 27.0013 24.9832 27.17 25.4232 27.39C25.8779 27.5953 26.2372 27.896 26.5012 28.292C26.7799 28.6733 26.9192 29.1793 26.9192 29.81C26.9192 30.4847 26.7286 31.0713 26.3472 31.57C25.9806 32.054 25.4379 32.4353 24.7192 32.714C24.0152 32.978 23.1572 33.11 22.1452 33.11ZM34.6914 33.11C33.4888 33.11 32.4328 32.8607 31.5234 32.362C30.6141 31.8487 29.9028 31.152 29.3894 30.272C28.8761 29.3773 28.6194 28.358 28.6194 27.214C28.6194 26.07 28.8614 25.058 29.3454 24.178C29.8441 23.298 30.5188 22.6087 31.3694 22.11C32.2348 21.5967 33.2028 21.34 34.2734 21.34C35.3588 21.34 36.3194 21.5893 37.1554 22.088C38.0061 22.572 38.6734 23.2613 39.1574 24.156C39.6414 25.036 39.8834 26.0553 39.8834 27.214C39.8834 27.2873 39.8761 27.368 39.8614 27.456C39.8614 27.5293 39.8614 27.61 39.8614 27.698H29.8074V26.532H39.0254L38.4094 26.994C38.4094 26.158 38.2261 25.4173 37.8594 24.772C37.5074 24.112 37.0234 23.5987 36.4074 23.232C35.7914 22.8653 35.0801 22.682 34.2734 22.682C33.4814 22.682 32.7701 22.8653 32.1394 23.232C31.5088 23.5987 31.0174 24.112 30.6654 24.772C30.3134 25.432 30.1374 26.1873 30.1374 27.038V27.28C30.1374 28.16 30.3281 28.9373 30.7094 29.612C31.1054 30.272 31.6481 30.7927 32.3374 31.174C33.0414 31.5407 33.8408 31.724 34.7354 31.724C35.4394 31.724 36.0921 31.5993 36.6934 31.35C37.3094 31.1007 37.8374 30.7193 38.2774 30.206L39.1574 31.218C38.6441 31.834 37.9988 32.3033 37.2214 32.626C36.4588 32.9487 35.6154 33.11 34.6914 33.11ZM43.0628 33V21.45H44.5588V24.596L44.4048 24.046C44.7274 23.166 45.2701 22.4987 46.0328 22.044C46.7954 21.5747 47.7414 21.34 48.8708 21.34V22.858C48.8121 22.858 48.7534 22.858 48.6948 22.858C48.6361 22.8433 48.5774 22.836 48.5188 22.836C47.3014 22.836 46.3481 23.21 45.6588 23.958C44.9694 24.6913 44.6248 25.74 44.6248 27.104V33H43.0628ZM51.721 33V21.45H53.283V33H51.721ZM52.513 18.898C52.1903 18.898 51.919 18.788 51.699 18.568C51.479 18.348 51.369 18.084 51.369 17.776C51.369 17.468 51.479 17.2113 51.699 17.006C51.919 16.786 52.1903 16.676 52.513 16.676C52.8356 16.676 53.107 16.7787 53.327 16.984C53.547 17.1893 53.657 17.446 53.657 17.754C53.657 18.0767 53.547 18.348 53.327 18.568C53.1216 18.788 52.8503 18.898 52.513 18.898ZM62.5352 33.11C61.3325 33.11 60.2765 32.8607 59.3672 32.362C58.4578 31.8487 57.7465 31.152 57.2332 30.272C56.7198 29.3773 56.4632 28.358 56.4632 27.214C56.4632 26.07 56.7052 25.058 57.1892 24.178C57.6878 23.298 58.3625 22.6087 59.2132 22.11C60.0785 21.5967 61.0465 21.34 62.1172 21.34C63.2025 21.34 64.1632 21.5893 64.9992 22.088C65.8498 22.572 66.5172 23.2613 67.0012 24.156C67.4852 25.036 67.7272 26.0553 67.7272 27.214C67.7272 27.2873 67.7198 27.368 67.7052 27.456C67.7052 27.5293 67.7052 27.61 67.7052 27.698H57.6512V26.532H66.8692L66.2532 26.994C66.2532 26.158 66.0698 25.4173 65.7032 24.772C65.3512 24.112 64.8672 23.5987 64.2512 23.232C63.6352 22.8653 62.9238 22.682 62.1172 22.682C61.3252 22.682 60.6138 22.8653 59.9832 23.232C59.3525 23.5987 58.8612 24.112 58.5092 24.772C58.1572 25.432 57.9812 26.1873 57.9812 27.038V27.28C57.9812 28.16 58.1718 28.9373 58.5532 29.612C58.9492 30.272 59.4918 30.7927 60.1812 31.174C60.8852 31.5407 61.6845 31.724 62.5792 31.724C63.2832 31.724 63.9358 31.5993 64.5372 31.35C65.1532 31.1007 65.6812 30.7193 66.1212 30.206L67.0012 31.218C66.4878 31.834 65.8425 32.3033 65.0652 32.626C64.3025 32.9487 63.4592 33.11 62.5352 33.11ZM74.0085 33.11C73.0552 33.11 72.1532 32.978 71.3025 32.714C70.4518 32.4353 69.7845 32.0907 69.3005 31.68L70.0045 30.448C70.4738 30.8 71.0752 31.108 71.8085 31.372C72.5418 31.6213 73.3118 31.746 74.1185 31.746C75.2185 31.746 76.0105 31.5773 76.4945 31.24C76.9785 30.888 77.2205 30.426 77.2205 29.854C77.2205 29.4287 77.0812 29.0987 76.8025 28.864C76.5385 28.6147 76.1865 28.4313 75.7465 28.314C75.3065 28.182 74.8152 28.072 74.2725 27.984C73.7298 27.896 73.1872 27.7933 72.6445 27.676C72.1165 27.5587 71.6325 27.39 71.1925 27.17C70.7525 26.9353 70.3932 26.62 70.1145 26.224C69.8505 25.828 69.7185 25.3 69.7185 24.64C69.7185 24.0093 69.8945 23.4447 70.2465 22.946C70.5985 22.4473 71.1118 22.0587 71.7865 21.78C72.4758 21.4867 73.3118 21.34 74.2945 21.34C75.0425 21.34 75.7905 21.4427 76.5385 21.648C77.2865 21.8387 77.9025 22.0953 78.3865 22.418L77.7045 23.672C77.1912 23.32 76.6412 23.0707 76.0545 22.924C75.4678 22.7627 74.8812 22.682 74.2945 22.682C73.2532 22.682 72.4832 22.8653 71.9845 23.232C71.5005 23.584 71.2585 24.0387 71.2585 24.596C71.2585 25.036 71.3905 25.3807 71.6545 25.63C71.9332 25.8793 72.2925 26.0773 72.7325 26.224C73.1872 26.356 73.6785 26.466 74.2065 26.554C74.7492 26.642 75.2845 26.752 75.8125 26.884C76.3552 27.0013 76.8465 27.17 77.2865 27.39C77.7412 27.5953 78.1005 27.896 78.3645 28.292C78.6432 28.6733 78.7825 29.1793 78.7825 29.81C78.7825 30.4847 78.5918 31.0713 78.2105 31.57C77.8438 32.054 77.3012 32.4353 76.5825 32.714C75.8785 32.978 75.0205 33.11 74.0085 33.11Z" fill="#5D87F2"/>
</svg>
