<svg width="100" height="48" viewBox="0 0 100 48" fill="none" xmlns="http://www.w3.org/2000/svg">
<rect x="1" y="1" width="98" height="46" rx="4" stroke="#5D87F2" stroke-width="2" stroke-linejoin="round"/>
<path d="M10.45 35.2L17.71 14.476H19.14L11.88 35.2H10.45ZM22.1452 33.11C21.1919 33.11 20.2899 32.978 19.4392 32.714C18.5886 32.4353 17.9212 32.0907 17.4372 31.68L18.1412 30.448C18.6106 30.8 19.2119 31.108 19.9452 31.372C20.6786 31.6213 21.4486 31.746 22.2552 31.746C23.3552 31.746 24.1472 31.5773 24.6312 31.24C25.1152 30.888 25.3572 30.426 25.3572 29.854C25.3572 29.4287 25.2179 29.0987 24.9392 28.864C24.6752 28.6147 24.3232 28.4313 23.8832 28.314C23.4432 28.182 22.9519 28.072 22.4092 27.984C21.8666 27.896 21.3239 27.7933 20.7812 27.676C20.2532 27.5587 19.7692 27.39 19.3292 27.17C18.8892 26.9353 18.5299 26.62 18.2512 26.224C17.9872 25.828 17.8552 25.3 17.8552 24.64C17.8552 24.0093 18.0312 23.4447 18.3832 22.946C18.7352 22.4473 19.2486 22.0587 19.9232 21.78C20.6126 21.4867 21.4486 21.34 22.4312 21.34C23.1792 21.34 23.9272 21.4427 24.6752 21.648C25.4232 21.8387 26.0392 22.0953 26.5232 22.418L25.8412 23.672C25.3279 23.32 24.7779 23.0707 24.1912 22.924C23.6046 22.7627 23.0179 22.682 22.4312 22.682C21.3899 22.682 20.6199 22.8653 20.1212 23.232C19.6372 23.584 19.3952 24.0387 19.3952 24.596C19.3952 25.036 19.5272 25.3807 19.7912 25.63C20.0699 25.8793 20.4292 26.0773 20.8692 26.224C21.3239 26.356 21.8152 26.466 22.3432 26.554C22.8859 26.642 23.4212 26.752 23.9492 26.884C24.4919 27.0013 24.9832 27.17 25.4232 27.39C25.8779 27.5953 26.2372 27.896 26.5012 28.292C26.7799 28.6733 26.9192 29.1793 26.9192 29.81C26.9192 30.4847 26.7286 31.0713 26.3472 31.57C25.9806 32.054 25.4379 32.4353 24.7192 32.714C24.0152 32.978 23.1572 33.11 22.1452 33.11ZM35.6814 21.34C36.6201 21.34 37.4414 21.5233 38.1454 21.89C38.8641 22.242 39.4214 22.7847 39.8174 23.518C40.2281 24.2513 40.4334 25.1753 40.4334 26.29V33H38.8714V26.444C38.8714 25.2267 38.5634 24.31 37.9474 23.694C37.3461 23.0633 36.4954 22.748 35.3954 22.748C34.5741 22.748 33.8554 22.9167 33.2394 23.254C32.6381 23.5767 32.1688 24.0533 31.8314 24.684C31.5088 25.3 31.3474 26.048 31.3474 26.928V33H29.7854V16.676H31.3474V24.618L31.0394 24.024C31.4061 23.188 31.9928 22.5353 32.7994 22.066C33.6061 21.582 34.5668 21.34 35.6814 21.34ZM49.3606 33.11C48.2459 33.11 47.2413 32.8607 46.3466 32.362C45.4666 31.8487 44.7699 31.152 44.2566 30.272C43.7433 29.3773 43.4866 28.358 43.4866 27.214C43.4866 26.0553 43.7433 25.036 44.2566 24.156C44.7699 23.276 45.4666 22.5867 46.3466 22.088C47.2266 21.5893 48.2313 21.34 49.3606 21.34C50.5046 21.34 51.5166 21.5893 52.3966 22.088C53.2913 22.5867 53.9879 23.276 54.4866 24.156C54.9999 25.036 55.2566 26.0553 55.2566 27.214C55.2566 28.358 54.9999 29.3773 54.4866 30.272C53.9879 31.152 53.2913 31.8487 52.3966 32.362C51.5019 32.8607 50.4899 33.11 49.3606 33.11ZM49.3606 31.724C50.1966 31.724 50.9373 31.5407 51.5826 31.174C52.2279 30.7927 52.7339 30.2647 53.1006 29.59C53.4819 28.9007 53.6726 28.1087 53.6726 27.214C53.6726 26.3047 53.4819 25.5127 53.1006 24.838C52.7339 24.1633 52.2279 23.6427 51.5826 23.276C50.9373 22.8947 50.2039 22.704 49.3826 22.704C48.5613 22.704 47.8279 22.8947 47.1826 23.276C46.5373 23.6427 46.0239 24.1633 45.6426 24.838C45.2613 25.5127 45.0706 26.3047 45.0706 27.214C45.0706 28.1087 45.2613 28.9007 45.6426 29.59C46.0239 30.2647 46.5373 30.7927 47.1826 31.174C47.8279 31.5407 48.5539 31.724 49.3606 31.724ZM60.4773 33L56.1213 21.45H57.6173L61.5773 32.164H60.8953L64.9653 21.45H66.3073L70.3333 32.164H69.6513L73.6773 21.45H75.1073L70.7293 33H69.2553L65.3833 22.924H65.8453L61.9513 33H60.4773ZM80.4323 33.11C79.479 33.11 78.577 32.978 77.7263 32.714C76.8757 32.4353 76.2083 32.0907 75.7243 31.68L76.4283 30.448C76.8977 30.8 77.499 31.108 78.2323 31.372C78.9657 31.6213 79.7357 31.746 80.5423 31.746C81.6423 31.746 82.4343 31.5773 82.9183 31.24C83.4023 30.888 83.6443 30.426 83.6443 29.854C83.6443 29.4287 83.505 29.0987 83.2263 28.864C82.9623 28.6147 82.6103 28.4313 82.1703 28.314C81.7303 28.182 81.239 28.072 80.6963 27.984C80.1537 27.896 79.611 27.7933 79.0683 27.676C78.5403 27.5587 78.0563 27.39 77.6163 27.17C77.1763 26.9353 76.817 26.62 76.5383 26.224C76.2743 25.828 76.1423 25.3 76.1423 24.64C76.1423 24.0093 76.3183 23.4447 76.6703 22.946C77.0223 22.4473 77.5357 22.0587 78.2103 21.78C78.8997 21.4867 79.7357 21.34 80.7183 21.34C81.4663 21.34 82.2143 21.4427 82.9623 21.648C83.7103 21.8387 84.3263 22.0953 84.8103 22.418L84.1283 23.672C83.615 23.32 83.065 23.0707 82.4783 22.924C81.8917 22.7627 81.305 22.682 80.7183 22.682C79.677 22.682 78.907 22.8653 78.4083 23.232C77.9243 23.584 77.6823 24.0387 77.6823 24.596C77.6823 25.036 77.8143 25.3807 78.0783 25.63C78.357 25.8793 78.7163 26.0773 79.1563 26.224C79.611 26.356 80.1023 26.466 80.6303 26.554C81.173 26.642 81.7083 26.752 82.2363 26.884C82.779 27.0013 83.2703 27.17 83.7103 27.39C84.165 27.5953 84.5243 27.896 84.7883 28.292C85.067 28.6733 85.2063 29.1793 85.2063 29.81C85.2063 30.4847 85.0157 31.0713 84.6343 31.57C84.2677 32.054 83.725 32.4353 83.0063 32.714C82.3023 32.978 81.4443 33.11 80.4323 33.11Z" fill="#5D87F2"/>
</svg>
