<svg width="104" height="48" viewBox="0 0 104 48" fill="none" xmlns="http://www.w3.org/2000/svg">
<rect x="1" y="1" width="102" height="46" rx="4" stroke="#5D87F2" stroke-width="2" stroke-linejoin="round"/>
<path d="M11.45 35.2L18.71 14.476H20.14L12.88 35.2H11.45ZM23.1452 33.11C22.1919 33.11 21.2899 32.978 20.4392 32.714C19.5886 32.4353 18.9212 32.0907 18.4372 31.68L19.1412 30.448C19.6106 30.8 20.2119 31.108 20.9452 31.372C21.6786 31.6213 22.4486 31.746 23.2552 31.746C24.3552 31.746 25.1472 31.5773 25.6312 31.24C26.1152 30.888 26.3572 30.426 26.3572 29.854C26.3572 29.4287 26.2179 29.0987 25.9392 28.864C25.6752 28.6147 25.3232 28.4313 24.8832 28.314C24.4432 28.182 23.9519 28.072 23.4092 27.984C22.8666 27.896 22.3239 27.7933 21.7812 27.676C21.2532 27.5587 20.7692 27.39 20.3292 27.17C19.8892 26.9353 19.5299 26.62 19.2512 26.224C18.9872 25.828 18.8552 25.3 18.8552 24.64C18.8552 24.0093 19.0312 23.4447 19.3832 22.946C19.7352 22.4473 20.2486 22.0587 20.9232 21.78C21.6126 21.4867 22.4486 21.34 23.4312 21.34C24.1792 21.34 24.9272 21.4427 25.6752 21.648C26.4232 21.8387 27.0392 22.0953 27.5232 22.418L26.8412 23.672C26.3279 23.32 25.7779 23.0707 25.1912 22.924C24.6046 22.7627 24.0179 22.682 23.4312 22.682C22.3899 22.682 21.6199 22.8653 21.1212 23.232C20.6372 23.584 20.3952 24.0387 20.3952 24.596C20.3952 25.036 20.5272 25.3807 20.7912 25.63C21.0699 25.8793 21.4292 26.0773 21.8692 26.224C22.3239 26.356 22.8152 26.466 23.3432 26.554C23.8859 26.642 24.4212 26.752 24.9492 26.884C25.4919 27.0013 25.9832 27.17 26.4232 27.39C26.8779 27.5953 27.2372 27.896 27.5012 28.292C27.7799 28.6733 27.9192 29.1793 27.9192 29.81C27.9192 30.4847 27.7286 31.0713 27.3472 31.57C26.9806 32.054 26.4379 32.4353 25.7192 32.714C25.0152 32.978 24.1572 33.11 23.1452 33.11ZM36.6814 21.34C37.6201 21.34 38.4414 21.5233 39.1454 21.89C39.8641 22.242 40.4214 22.7847 40.8174 23.518C41.2281 24.2513 41.4334 25.1753 41.4334 26.29V33H39.8714V26.444C39.8714 25.2267 39.5634 24.31 38.9474 23.694C38.3461 23.0633 37.4954 22.748 36.3954 22.748C35.5741 22.748 34.8554 22.9167 34.2394 23.254C33.6381 23.5767 33.1688 24.0533 32.8314 24.684C32.5088 25.3 32.3474 26.048 32.3474 26.928V33H30.7854V16.676H32.3474V24.618L32.0394 24.024C32.4061 23.188 32.9928 22.5353 33.7994 22.066C34.6061 21.582 35.5668 21.34 36.6814 21.34ZM50.3606 33.11C49.2459 33.11 48.2413 32.8607 47.3466 32.362C46.4666 31.8487 45.7699 31.152 45.2566 30.272C44.7433 29.3773 44.4866 28.358 44.4866 27.214C44.4866 26.0553 44.7433 25.036 45.2566 24.156C45.7699 23.276 46.4666 22.5867 47.3466 22.088C48.2266 21.5893 49.2313 21.34 50.3606 21.34C51.5046 21.34 52.5166 21.5893 53.3966 22.088C54.2913 22.5867 54.9879 23.276 55.4866 24.156C55.9999 25.036 56.2566 26.0553 56.2566 27.214C56.2566 28.358 55.9999 29.3773 55.4866 30.272C54.9879 31.152 54.2913 31.8487 53.3966 32.362C52.5019 32.8607 51.4899 33.11 50.3606 33.11ZM50.3606 31.724C51.1966 31.724 51.9373 31.5407 52.5826 31.174C53.2279 30.7927 53.7339 30.2647 54.1006 29.59C54.4819 28.9007 54.6726 28.1087 54.6726 27.214C54.6726 26.3047 54.4819 25.5127 54.1006 24.838C53.7339 24.1633 53.2279 23.6427 52.5826 23.276C51.9373 22.8947 51.2039 22.704 50.3826 22.704C49.5613 22.704 48.8279 22.8947 48.1826 23.276C47.5373 23.6427 47.0239 24.1633 46.6426 24.838C46.2613 25.5127 46.0706 26.3047 46.0706 27.214C46.0706 28.1087 46.2613 28.9007 46.6426 29.59C47.0239 30.2647 47.5373 30.7927 48.1826 31.174C48.8279 31.5407 49.5539 31.724 50.3606 31.724ZM61.4773 33L57.1213 21.45H58.6173L62.5773 32.164H61.8953L65.9653 21.45H67.3073L71.3333 32.164H70.6513L74.6773 21.45H76.1073L71.7293 33H70.2553L66.3833 22.924H66.8453L62.9513 33H61.4773ZM75.0867 35.2L82.3467 14.476H83.7767L76.5167 35.2H75.0867ZM91.0139 19.118L87.9779 20.834V20.482L91.0139 22.198L90.5079 23.122L87.5159 21.384L87.7579 21.274V24.64H86.7459L86.7679 21.274L86.9879 21.384L84.0179 23.122L83.4899 22.198L86.5479 20.482V20.834L83.4899 19.118L84.0179 18.194L86.9879 19.932L86.7679 20.042L86.7459 16.676H87.7579V20.042L87.5159 19.932L90.5079 18.194L91.0139 19.118Z" fill="#5D87F2"/>
</svg>
