<svg width="50" height="24" viewBox="0 0 50 24" fill="none" xmlns="http://www.w3.org/2000/svg">
<mask id="mask0_60_872" style="mask-type:alpha" maskUnits="userSpaceOnUse" x="0" y="0" width="19" height="24">
<rect width="19" height="24" fill="white"/>
</mask>
<g mask="url(#mask0_60_872)">
<path d="M19 0H5C3.6744 0.00158786 2.40356 0.528882 1.46622 1.46622C0.528882 2.40356 0.00158786 3.6744 0 5L0 19C0.00158786 20.3256 0.528882 21.5964 1.46622 22.5338C2.40356 23.4711 3.6744 23.9984 5 24H19C20.3256 23.9984 21.5964 23.4711 22.5338 22.5338C23.4711 21.5964 23.9984 20.3256 24 19V5C23.9984 3.6744 23.4711 2.40356 22.5338 1.46622C21.5964 0.528882 20.3256 0.00158786 19 0V0ZM22 19C22 19.7956 21.6839 20.5587 21.1213 21.1213C20.5587 21.6839 19.7956 22 19 22H5C4.20435 22 3.44129 21.6839 2.87868 21.1213C2.31607 20.5587 2 19.7956 2 19V5C2 4.20435 2.31607 3.44129 2.87868 2.87868C3.44129 2.31607 4.20435 2 5 2H19C19.7956 2 20.5587 2.31607 21.1213 2.87868C21.6839 3.44129 22 4.20435 22 5V19Z" fill="#5D87F2"/>
</g>
<mask id="mask1_60_872" style="mask-type:alpha" maskUnits="userSpaceOnUse" x="19" y="0" width="14" height="24">
<rect x="19" width="14" height="24" fill="white"/>
</mask>
<g mask="url(#mask1_60_872)">
<path d="M33 0H19C17.6744 0.00158786 16.4036 0.528882 15.4662 1.46622C14.5289 2.40356 14.0016 3.6744 14 5L14 19C14.0016 20.3256 14.5289 21.5964 15.4662 22.5338C16.4036 23.4711 17.6744 23.9984 19 24H33C34.3256 23.9984 35.5964 23.4711 36.5338 22.5338C37.4711 21.5964 37.9984 20.3256 38 19V5C37.9984 3.6744 37.4711 2.40356 36.5338 1.46622C35.5964 0.528882 34.3256 0.00158786 33 0V0ZM36 19C36 19.7956 35.6839 20.5587 35.1213 21.1213C34.5587 21.6839 33.7956 22 33 22H19C18.2044 22 17.4413 21.6839 16.8787 21.1213C16.3161 20.5587 16 19.7956 16 19V5C16 4.20435 16.3161 3.44129 16.8787 2.87868C17.4413 2.31607 18.2044 2 19 2H33C33.7956 2 34.5587 2.31607 35.1213 2.87868C35.6839 3.44129 36 4.20435 36 5V19Z" fill="#5D87F2"/>
</g>
<mask id="mask2_60_872" style="mask-type:alpha" maskUnits="userSpaceOnUse" x="31" y="0" width="19" height="24">
<rect width="19" height="24" transform="matrix(-1 0 0 1 50 0)" fill="white"/>
</mask>
<g mask="url(#mask2_60_872)">
<path d="M31 0H45C46.3256 0.00158786 47.5964 0.528882 48.5338 1.46622C49.4711 2.40356 49.9984 3.6744 50 5V19C49.9984 20.3256 49.4711 21.5964 48.5338 22.5338C47.5964 23.4711 46.3256 23.9984 45 24H31C29.6744 23.9984 28.4036 23.4711 27.4662 22.5338C26.5289 21.5964 26.0016 20.3256 26 19V5C26.0016 3.6744 26.5289 2.40356 27.4662 1.46622C28.4036 0.528882 29.6744 0.00158786 31 0V0ZM28 19C28 19.7956 28.3161 20.5587 28.8787 21.1213C29.4413 21.6839 30.2044 22 31 22H45C45.7956 22 46.5587 21.6839 47.1213 21.1213C47.6839 20.5587 48 19.7956 48 19V5C48 4.20435 47.6839 3.44129 47.1213 2.87868C46.5587 2.31607 45.7956 2 45 2H31C30.2044 2 29.4413 2.31607 28.8787 2.87868C28.3161 3.44129 28 4.20435 28 5V19Z" fill="#5D87F2"/>
</g>
<path d="M18.4167 1H5.58333C4.3682 1.00146 3.20326 1.48481 2.34403 2.34403C1.48481 3.20326 1.00146 4.3682 1 5.58333L1 18.4167C1.00146 19.6318 1.48481 20.7967 2.34403 21.656C3.20326 22.5152 4.3682 22.9985 5.58333 23H18.4167C19.6318 22.9985 20.7967 22.5152 21.656 21.656C22.5152 20.7967 22.9985 19.6318 23 18.4167V5.58333C22.9985 4.3682 22.5152 3.20326 21.656 2.34403C20.7967 1.48481 19.6318 1.00146 18.4167 1V1ZM21.1667 18.4167C21.1667 19.146 20.8769 19.8455 20.3612 20.3612C19.8455 20.8769 19.146 21.1667 18.4167 21.1667H5.58333C4.85399 21.1667 4.15451 20.8769 3.63879 20.3612C3.12306 19.8455 2.83333 19.146 2.83333 18.4167V5.58333C2.83333 4.85399 3.12306 4.15451 3.63879 3.63879C4.15451 3.12306 4.85399 2.83333 5.58333 2.83333H18.4167C19.146 2.83333 19.8455 3.12306 20.3612 3.63879C20.8769 4.15451 21.1667 4.85399 21.1667 5.58333V18.4167Z" fill="white"/>
<path d="M32.4167 1H19.5833C18.3682 1.00146 17.2033 1.48481 16.344 2.34403C15.4848 3.20326 15.0015 4.3682 15 5.58333L15 18.4167C15.0015 19.6318 15.4848 20.7967 16.344 21.656C17.2033 22.5152 18.3682 22.9985 19.5833 23H32.4167C33.6318 22.9985 34.7967 22.5152 35.656 21.656C36.5152 20.7967 36.9985 19.6318 37 18.4167V5.58333C36.9985 4.3682 36.5152 3.20326 35.656 2.34403C34.7967 1.48481 33.6318 1.00146 32.4167 1V1ZM35.1667 18.4167C35.1667 19.146 34.8769 19.8455 34.3612 20.3612C33.8455 20.8769 33.146 21.1667 32.4167 21.1667H19.5833C18.854 21.1667 18.1545 20.8769 17.6388 20.3612C17.1231 19.8455 16.8333 19.146 16.8333 18.4167V5.58333C16.8333 4.85399 17.1231 4.15451 17.6388 3.63879C18.1545 3.12306 18.854 2.83333 19.5833 2.83333H32.4167C33.146 2.83333 33.8455 3.12306 34.3612 3.63879C34.8769 4.15451 35.1667 4.85399 35.1667 5.58333V18.4167Z" fill="white"/>
<path d="M26.4167 1H13.5833C12.3682 1.00146 11.2033 1.48481 10.344 2.34403C9.48481 3.20326 9.00146 4.3682 9 5.58333L9 18.4167C9.00146 19.6318 9.48481 20.7967 10.344 21.656C11.2033 22.5152 12.3682 22.9985 13.5833 23H26.4167C27.6318 22.9985 28.7967 22.5152 29.656 21.656C30.5152 20.7967 30.9985 19.6318 31 18.4167V5.58333C30.9985 4.3682 30.5152 3.20326 29.656 2.34403C28.7967 1.48481 27.6318 1.00146 26.4167 1V1ZM29.1667 18.4167C29.1667 19.146 28.8769 19.8455 28.3612 20.3612C27.8455 20.8769 27.146 21.1667 26.4167 21.1667H13.5833C12.854 21.1667 12.1545 20.8769 11.6388 20.3612C11.1231 19.8455 10.8333 19.146 10.8333 18.4167V5.58333C10.8333 4.85399 11.1231 4.15451 11.6388 3.63879C12.1545 3.12306 12.854 2.83333 13.5833 2.83333H26.4167C27.146 2.83333 27.8455 3.12306 28.3612 3.63879C28.8769 4.15451 29.1667 4.85399 29.1667 5.58333V18.4167Z" fill="white"/>
<path d="M38.4167 1H25.5833C24.3682 1.00146 23.2033 1.48481 22.344 2.34403C21.4848 3.20326 21.0015 4.3682 21 5.58333V18.4167C21.0015 19.6318 21.4848 20.7967 22.344 21.656C23.2033 22.5152 24.3682 22.9985 25.5833 23H38.4167C39.6318 22.9985 40.7967 22.5152 41.656 21.656C42.5152 20.7967 42.9985 19.6318 43 18.4167V5.58333C42.9985 4.3682 42.5152 3.20326 41.656 2.34403C40.7967 1.48481 39.6318 1.00146 38.4167 1V1ZM41.1667 18.4167C41.1667 19.146 40.8769 19.8455 40.3612 20.3612C39.8455 20.8769 39.146 21.1667 38.4167 21.1667H25.5833C24.854 21.1667 24.1545 20.8769 23.6388 20.3612C23.1231 19.8455 22.8333 19.146 22.8333 18.4167V5.58333C22.8333 4.85399 23.1231 4.15451 23.6388 3.63879C24.1545 3.12306 24.854 2.83333 25.5833 2.83333H38.4167C39.146 2.83333 39.8455 3.12306 40.3612 3.63879C40.8769 4.15451 41.1667 4.85399 41.1667 5.58333V18.4167Z" fill="white"/>
<path d="M31.5833 1H44.4167C45.6318 1.00146 46.7967 1.48481 47.656 2.34403C48.5152 3.20326 48.9985 4.3682 49 5.58333V18.4167C48.9985 19.6318 48.5152 20.7967 47.656 21.656C46.7967 22.5152 45.6318 22.9985 44.4167 23H31.5833C30.3682 22.9985 29.2033 22.5152 28.344 21.656C27.4848 20.7967 27.0015 19.6318 27 18.4167V5.58333C27.0015 4.3682 27.4848 3.20326 28.344 2.34403C29.2033 1.48481 30.3682 1.00146 31.5833 1V1ZM28.8333 18.4167C28.8333 19.146 29.1231 19.8455 29.6388 20.3612C30.1545 20.8769 30.854 21.1667 31.5833 21.1667H44.4167C45.146 21.1667 45.8455 20.8769 46.3612 20.3612C46.8769 19.8455 47.1667 19.146 47.1667 18.4167V5.58333C47.1667 4.85399 46.8769 4.15451 46.3612 3.63879C45.8455 3.12306 45.146 2.83333 44.4167 2.83333H31.5833C30.854 2.83333 30.1545 3.12306 29.6388 3.63879C29.1231 4.15451 28.8333 4.85399 28.8333 5.58333V18.4167Z" fill="white"/>
<path d="M6.725 17.1L10.355 6.738H11.07L7.44 17.1H6.725ZM12.5726 16.055C12.096 16.055 11.645 15.989 11.2196 15.857C10.7943 15.7177 10.4606 15.5453 10.2186 15.34L10.5706 14.724C10.8053 14.9 11.106 15.054 11.4726 15.186C11.8393 15.3107 12.2243 15.373 12.6276 15.373C13.1776 15.373 13.5736 15.2887 13.8156 15.12C14.0576 14.944 14.1786 14.713 14.1786 14.427C14.1786 14.2143 14.109 14.0493 13.9696 13.932C13.8376 13.8073 13.6616 13.7157 13.4416 13.657C13.2216 13.591 12.976 13.536 12.7046 13.492C12.4333 13.448 12.162 13.3967 11.8906 13.338C11.6266 13.2793 11.3846 13.195 11.1646 13.085C10.9446 12.9677 10.765 12.81 10.6256 12.612C10.4936 12.414 10.4276 12.15 10.4276 11.82C10.4276 11.5047 10.5156 11.2223 10.6916 10.973C10.8676 10.7237 11.1243 10.5293 11.4616 10.39C11.8063 10.2433 12.2243 10.17 12.7156 10.17C13.0896 10.17 13.4636 10.2213 13.8376 10.324C14.2116 10.4193 14.5196 10.5477 14.7616 10.709L14.4206 11.336C14.164 11.16 13.889 11.0353 13.5956 10.962C13.3023 10.8813 13.009 10.841 12.7156 10.841C12.195 10.841 11.81 10.9327 11.5606 11.116C11.3186 11.292 11.1976 11.5193 11.1976 11.798C11.1976 12.018 11.2636 12.1903 11.3956 12.315C11.535 12.4397 11.7146 12.5387 11.9346 12.612C12.162 12.678 12.4076 12.733 12.6716 12.777C12.943 12.821 13.2106 12.876 13.4746 12.942C13.746 13.0007 13.9916 13.085 14.2116 13.195C14.439 13.2977 14.6186 13.448 14.7506 13.646C14.89 13.8367 14.9596 14.0897 14.9596 14.405C14.9596 14.7423 14.8643 15.0357 14.6736 15.285C14.4903 15.527 14.219 15.7177 13.8596 15.857C13.5076 15.989 13.0786 16.055 12.5726 16.055ZM19.3407 10.17C19.81 10.17 20.2207 10.2617 20.5727 10.445C20.932 10.621 21.2107 10.8923 21.4087 11.259C21.614 11.6257 21.7167 12.0877 21.7167 12.645V16H20.9357V12.722C20.9357 12.1133 20.7817 11.655 20.4737 11.347C20.173 11.0317 19.7477 10.874 19.1977 10.874C18.787 10.874 18.4277 10.9583 18.1197 11.127C17.819 11.2883 17.5844 11.5267 17.4157 11.842C17.2544 12.15 17.1737 12.524 17.1737 12.964V16H16.3927V7.838H17.1737V11.809L17.0197 11.512C17.203 11.094 17.4964 10.7677 17.8997 10.533C18.303 10.291 18.7834 10.17 19.3407 10.17ZM26.1803 16.055C25.623 16.055 25.1206 15.9303 24.6733 15.681C24.2333 15.4243 23.885 15.076 23.6283 14.636C23.3716 14.1887 23.2433 13.679 23.2433 13.107C23.2433 12.5277 23.3716 12.018 23.6283 11.578C23.885 11.138 24.2333 10.7933 24.6733 10.544C25.1133 10.2947 25.6156 10.17 26.1803 10.17C26.7523 10.17 27.2583 10.2947 27.6983 10.544C28.1456 10.7933 28.494 11.138 28.7433 11.578C29 12.018 29.1283 12.5277 29.1283 13.107C29.1283 13.679 29 14.1887 28.7433 14.636C28.494 15.076 28.1456 15.4243 27.6983 15.681C27.251 15.9303 26.745 16.055 26.1803 16.055ZM26.1803 15.362C26.5983 15.362 26.9686 15.2703 27.2913 15.087C27.614 14.8963 27.867 14.6323 28.0503 14.295C28.241 13.9503 28.3363 13.5543 28.3363 13.107C28.3363 12.6523 28.241 12.2563 28.0503 11.919C27.867 11.5817 27.614 11.3213 27.2913 11.138C26.9686 10.9473 26.602 10.852 26.1913 10.852C25.7806 10.852 25.414 10.9473 25.0913 11.138C24.7686 11.3213 24.512 11.5817 24.3213 11.919C24.1306 12.2563 24.0353 12.6523 24.0353 13.107C24.0353 13.5543 24.1306 13.9503 24.3213 14.295C24.512 14.6323 24.7686 14.8963 25.0913 15.087C25.414 15.2703 25.777 15.362 26.1803 15.362ZM31.7387 16L29.5607 10.225H30.3087L32.2887 15.582H31.9477L33.9827 10.225H34.6537L36.6667 15.582H36.3257L38.3387 10.225H39.0537L36.8647 16H36.1277L34.1917 10.962H34.4227L32.4757 16H31.7387ZM41.7162 16.055C41.2395 16.055 40.7885 15.989 40.3632 15.857C39.9378 15.7177 39.6042 15.5453 39.3622 15.34L39.7142 14.724C39.9488 14.9 40.2495 15.054 40.6162 15.186C40.9828 15.3107 41.3678 15.373 41.7712 15.373C42.3212 15.373 42.7172 15.2887 42.9592 15.12C43.2012 14.944 43.3222 14.713 43.3222 14.427C43.3222 14.2143 43.2525 14.0493 43.1132 13.932C42.9812 13.8073 42.8052 13.7157 42.5852 13.657C42.3652 13.591 42.1195 13.536 41.8482 13.492C41.5768 13.448 41.3055 13.3967 41.0342 13.338C40.7702 13.2793 40.5282 13.195 40.3082 13.085C40.0882 12.9677 39.9085 12.81 39.7692 12.612C39.6372 12.414 39.5712 12.15 39.5712 11.82C39.5712 11.5047 39.6592 11.2223 39.8352 10.973C40.0112 10.7237 40.2678 10.5293 40.6052 10.39C40.9498 10.2433 41.3678 10.17 41.8592 10.17C42.2332 10.17 42.6072 10.2213 42.9812 10.324C43.3552 10.4193 43.6632 10.5477 43.9052 10.709L43.5642 11.336C43.3075 11.16 43.0325 11.0353 42.7392 10.962C42.4458 10.8813 42.1525 10.841 41.8592 10.841C41.3385 10.841 40.9535 10.9327 40.7042 11.116C40.4622 11.292 40.3412 11.5193 40.3412 11.798C40.3412 12.018 40.4072 12.1903 40.5392 12.315C40.6785 12.4397 40.8582 12.5387 41.0782 12.612C41.3055 12.678 41.5512 12.733 41.8152 12.777C42.0865 12.821 42.3542 12.876 42.6182 12.942C42.8895 13.0007 43.1352 13.085 43.3552 13.195C43.5825 13.2977 43.7622 13.448 43.8942 13.646C44.0335 13.8367 44.1032 14.0897 44.1032 14.405C44.1032 14.7423 44.0078 15.0357 43.8172 15.285C43.6338 15.527 43.3625 15.7177 43.0032 15.857C42.6512 15.989 42.2222 16.055 41.7162 16.055Z" fill="#5D87F2"/>
</svg>
