<svg width="52" height="24" viewBox="0 0 52 24" fill="none" xmlns="http://www.w3.org/2000/svg">
<mask id="mask0_60_1047" style="mask-type:alpha" maskUnits="userSpaceOnUse" x="0" y="0" width="19" height="24">
<rect width="19" height="24" fill="white"/>
</mask>
<g mask="url(#mask0_60_1047)">
<path d="M19 0H5C3.6744 0.00158786 2.40356 0.528882 1.46622 1.46622C0.528882 2.40356 0.00158786 3.6744 0 5L0 19C0.00158786 20.3256 0.528882 21.5964 1.46622 22.5338C2.40356 23.4711 3.6744 23.9984 5 24H19C20.3256 23.9984 21.5964 23.4711 22.5338 22.5338C23.4711 21.5964 23.9984 20.3256 24 19V5C23.9984 3.6744 23.4711 2.40356 22.5338 1.46622C21.5964 0.528882 20.3256 0.00158786 19 0V0ZM22 19C22 19.7956 21.6839 20.5587 21.1213 21.1213C20.5587 21.6839 19.7956 22 19 22H5C4.20435 22 3.44129 21.6839 2.87868 21.1213C2.31607 20.5587 2 19.7956 2 19V5C2 4.20435 2.31607 3.44129 2.87868 2.87868C3.44129 2.31607 4.20435 2 5 2H19C19.7956 2 20.5587 2.31607 21.1213 2.87868C21.6839 3.44129 22 4.20435 22 5V19Z" fill="#5D87F2"/>
</g>
<mask id="mask1_60_1047" style="mask-type:alpha" maskUnits="userSpaceOnUse" x="19" y="0" width="14" height="24">
<rect x="19" width="14" height="24" fill="white"/>
</mask>
<g mask="url(#mask1_60_1047)">
<path d="M33 0H19C17.6744 0.00158786 16.4036 0.528882 15.4662 1.46622C14.5289 2.40356 14.0016 3.6744 14 5L14 19C14.0016 20.3256 14.5289 21.5964 15.4662 22.5338C16.4036 23.4711 17.6744 23.9984 19 24H33C34.3256 23.9984 35.5964 23.4711 36.5338 22.5338C37.4711 21.5964 37.9984 20.3256 38 19V5C37.9984 3.6744 37.4711 2.40356 36.5338 1.46622C35.5964 0.528882 34.3256 0.00158786 33 0V0ZM36 19C36 19.7956 35.6839 20.5587 35.1213 21.1213C34.5587 21.6839 33.7956 22 33 22H19C18.2044 22 17.4413 21.6839 16.8787 21.1213C16.3161 20.5587 16 19.7956 16 19V5C16 4.20435 16.3161 3.44129 16.8787 2.87868C17.4413 2.31607 18.2044 2 19 2H33C33.7956 2 34.5587 2.31607 35.1213 2.87868C35.6839 3.44129 36 4.20435 36 5V19Z" fill="#5D87F2"/>
</g>
<mask id="mask2_60_1047" style="mask-type:alpha" maskUnits="userSpaceOnUse" x="33" y="0" width="19" height="24">
<rect width="19" height="24" transform="matrix(-1 0 0 1 52 0)" fill="white"/>
</mask>
<g mask="url(#mask2_60_1047)">
<path d="M33 0H47C48.3256 0.00158786 49.5964 0.528882 50.5338 1.46622C51.4711 2.40356 51.9984 3.6744 52 5V19C51.9984 20.3256 51.4711 21.5964 50.5338 22.5338C49.5964 23.4711 48.3256 23.9984 47 24H33C31.6744 23.9984 30.4036 23.4711 29.4662 22.5338C28.5289 21.5964 28.0016 20.3256 28 19V5C28.0016 3.6744 28.5289 2.40356 29.4662 1.46622C30.4036 0.528882 31.6744 0.00158786 33 0V0ZM30 19C30 19.7956 30.3161 20.5587 30.8787 21.1213C31.4413 21.6839 32.2044 22 33 22H47C47.7956 22 48.5587 21.6839 49.1213 21.1213C49.6839 20.5587 50 19.7956 50 19V5C50 4.20435 49.6839 3.44129 49.1213 2.87868C48.5587 2.31607 47.7956 2 47 2H33C32.2044 2 31.4413 2.31607 30.8787 2.87868C30.3161 3.44129 30 4.20435 30 5V19Z" fill="#5D87F2"/>
</g>
<path d="M33.5833 1H46.4167C47.6318 1.00146 48.7967 1.48481 49.656 2.34403C50.5152 3.20326 50.9985 4.3682 51 5.58333V18.4167C50.9985 19.6318 50.5152 20.7967 49.656 21.656C48.7967 22.5152 47.6318 22.9985 46.4167 23H33.5833C32.3682 22.9985 31.2033 22.5152 30.344 21.656C29.4848 20.7967 29.0015 19.6318 29 18.4167V5.58333C29.0015 4.3682 29.4848 3.20326 30.344 2.34403C31.2033 1.48481 32.3682 1.00146 33.5833 1V1ZM30.8333 18.4167C30.8333 19.146 31.1231 19.8455 31.6388 20.3612C32.1545 20.8769 32.854 21.1667 33.5833 21.1667H46.4167C47.146 21.1667 47.8455 20.8769 48.3612 20.3612C48.8769 19.8455 49.1667 19.146 49.1667 18.4167V5.58333C49.1667 4.85399 48.8769 4.15451 48.3612 3.63879C47.8455 3.12306 47.146 2.83333 46.4167 2.83333H33.5833C32.854 2.83333 32.1545 3.12306 31.6388 3.63879C31.1231 4.15451 30.8333 4.85399 30.8333 5.58333V18.4167Z" fill="white"/>
<path d="M21.5833 1H34.4167C35.6318 1.00146 36.7967 1.48481 37.656 2.34403C38.5152 3.20326 38.9985 4.3682 39 5.58333V18.4167C38.9985 19.6318 38.5152 20.7967 37.656 21.656C36.7967 22.5152 35.6318 22.9985 34.4167 23H21.5833C20.3682 22.9985 19.2033 22.5152 18.344 21.656C17.4848 20.7967 17.0015 19.6318 17 18.4167V5.58333C17.0015 4.3682 17.4848 3.20326 18.344 2.34403C19.2033 1.48481 20.3682 1.00146 21.5833 1V1ZM18.8333 18.4167C18.8333 19.146 19.1231 19.8455 19.6388 20.3612C20.1545 20.8769 20.854 21.1667 21.5833 21.1667H34.4167C35.146 21.1667 35.8455 20.8769 36.3612 20.3612C36.8769 19.8455 37.1667 19.146 37.1667 18.4167V5.58333C37.1667 4.85399 36.8769 4.15451 36.3612 3.63879C35.8455 3.12306 35.146 2.83333 34.4167 2.83333H21.5833C20.854 2.83333 20.1545 3.12306 19.6388 3.63879C19.1231 4.15451 18.8333 4.85399 18.8333 5.58333V18.4167Z" fill="white"/>
<path d="M5.58333 1H18.4167C19.6318 1.00146 20.7967 1.48481 21.656 2.34403C22.5152 3.20326 22.9985 4.3682 23 5.58333V18.4167C22.9985 19.6318 22.5152 20.7967 21.656 21.656C20.7967 22.5152 19.6318 22.9985 18.4167 23H5.58333C4.3682 22.9985 3.20326 22.5152 2.34403 21.656C1.48481 20.7967 1.00146 19.6318 1 18.4167V5.58333C1.00146 4.3682 1.48481 3.20326 2.34403 2.34403C3.20326 1.48481 4.3682 1.00146 5.58333 1V1ZM2.83333 18.4167C2.83333 19.146 3.12306 19.8455 3.63879 20.3612C4.15451 20.8769 4.85399 21.1667 5.58333 21.1667H18.4167C19.146 21.1667 19.8455 20.8769 20.3612 20.3612C20.8769 19.8455 21.1667 19.146 21.1667 18.4167V5.58333C21.1667 4.85399 20.8769 4.15451 20.3612 3.63879C19.8455 3.12306 19.146 2.83333 18.4167 2.83333H5.58333C4.85399 2.83333 4.15451 3.12306 3.63879 3.63879C3.12306 4.15451 2.83333 4.85399 2.83333 5.58333V18.4167Z" fill="white"/>
<path d="M11.5833 1H24.4167C25.6318 1.00146 26.7967 1.48481 27.656 2.34403C28.5152 3.20326 28.9985 4.3682 29 5.58333V18.4167C28.9985 19.6318 28.5152 20.7967 27.656 21.656C26.7967 22.5152 25.6318 22.9985 24.4167 23H11.5833C10.3682 22.9985 9.20326 22.5152 8.34403 21.656C7.48481 20.7967 7.00146 19.6318 7 18.4167V5.58333C7.00146 4.3682 7.48481 3.20326 8.34403 2.34403C9.20326 1.48481 10.3682 1.00146 11.5833 1V1ZM8.83333 18.4167C8.83333 19.146 9.12306 19.8455 9.63879 20.3612C10.1545 20.8769 10.854 21.1667 11.5833 21.1667H24.4167C25.146 21.1667 25.8455 20.8769 26.3612 20.3612C26.8769 19.8455 27.1667 19.146 27.1667 18.4167V5.58333C27.1667 4.85399 26.8769 4.15451 26.3612 3.63879C25.8455 3.12306 25.146 2.83333 24.4167 2.83333H11.5833C10.854 2.83333 10.1545 3.12306 9.63879 3.63879C9.12306 4.15451 8.83333 4.85399 8.83333 5.58333V18.4167Z" fill="white"/>
<path d="M6.725 17.1L10.355 6.738H11.07L7.44 17.1H6.725ZM12.5726 16.055C12.096 16.055 11.645 15.989 11.2196 15.857C10.7943 15.7177 10.4606 15.5453 10.2186 15.34L10.5706 14.724C10.8053 14.9 11.106 15.054 11.4726 15.186C11.8393 15.3107 12.2243 15.373 12.6276 15.373C13.1776 15.373 13.5736 15.2887 13.8156 15.12C14.0576 14.944 14.1786 14.713 14.1786 14.427C14.1786 14.2143 14.109 14.0493 13.9696 13.932C13.8376 13.8073 13.6616 13.7157 13.4416 13.657C13.2216 13.591 12.976 13.536 12.7046 13.492C12.4333 13.448 12.162 13.3967 11.8906 13.338C11.6266 13.2793 11.3846 13.195 11.1646 13.085C10.9446 12.9677 10.765 12.81 10.6256 12.612C10.4936 12.414 10.4276 12.15 10.4276 11.82C10.4276 11.5047 10.5156 11.2223 10.6916 10.973C10.8676 10.7237 11.1243 10.5293 11.4616 10.39C11.8063 10.2433 12.2243 10.17 12.7156 10.17C13.0896 10.17 13.4636 10.2213 13.8376 10.324C14.2116 10.4193 14.5196 10.5477 14.7616 10.709L14.4206 11.336C14.164 11.16 13.889 11.0353 13.5956 10.962C13.3023 10.8813 13.009 10.841 12.7156 10.841C12.195 10.841 11.81 10.9327 11.5606 11.116C11.3186 11.292 11.1976 11.5193 11.1976 11.798C11.1976 12.018 11.2636 12.1903 11.3956 12.315C11.535 12.4397 11.7146 12.5387 11.9346 12.612C12.162 12.678 12.4076 12.733 12.6716 12.777C12.943 12.821 13.2106 12.876 13.4746 12.942C13.746 13.0007 13.9916 13.085 14.2116 13.195C14.439 13.2977 14.6186 13.448 14.7506 13.646C14.89 13.8367 14.9596 14.0897 14.9596 14.405C14.9596 14.7423 14.8643 15.0357 14.6736 15.285C14.4903 15.527 14.219 15.7177 13.8596 15.857C13.5076 15.989 13.0786 16.055 12.5726 16.055ZM19.3407 10.17C19.81 10.17 20.2207 10.2617 20.5727 10.445C20.932 10.621 21.2107 10.8923 21.4087 11.259C21.614 11.6257 21.7167 12.0877 21.7167 12.645V16H20.9357V12.722C20.9357 12.1133 20.7817 11.655 20.4737 11.347C20.173 11.0317 19.7477 10.874 19.1977 10.874C18.787 10.874 18.4277 10.9583 18.1197 11.127C17.819 11.2883 17.5844 11.5267 17.4157 11.842C17.2544 12.15 17.1737 12.524 17.1737 12.964V16H16.3927V7.838H17.1737V11.809L17.0197 11.512C17.203 11.094 17.4964 10.7677 17.8997 10.533C18.303 10.291 18.7834 10.17 19.3407 10.17ZM26.1803 16.055C25.623 16.055 25.1206 15.9303 24.6733 15.681C24.2333 15.4243 23.885 15.076 23.6283 14.636C23.3716 14.1887 23.2433 13.679 23.2433 13.107C23.2433 12.5277 23.3716 12.018 23.6283 11.578C23.885 11.138 24.2333 10.7933 24.6733 10.544C25.1133 10.2947 25.6156 10.17 26.1803 10.17C26.7523 10.17 27.2583 10.2947 27.6983 10.544C28.1456 10.7933 28.494 11.138 28.7433 11.578C29 12.018 29.1283 12.5277 29.1283 13.107C29.1283 13.679 29 14.1887 28.7433 14.636C28.494 15.076 28.1456 15.4243 27.6983 15.681C27.251 15.9303 26.745 16.055 26.1803 16.055ZM26.1803 15.362C26.5983 15.362 26.9686 15.2703 27.2913 15.087C27.614 14.8963 27.867 14.6323 28.0503 14.295C28.241 13.9503 28.3363 13.5543 28.3363 13.107C28.3363 12.6523 28.241 12.2563 28.0503 11.919C27.867 11.5817 27.614 11.3213 27.2913 11.138C26.9686 10.9473 26.602 10.852 26.1913 10.852C25.7806 10.852 25.414 10.9473 25.0913 11.138C24.7686 11.3213 24.512 11.5817 24.3213 11.919C24.1306 12.2563 24.0353 12.6523 24.0353 13.107C24.0353 13.5543 24.1306 13.9503 24.3213 14.295C24.512 14.6323 24.7686 14.8963 25.0913 15.087C25.414 15.2703 25.777 15.362 26.1803 15.362ZM31.7387 16L29.5607 10.225H30.3087L32.2887 15.582H31.9477L33.9827 10.225H34.6537L36.6667 15.582H36.3257L38.3387 10.225H39.0537L36.8647 16H36.1277L34.1917 10.962H34.4227L32.4757 16H31.7387ZM38.5434 17.1L42.1734 6.738H42.8884L39.2584 17.1H38.5434ZM46.5069 9.059L44.9889 9.917V9.741L46.5069 10.599L46.2539 11.061L44.7579 10.192L44.8789 10.137V11.82H44.3729L44.3839 10.137L44.4939 10.192L43.0089 11.061L42.7449 10.599L44.2739 9.741V9.917L42.7449 9.059L43.0089 8.597L44.4939 9.466L44.3839 9.521L44.3729 7.838H44.8789V9.521L44.7579 9.466L46.2539 8.597L46.5069 9.059Z" fill="#5D87F2"/>
</svg>
