<svg width="24" height="24" viewBox="0 0 24 24" fill="none" xmlns="http://www.w3.org/2000/svg">
<path d="M9.725 17.1L13.355 6.738H14.07L10.44 17.1H9.725ZM17.6886 9.059L16.1706 9.917V9.741L17.6886 10.599L17.4356 11.061L15.9396 10.192L16.0606 10.137V11.82H15.5546L15.5656 10.137L15.6756 10.192L14.1906 11.061L13.9266 10.599L15.4556 9.741V9.917L13.9266 9.059L14.1906 8.597L15.6756 9.466L15.5656 9.521L15.5546 7.838H16.0606V9.521L15.9396 9.466L17.4356 8.597L17.6886 9.059Z" fill="#5D87F2"/>
<path d="M19 0H5C3.6744 0.00158786 2.40356 0.528882 1.46622 1.46622C0.528882 2.40356 0.00158786 3.6744 0 5L0 19C0.00158786 20.3256 0.528882 21.5964 1.46622 22.5338C2.40356 23.4711 3.6744 23.9984 5 24H19C20.3256 23.9984 21.5964 23.4711 22.5338 22.5338C23.4711 21.5964 23.9984 20.3256 24 19V5C23.9984 3.6744 23.4711 2.40356 22.5338 1.46622C21.5964 0.528882 20.3256 0.00158786 19 0V0ZM22 19C22 19.7956 21.6839 20.5587 21.1213 21.1213C20.5587 21.6839 19.7956 22 19 22H5C4.20435 22 3.44129 21.6839 2.87868 21.1213C2.31607 20.5587 2 19.7956 2 19V5C2 4.20435 2.31607 3.44129 2.87868 2.87868C3.44129 2.31607 4.20435 2 5 2H19C19.7956 2 20.5587 2.31607 21.1213 2.87868C21.6839 3.44129 22 4.20435 22 5V19Z" fill="#5D87F2"/>
<path d="M5.58333 1H18.4167C19.6318 1.00146 20.7967 1.48481 21.656 2.34403C22.5152 3.20326 22.9985 4.3682 23 5.58333V18.4167C22.9985 19.6318 22.5152 20.7967 21.656 21.656C20.7967 22.5152 19.6318 22.9985 18.4167 23H5.58333C4.3682 22.9985 3.20326 22.5152 2.34403 21.656C1.48481 20.7967 1.00146 19.6318 1 18.4167V5.58333C1.00146 4.3682 1.48481 3.20326 2.34403 2.34403C3.20326 1.48481 4.3682 1.00146 5.58333 1V1ZM2.83333 18.4167C2.83333 19.146 3.12306 19.8455 3.63879 20.3612C4.15451 20.8769 4.85399 21.1667 5.58333 21.1667H18.4167C19.146 21.1667 19.8455 20.8769 20.3612 20.3612C20.8769 19.8455 21.1667 19.146 21.1667 18.4167V5.58333C21.1667 4.85399 20.8769 4.15451 20.3612 3.63879C19.8455 3.12306 19.146 2.83333 18.4167 2.83333H5.58333C4.85399 2.83333 4.15451 3.12306 3.63879 3.63879C3.12306 4.15451 2.83333 4.85399 2.83333 5.58333V18.4167Z" fill="white"/>
</svg>
