<svg width="24" height="24" viewBox="0 0 24 24" fill="none" xmlns="http://www.w3.org/2000/svg">
<path d="M9.725 17.1L13.355 6.738H14.07L10.44 17.1H9.725Z" fill="#5D87F2"/>
<path d="M19 0H5C3.6744 0.00158786 2.40356 0.528882 1.46622 1.46622C0.528882 2.40356 0.00158786 3.6744 0 5L0 19C0.00158786 20.3256 0.528882 21.5964 1.46622 22.5338C2.40356 23.4711 3.6744 23.9984 5 24H19C20.3256 23.9984 21.5964 23.4711 22.5338 22.5338C23.4711 21.5964 23.9984 20.3256 24 19V5C23.9984 3.6744 23.4711 2.40356 22.5338 1.46622C21.5964 0.528882 20.3256 0.00158786 19 0V0ZM22 19C22 19.7956 21.6839 20.5587 21.1213 21.1213C20.5587 21.6839 19.7956 22 19 22H5C4.20435 22 3.44129 21.6839 2.87868 21.1213C2.31607 20.5587 2 19.7956 2 19V5C2 4.20435 2.31607 3.44129 2.87868 2.87868C3.44129 2.31607 4.20435 2 5 2H19C19.7956 2 20.5587 2.31607 21.1213 2.87868C21.6839 3.44129 22 4.20435 22 5V19Z" fill="#5D87F2"/>
<path d="M18.4167 1H5.58333C4.3682 1.00146 3.20326 1.48481 2.34403 2.34403C1.48481 3.20326 1.00146 4.3682 1 5.58333L1 18.4167C1.00146 19.6318 1.48481 20.7967 2.34403 21.656C3.20326 22.5152 4.3682 22.9985 5.58333 23H18.4167C19.6318 22.9985 20.7967 22.5152 21.656 21.656C22.5152 20.7967 22.9985 19.6318 23 18.4167V5.58333C22.9985 4.3682 22.5152 3.20326 21.656 2.34403C20.7967 1.48481 19.6318 1.00146 18.4167 1V1ZM21.1667 18.4167C21.1667 19.146 20.8769 19.8455 20.3612 20.3612C19.8455 20.8769 19.146 21.1667 18.4167 21.1667H5.58333C4.85399 21.1667 4.15451 20.8769 3.63879 20.3612C3.12306 19.8455 2.83333 19.146 2.83333 18.4167V5.58333C2.83333 4.85399 3.12306 4.15451 3.63879 3.63879C4.15451 3.12306 4.85399 2.83333 5.58333 2.83333H18.4167C19.146 2.83333 19.8455 3.12306 20.3612 3.63879C20.8769 4.15451 21.1667 4.85399 21.1667 5.58333V18.4167Z" fill="white"/>
</svg>
