<svg width="88" height="48" viewBox="0 0 88 48" fill="none" xmlns="http://www.w3.org/2000/svg">
<rect x="1" y="1" width="86" height="46" rx="4" stroke="#5D87F2" stroke-width="2" stroke-linejoin="round"/>
<path d="M10.45 35.2L17.71 14.476H19.14L11.88 35.2H10.45ZM22.1452 33.11C21.1919 33.11 20.2899 32.978 19.4392 32.714C18.5886 32.4353 17.9212 32.0907 17.4372 31.68L18.1412 30.448C18.6106 30.8 19.2119 31.108 19.9452 31.372C20.6786 31.6213 21.4486 31.746 22.2552 31.746C23.3552 31.746 24.1472 31.5773 24.6312 31.24C25.1152 30.888 25.3572 30.426 25.3572 29.854C25.3572 29.4287 25.2179 29.0987 24.9392 28.864C24.6752 28.6147 24.3232 28.4313 23.8832 28.314C23.4432 28.182 22.9519 28.072 22.4092 27.984C21.8666 27.896 21.3239 27.7933 20.7812 27.676C20.2532 27.5587 19.7692 27.39 19.3292 27.17C18.8892 26.9353 18.5299 26.62 18.2512 26.224C17.9872 25.828 17.8552 25.3 17.8552 24.64C17.8552 24.0093 18.0312 23.4447 18.3832 22.946C18.7352 22.4473 19.2486 22.0587 19.9232 21.78C20.6126 21.4867 21.4486 21.34 22.4312 21.34C23.1792 21.34 23.9272 21.4427 24.6752 21.648C25.4232 21.8387 26.0392 22.0953 26.5232 22.418L25.8412 23.672C25.3279 23.32 24.7779 23.0707 24.1912 22.924C23.6046 22.7627 23.0179 22.682 22.4312 22.682C21.3899 22.682 20.6199 22.8653 20.1212 23.232C19.6372 23.584 19.3952 24.0387 19.3952 24.596C19.3952 25.036 19.5272 25.3807 19.7912 25.63C20.0699 25.8793 20.4292 26.0773 20.8692 26.224C21.3239 26.356 21.8152 26.466 22.3432 26.554C22.8859 26.642 23.4212 26.752 23.9492 26.884C24.4919 27.0013 24.9832 27.17 25.4232 27.39C25.8779 27.5953 26.2372 27.896 26.5012 28.292C26.7799 28.6733 26.9192 29.1793 26.9192 29.81C26.9192 30.4847 26.7286 31.0713 26.3472 31.57C25.9806 32.054 25.4379 32.4353 24.7192 32.714C24.0152 32.978 23.1572 33.11 22.1452 33.11ZM35.7474 33.11C34.7501 33.11 33.8481 32.8827 33.0414 32.428C32.2348 31.9587 31.5894 31.2913 31.1054 30.426C30.6361 29.546 30.4014 28.4753 30.4014 27.214C30.4014 25.9527 30.6361 24.8893 31.1054 24.024C31.5748 23.144 32.2128 22.4767 33.0194 22.022C33.8261 21.5673 34.7354 21.34 35.7474 21.34C36.8474 21.34 37.8301 21.5893 38.6954 22.088C39.5754 22.572 40.2648 23.2613 40.7634 24.156C41.2621 25.036 41.5114 26.0553 41.5114 27.214C41.5114 28.3873 41.2621 29.414 40.7634 30.294C40.2648 31.174 39.5754 31.8633 38.6954 32.362C37.8301 32.8607 36.8474 33.11 35.7474 33.11ZM29.7854 37.268V21.45H31.2814V24.926L31.1274 27.236L31.3474 29.568V37.268H29.7854ZM35.6374 31.724C36.4588 31.724 37.1921 31.5407 37.8374 31.174C38.4828 30.7927 38.9961 30.2647 39.3774 29.59C39.7588 28.9007 39.9494 28.1087 39.9494 27.214C39.9494 26.3193 39.7588 25.5347 39.3774 24.86C38.9961 24.1853 38.4828 23.6573 37.8374 23.276C37.1921 22.8947 36.4588 22.704 35.6374 22.704C34.8161 22.704 34.0754 22.8947 33.4154 23.276C32.7701 23.6573 32.2568 24.1853 31.8754 24.86C31.5088 25.5347 31.3254 26.3193 31.3254 27.214C31.3254 28.1087 31.5088 28.9007 31.8754 29.59C32.2568 30.2647 32.7701 30.7927 33.4154 31.174C34.0754 31.5407 34.8161 31.724 35.6374 31.724ZM49.4036 33.11C48.2889 33.11 47.2842 32.8607 46.3896 32.362C45.5096 31.8487 44.8129 31.152 44.2996 30.272C43.7862 29.3773 43.5296 28.358 43.5296 27.214C43.5296 26.0553 43.7862 25.036 44.2996 24.156C44.8129 23.276 45.5096 22.5867 46.3896 22.088C47.2696 21.5893 48.2742 21.34 49.4036 21.34C50.5476 21.34 51.5596 21.5893 52.4396 22.088C53.3342 22.5867 54.0309 23.276 54.5296 24.156C55.0429 25.036 55.2996 26.0553 55.2996 27.214C55.2996 28.358 55.0429 29.3773 54.5296 30.272C54.0309 31.152 53.3342 31.8487 52.4396 32.362C51.5449 32.8607 50.5329 33.11 49.4036 33.11ZM49.4036 31.724C50.2396 31.724 50.9802 31.5407 51.6256 31.174C52.2709 30.7927 52.7769 30.2647 53.1436 29.59C53.5249 28.9007 53.7156 28.1087 53.7156 27.214C53.7156 26.3047 53.5249 25.5127 53.1436 24.838C52.7769 24.1633 52.2709 23.6427 51.6256 23.276C50.9802 22.8947 50.2469 22.704 49.4256 22.704C48.6042 22.704 47.8709 22.8947 47.2256 23.276C46.5802 23.6427 46.0669 24.1633 45.6856 24.838C45.3042 25.5127 45.1136 26.3047 45.1136 27.214C45.1136 28.1087 45.3042 28.9007 45.6856 29.59C46.0669 30.2647 46.5802 30.7927 47.2256 31.174C47.8709 31.5407 48.5969 31.724 49.4036 31.724ZM58.4885 33V21.45H59.9845V24.596L59.8305 24.046C60.1532 23.166 60.6959 22.4987 61.4585 22.044C62.2212 21.5747 63.1672 21.34 64.2965 21.34V22.858C64.2379 22.858 64.1792 22.858 64.1205 22.858C64.0619 22.8433 64.0032 22.836 63.9445 22.836C62.7272 22.836 61.7739 23.21 61.0845 23.958C60.3952 24.6913 60.0505 25.74 60.0505 27.104V33H58.4885ZM71.2929 33.11C70.2076 33.11 69.3716 32.8167 68.7849 32.23C68.1982 31.6433 67.9049 30.8147 67.9049 29.744V18.898H69.4669V29.656C69.4669 30.3307 69.6356 30.8513 69.9729 31.218C70.3249 31.5847 70.8236 31.768 71.4689 31.768C72.1582 31.768 72.7302 31.57 73.1849 31.174L73.7349 32.296C73.4269 32.5747 73.0529 32.78 72.6129 32.912C72.1876 33.044 71.7476 33.11 71.2929 33.11ZM65.8369 22.748V21.45H72.9869V22.748H65.8369Z" fill="#5D87F2"/>
</svg>
