<svg width="44" height="24" viewBox="0 0 44 24" fill="none" xmlns="http://www.w3.org/2000/svg">
<mask id="mask0_60_943" style="mask-type:alpha" maskUnits="userSpaceOnUse" x="0" y="0" width="19" height="24">
<rect width="19" height="24" fill="white"/>
</mask>
<g mask="url(#mask0_60_943)">
<path d="M19 0H5C3.6744 0.00158786 2.40356 0.528882 1.46622 1.46622C0.528882 2.40356 0.00158786 3.6744 0 5L0 19C0.00158786 20.3256 0.528882 21.5964 1.46622 22.5338C2.40356 23.4711 3.6744 23.9984 5 24H19C20.3256 23.9984 21.5964 23.4711 22.5338 22.5338C23.4711 21.5964 23.9984 20.3256 24 19V5C23.9984 3.6744 23.4711 2.40356 22.5338 1.46622C21.5964 0.528882 20.3256 0.00158786 19 0V0ZM22 19C22 19.7956 21.6839 20.5587 21.1213 21.1213C20.5587 21.6839 19.7956 22 19 22H5C4.20435 22 3.44129 21.6839 2.87868 21.1213C2.31607 20.5587 2 19.7956 2 19V5C2 4.20435 2.31607 3.44129 2.87868 2.87868C3.44129 2.31607 4.20435 2 5 2H19C19.7956 2 20.5587 2.31607 21.1213 2.87868C21.6839 3.44129 22 4.20435 22 5V19Z" fill="#5D87F2"/>
</g>
<mask id="mask1_60_943" style="mask-type:alpha" maskUnits="userSpaceOnUse" x="17" y="0" width="14" height="24">
<rect x="17" width="14" height="24" fill="white"/>
</mask>
<g mask="url(#mask1_60_943)">
<path d="M31 0H17C15.6744 0.00158786 14.4036 0.528882 13.4662 1.46622C12.5289 2.40356 12.0016 3.6744 12 5L12 19C12.0016 20.3256 12.5289 21.5964 13.4662 22.5338C14.4036 23.4711 15.6744 23.9984 17 24H31C32.3256 23.9984 33.5964 23.4711 34.5338 22.5338C35.4711 21.5964 35.9984 20.3256 36 19V5C35.9984 3.6744 35.4711 2.40356 34.5338 1.46622C33.5964 0.528882 32.3256 0.00158786 31 0V0ZM34 19C34 19.7956 33.6839 20.5587 33.1213 21.1213C32.5587 21.6839 31.7956 22 31 22H17C16.2044 22 15.4413 21.6839 14.8787 21.1213C14.3161 20.5587 14 19.7956 14 19V5C14 4.20435 14.3161 3.44129 14.8787 2.87868C15.4413 2.31607 16.2044 2 17 2H31C31.7956 2 32.5587 2.31607 33.1213 2.87868C33.6839 3.44129 34 4.20435 34 5V19Z" fill="#5D87F2"/>
</g>
<mask id="mask2_60_943" style="mask-type:alpha" maskUnits="userSpaceOnUse" x="25" y="0" width="19" height="24">
<rect width="19" height="24" transform="matrix(-1 0 0 1 44 0)" fill="white"/>
</mask>
<g mask="url(#mask2_60_943)">
<path d="M25 0H39C40.3256 0.00158786 41.5964 0.528882 42.5338 1.46622C43.4711 2.40356 43.9984 3.6744 44 5V19C43.9984 20.3256 43.4711 21.5964 42.5338 22.5338C41.5964 23.4711 40.3256 23.9984 39 24H25C23.6744 23.9984 22.4036 23.4711 21.4662 22.5338C20.5289 21.5964 20.0016 20.3256 20 19V5C20.0016 3.6744 20.5289 2.40356 21.4662 1.46622C22.4036 0.528882 23.6744 0.00158786 25 0V0ZM22 19C22 19.7956 22.3161 20.5587 22.8787 21.1213C23.4413 21.6839 24.2044 22 25 22H39C39.7956 22 40.5587 21.6839 41.1213 21.1213C41.6839 20.5587 42 19.7956 42 19V5C42 4.20435 41.6839 3.44129 41.1213 2.87868C40.5587 2.31607 39.7956 2 39 2H25C24.2044 2 23.4413 2.31607 22.8787 2.87868C22.3161 3.44129 22 4.20435 22 5V19Z" fill="#5D87F2"/>
</g>
<path d="M25.5833 1H38.4167C39.6318 1.00146 40.7967 1.48481 41.656 2.34403C42.5152 3.20326 42.9985 4.3682 43 5.58333V18.4167C42.9985 19.6318 42.5152 20.7967 41.656 21.656C40.7967 22.5152 39.6318 22.9985 38.4167 23H25.5833C24.3682 22.9985 23.2033 22.5152 22.344 21.656C21.4848 20.7967 21.0015 19.6318 21 18.4167V5.58333C21.0015 4.3682 21.4848 3.20326 22.344 2.34403C23.2033 1.48481 24.3682 1.00146 25.5833 1V1ZM22.8333 18.4167C22.8333 19.146 23.1231 19.8455 23.6388 20.3612C24.1545 20.8769 24.854 21.1667 25.5833 21.1667H38.4167C39.146 21.1667 39.8455 20.8769 40.3612 20.3612C40.8769 19.8455 41.1667 19.146 41.1667 18.4167V5.58333C41.1667 4.85399 40.8769 4.15451 40.3612 3.63879C39.8455 3.12306 39.146 2.83333 38.4167 2.83333H25.5833C24.854 2.83333 24.1545 3.12306 23.6388 3.63879C23.1231 4.15451 22.8333 4.85399 22.8333 5.58333V18.4167Z" fill="white"/>
<path d="M13.5833 1H26.4167C27.6318 1.00146 28.7967 1.48481 29.656 2.34403C30.5152 3.20326 30.9985 4.3682 31 5.58333V18.4167C30.9985 19.6318 30.5152 20.7967 29.656 21.656C28.7967 22.5152 27.6318 22.9985 26.4167 23H13.5833C12.3682 22.9985 11.2033 22.5152 10.344 21.656C9.48481 20.7967 9.00146 19.6318 9 18.4167V5.58333C9.00146 4.3682 9.48481 3.20326 10.344 2.34403C11.2033 1.48481 12.3682 1.00146 13.5833 1V1ZM10.8333 18.4167C10.8333 19.146 11.1231 19.8455 11.6388 20.3612C12.1545 20.8769 12.854 21.1667 13.5833 21.1667H26.4167C27.146 21.1667 27.8455 20.8769 28.3612 20.3612C28.8769 19.8455 29.1667 19.146 29.1667 18.4167V5.58333C29.1667 4.85399 28.8769 4.15451 28.3612 3.63879C27.8455 3.12306 27.146 2.83333 26.4167 2.83333H13.5833C12.854 2.83333 12.1545 3.12306 11.6388 3.63879C11.1231 4.15451 10.8333 4.85399 10.8333 5.58333V18.4167Z" fill="white"/>
<path d="M5.58333 1H18.4167C19.6318 1.00146 20.7967 1.48481 21.656 2.34403C22.5152 3.20326 22.9985 4.3682 23 5.58333V18.4167C22.9985 19.6318 22.5152 20.7967 21.656 21.656C20.7967 22.5152 19.6318 22.9985 18.4167 23H5.58333C4.3682 22.9985 3.20326 22.5152 2.34403 21.656C1.48481 20.7967 1.00146 19.6318 1 18.4167V5.58333C1.00146 4.3682 1.48481 3.20326 2.34403 2.34403C3.20326 1.48481 4.3682 1.00146 5.58333 1V1ZM2.83333 18.4167C2.83333 19.146 3.12306 19.8455 3.63879 20.3612C4.15451 20.8769 4.85399 21.1667 5.58333 21.1667H18.4167C19.146 21.1667 19.8455 20.8769 20.3612 20.3612C20.8769 19.8455 21.1667 19.146 21.1667 18.4167V5.58333C21.1667 4.85399 20.8769 4.15451 20.3612 3.63879C19.8455 3.12306 19.146 2.83333 18.4167 2.83333H5.58333C4.85399 2.83333 4.15451 3.12306 3.63879 3.63879C3.12306 4.15451 2.83333 4.85399 2.83333 5.58333V18.4167Z" fill="white"/>
<path d="M5.725 17.1L9.355 6.738H10.07L6.44 17.1H5.725ZM11.5726 16.055C11.096 16.055 10.645 15.989 10.2196 15.857C9.79428 15.7177 9.46062 15.5453 9.21862 15.34L9.57062 14.724C9.80528 14.9 10.106 15.054 10.4726 15.186C10.8393 15.3107 11.2243 15.373 11.6276 15.373C12.1776 15.373 12.5736 15.2887 12.8156 15.12C13.0576 14.944 13.1786 14.713 13.1786 14.427C13.1786 14.2143 13.109 14.0493 12.9696 13.932C12.8376 13.8073 12.6616 13.7157 12.4416 13.657C12.2216 13.591 11.976 13.536 11.7046 13.492C11.4333 13.448 11.162 13.3967 10.8906 13.338C10.6266 13.2793 10.3846 13.195 10.1646 13.085C9.94462 12.9677 9.76495 12.81 9.62562 12.612C9.49362 12.414 9.42762 12.15 9.42762 11.82C9.42762 11.5047 9.51562 11.2223 9.69162 10.973C9.86762 10.7237 10.1243 10.5293 10.4616 10.39C10.8063 10.2433 11.2243 10.17 11.7156 10.17C12.0896 10.17 12.4636 10.2213 12.8376 10.324C13.2116 10.4193 13.5196 10.5477 13.7616 10.709L13.4206 11.336C13.164 11.16 12.889 11.0353 12.5956 10.962C12.3023 10.8813 12.009 10.841 11.7156 10.841C11.195 10.841 10.81 10.9327 10.5606 11.116C10.3186 11.292 10.1976 11.5193 10.1976 11.798C10.1976 12.018 10.2636 12.1903 10.3956 12.315C10.535 12.4397 10.7146 12.5387 10.9346 12.612C11.162 12.678 11.4076 12.733 11.6716 12.777C11.943 12.821 12.2106 12.876 12.4746 12.942C12.746 13.0007 12.9916 13.085 13.2116 13.195C13.439 13.2977 13.6186 13.448 13.7506 13.646C13.89 13.8367 13.9596 14.0897 13.9596 14.405C13.9596 14.7423 13.8643 15.0357 13.6736 15.285C13.4903 15.527 13.219 15.7177 12.8596 15.857C12.5076 15.989 12.0786 16.055 11.5726 16.055ZM18.3737 16.055C17.875 16.055 17.424 15.9413 17.0207 15.714C16.6174 15.4793 16.2947 15.1457 16.0527 14.713C15.818 14.273 15.7007 13.7377 15.7007 13.107C15.7007 12.4763 15.818 11.9447 16.0527 11.512C16.2874 11.072 16.6064 10.7383 17.0097 10.511C17.413 10.2837 17.8677 10.17 18.3737 10.17C18.9237 10.17 19.415 10.2947 19.8477 10.544C20.2877 10.786 20.6324 11.1307 20.8817 11.578C21.131 12.018 21.2557 12.5277 21.2557 13.107C21.2557 13.6937 21.131 14.207 20.8817 14.647C20.6324 15.087 20.2877 15.4317 19.8477 15.681C19.415 15.9303 18.9237 16.055 18.3737 16.055ZM15.3927 18.134V10.225H16.1407V11.963L16.0637 13.118L16.1737 14.284V18.134H15.3927ZM18.3187 15.362C18.7294 15.362 19.096 15.2703 19.4187 15.087C19.7414 14.8963 19.998 14.6323 20.1887 14.295C20.3794 13.9503 20.4747 13.5543 20.4747 13.107C20.4747 12.6597 20.3794 12.2673 20.1887 11.93C19.998 11.5927 19.7414 11.3287 19.4187 11.138C19.096 10.9473 18.7294 10.852 18.3187 10.852C17.908 10.852 17.5377 10.9473 17.2077 11.138C16.885 11.3287 16.6284 11.5927 16.4377 11.93C16.2544 12.2673 16.1627 12.6597 16.1627 13.107C16.1627 13.5543 16.2544 13.9503 16.4377 14.295C16.6284 14.6323 16.885 14.8963 17.2077 15.087C17.5377 15.2703 17.908 15.362 18.3187 15.362ZM25.2018 16.055C24.6445 16.055 24.1421 15.9303 23.6948 15.681C23.2548 15.4243 22.9065 15.076 22.6498 14.636C22.3931 14.1887 22.2648 13.679 22.2648 13.107C22.2648 12.5277 22.3931 12.018 22.6498 11.578C22.9065 11.138 23.2548 10.7933 23.6948 10.544C24.1348 10.2947 24.6371 10.17 25.2018 10.17C25.7738 10.17 26.2798 10.2947 26.7198 10.544C27.1671 10.7933 27.5155 11.138 27.7648 11.578C28.0215 12.018 28.1498 12.5277 28.1498 13.107C28.1498 13.679 28.0215 14.1887 27.7648 14.636C27.5155 15.076 27.1671 15.4243 26.7198 15.681C26.2725 15.9303 25.7665 16.055 25.2018 16.055ZM25.2018 15.362C25.6198 15.362 25.9901 15.2703 26.3128 15.087C26.6355 14.8963 26.8885 14.6323 27.0718 14.295C27.2625 13.9503 27.3578 13.5543 27.3578 13.107C27.3578 12.6523 27.2625 12.2563 27.0718 11.919C26.8885 11.5817 26.6355 11.3213 26.3128 11.138C25.9901 10.9473 25.6235 10.852 25.2128 10.852C24.8021 10.852 24.4355 10.9473 24.1128 11.138C23.7901 11.3213 23.5335 11.5817 23.3428 11.919C23.1521 12.2563 23.0568 12.6523 23.0568 13.107C23.0568 13.5543 23.1521 13.9503 23.3428 14.295C23.5335 14.6323 23.7901 14.8963 24.1128 15.087C24.4355 15.2703 24.7985 15.362 25.2018 15.362ZM29.7443 16V10.225H30.4923V11.798L30.4153 11.523C30.5766 11.083 30.8479 10.7493 31.2293 10.522C31.6106 10.2873 32.0836 10.17 32.6483 10.17V10.929C32.6189 10.929 32.5896 10.929 32.5603 10.929C32.5309 10.9217 32.5016 10.918 32.4723 10.918C31.8636 10.918 31.3869 11.105 31.0423 11.479C30.6976 11.8457 30.5253 12.37 30.5253 13.052V16H29.7443ZM36.1464 16.055C35.6038 16.055 35.1858 15.9083 34.8924 15.615C34.5991 15.3217 34.4524 14.9073 34.4524 14.372V8.949H35.2334V14.328C35.2334 14.6653 35.3178 14.9257 35.4864 15.109C35.6624 15.2923 35.9118 15.384 36.2344 15.384C36.5791 15.384 36.8651 15.285 37.0924 15.087L37.3674 15.648C37.2134 15.7873 37.0264 15.89 36.8064 15.956C36.5938 16.022 36.3738 16.055 36.1464 16.055ZM33.4184 10.874V10.225H36.9934V10.874H33.4184Z" fill="#5D87F2"/>
</svg>
