<svg width="48" height="48" viewBox="0 0 48 48" fill="none" xmlns="http://www.w3.org/2000/svg">
<rect x="1" y="1" width="46" height="46" rx="4" stroke="#5D87F2" stroke-width="2" stroke-linejoin="round"/>
<path d="M8.45 35.2L15.71 14.476H17.14L9.88 35.2H8.45ZM21.5761 33.11C20.4908 33.11 19.6548 32.8167 19.0681 32.23C18.4814 31.6433 18.1881 30.8147 18.1881 29.744V18.898H19.7501V29.656C19.7501 30.3307 19.9188 30.8513 20.2561 31.218C20.6081 31.5847 21.1068 31.768 21.7521 31.768C22.4414 31.768 23.0134 31.57 23.4681 31.174L24.0181 32.296C23.7101 32.5747 23.3361 32.78 22.8961 32.912C22.4708 33.044 22.0308 33.11 21.5761 33.11ZM16.1201 22.748V21.45H23.2701V22.748H16.1201ZM29.6168 33L24.4908 21.45H26.1188L30.8268 32.164H30.0568L34.8308 21.45H36.3708L31.2228 33H29.6168Z" fill="#5D87F2"/>
</svg>
