<svg width="146" height="48" viewBox="0 0 146 48" fill="none" xmlns="http://www.w3.org/2000/svg">
<rect x="2" y="2" width="142" height="44" rx="3" stroke="#5D87F2" stroke-width="4" stroke-linejoin="round"/>
<path d="M7.34 35.2L14.6 14.476H17.064L9.804 35.2H7.34ZM21.9186 33.154C20.6866 33.154 19.5866 32.8973 18.6186 32.384C17.6653 31.856 16.9173 31.1373 16.3746 30.228C15.8319 29.3187 15.5606 28.2847 15.5606 27.126C15.5606 25.9527 15.8319 24.9187 16.3746 24.024C16.9173 23.1147 17.6653 22.4033 18.6186 21.89C19.5866 21.3767 20.6866 21.12 21.9186 21.12C23.0626 21.12 24.0673 21.3547 24.9326 21.824C25.8126 22.2787 26.4799 22.9533 26.9346 23.848L24.8226 25.08C24.4706 24.5227 24.0379 24.112 23.5246 23.848C23.0259 23.584 22.4833 23.452 21.8966 23.452C21.2219 23.452 20.6133 23.5987 20.0706 23.892C19.5279 24.1853 19.1026 24.6107 18.7946 25.168C18.4866 25.7107 18.3326 26.3633 18.3326 27.126C18.3326 27.8887 18.4866 28.5487 18.7946 29.106C19.1026 29.6487 19.5279 30.0667 20.0706 30.36C20.6133 30.6533 21.2219 30.8 21.8966 30.8C22.4833 30.8 23.0259 30.668 23.5246 30.404C24.0379 30.14 24.4706 29.7293 24.8226 29.172L26.9346 30.404C26.4799 31.284 25.8126 31.966 24.9326 32.45C24.0673 32.9193 23.0626 33.154 21.9186 33.154ZM34.4199 33.154C33.2173 33.154 32.1466 32.8973 31.2079 32.384C30.2693 31.856 29.5286 31.1373 28.9859 30.228C28.4433 29.3187 28.1719 28.2847 28.1719 27.126C28.1719 25.9527 28.4433 24.9187 28.9859 24.024C29.5286 23.1147 30.2693 22.4033 31.2079 21.89C32.1466 21.3767 33.2173 21.12 34.4199 21.12C35.6373 21.12 36.7153 21.3767 37.6539 21.89C38.6073 22.4033 39.3479 23.1073 39.8759 24.002C40.4186 24.8967 40.6899 25.938 40.6899 27.126C40.6899 28.2847 40.4186 29.3187 39.8759 30.228C39.3479 31.1373 38.6073 31.856 37.6539 32.384C36.7153 32.8973 35.6373 33.154 34.4199 33.154ZM34.4199 30.8C35.0946 30.8 35.6959 30.6533 36.2239 30.36C36.7519 30.0667 37.1626 29.6413 37.4559 29.084C37.7639 28.5267 37.9179 27.874 37.9179 27.126C37.9179 26.3633 37.7639 25.7107 37.4559 25.168C37.1626 24.6107 36.7519 24.1853 36.2239 23.892C35.6959 23.5987 35.1019 23.452 34.4419 23.452C33.7673 23.452 33.1659 23.5987 32.6379 23.892C32.1246 24.1853 31.7139 24.6107 31.4059 25.168C31.0979 25.7107 30.9439 26.3633 30.9439 27.126C30.9439 27.874 31.0979 28.5267 31.4059 29.084C31.7139 29.6413 32.1246 30.0667 32.6379 30.36C33.1659 30.6533 33.7599 30.8 34.4199 30.8ZM43.3196 33V16.676H46.0696V33H43.3196ZM49.679 33V16.676H52.429V33H49.679ZM61.5604 33.154C60.255 33.154 59.111 32.8973 58.1284 32.384C57.1604 31.856 56.405 31.1373 55.8624 30.228C55.3344 29.3187 55.0704 28.2847 55.0704 27.126C55.0704 25.9527 55.327 24.9187 55.8404 24.024C56.3684 23.1147 57.087 22.4033 57.9964 21.89C58.9204 21.3767 59.969 21.12 61.1424 21.12C62.2864 21.12 63.3057 21.3693 64.2004 21.868C65.095 22.3667 65.799 23.0707 66.3124 23.98C66.8257 24.8893 67.0824 25.96 67.0824 27.192C67.0824 27.3093 67.075 27.4413 67.0604 27.588C67.0604 27.7347 67.053 27.874 67.0384 28.006H57.2484V26.18H65.5864L64.5084 26.752C64.523 26.0773 64.3837 25.4833 64.0904 24.97C63.797 24.4567 63.3937 24.0533 62.8804 23.76C62.3817 23.4667 61.8024 23.32 61.1424 23.32C60.4677 23.32 59.8737 23.4667 59.3604 23.76C58.8617 24.0533 58.4657 24.464 58.1724 24.992C57.8937 25.5053 57.7544 26.114 57.7544 26.818V27.258C57.7544 27.962 57.9157 28.5853 58.2384 29.128C58.561 29.6707 59.0157 30.0887 59.6024 30.382C60.189 30.6753 60.8637 30.822 61.6264 30.822C62.2864 30.822 62.8804 30.7193 63.4084 30.514C63.9364 30.3087 64.4057 29.986 64.8164 29.546L66.2904 31.24C65.7624 31.856 65.095 32.3327 64.2884 32.67C63.4964 32.9927 62.587 33.154 61.5604 33.154ZM75.1139 33.154C73.8819 33.154 72.7819 32.8973 71.8139 32.384C70.8606 31.856 70.1126 31.1373 69.5699 30.228C69.0273 29.3187 68.7559 28.2847 68.7559 27.126C68.7559 25.9527 69.0273 24.9187 69.5699 24.024C70.1126 23.1147 70.8606 22.4033 71.8139 21.89C72.7819 21.3767 73.8819 21.12 75.1139 21.12C76.2579 21.12 77.2626 21.3547 78.1279 21.824C79.0079 22.2787 79.6753 22.9533 80.1299 23.848L78.0179 25.08C77.6659 24.5227 77.2333 24.112 76.7199 23.848C76.2213 23.584 75.6786 23.452 75.0919 23.452C74.4173 23.452 73.8086 23.5987 73.2659 23.892C72.7233 24.1853 72.2979 24.6107 71.9899 25.168C71.6819 25.7107 71.5279 26.3633 71.5279 27.126C71.5279 27.8887 71.6819 28.5487 71.9899 29.106C72.2979 29.6487 72.7233 30.0667 73.2659 30.36C73.8086 30.6533 74.4173 30.8 75.0919 30.8C75.6786 30.8 76.2213 30.668 76.7199 30.404C77.2333 30.14 77.6659 29.7293 78.0179 29.172L80.1299 30.404C79.6753 31.284 79.0079 31.966 78.1279 32.45C77.2626 32.9193 76.2579 33.154 75.1139 33.154ZM87.0795 33.154C85.7888 33.154 84.7915 32.824 84.0875 32.164C83.3835 31.4893 83.0315 30.4993 83.0315 29.194V18.656H85.7815V29.128C85.7815 29.6853 85.9208 30.118 86.1995 30.426C86.4928 30.734 86.8962 30.888 87.4095 30.888C88.0255 30.888 88.5388 30.7267 88.9495 30.404L89.7195 32.362C89.3968 32.626 89.0008 32.824 88.5315 32.956C88.0622 33.088 87.5782 33.154 87.0795 33.154ZM81.0955 23.54V21.34H88.9275V23.54H81.0955ZM91.9817 33V21.252H94.7317V33H91.9817ZM93.3677 19.316C92.8544 19.316 92.4291 19.1547 92.0917 18.832C91.7691 18.5093 91.6077 18.1207 91.6077 17.666C91.6077 17.1967 91.7691 16.808 92.0917 16.5C92.4291 16.1773 92.8544 16.016 93.3677 16.016C93.8811 16.016 94.2991 16.17 94.6217 16.478C94.9591 16.7713 95.1277 17.1453 95.1277 17.6C95.1277 18.084 94.9664 18.4947 94.6437 18.832C94.3211 19.1547 93.8957 19.316 93.3677 19.316ZM103.621 33.154C102.418 33.154 101.348 32.8973 100.409 32.384C99.4704 31.856 98.7298 31.1373 98.1871 30.228C97.6444 29.3187 97.3731 28.2847 97.3731 27.126C97.3731 25.9527 97.6444 24.9187 98.1871 24.024C98.7298 23.1147 99.4704 22.4033 100.409 21.89C101.348 21.3767 102.418 21.12 103.621 21.12C104.838 21.12 105.916 21.3767 106.855 21.89C107.808 22.4033 108.549 23.1073 109.077 24.002C109.62 24.8967 109.891 25.938 109.891 27.126C109.891 28.2847 109.62 29.3187 109.077 30.228C108.549 31.1373 107.808 31.856 106.855 32.384C105.916 32.8973 104.838 33.154 103.621 33.154ZM103.621 30.8C104.296 30.8 104.897 30.6533 105.425 30.36C105.953 30.0667 106.364 29.6413 106.657 29.084C106.965 28.5267 107.119 27.874 107.119 27.126C107.119 26.3633 106.965 25.7107 106.657 25.168C106.364 24.6107 105.953 24.1853 105.425 23.892C104.897 23.5987 104.303 23.452 103.643 23.452C102.968 23.452 102.367 23.5987 101.839 23.892C101.326 24.1853 100.915 24.6107 100.607 25.168C100.299 25.7107 100.145 26.3633 100.145 27.126C100.145 27.874 100.299 28.5267 100.607 29.084C100.915 29.6413 101.326 30.0667 101.839 30.36C102.367 30.6533 102.961 30.8 103.621 30.8ZM119.187 21.12C120.125 21.12 120.961 21.3033 121.695 21.67C122.443 22.0367 123.029 22.6013 123.455 23.364C123.88 24.112 124.093 25.08 124.093 26.268V33H121.343V26.62C121.343 25.5787 121.093 24.8013 120.595 24.288C120.111 23.7747 119.429 23.518 118.549 23.518C117.903 23.518 117.331 23.65 116.833 23.914C116.334 24.178 115.945 24.574 115.667 25.102C115.403 25.6153 115.271 26.268 115.271 27.06V33H112.521V21.252H115.139V24.42L114.677 23.452C115.087 22.704 115.681 22.132 116.459 21.736C117.251 21.3253 118.16 21.12 119.187 21.12ZM131.211 33.154C130.229 33.154 129.283 33.0293 128.373 32.78C127.479 32.516 126.767 32.2007 126.239 31.834L127.295 29.744C127.823 30.0813 128.454 30.36 129.187 30.58C129.921 30.8 130.654 30.91 131.387 30.91C132.253 30.91 132.876 30.7927 133.257 30.558C133.653 30.3233 133.851 30.008 133.851 29.612C133.851 29.2893 133.719 29.0473 133.455 28.886C133.191 28.71 132.847 28.578 132.421 28.49C131.996 28.402 131.519 28.3213 130.991 28.248C130.478 28.1747 129.957 28.0793 129.429 27.962C128.916 27.83 128.447 27.6467 128.021 27.412C127.596 27.1627 127.251 26.8327 126.987 26.422C126.723 26.0113 126.591 25.4687 126.591 24.794C126.591 24.046 126.804 23.4007 127.229 22.858C127.655 22.3007 128.249 21.8753 129.011 21.582C129.789 21.274 130.705 21.12 131.761 21.12C132.553 21.12 133.353 21.208 134.159 21.384C134.966 21.56 135.633 21.8093 136.161 22.132L135.105 24.222C134.548 23.8847 133.983 23.6573 133.411 23.54C132.854 23.408 132.297 23.342 131.739 23.342C130.903 23.342 130.28 23.4667 129.869 23.716C129.473 23.9653 129.275 24.2807 129.275 24.662C129.275 25.014 129.407 25.278 129.671 25.454C129.935 25.63 130.28 25.7693 130.705 25.872C131.131 25.9747 131.6 26.0627 132.113 26.136C132.641 26.1947 133.162 26.29 133.675 26.422C134.189 26.554 134.658 26.7373 135.083 26.972C135.523 27.192 135.875 27.5073 136.139 27.918C136.403 28.3287 136.535 28.864 136.535 29.524C136.535 30.2573 136.315 30.8953 135.875 31.438C135.45 31.9807 134.841 32.406 134.049 32.714C133.257 33.0073 132.311 33.154 131.211 33.154Z" fill="#5D87F2"/>
</svg>
