<svg width="88" height="24" viewBox="0 0 88 24" fill="none" xmlns="http://www.w3.org/2000/svg">
<mask id="mask0_57_100" style="mask-type:alpha" maskUnits="userSpaceOnUse" x="0" y="0" width="19" height="24">
<rect width="19" height="24" fill="white"/>
</mask>
<g mask="url(#mask0_57_100)">
<path d="M19 0H5C3.67441 0.00158786 2.40356 0.528882 1.46622 1.46622C0.528882 2.40356 0.00158786 3.67441 0 5L0 19C0.00158786 20.3256 0.528882 21.5964 1.46622 22.5338C2.40356 23.4711 3.67441 23.9984 5 24H19C20.3256 23.9984 21.5964 23.4711 22.5338 22.5338C23.4711 21.5964 23.9984 20.3256 24 19V5C23.9984 3.67441 23.4711 2.40356 22.5338 1.46622C21.5964 0.528882 20.3256 0.00158786 19 0V0ZM22 19C22 19.7956 21.6839 20.5587 21.1213 21.1213C20.5587 21.6839 19.7956 22 19 22H5C4.20435 22 3.44129 21.6839 2.87868 21.1213C2.31607 20.5587 2 19.7956 2 19V5C2 4.20435 2.31607 3.44129 2.87868 2.87868C3.44129 2.31607 4.20435 2 5 2H19C19.7956 2 20.5587 2.31607 21.1213 2.87868C21.6839 3.44129 22 4.20435 22 5V19Z" fill="#5D87F2"/>
</g>
<mask id="mask1_57_100" style="mask-type:alpha" maskUnits="userSpaceOnUse" x="69" y="0" width="19" height="24">
<rect width="19" height="24" transform="matrix(-1 0 0 1 88 0)" fill="white"/>
</mask>
<g mask="url(#mask1_57_100)">
<path d="M69 0H83C84.3256 0.00158786 85.5964 0.528882 86.5338 1.46622C87.4711 2.40356 87.9984 3.67441 88 5V19C87.9984 20.3256 87.4711 21.5964 86.5338 22.5338C85.5964 23.4711 84.3256 23.9984 83 24H69C67.6744 23.9984 66.4036 23.4711 65.4662 22.5338C64.5289 21.5964 64.0016 20.3256 64 19V5C64.0016 3.67441 64.5289 2.40356 65.4662 1.46622C66.4036 0.528882 67.6744 0.00158786 69 0V0ZM66 19C66 19.7956 66.3161 20.5587 66.8787 21.1213C67.4413 21.6839 68.2044 22 69 22H83C83.7956 22 84.5587 21.6839 85.1213 21.1213C85.6839 20.5587 86 19.7956 86 19V5C86 4.20435 85.6839 3.44129 85.1213 2.87868C84.5587 2.31607 83.7956 2 83 2H69C68.2044 2 67.4413 2.31607 66.8787 2.87868C66.3161 3.44129 66 4.20435 66 5V19Z" fill="#5D87F2"/>
</g>
<path d="M2.67 17.1L6.3 6.738H7.532L3.902 17.1H2.67ZM9.9593 16.077C9.3433 16.077 8.7933 15.9487 8.3093 15.692C7.83264 15.428 7.45864 15.0687 7.1873 14.614C6.91597 14.1593 6.7803 13.6423 6.7803 13.063C6.7803 12.4763 6.91597 11.9593 7.1873 11.512C7.45864 11.0573 7.83264 10.7017 8.3093 10.445C8.7933 10.1883 9.3433 10.06 9.9593 10.06C10.5313 10.06 11.0336 10.1773 11.4663 10.412C11.9063 10.6393 12.24 10.9767 12.4673 11.424L11.4113 12.04C11.2353 11.7613 11.019 11.556 10.7623 11.424C10.513 11.292 10.2416 11.226 9.9483 11.226C9.61097 11.226 9.30664 11.2993 9.0353 11.446C8.76397 11.5927 8.5513 11.8053 8.3973 12.084C8.2433 12.3553 8.1663 12.6817 8.1663 13.063C8.1663 13.4443 8.2433 13.7743 8.3973 14.053C8.5513 14.3243 8.76397 14.5333 9.0353 14.68C9.30664 14.8267 9.61097 14.9 9.9483 14.9C10.2416 14.9 10.513 14.834 10.7623 14.702C11.019 14.57 11.2353 14.3647 11.4113 14.086L12.4673 14.702C12.24 15.142 11.9063 15.483 11.4663 15.725C11.0336 15.9597 10.5313 16.077 9.9593 16.077ZM16.21 16.077C15.6086 16.077 15.0733 15.9487 14.604 15.692C14.1346 15.428 13.7643 15.0687 13.493 14.614C13.2216 14.1593 13.086 13.6423 13.086 13.063C13.086 12.4763 13.2216 11.9593 13.493 11.512C13.7643 11.0573 14.1346 10.7017 14.604 10.445C15.0733 10.1883 15.6086 10.06 16.21 10.06C16.8186 10.06 17.3576 10.1883 17.827 10.445C18.3036 10.7017 18.674 11.0537 18.938 11.501C19.2093 11.9483 19.345 12.469 19.345 13.063C19.345 13.6423 19.2093 14.1593 18.938 14.614C18.674 15.0687 18.3036 15.428 17.827 15.692C17.3576 15.9487 16.8186 16.077 16.21 16.077ZM16.21 14.9C16.5473 14.9 16.848 14.8267 17.112 14.68C17.376 14.5333 17.5813 14.3207 17.728 14.042C17.882 13.7633 17.959 13.437 17.959 13.063C17.959 12.6817 17.882 12.3553 17.728 12.084C17.5813 11.8053 17.376 11.5927 17.112 11.446C16.848 11.2993 16.551 11.226 16.221 11.226C15.8836 11.226 15.583 11.2993 15.319 11.446C15.0623 11.5927 14.857 11.8053 14.703 12.084C14.549 12.3553 14.472 12.6817 14.472 13.063C14.472 13.437 14.549 13.7633 14.703 14.042C14.857 14.3207 15.0623 14.5333 15.319 14.68C15.583 14.8267 15.88 14.9 16.21 14.9ZM20.6598 16V7.838H22.0348V16H20.6598ZM23.8395 16V7.838H25.2145V16H23.8395ZM29.7802 16.077C29.1275 16.077 28.5555 15.9487 28.0642 15.692C27.5802 15.428 27.2025 15.0687 26.9312 14.614C26.6672 14.1593 26.5352 13.6423 26.5352 13.063C26.5352 12.4763 26.6635 11.9593 26.9202 11.512C27.1842 11.0573 27.5435 10.7017 27.9982 10.445C28.4602 10.1883 28.9845 10.06 29.5712 10.06C30.1432 10.06 30.6529 10.1847 31.1002 10.434C31.5475 10.6833 31.8995 11.0353 32.1562 11.49C32.4129 11.9447 32.5412 12.48 32.5412 13.096C32.5412 13.1547 32.5375 13.2207 32.5302 13.294C32.5302 13.3673 32.5265 13.437 32.5192 13.503H27.6242V12.59H31.7932L31.2542 12.876C31.2615 12.5387 31.1919 12.2417 31.0452 11.985C30.8985 11.7283 30.6969 11.5267 30.4402 11.38C30.1909 11.2333 29.9012 11.16 29.5712 11.16C29.2339 11.16 28.9369 11.2333 28.6802 11.38C28.4309 11.5267 28.2329 11.732 28.0862 11.996C27.9469 12.2527 27.8772 12.557 27.8772 12.909V13.129C27.8772 13.481 27.9579 13.7927 28.1192 14.064C28.2805 14.3353 28.5079 14.5443 28.8012 14.691C29.0945 14.8377 29.4319 14.911 29.8132 14.911C30.1432 14.911 30.4402 14.8597 30.7042 14.757C30.9682 14.6543 31.2029 14.493 31.4082 14.273L32.1452 15.12C31.8812 15.428 31.5475 15.6663 31.1442 15.835C30.7482 15.9963 30.2935 16.077 29.7802 16.077ZM36.557 16.077C35.941 16.077 35.391 15.9487 34.907 15.692C34.4303 15.428 34.0563 15.0687 33.785 14.614C33.5136 14.1593 33.378 13.6423 33.378 13.063C33.378 12.4763 33.5136 11.9593 33.785 11.512C34.0563 11.0573 34.4303 10.7017 34.907 10.445C35.391 10.1883 35.941 10.06 36.557 10.06C37.129 10.06 37.6313 10.1773 38.064 10.412C38.504 10.6393 38.8376 10.9767 39.065 11.424L38.009 12.04C37.833 11.7613 37.6166 11.556 37.36 11.424C37.1106 11.292 36.8393 11.226 36.546 11.226C36.2086 11.226 35.9043 11.2993 35.633 11.446C35.3616 11.5927 35.149 11.8053 34.995 12.084C34.841 12.3553 34.764 12.6817 34.764 13.063C34.764 13.4443 34.841 13.7743 34.995 14.053C35.149 14.3243 35.3616 14.5333 35.633 14.68C35.9043 14.8267 36.2086 14.9 36.546 14.9C36.8393 14.9 37.1106 14.834 37.36 14.702C37.6166 14.57 37.833 14.3647 38.009 14.086L39.065 14.702C38.8376 15.142 38.504 15.483 38.064 15.725C37.6313 15.9597 37.129 16.077 36.557 16.077ZM42.5398 16.077C41.8944 16.077 41.3958 15.912 41.0438 15.582C40.6918 15.2447 40.5158 14.7497 40.5158 14.097V8.828H41.8908V14.064C41.8908 14.3427 41.9604 14.559 42.0998 14.713C42.2464 14.867 42.4481 14.944 42.7048 14.944C43.0128 14.944 43.2694 14.8633 43.4748 14.702L43.8598 15.681C43.6984 15.813 43.5004 15.912 43.2658 15.978C43.0311 16.044 42.7891 16.077 42.5398 16.077ZM39.5478 11.27V10.17H43.4638V11.27H39.5478ZM44.9909 16V10.126H46.3659V16H44.9909ZM45.6839 9.158C45.4272 9.158 45.2145 9.07733 45.0459 8.916C44.8845 8.75467 44.8039 8.56033 44.8039 8.333C44.8039 8.09833 44.8845 7.904 45.0459 7.75C45.2145 7.58867 45.4272 7.508 45.6839 7.508C45.9405 7.508 46.1495 7.585 46.3109 7.739C46.4795 7.88567 46.5639 8.07267 46.5639 8.3C46.5639 8.542 46.4832 8.74733 46.3219 8.916C46.1605 9.07733 45.9479 9.158 45.6839 9.158ZM50.8106 16.077C50.2092 16.077 49.6739 15.9487 49.2046 15.692C48.7352 15.428 48.3649 15.0687 48.0936 14.614C47.8222 14.1593 47.6866 13.6423 47.6866 13.063C47.6866 12.4763 47.8222 11.9593 48.0936 11.512C48.3649 11.0573 48.7352 10.7017 49.2046 10.445C49.6739 10.1883 50.2092 10.06 50.8106 10.06C51.4192 10.06 51.9582 10.1883 52.4276 10.445C52.9042 10.7017 53.2746 11.0537 53.5386 11.501C53.8099 11.9483 53.9456 12.469 53.9456 13.063C53.9456 13.6423 53.8099 14.1593 53.5386 14.614C53.2746 15.0687 52.9042 15.428 52.4276 15.692C51.9582 15.9487 51.4192 16.077 50.8106 16.077ZM50.8106 14.9C51.1479 14.9 51.4486 14.8267 51.7126 14.68C51.9766 14.5333 52.1819 14.3207 52.3286 14.042C52.4826 13.7633 52.5596 13.437 52.5596 13.063C52.5596 12.6817 52.4826 12.3553 52.3286 12.084C52.1819 11.8053 51.9766 11.5927 51.7126 11.446C51.4486 11.2993 51.1516 11.226 50.8216 11.226C50.4842 11.226 50.1836 11.2993 49.9196 11.446C49.6629 11.5927 49.4576 11.8053 49.3036 12.084C49.1496 12.3553 49.0726 12.6817 49.0726 13.063C49.0726 13.437 49.1496 13.7633 49.3036 14.042C49.4576 14.3207 49.6629 14.5333 49.9196 14.68C50.1836 14.8267 50.4806 14.9 50.8106 14.9ZM58.5934 10.06C59.0627 10.06 59.4807 10.1517 59.8474 10.335C60.2214 10.5183 60.5147 10.8007 60.7274 11.182C60.9401 11.556 61.0464 12.04 61.0464 12.634V16H59.6714V12.81C59.6714 12.2893 59.5467 11.9007 59.2974 11.644C59.0554 11.3873 58.7144 11.259 58.2744 11.259C57.9517 11.259 57.6657 11.325 57.4164 11.457C57.1671 11.589 56.9727 11.787 56.8334 12.051C56.7014 12.3077 56.6354 12.634 56.6354 13.03V16H55.2604V10.126H56.5694V11.71L56.3384 11.226C56.5437 10.852 56.8407 10.566 57.2294 10.368C57.6254 10.1627 58.0801 10.06 58.5934 10.06ZM64.6057 16.077C64.1143 16.077 63.6413 16.0147 63.1867 15.89C62.7393 15.758 62.3837 15.6003 62.1197 15.417L62.6477 14.372C62.9117 14.5407 63.227 14.68 63.5937 14.79C63.9603 14.9 64.327 14.955 64.6937 14.955C65.1263 14.955 65.438 14.8963 65.6287 14.779C65.8267 14.6617 65.9257 14.504 65.9257 14.306C65.9257 14.1447 65.8597 14.0237 65.7277 13.943C65.5957 13.855 65.4233 13.789 65.2107 13.745C64.998 13.701 64.7597 13.6607 64.4957 13.624C64.239 13.5873 63.9787 13.5397 63.7147 13.481C63.458 13.415 63.2233 13.3233 63.0107 13.206C62.798 13.0813 62.6257 12.9163 62.4937 12.711C62.3617 12.5057 62.2957 12.2343 62.2957 11.897C62.2957 11.523 62.402 11.2003 62.6147 10.929C62.8273 10.6503 63.1243 10.4377 63.5057 10.291C63.8943 10.137 64.3527 10.06 64.8807 10.06C65.2767 10.06 65.6763 10.104 66.0797 10.192C66.483 10.28 66.8167 10.4047 67.0807 10.566L66.5527 11.611C66.274 11.4423 65.9917 11.3287 65.7057 11.27C65.427 11.204 65.1483 11.171 64.8697 11.171C64.4517 11.171 64.14 11.2333 63.9347 11.358C63.7367 11.4827 63.6377 11.6403 63.6377 11.831C63.6377 12.007 63.7037 12.139 63.8357 12.227C63.9677 12.315 64.14 12.3847 64.3527 12.436C64.5653 12.4873 64.8 12.5313 65.0567 12.568C65.3207 12.5973 65.581 12.645 65.8377 12.711C66.0943 12.777 66.329 12.8687 66.5417 12.986C66.7617 13.096 66.9377 13.2537 67.0697 13.459C67.2017 13.6643 67.2677 13.932 67.2677 14.262C67.2677 14.6287 67.1577 14.9477 66.9377 15.219C66.725 15.4903 66.4207 15.703 66.0247 15.857C65.6287 16.0037 65.1557 16.077 64.6057 16.077ZM68.1548 13.514V12.37H71.1798V13.514H68.1548ZM76.3032 16V14.812L76.2262 14.559V12.48C76.2262 12.0767 76.1052 11.765 75.8632 11.545C75.6212 11.3177 75.2546 11.204 74.7632 11.204C74.4332 11.204 74.1069 11.2553 73.7842 11.358C73.4689 11.4607 73.2012 11.6037 72.9812 11.787L72.4422 10.786C72.7576 10.544 73.1316 10.3643 73.5642 10.247C74.0042 10.1223 74.4589 10.06 74.9282 10.06C75.7789 10.06 76.4352 10.2653 76.8972 10.676C77.3666 11.0793 77.6012 11.7063 77.6012 12.557V16H76.3032ZM74.4552 16.077C74.0152 16.077 73.6302 16.0037 73.3002 15.857C72.9702 15.703 72.7136 15.494 72.5302 15.23C72.3542 14.9587 72.2662 14.6543 72.2662 14.317C72.2662 13.987 72.3432 13.69 72.4972 13.426C72.6586 13.162 72.9189 12.953 73.2782 12.799C73.6376 12.645 74.1142 12.568 74.7082 12.568H76.4132V13.481H74.8072C74.3379 13.481 74.0226 13.558 73.8612 13.712C73.6999 13.8587 73.6192 14.042 73.6192 14.262C73.6192 14.5113 73.7182 14.7093 73.9162 14.856C74.1142 15.0027 74.3892 15.076 74.7412 15.076C75.0786 15.076 75.3792 14.999 75.6432 14.845C75.9146 14.691 76.1089 14.4637 76.2262 14.163L76.4572 14.988C76.3252 15.3327 76.0869 15.6003 75.7422 15.791C75.4049 15.9817 74.9759 16.077 74.4552 16.077ZM79.3659 16V7.838H80.7409V16H79.3659ZM82.5456 16V7.838H83.9206V16H82.5456Z" fill="#5D87F2"/>
<mask id="mask2_57_100" style="mask-type:alpha" maskUnits="userSpaceOnUse" x="45" y="0" width="14" height="24">
<rect width="14" height="24" transform="translate(45)" fill="white"/>
</mask>
<g mask="url(#mask2_57_100)">
<path d="M59 0H45C43.6744 0.00158786 42.4036 0.528882 41.4662 1.46622C40.5289 2.40356 40.0016 3.6744 40 5V19C40.0016 20.3256 40.5289 21.5964 41.4662 22.5338C42.4036 23.4711 43.6744 23.9984 45 24H59C60.3256 23.9984 61.5964 23.4711 62.5338 22.5338C63.4711 21.5964 63.9984 20.3256 64 19V5C63.9984 3.6744 63.4711 2.40356 62.5338 1.46622C61.5964 0.528882 60.3256 0.00158786 59 0V0ZM62 19C62 19.7956 61.6839 20.5587 61.1213 21.1213C60.5587 21.6839 59.7956 22 59 22H45C44.2044 22 43.4413 21.6839 42.8787 21.1213C42.3161 20.5587 42 19.7956 42 19V5C42 4.20435 42.3161 3.44129 42.8787 2.87868C43.4413 2.31607 44.2044 2 45 2H59C59.7956 2 60.5587 2.31607 61.1213 2.87868C61.6839 3.44129 62 4.20435 62 5V19Z" fill="#5D87F2"/>
</g>
<mask id="mask3_57_100" style="mask-type:alpha" maskUnits="userSpaceOnUse" x="57" y="0" width="14" height="24">
<rect width="14" height="24" transform="translate(57)" fill="white"/>
</mask>
<g mask="url(#mask3_57_100)">
<path d="M71 0H57C55.6744 0.00158786 54.4036 0.528882 53.4662 1.46622C52.5289 2.40356 52.0016 3.6744 52 5V19C52.0016 20.3256 52.5289 21.5964 53.4662 22.5338C54.4036 23.4711 55.6744 23.9984 57 24H71C72.3256 23.9984 73.5964 23.4711 74.5338 22.5338C75.4711 21.5964 75.9984 20.3256 76 19V5C75.9984 3.6744 75.4711 2.40356 74.5338 1.46622C73.5964 0.528882 72.3256 0.00158786 71 0V0ZM74 19C74 19.7956 73.6839 20.5587 73.1213 21.1213C72.5587 21.6839 71.7956 22 71 22H57C56.2044 22 55.4413 21.6839 54.8787 21.1213C54.3161 20.5587 54 19.7956 54 19V5C54 4.20435 54.3161 3.44129 54.8787 2.87868C55.4413 2.31607 56.2044 2 57 2H71C71.7956 2 72.5587 2.31607 73.1213 2.87868C73.6839 3.44129 74 4.20435 74 5V19Z" fill="#5D87F2"/>
</g>
<mask id="mask4_57_100" style="mask-type:alpha" maskUnits="userSpaceOnUse" x="33" y="0" width="14" height="24">
<rect width="14" height="24" transform="translate(33)" fill="white"/>
</mask>
<g mask="url(#mask4_57_100)">
<path d="M47 0H33C31.6744 0.00158786 30.4036 0.528882 29.4662 1.46622C28.5289 2.40356 28.0016 3.6744 28 5V19C28.0016 20.3256 28.5289 21.5964 29.4662 22.5338C30.4036 23.4711 31.6744 23.9984 33 24H47C48.3256 23.9984 49.5964 23.4711 50.5338 22.5338C51.4711 21.5964 51.9984 20.3256 52 19V5C51.9984 3.6744 51.4711 2.40356 50.5338 1.46622C49.5964 0.528882 48.3256 0.00158786 47 0V0ZM50 19C50 19.7956 49.6839 20.5587 49.1213 21.1213C48.5587 21.6839 47.7956 22 47 22H33C32.2044 22 31.4413 21.6839 30.8787 21.1213C30.3161 20.5587 30 19.7956 30 19V5C30 4.20435 30.3161 3.44129 30.8787 2.87868C31.4413 2.31607 32.2044 2 33 2H47C47.7956 2 48.5587 2.31607 49.1213 2.87868C49.6839 3.44129 50 4.20435 50 5V19Z" fill="#5D87F2"/>
</g>
<mask id="mask5_57_100" style="mask-type:alpha" maskUnits="userSpaceOnUse" x="15" y="0" width="14" height="24">
<rect width="14" height="24" transform="translate(15)" fill="white"/>
</mask>
<g mask="url(#mask5_57_100)">
<path d="M29 0H15C13.6744 0.00158786 12.4036 0.528882 11.4662 1.46622C10.5289 2.40356 10.0016 3.6744 10 5L10 19C10.0016 20.3256 10.5289 21.5964 11.4662 22.5338C12.4036 23.4711 13.6744 23.9984 15 24H29C30.3256 23.9984 31.5964 23.4711 32.5338 22.5338C33.4711 21.5964 33.9984 20.3256 34 19V5C33.9984 3.6744 33.4711 2.40356 32.5338 1.46622C31.5964 0.528882 30.3256 0.00158786 29 0V0ZM32 19C32 19.7956 31.6839 20.5587 31.1213 21.1213C30.5587 21.6839 29.7956 22 29 22H15C14.2044 22 13.4413 21.6839 12.8787 21.1213C12.3161 20.5587 12 19.7956 12 19V5C12 4.20435 12.3161 3.44129 12.8787 2.87868C13.4413 2.31607 14.2044 2 15 2H29C29.7956 2 30.5587 2.31607 31.1213 2.87868C31.6839 3.44129 32 4.20435 32 5V19Z" fill="#5D87F2"/>
</g>
<mask id="mask6_57_100" style="mask-type:alpha" maskUnits="userSpaceOnUse" x="23" y="0" width="14" height="24">
<rect width="14" height="24" transform="translate(23)" fill="white"/>
</mask>
<g mask="url(#mask6_57_100)">
<path d="M37 0H23C21.6744 0.00158786 20.4036 0.528882 19.4662 1.46622C18.5289 2.40356 18.0016 3.6744 18 5V19C18.0016 20.3256 18.5289 21.5964 19.4662 22.5338C20.4036 23.4711 21.6744 23.9984 23 24H37C38.3256 23.9984 39.5964 23.4711 40.5338 22.5338C41.4711 21.5964 41.9984 20.3256 42 19V5C41.9984 3.6744 41.4711 2.40356 40.5338 1.46622C39.5964 0.528882 38.3256 0.00158786 37 0V0ZM40 19C40 19.7956 39.6839 20.5587 39.1213 21.1213C38.5587 21.6839 37.7956 22 37 22H23C22.2044 22 21.4413 21.6839 20.8787 21.1213C20.3161 20.5587 20 19.7956 20 19V5C20 4.20435 20.3161 3.44129 20.8787 2.87868C21.4413 2.31607 22.2044 2 23 2H37C37.7956 2 38.5587 2.31607 39.1213 2.87868C39.6839 3.44129 40 4.20435 40 5V19Z" fill="#5D87F2"/>
</g>
</svg>
