<svg width="176" height="48" viewBox="0 0 176 48" fill="none" xmlns="http://www.w3.org/2000/svg">
<rect x="2" y="2" width="172" height="44" rx="3" stroke="#5D87F2" stroke-width="4" stroke-linejoin="round"/>
<path d="M5.34 35.2L12.6 14.476H15.064L7.804 35.2H5.34ZM19.9186 33.154C18.6866 33.154 17.5866 32.8973 16.6186 32.384C15.6653 31.856 14.9173 31.1373 14.3746 30.228C13.8319 29.3187 13.5606 28.2847 13.5606 27.126C13.5606 25.9527 13.8319 24.9187 14.3746 24.024C14.9173 23.1147 15.6653 22.4033 16.6186 21.89C17.5866 21.3767 18.6866 21.12 19.9186 21.12C21.0626 21.12 22.0673 21.3547 22.9326 21.824C23.8126 22.2787 24.4799 22.9533 24.9346 23.848L22.8226 25.08C22.4706 24.5227 22.0379 24.112 21.5246 23.848C21.0259 23.584 20.4833 23.452 19.8966 23.452C19.2219 23.452 18.6133 23.5987 18.0706 23.892C17.5279 24.1853 17.1026 24.6107 16.7946 25.168C16.4866 25.7107 16.3326 26.3633 16.3326 27.126C16.3326 27.8887 16.4866 28.5487 16.7946 29.106C17.1026 29.6487 17.5279 30.0667 18.0706 30.36C18.6133 30.6533 19.2219 30.8 19.8966 30.8C20.4833 30.8 21.0259 30.668 21.5246 30.404C22.0379 30.14 22.4706 29.7293 22.8226 29.172L24.9346 30.404C24.4799 31.284 23.8126 31.966 22.9326 32.45C22.0673 32.9193 21.0626 33.154 19.9186 33.154ZM32.4199 33.154C31.2173 33.154 30.1466 32.8973 29.2079 32.384C28.2693 31.856 27.5286 31.1373 26.9859 30.228C26.4433 29.3187 26.1719 28.2847 26.1719 27.126C26.1719 25.9527 26.4433 24.9187 26.9859 24.024C27.5286 23.1147 28.2693 22.4033 29.2079 21.89C30.1466 21.3767 31.2173 21.12 32.4199 21.12C33.6373 21.12 34.7153 21.3767 35.6539 21.89C36.6073 22.4033 37.3479 23.1073 37.8759 24.002C38.4186 24.8967 38.6899 25.938 38.6899 27.126C38.6899 28.2847 38.4186 29.3187 37.8759 30.228C37.3479 31.1373 36.6073 31.856 35.6539 32.384C34.7153 32.8973 33.6373 33.154 32.4199 33.154ZM32.4199 30.8C33.0946 30.8 33.6959 30.6533 34.2239 30.36C34.7519 30.0667 35.1626 29.6413 35.4559 29.084C35.7639 28.5267 35.9179 27.874 35.9179 27.126C35.9179 26.3633 35.7639 25.7107 35.4559 25.168C35.1626 24.6107 34.7519 24.1853 34.2239 23.892C33.6959 23.5987 33.1019 23.452 32.4419 23.452C31.7673 23.452 31.1659 23.5987 30.6379 23.892C30.1246 24.1853 29.7139 24.6107 29.4059 25.168C29.0979 25.7107 28.9439 26.3633 28.9439 27.126C28.9439 27.874 29.0979 28.5267 29.4059 29.084C29.7139 29.6413 30.1246 30.0667 30.6379 30.36C31.1659 30.6533 31.7599 30.8 32.4199 30.8ZM41.3196 33V16.676H44.0696V33H41.3196ZM47.679 33V16.676H50.429V33H47.679ZM59.5604 33.154C58.255 33.154 57.111 32.8973 56.1284 32.384C55.1604 31.856 54.405 31.1373 53.8624 30.228C53.3344 29.3187 53.0704 28.2847 53.0704 27.126C53.0704 25.9527 53.327 24.9187 53.8404 24.024C54.3684 23.1147 55.087 22.4033 55.9964 21.89C56.9204 21.3767 57.969 21.12 59.1424 21.12C60.2864 21.12 61.3057 21.3693 62.2004 21.868C63.095 22.3667 63.799 23.0707 64.3124 23.98C64.8257 24.8893 65.0824 25.96 65.0824 27.192C65.0824 27.3093 65.075 27.4413 65.0604 27.588C65.0604 27.7347 65.053 27.874 65.0384 28.006H55.2484V26.18H63.5864L62.5084 26.752C62.523 26.0773 62.3837 25.4833 62.0904 24.97C61.797 24.4567 61.3937 24.0533 60.8804 23.76C60.3817 23.4667 59.8024 23.32 59.1424 23.32C58.4677 23.32 57.8737 23.4667 57.3604 23.76C56.8617 24.0533 56.4657 24.464 56.1724 24.992C55.8937 25.5053 55.7544 26.114 55.7544 26.818V27.258C55.7544 27.962 55.9157 28.5853 56.2384 29.128C56.561 29.6707 57.0157 30.0887 57.6024 30.382C58.189 30.6753 58.8637 30.822 59.6264 30.822C60.2864 30.822 60.8804 30.7193 61.4084 30.514C61.9364 30.3087 62.4057 29.986 62.8164 29.546L64.2904 31.24C63.7624 31.856 63.095 32.3327 62.2884 32.67C61.4964 32.9927 60.587 33.154 59.5604 33.154ZM73.1139 33.154C71.8819 33.154 70.7819 32.8973 69.8139 32.384C68.8606 31.856 68.1126 31.1373 67.5699 30.228C67.0273 29.3187 66.7559 28.2847 66.7559 27.126C66.7559 25.9527 67.0273 24.9187 67.5699 24.024C68.1126 23.1147 68.8606 22.4033 69.8139 21.89C70.7819 21.3767 71.8819 21.12 73.1139 21.12C74.2579 21.12 75.2626 21.3547 76.1279 21.824C77.0079 22.2787 77.6753 22.9533 78.1299 23.848L76.0179 25.08C75.6659 24.5227 75.2333 24.112 74.7199 23.848C74.2213 23.584 73.6786 23.452 73.0919 23.452C72.4173 23.452 71.8086 23.5987 71.2659 23.892C70.7233 24.1853 70.2979 24.6107 69.9899 25.168C69.6819 25.7107 69.5279 26.3633 69.5279 27.126C69.5279 27.8887 69.6819 28.5487 69.9899 29.106C70.2979 29.6487 70.7233 30.0667 71.2659 30.36C71.8086 30.6533 72.4173 30.8 73.0919 30.8C73.6786 30.8 74.2213 30.668 74.7199 30.404C75.2333 30.14 75.6659 29.7293 76.0179 29.172L78.1299 30.404C77.6753 31.284 77.0079 31.966 76.1279 32.45C75.2626 32.9193 74.2579 33.154 73.1139 33.154ZM85.0795 33.154C83.7888 33.154 82.7915 32.824 82.0875 32.164C81.3835 31.4893 81.0315 30.4993 81.0315 29.194V18.656H83.7815V29.128C83.7815 29.6853 83.9208 30.118 84.1995 30.426C84.4928 30.734 84.8962 30.888 85.4095 30.888C86.0255 30.888 86.5388 30.7267 86.9495 30.404L87.7195 32.362C87.3968 32.626 87.0008 32.824 86.5315 32.956C86.0622 33.088 85.5782 33.154 85.0795 33.154ZM79.0955 23.54V21.34H86.9275V23.54H79.0955ZM89.9817 33V21.252H92.7317V33H89.9817ZM91.3677 19.316C90.8544 19.316 90.4291 19.1547 90.0917 18.832C89.7691 18.5093 89.6077 18.1207 89.6077 17.666C89.6077 17.1967 89.7691 16.808 90.0917 16.5C90.4291 16.1773 90.8544 16.016 91.3677 16.016C91.8811 16.016 92.2991 16.17 92.6217 16.478C92.9591 16.7713 93.1277 17.1453 93.1277 17.6C93.1277 18.084 92.9664 18.4947 92.6437 18.832C92.3211 19.1547 91.8957 19.316 91.3677 19.316ZM101.621 33.154C100.418 33.154 99.3478 32.8973 98.4091 32.384C97.4704 31.856 96.7298 31.1373 96.1871 30.228C95.6444 29.3187 95.3731 28.2847 95.3731 27.126C95.3731 25.9527 95.6444 24.9187 96.1871 24.024C96.7298 23.1147 97.4704 22.4033 98.4091 21.89C99.3478 21.3767 100.418 21.12 101.621 21.12C102.838 21.12 103.916 21.3767 104.855 21.89C105.808 22.4033 106.549 23.1073 107.077 24.002C107.62 24.8967 107.891 25.938 107.891 27.126C107.891 28.2847 107.62 29.3187 107.077 30.228C106.549 31.1373 105.808 31.856 104.855 32.384C103.916 32.8973 102.838 33.154 101.621 33.154ZM101.621 30.8C102.296 30.8 102.897 30.6533 103.425 30.36C103.953 30.0667 104.364 29.6413 104.657 29.084C104.965 28.5267 105.119 27.874 105.119 27.126C105.119 26.3633 104.965 25.7107 104.657 25.168C104.364 24.6107 103.953 24.1853 103.425 23.892C102.897 23.5987 102.303 23.452 101.643 23.452C100.968 23.452 100.367 23.5987 99.8391 23.892C99.3258 24.1853 98.9151 24.6107 98.6071 25.168C98.2991 25.7107 98.1451 26.3633 98.1451 27.126C98.1451 27.874 98.2991 28.5267 98.6071 29.084C98.9151 29.6413 99.3258 30.0667 99.8391 30.36C100.367 30.6533 100.961 30.8 101.621 30.8ZM117.187 21.12C118.125 21.12 118.961 21.3033 119.695 21.67C120.443 22.0367 121.029 22.6013 121.455 23.364C121.88 24.112 122.093 25.08 122.093 26.268V33H119.343V26.62C119.343 25.5787 119.093 24.8013 118.595 24.288C118.111 23.7747 117.429 23.518 116.549 23.518C115.903 23.518 115.331 23.65 114.833 23.914C114.334 24.178 113.945 24.574 113.667 25.102C113.403 25.6153 113.271 26.268 113.271 27.06V33H110.521V21.252H113.139V24.42L112.677 23.452C113.087 22.704 113.681 22.132 114.459 21.736C115.251 21.3253 116.16 21.12 117.187 21.12ZM129.211 33.154C128.229 33.154 127.283 33.0293 126.373 32.78C125.479 32.516 124.767 32.2007 124.239 31.834L125.295 29.744C125.823 30.0813 126.454 30.36 127.187 30.58C127.921 30.8 128.654 30.91 129.387 30.91C130.253 30.91 130.876 30.7927 131.257 30.558C131.653 30.3233 131.851 30.008 131.851 29.612C131.851 29.2893 131.719 29.0473 131.455 28.886C131.191 28.71 130.847 28.578 130.421 28.49C129.996 28.402 129.519 28.3213 128.991 28.248C128.478 28.1747 127.957 28.0793 127.429 27.962C126.916 27.83 126.447 27.6467 126.021 27.412C125.596 27.1627 125.251 26.8327 124.987 26.422C124.723 26.0113 124.591 25.4687 124.591 24.794C124.591 24.046 124.804 23.4007 125.229 22.858C125.655 22.3007 126.249 21.8753 127.011 21.582C127.789 21.274 128.705 21.12 129.761 21.12C130.553 21.12 131.353 21.208 132.159 21.384C132.966 21.56 133.633 21.8093 134.161 22.132L133.105 24.222C132.548 23.8847 131.983 23.6573 131.411 23.54C130.854 23.408 130.297 23.342 129.739 23.342C128.903 23.342 128.28 23.4667 127.869 23.716C127.473 23.9653 127.275 24.2807 127.275 24.662C127.275 25.014 127.407 25.278 127.671 25.454C127.935 25.63 128.28 25.7693 128.705 25.872C129.131 25.9747 129.6 26.0627 130.113 26.136C130.641 26.1947 131.162 26.29 131.675 26.422C132.189 26.554 132.658 26.7373 133.083 26.972C133.523 27.192 133.875 27.5073 134.139 27.918C134.403 28.3287 134.535 28.864 134.535 29.524C134.535 30.2573 134.315 30.8953 133.875 31.438C133.45 31.9807 132.841 32.406 132.049 32.714C131.257 33.0073 130.311 33.154 129.211 33.154ZM136.31 28.028V25.74H142.36V28.028H136.31ZM152.606 33V30.624L152.452 30.118V25.96C152.452 25.1533 152.21 24.53 151.726 24.09C151.242 23.6353 150.509 23.408 149.526 23.408C148.866 23.408 148.214 23.5107 147.568 23.716C146.938 23.9213 146.402 24.2073 145.962 24.574L144.884 22.572C145.515 22.088 146.263 21.7287 147.128 21.494C148.008 21.2447 148.918 21.12 149.856 21.12C151.558 21.12 152.87 21.5307 153.794 22.352C154.733 23.1587 155.202 24.4127 155.202 26.114V33H152.606ZM148.91 33.154C148.03 33.154 147.26 33.0073 146.6 32.714C145.94 32.406 145.427 31.988 145.06 31.46C144.708 30.9173 144.532 30.3087 144.532 29.634C144.532 28.974 144.686 28.38 144.994 27.852C145.317 27.324 145.838 26.906 146.556 26.598C147.275 26.29 148.228 26.136 149.416 26.136H152.826V27.962H149.614C148.676 27.962 148.045 28.116 147.722 28.424C147.4 28.7173 147.238 29.084 147.238 29.524C147.238 30.0227 147.436 30.4187 147.832 30.712C148.228 31.0053 148.778 31.152 149.482 31.152C150.157 31.152 150.758 30.998 151.286 30.69C151.829 30.382 152.218 29.9273 152.452 29.326L152.914 30.976C152.65 31.6653 152.174 32.2007 151.484 32.582C150.81 32.9633 149.952 33.154 148.91 33.154ZM158.732 33V16.676H161.482V33H158.732ZM165.091 33V16.676H167.841V33H165.091Z" fill="#5D87F2"/>
</svg>
