<svg width="114" height="48" viewBox="0 0 114 48" fill="none" xmlns="http://www.w3.org/2000/svg">
<rect x="2" y="2" width="110" height="44" rx="3" stroke="#5D87F2" stroke-width="4" stroke-linejoin="round"/>
<path d="M12.34 35.2L19.6 14.476H22.064L14.804 35.2H12.34ZM36.3566 21.12C37.2953 21.12 38.1239 21.3033 38.8426 21.67C39.5759 22.0367 40.1479 22.6013 40.5586 23.364C40.9693 24.112 41.1746 25.08 41.1746 26.268V33H38.4246V26.62C38.4246 25.5787 38.1973 24.8013 37.7426 24.288C37.2879 23.7747 36.6353 23.518 35.7846 23.518C35.1833 23.518 34.6479 23.65 34.1786 23.914C33.7239 24.178 33.3646 24.5667 33.1006 25.08C32.8513 25.5933 32.7266 26.246 32.7266 27.038V33H29.9766V26.62C29.9766 25.5787 29.7493 24.8013 29.2946 24.288C28.8399 23.7747 28.1873 23.518 27.3366 23.518C26.7353 23.518 26.1999 23.65 25.7306 23.914C25.2759 24.178 24.9166 24.5667 24.6526 25.08C24.4033 25.5933 24.2786 26.246 24.2786 27.038V33H21.5286V21.252H24.1466V24.376L23.6846 23.452C24.0806 22.6893 24.6526 22.11 25.4006 21.714C26.1633 21.318 27.0286 21.12 27.9966 21.12C29.0966 21.12 30.0499 21.3913 30.8566 21.934C31.6779 22.4767 32.2206 23.298 32.4846 24.398L31.4066 24.024C31.7879 23.144 32.4186 22.44 33.2986 21.912C34.1786 21.384 35.1979 21.12 36.3566 21.12ZM49.9903 33.154C48.7876 33.154 47.7169 32.8973 46.7783 32.384C45.8396 31.856 45.0989 31.1373 44.5563 30.228C44.0136 29.3187 43.7423 28.2847 43.7423 27.126C43.7423 25.9527 44.0136 24.9187 44.5563 24.024C45.0989 23.1147 45.8396 22.4033 46.7783 21.89C47.7169 21.3767 48.7876 21.12 49.9903 21.12C51.2076 21.12 52.2856 21.3767 53.2243 21.89C54.1776 22.4033 54.9183 23.1073 55.4463 24.002C55.9889 24.8967 56.2603 25.938 56.2603 27.126C56.2603 28.2847 55.9889 29.3187 55.4463 30.228C54.9183 31.1373 54.1776 31.856 53.2243 32.384C52.2856 32.8973 51.2076 33.154 49.9903 33.154ZM49.9903 30.8C50.6649 30.8 51.2663 30.6533 51.7943 30.36C52.3223 30.0667 52.7329 29.6413 53.0263 29.084C53.3343 28.5267 53.4883 27.874 53.4883 27.126C53.4883 26.3633 53.3343 25.7107 53.0263 25.168C52.7329 24.6107 52.3223 24.1853 51.7943 23.892C51.2663 23.5987 50.6723 23.452 50.0123 23.452C49.3376 23.452 48.7363 23.5987 48.2083 23.892C47.6949 24.1853 47.2843 24.6107 46.9763 25.168C46.6683 25.7107 46.5143 26.3633 46.5143 27.126C46.5143 27.874 46.6683 28.5267 46.9763 29.084C47.2843 29.6413 47.6949 30.0667 48.2083 30.36C48.7363 30.6533 49.3303 30.8 49.9903 30.8ZM61.6917 33L56.6537 21.252H59.5137L63.8477 31.614H62.4397L66.9277 21.252H69.5677L64.5297 33H61.6917ZM71.2864 33V21.252H74.0364V33H71.2864ZM72.6724 19.316C72.1591 19.316 71.7338 19.1547 71.3964 18.832C71.0738 18.5093 70.9124 18.1207 70.9124 17.666C70.9124 17.1967 71.0738 16.808 71.3964 16.5C71.7338 16.1773 72.1591 16.016 72.6724 16.016C73.1858 16.016 73.6038 16.17 73.9264 16.478C74.2638 16.7713 74.4324 17.1453 74.4324 17.6C74.4324 18.084 74.2711 18.4947 73.9484 18.832C73.6258 19.1547 73.2004 19.316 72.6724 19.316ZM83.1678 33.154C81.8625 33.154 80.7185 32.8973 79.7358 32.384C78.7678 31.856 78.0125 31.1373 77.4698 30.228C76.9418 29.3187 76.6778 28.2847 76.6778 27.126C76.6778 25.9527 76.9345 24.9187 77.4478 24.024C77.9758 23.1147 78.6945 22.4033 79.6038 21.89C80.5278 21.3767 81.5765 21.12 82.7498 21.12C83.8938 21.12 84.9131 21.3693 85.8078 21.868C86.7025 22.3667 87.4065 23.0707 87.9198 23.98C88.4331 24.8893 88.6898 25.96 88.6898 27.192C88.6898 27.3093 88.6825 27.4413 88.6678 27.588C88.6678 27.7347 88.6605 27.874 88.6458 28.006H78.8558V26.18H87.1938L86.1158 26.752C86.1305 26.0773 85.9911 25.4833 85.6978 24.97C85.4045 24.4567 85.0011 24.0533 84.4878 23.76C83.9891 23.4667 83.4098 23.32 82.7498 23.32C82.0751 23.32 81.4811 23.4667 80.9678 23.76C80.4691 24.0533 80.0731 24.464 79.7798 24.992C79.5011 25.5053 79.3618 26.114 79.3618 26.818V27.258C79.3618 27.962 79.5231 28.5853 79.8458 29.128C80.1685 29.6707 80.6231 30.0887 81.2098 30.382C81.7965 30.6753 82.4711 30.822 83.2338 30.822C83.8938 30.822 84.4878 30.7193 85.0158 30.514C85.5438 30.3087 86.0131 29.986 86.4238 29.546L87.8978 31.24C87.3698 31.856 86.7025 32.3327 85.8958 32.67C85.1038 32.9927 84.1945 33.154 83.1678 33.154ZM94.9613 33.154C93.9787 33.154 93.0327 33.0293 92.1233 32.78C91.2287 32.516 90.5173 32.2007 89.9893 31.834L91.0453 29.744C91.5733 30.0813 92.204 30.36 92.9373 30.58C93.6707 30.8 94.404 30.91 95.1373 30.91C96.0027 30.91 96.626 30.7927 97.0073 30.558C97.4033 30.3233 97.6013 30.008 97.6013 29.612C97.6013 29.2893 97.4693 29.0473 97.2053 28.886C96.9413 28.71 96.5967 28.578 96.1713 28.49C95.746 28.402 95.2693 28.3213 94.7413 28.248C94.228 28.1747 93.7073 28.0793 93.1793 27.962C92.666 27.83 92.1967 27.6467 91.7713 27.412C91.346 27.1627 91.0013 26.8327 90.7373 26.422C90.4733 26.0113 90.3413 25.4687 90.3413 24.794C90.3413 24.046 90.554 23.4007 90.9793 22.858C91.4047 22.3007 91.9987 21.8753 92.7613 21.582C93.5387 21.274 94.4553 21.12 95.5113 21.12C96.3033 21.12 97.1027 21.208 97.9093 21.384C98.716 21.56 99.3833 21.8093 99.9113 22.132L98.8553 24.222C98.298 23.8847 97.7333 23.6573 97.1613 23.54C96.604 23.408 96.0467 23.342 95.4893 23.342C94.6533 23.342 94.03 23.4667 93.6193 23.716C93.2233 23.9653 93.0253 24.2807 93.0253 24.662C93.0253 25.014 93.1573 25.278 93.4213 25.454C93.6853 25.63 94.03 25.7693 94.4553 25.872C94.8807 25.9747 95.35 26.0627 95.8633 26.136C96.3913 26.1947 96.912 26.29 97.4253 26.422C97.9387 26.554 98.408 26.7373 98.8333 26.972C99.2733 27.192 99.6253 27.5073 99.8893 27.918C100.153 28.3287 100.285 28.864 100.285 29.524C100.285 30.2573 100.065 30.8953 99.6253 31.438C99.2 31.9807 98.5913 32.406 97.7993 32.714C97.0073 33.0073 96.0613 33.154 94.9613 33.154Z" fill="#5D87F2"/>
</svg>
