<svg width="57" height="24" viewBox="0 0 57 24" fill="none" xmlns="http://www.w3.org/2000/svg">
<mask id="mask0_74_9" style="mask-type:alpha" maskUnits="userSpaceOnUse" x="0" y="0" width="19" height="24">
<rect width="19" height="24" fill="white"/>
</mask>
<g mask="url(#mask0_74_9)">
<path d="M19 0H5C3.6744 0.00158786 2.40356 0.528882 1.46622 1.46622C0.528882 2.40356 0.00158786 3.6744 0 5L0 19C0.00158786 20.3256 0.528882 21.5964 1.46622 22.5338C2.40356 23.4711 3.6744 23.9984 5 24H19C20.3256 23.9984 21.5964 23.4711 22.5338 22.5338C23.4711 21.5964 23.9984 20.3256 24 19V5C23.9984 3.6744 23.4711 2.40356 22.5338 1.46622C21.5964 0.528882 20.3256 0.00158786 19 0V0ZM22 19C22 19.7956 21.6839 20.5587 21.1213 21.1213C20.5587 21.6839 19.7956 22 19 22H5C4.20435 22 3.44129 21.6839 2.87868 21.1213C2.31607 20.5587 2 19.7956 2 19V5C2 4.20435 2.31607 3.44129 2.87868 2.87868C3.44129 2.31607 4.20435 2 5 2H19C19.7956 2 20.5587 2.31607 21.1213 2.87868C21.6839 3.44129 22 4.20435 22 5V19Z" fill="#5D87F2"/>
</g>
<mask id="mask1_74_9" style="mask-type:alpha" maskUnits="userSpaceOnUse" x="38" y="0" width="19" height="24">
<rect width="19" height="24" transform="matrix(-1 0 0 1 57 0)" fill="white"/>
</mask>
<g mask="url(#mask1_74_9)">
<path d="M38 0H52C53.3256 0.00158786 54.5964 0.528882 55.5338 1.46622C56.4711 2.40356 56.9984 3.6744 57 5V19C56.9984 20.3256 56.4711 21.5964 55.5338 22.5338C54.5964 23.4711 53.3256 23.9984 52 24H38C36.6744 23.9984 35.4036 23.4711 34.4662 22.5338C33.5289 21.5964 33.0016 20.3256 33 19V5C33.0016 3.6744 33.5289 2.40356 34.4662 1.46622C35.4036 0.528882 36.6744 0.00158786 38 0V0ZM35 19C35 19.7956 35.3161 20.5587 35.8787 21.1213C36.4413 21.6839 37.2044 22 38 22H52C52.7956 22 53.5587 21.6839 54.1213 21.1213C54.6839 20.5587 55 19.7956 55 19V5C55 4.20435 54.6839 3.44129 54.1213 2.87868C53.5587 2.31607 52.7956 2 52 2H38C37.2044 2 36.4413 2.31607 35.8787 2.87868C35.3161 3.44129 35 4.20435 35 5V19Z" fill="#5D87F2"/>
</g>
<mask id="mask2_74_9" style="mask-type:alpha" maskUnits="userSpaceOnUse" x="24" y="0" width="14" height="24">
<rect width="14" height="24" transform="translate(24)" fill="white"/>
</mask>
<g mask="url(#mask2_74_9)">
<path d="M38 0H24C22.6744 0.00158786 21.4036 0.528882 20.4662 1.46622C19.5289 2.40356 19.0016 3.6744 19 5V19C19.0016 20.3256 19.5289 21.5964 20.4662 22.5338C21.4036 23.4711 22.6744 23.9984 24 24H38C39.3256 23.9984 40.5964 23.4711 41.5338 22.5338C42.4711 21.5964 42.9984 20.3256 43 19V5C42.9984 3.6744 42.4711 2.40356 41.5338 1.46622C40.5964 0.528882 39.3256 0.00158786 38 0V0ZM41 19C41 19.7956 40.6839 20.5587 40.1213 21.1213C39.5587 21.6839 38.7956 22 38 22H24C23.2044 22 22.4413 21.6839 21.8787 21.1213C21.3161 20.5587 21 19.7956 21 19V5C21 4.20435 21.3161 3.44129 21.8787 2.87868C22.4413 2.31607 23.2044 2 24 2H38C38.7956 2 39.5587 2.31607 40.1213 2.87868C40.6839 3.44129 41 4.20435 41 5V19Z" fill="#5D87F2"/>
</g>
<path d="M6.67 17.1L10.3 6.738H11.532L7.902 17.1H6.67ZM18.6783 10.06C19.1476 10.06 19.562 10.1517 19.9213 10.335C20.288 10.5183 20.574 10.8007 20.7793 11.182C20.9846 11.556 21.0873 12.04 21.0873 12.634V16H19.7123V12.81C19.7123 12.2893 19.5986 11.9007 19.3713 11.644C19.144 11.3873 18.8176 11.259 18.3923 11.259C18.0916 11.259 17.824 11.325 17.5893 11.457C17.362 11.589 17.1823 11.7833 17.0503 12.04C16.9256 12.2967 16.8633 12.623 16.8633 13.019V16H15.4883V12.81C15.4883 12.2893 15.3746 11.9007 15.1473 11.644C14.92 11.3873 14.5936 11.259 14.1683 11.259C13.8676 11.259 13.6 11.325 13.3653 11.457C13.138 11.589 12.9583 11.7833 12.8263 12.04C12.7016 12.2967 12.6393 12.623 12.6393 13.019V16H11.2643V10.126H12.5733V11.688L12.3423 11.226C12.5403 10.8447 12.8263 10.555 13.2003 10.357C13.5816 10.159 14.0143 10.06 14.4983 10.06C15.0483 10.06 15.525 10.1957 15.9283 10.467C16.339 10.7383 16.6103 11.149 16.7423 11.699L16.2033 11.512C16.394 11.072 16.7093 10.72 17.1493 10.456C17.5893 10.192 18.099 10.06 18.6783 10.06ZM25.4951 16.077C24.8938 16.077 24.3585 15.9487 23.8891 15.692C23.4198 15.428 23.0495 15.0687 22.7781 14.614C22.5068 14.1593 22.3711 13.6423 22.3711 13.063C22.3711 12.4763 22.5068 11.9593 22.7781 11.512C23.0495 11.0573 23.4198 10.7017 23.8891 10.445C24.3585 10.1883 24.8938 10.06 25.4951 10.06C26.1038 10.06 26.6428 10.1883 27.1121 10.445C27.5888 10.7017 27.9591 11.0537 28.2231 11.501C28.4945 11.9483 28.6301 12.469 28.6301 13.063C28.6301 13.6423 28.4945 14.1593 28.2231 14.614C27.9591 15.0687 27.5888 15.428 27.1121 15.692C26.6428 15.9487 26.1038 16.077 25.4951 16.077ZM25.4951 14.9C25.8325 14.9 26.1331 14.8267 26.3971 14.68C26.6611 14.5333 26.8665 14.3207 27.0131 14.042C27.1671 13.7633 27.2441 13.437 27.2441 13.063C27.2441 12.6817 27.1671 12.3553 27.0131 12.084C26.8665 11.8053 26.6611 11.5927 26.3971 11.446C26.1331 11.2993 25.8361 11.226 25.5061 11.226C25.1688 11.226 24.8681 11.2993 24.6041 11.446C24.3475 11.5927 24.1421 11.8053 23.9881 12.084C23.8341 12.3553 23.7571 12.6817 23.7571 13.063C23.7571 13.437 23.8341 13.7633 23.9881 14.042C24.1421 14.3207 24.3475 14.5333 24.6041 14.68C24.8681 14.8267 25.1651 14.9 25.4951 14.9ZM31.3458 16L28.8268 10.126H30.2568L32.4238 15.307H31.7198L33.9638 10.126H35.2838L32.7648 16H31.3458ZM36.1432 16V10.126H37.5182V16H36.1432ZM36.8362 9.158C36.5795 9.158 36.3669 9.07733 36.1982 8.916C36.0369 8.75467 35.9562 8.56033 35.9562 8.333C35.9562 8.09833 36.0369 7.904 36.1982 7.75C36.3669 7.58867 36.5795 7.508 36.8362 7.508C37.0929 7.508 37.3019 7.585 37.4632 7.739C37.6319 7.88567 37.7162 8.07267 37.7162 8.3C37.7162 8.542 37.6355 8.74733 37.4742 8.916C37.3129 9.07733 37.1002 9.158 36.8362 9.158ZM42.0839 16.077C41.4312 16.077 40.8592 15.9487 40.3679 15.692C39.8839 15.428 39.5062 15.0687 39.2349 14.614C38.9709 14.1593 38.8389 13.6423 38.8389 13.063C38.8389 12.4763 38.9672 11.9593 39.2239 11.512C39.4879 11.0573 39.8472 10.7017 40.3019 10.445C40.7639 10.1883 41.2882 10.06 41.8749 10.06C42.4469 10.06 42.9566 10.1847 43.4039 10.434C43.8512 10.6833 44.2032 11.0353 44.4599 11.49C44.7166 11.9447 44.8449 12.48 44.8449 13.096C44.8449 13.1547 44.8412 13.2207 44.8339 13.294C44.8339 13.3673 44.8302 13.437 44.8229 13.503H39.9279V12.59H44.0969L43.5579 12.876C43.5652 12.5387 43.4956 12.2417 43.3489 11.985C43.2022 11.7283 43.0006 11.5267 42.7439 11.38C42.4946 11.2333 42.2049 11.16 41.8749 11.16C41.5376 11.16 41.2406 11.2333 40.9839 11.38C40.7346 11.5267 40.5366 11.732 40.3899 11.996C40.2506 12.2527 40.1809 12.557 40.1809 12.909V13.129C40.1809 13.481 40.2616 13.7927 40.4229 14.064C40.5842 14.3353 40.8116 14.5443 41.1049 14.691C41.3982 14.8377 41.7356 14.911 42.1169 14.911C42.4469 14.911 42.7439 14.8597 43.0079 14.757C43.2719 14.6543 43.5066 14.493 43.7119 14.273L44.4489 15.12C44.1849 15.428 43.8512 15.6663 43.4479 15.835C43.0519 15.9963 42.5972 16.077 42.0839 16.077ZM47.9807 16.077C47.4893 16.077 47.0163 16.0147 46.5617 15.89C46.1143 15.758 45.7587 15.6003 45.4947 15.417L46.0227 14.372C46.2867 14.5407 46.602 14.68 46.9687 14.79C47.3353 14.9 47.702 14.955 48.0687 14.955C48.5013 14.955 48.813 14.8963 49.0037 14.779C49.2017 14.6617 49.3007 14.504 49.3007 14.306C49.3007 14.1447 49.2347 14.0237 49.1027 13.943C48.9707 13.855 48.7983 13.789 48.5857 13.745C48.373 13.701 48.1347 13.6607 47.8707 13.624C47.614 13.5873 47.3537 13.5397 47.0897 13.481C46.833 13.415 46.5983 13.3233 46.3857 13.206C46.173 13.0813 46.0007 12.9163 45.8687 12.711C45.7367 12.5057 45.6707 12.2343 45.6707 11.897C45.6707 11.523 45.777 11.2003 45.9897 10.929C46.2023 10.6503 46.4993 10.4377 46.8807 10.291C47.2693 10.137 47.7277 10.06 48.2557 10.06C48.6517 10.06 49.0513 10.104 49.4547 10.192C49.858 10.28 50.1917 10.4047 50.4557 10.566L49.9277 11.611C49.649 11.4423 49.3667 11.3287 49.0807 11.27C48.802 11.204 48.5233 11.171 48.2447 11.171C47.8267 11.171 47.515 11.2333 47.3097 11.358C47.1117 11.4827 47.0127 11.6403 47.0127 11.831C47.0127 12.007 47.0787 12.139 47.2107 12.227C47.3427 12.315 47.515 12.3847 47.7277 12.436C47.9403 12.4873 48.175 12.5313 48.4317 12.568C48.6957 12.5973 48.956 12.645 49.2127 12.711C49.4693 12.777 49.704 12.8687 49.9167 12.986C50.1367 13.096 50.3127 13.2537 50.4447 13.459C50.5767 13.6643 50.6427 13.932 50.6427 14.262C50.6427 14.6287 50.5327 14.9477 50.3127 15.219C50.1 15.4903 49.7957 15.703 49.3997 15.857C49.0037 16.0037 48.5307 16.077 47.9807 16.077Z" fill="#5D87F2"/>
<mask id="mask3_74_9" style="mask-type:alpha" maskUnits="userSpaceOnUse" x="17" y="0" width="14" height="24">
<rect width="14" height="24" transform="translate(17)" fill="white"/>
</mask>
<g mask="url(#mask3_74_9)">
<path d="M31 0H17C15.6744 0.00158786 14.4036 0.528882 13.4662 1.46622C12.5289 2.40356 12.0016 3.6744 12 5L12 19C12.0016 20.3256 12.5289 21.5964 13.4662 22.5338C14.4036 23.4711 15.6744 23.9984 17 24H31C32.3256 23.9984 33.5964 23.4711 34.5338 22.5338C35.4711 21.5964 35.9984 20.3256 36 19V5C35.9984 3.6744 35.4711 2.40356 34.5338 1.46622C33.5964 0.528882 32.3256 0.00158786 31 0V0ZM34 19C34 19.7956 33.6839 20.5587 33.1213 21.1213C32.5587 21.6839 31.7956 22 31 22H17C16.2044 22 15.4413 21.6839 14.8787 21.1213C14.3161 20.5587 14 19.7956 14 19V5C14 4.20435 14.3161 3.44129 14.8787 2.87868C15.4413 2.31607 16.2044 2 17 2H31C31.7956 2 32.5587 2.31607 33.1213 2.87868C33.6839 3.44129 34 4.20435 34 5V19Z" fill="#5D87F2"/>
</g>
</svg>
