<svg width="96" height="48" viewBox="0 0 96 48" fill="none" xmlns="http://www.w3.org/2000/svg">
<rect x="2" y="2" width="92" height="44" rx="3" stroke="#5D87F2" stroke-width="4" stroke-linejoin="round"/>
<path d="M10.34 35.2L17.6 14.476H20.064L12.804 35.2H10.34ZM23.1586 33.154C22.1759 33.154 21.2299 33.0293 20.3206 32.78C19.4259 32.516 18.7146 32.2007 18.1866 31.834L19.2426 29.744C19.7706 30.0813 20.4013 30.36 21.1346 30.58C21.8679 30.8 22.6013 30.91 23.3346 30.91C24.1999 30.91 24.8233 30.7927 25.2046 30.558C25.6006 30.3233 25.7986 30.008 25.7986 29.612C25.7986 29.2893 25.6666 29.0473 25.4026 28.886C25.1386 28.71 24.7939 28.578 24.3686 28.49C23.9433 28.402 23.4666 28.3213 22.9386 28.248C22.4253 28.1747 21.9046 28.0793 21.3766 27.962C20.8633 27.83 20.3939 27.6467 19.9686 27.412C19.5433 27.1627 19.1986 26.8327 18.9346 26.422C18.6706 26.0113 18.5386 25.4687 18.5386 24.794C18.5386 24.046 18.7513 23.4007 19.1766 22.858C19.6019 22.3007 20.1959 21.8753 20.9586 21.582C21.7359 21.274 22.6526 21.12 23.7086 21.12C24.5006 21.12 25.2999 21.208 26.1066 21.384C26.9133 21.56 27.5806 21.8093 28.1086 22.132L27.0526 24.222C26.4953 23.8847 25.9306 23.6573 25.3586 23.54C24.8013 23.408 24.2439 23.342 23.6866 23.342C22.8506 23.342 22.2273 23.4667 21.8166 23.716C21.4206 23.9653 21.2226 24.2807 21.2226 24.662C21.2226 25.014 21.3546 25.278 21.6186 25.454C21.8826 25.63 22.2273 25.7693 22.6526 25.872C23.0779 25.9747 23.5473 26.0627 24.0606 26.136C24.5886 26.1947 25.1093 26.29 25.6226 26.422C26.1359 26.554 26.6053 26.7373 27.0306 26.972C27.4706 27.192 27.8226 27.5073 28.0866 27.918C28.3506 28.3287 28.4826 28.864 28.4826 29.524C28.4826 30.2573 28.2626 30.8953 27.8226 31.438C27.3973 31.9807 26.7886 32.406 25.9966 32.714C25.2046 33.0073 24.2586 33.154 23.1586 33.154ZM36.3729 33.154C35.0675 33.154 33.9235 32.8973 32.9409 32.384C31.9729 31.856 31.2175 31.1373 30.6749 30.228C30.1469 29.3187 29.8829 28.2847 29.8829 27.126C29.8829 25.9527 30.1395 24.9187 30.6529 24.024C31.1809 23.1147 31.8995 22.4033 32.8089 21.89C33.7329 21.3767 34.7815 21.12 35.9549 21.12C37.0989 21.12 38.1182 21.3693 39.0129 21.868C39.9075 22.3667 40.6115 23.0707 41.1249 23.98C41.6382 24.8893 41.8949 25.96 41.8949 27.192C41.8949 27.3093 41.8875 27.4413 41.8729 27.588C41.8729 27.7347 41.8655 27.874 41.8509 28.006H32.0609V26.18H40.3989L39.3209 26.752C39.3355 26.0773 39.1962 25.4833 38.9029 24.97C38.6095 24.4567 38.2062 24.0533 37.6929 23.76C37.1942 23.4667 36.6149 23.32 35.9549 23.32C35.2802 23.32 34.6862 23.4667 34.1729 23.76C33.6742 24.0533 33.2782 24.464 32.9849 24.992C32.7062 25.5053 32.5669 26.114 32.5669 26.818V27.258C32.5669 27.962 32.7282 28.5853 33.0509 29.128C33.3735 29.6707 33.8282 30.0887 34.4149 30.382C35.0015 30.6753 35.6762 30.822 36.4389 30.822C37.0989 30.822 37.6929 30.7193 38.2209 30.514C38.7489 30.3087 39.2182 29.986 39.6289 29.546L41.1029 31.24C40.5749 31.856 39.9075 32.3327 39.1009 32.67C38.3089 32.9927 37.3995 33.154 36.3729 33.154ZM44.5364 33V21.252H47.1544V24.486L46.8464 23.54C47.1984 22.748 47.7484 22.1467 48.4964 21.736C49.2591 21.3253 50.2051 21.12 51.3344 21.12V23.738C51.2171 23.7087 51.1071 23.694 51.0044 23.694C50.9018 23.6793 50.7991 23.672 50.6964 23.672C49.6551 23.672 48.8264 23.98 48.2104 24.596C47.5944 25.1973 47.2864 26.0993 47.2864 27.302V33H44.5364ZM53.6673 33V21.252H56.4173V33H53.6673ZM55.0533 19.316C54.5399 19.316 54.1146 19.1547 53.7773 18.832C53.4546 18.5093 53.2933 18.1207 53.2933 17.666C53.2933 17.1967 53.4546 16.808 53.7773 16.5C54.1146 16.1773 54.5399 16.016 55.0533 16.016C55.5666 16.016 55.9846 16.17 56.3073 16.478C56.6446 16.7713 56.8133 17.1453 56.8133 17.6C56.8133 18.084 56.6519 18.4947 56.3293 18.832C56.0066 19.1547 55.5813 19.316 55.0533 19.316ZM65.5487 33.154C64.2433 33.154 63.0993 32.8973 62.1167 32.384C61.1487 31.856 60.3933 31.1373 59.8507 30.228C59.3227 29.3187 59.0587 28.2847 59.0587 27.126C59.0587 25.9527 59.3153 24.9187 59.8287 24.024C60.3567 23.1147 61.0753 22.4033 61.9847 21.89C62.9087 21.3767 63.9573 21.12 65.1307 21.12C66.2747 21.12 67.294 21.3693 68.1887 21.868C69.0833 22.3667 69.7873 23.0707 70.3007 23.98C70.814 24.8893 71.0707 25.96 71.0707 27.192C71.0707 27.3093 71.0633 27.4413 71.0487 27.588C71.0487 27.7347 71.0413 27.874 71.0267 28.006H61.2367V26.18H69.5747L68.4967 26.752C68.5113 26.0773 68.372 25.4833 68.0787 24.97C67.7853 24.4567 67.382 24.0533 66.8687 23.76C66.37 23.4667 65.7907 23.32 65.1307 23.32C64.456 23.32 63.862 23.4667 63.3487 23.76C62.85 24.0533 62.454 24.464 62.1607 24.992C61.882 25.5053 61.7427 26.114 61.7427 26.818V27.258C61.7427 27.962 61.904 28.5853 62.2267 29.128C62.5493 29.6707 63.004 30.0887 63.5907 30.382C64.1773 30.6753 64.852 30.822 65.6147 30.822C66.2747 30.822 66.8687 30.7193 67.3967 30.514C67.9247 30.3087 68.394 29.986 68.8047 29.546L70.2787 31.24C69.7507 31.856 69.0833 32.3327 68.2767 32.67C67.4847 32.9927 66.5753 33.154 65.5487 33.154ZM77.3422 33.154C76.3595 33.154 75.4135 33.0293 74.5042 32.78C73.6095 32.516 72.8982 32.2007 72.3702 31.834L73.4262 29.744C73.9542 30.0813 74.5849 30.36 75.3182 30.58C76.0515 30.8 76.7849 30.91 77.5182 30.91C78.3835 30.91 79.0069 30.7927 79.3882 30.558C79.7842 30.3233 79.9822 30.008 79.9822 29.612C79.9822 29.2893 79.8502 29.0473 79.5862 28.886C79.3222 28.71 78.9775 28.578 78.5522 28.49C78.1269 28.402 77.6502 28.3213 77.1222 28.248C76.6089 28.1747 76.0882 28.0793 75.5602 27.962C75.0469 27.83 74.5775 27.6467 74.1522 27.412C73.7269 27.1627 73.3822 26.8327 73.1182 26.422C72.8542 26.0113 72.7222 25.4687 72.7222 24.794C72.7222 24.046 72.9349 23.4007 73.3602 22.858C73.7855 22.3007 74.3795 21.8753 75.1422 21.582C75.9195 21.274 76.8362 21.12 77.8922 21.12C78.6842 21.12 79.4835 21.208 80.2902 21.384C81.0969 21.56 81.7642 21.8093 82.2922 22.132L81.2362 24.222C80.6789 23.8847 80.1142 23.6573 79.5422 23.54C78.9849 23.408 78.4275 23.342 77.8702 23.342C77.0342 23.342 76.4109 23.4667 76.0002 23.716C75.6042 23.9653 75.4062 24.2807 75.4062 24.662C75.4062 25.014 75.5382 25.278 75.8022 25.454C76.0662 25.63 76.4109 25.7693 76.8362 25.872C77.2615 25.9747 77.7309 26.0627 78.2442 26.136C78.7722 26.1947 79.2929 26.29 79.8062 26.422C80.3195 26.554 80.7889 26.7373 81.2142 26.972C81.6542 27.192 82.0062 27.5073 82.2702 27.918C82.5342 28.3287 82.6662 28.864 82.6662 29.524C82.6662 30.2573 82.4462 30.8953 82.0062 31.438C81.5809 31.9807 80.9722 32.406 80.1802 32.714C79.3882 33.0073 78.4422 33.154 77.3422 33.154Z" fill="#5D87F2"/>
</svg>
