<svg width="48" height="24" viewBox="0 0 48 24" fill="none" xmlns="http://www.w3.org/2000/svg">
<mask id="mask0_57_161" style="mask-type:alpha" maskUnits="userSpaceOnUse" x="0" y="0" width="19" height="24">
<rect width="19" height="24" fill="white"/>
</mask>
<g mask="url(#mask0_57_161)">
<path d="M19 0H5C3.6744 0.00158786 2.40356 0.528882 1.46622 1.46622C0.528882 2.40356 0.00158786 3.6744 0 5L0 19C0.00158786 20.3256 0.528882 21.5964 1.46622 22.5338C2.40356 23.4711 3.6744 23.9984 5 24H19C20.3256 23.9984 21.5964 23.4711 22.5338 22.5338C23.4711 21.5964 23.9984 20.3256 24 19V5C23.9984 3.6744 23.4711 2.40356 22.5338 1.46622C21.5964 0.528882 20.3256 0.00158786 19 0V0ZM22 19C22 19.7956 21.6839 20.5587 21.1213 21.1213C20.5587 21.6839 19.7956 22 19 22H5C4.20435 22 3.44129 21.6839 2.87868 21.1213C2.31607 20.5587 2 19.7956 2 19V5C2 4.20435 2.31607 3.44129 2.87868 2.87868C3.44129 2.31607 4.20435 2 5 2H19C19.7956 2 20.5587 2.31607 21.1213 2.87868C21.6839 3.44129 22 4.20435 22 5V19Z" fill="#5D87F2"/>
</g>
<mask id="mask1_57_161" style="mask-type:alpha" maskUnits="userSpaceOnUse" x="29" y="0" width="19" height="24">
<rect width="19" height="24" transform="matrix(-1 0 0 1 48 0)" fill="white"/>
</mask>
<g mask="url(#mask1_57_161)">
<path d="M29 0H43C44.3256 0.00158786 45.5964 0.528882 46.5338 1.46622C47.4711 2.40356 47.9984 3.6744 48 5V19C47.9984 20.3256 47.4711 21.5964 46.5338 22.5338C45.5964 23.4711 44.3256 23.9984 43 24H29C27.6744 23.9984 26.4036 23.4711 25.4662 22.5338C24.5289 21.5964 24.0016 20.3256 24 19V5C24.0016 3.6744 24.5289 2.40356 25.4662 1.46622C26.4036 0.528882 27.6744 0.00158786 29 0V0ZM26 19C26 19.7956 26.3161 20.5587 26.8787 21.1213C27.4413 21.6839 28.2044 22 29 22H43C43.7956 22 44.5587 21.6839 45.1213 21.1213C45.6839 20.5587 46 19.7956 46 19V5C46 4.20435 45.6839 3.44129 45.1213 2.87868C44.5587 2.31607 43.7956 2 43 2H29C28.2044 2 27.4413 2.31607 26.8787 2.87868C26.3161 3.44129 26 4.20435 26 5V19Z" fill="#5D87F2"/>
</g>
<path d="M5.67 17.1L9.3 6.738H10.532L6.902 17.1H5.67ZM12.0793 16.077C11.588 16.077 11.115 16.0147 10.6603 15.89C10.213 15.758 9.8573 15.6003 9.5933 15.417L10.1213 14.372C10.3853 14.5407 10.7006 14.68 11.0673 14.79C11.434 14.9 11.8006 14.955 12.1673 14.955C12.6 14.955 12.9116 14.8963 13.1023 14.779C13.3003 14.6617 13.3993 14.504 13.3993 14.306C13.3993 14.1447 13.3333 14.0237 13.2013 13.943C13.0693 13.855 12.897 13.789 12.6843 13.745C12.4716 13.701 12.2333 13.6607 11.9693 13.624C11.7126 13.5873 11.4523 13.5397 11.1883 13.481C10.9316 13.415 10.697 13.3233 10.4843 13.206C10.2716 13.0813 10.0993 12.9163 9.9673 12.711C9.8353 12.5057 9.7693 12.2343 9.7693 11.897C9.7693 11.523 9.87564 11.2003 10.0883 10.929C10.301 10.6503 10.598 10.4377 10.9793 10.291C11.368 10.137 11.8263 10.06 12.3543 10.06C12.7503 10.06 13.15 10.104 13.5533 10.192C13.9566 10.28 14.2903 10.4047 14.5543 10.566L14.0263 11.611C13.7476 11.4423 13.4653 11.3287 13.1793 11.27C12.9006 11.204 12.622 11.171 12.3433 11.171C11.9253 11.171 11.6136 11.2333 11.4083 11.358C11.2103 11.4827 11.1113 11.6403 11.1113 11.831C11.1113 12.007 11.1773 12.139 11.3093 12.227C11.4413 12.315 11.6136 12.3847 11.8263 12.436C12.039 12.4873 12.2736 12.5313 12.5303 12.568C12.7943 12.5973 13.0546 12.645 13.3113 12.711C13.568 12.777 13.8026 12.8687 14.0153 12.986C14.2353 13.096 14.4113 13.2537 14.5433 13.459C14.6753 13.6643 14.7413 13.932 14.7413 14.262C14.7413 14.6287 14.6313 14.9477 14.4113 15.219C14.1986 15.4903 13.8943 15.703 13.4983 15.857C13.1023 16.0037 12.6293 16.077 12.0793 16.077ZM18.6864 16.077C18.0338 16.077 17.4618 15.9487 16.9704 15.692C16.4864 15.428 16.1088 15.0687 15.8374 14.614C15.5734 14.1593 15.4414 13.6423 15.4414 13.063C15.4414 12.4763 15.5698 11.9593 15.8264 11.512C16.0904 11.0573 16.4498 10.7017 16.9044 10.445C17.3664 10.1883 17.8908 10.06 18.4774 10.06C19.0494 10.06 19.5591 10.1847 20.0064 10.434C20.4538 10.6833 20.8058 11.0353 21.0624 11.49C21.3191 11.9447 21.4474 12.48 21.4474 13.096C21.4474 13.1547 21.4438 13.2207 21.4364 13.294C21.4364 13.3673 21.4328 13.437 21.4254 13.503H16.5304V12.59H20.6994L20.1604 12.876C20.1678 12.5387 20.0981 12.2417 19.9514 11.985C19.8048 11.7283 19.6031 11.5267 19.3464 11.38C19.0971 11.2333 18.8074 11.16 18.4774 11.16C18.1401 11.16 17.8431 11.2333 17.5864 11.38C17.3371 11.5267 17.1391 11.732 16.9924 11.996C16.8531 12.2527 16.7834 12.557 16.7834 12.909V13.129C16.7834 13.481 16.8641 13.7927 17.0254 14.064C17.1868 14.3353 17.4141 14.5443 17.7074 14.691C18.0008 14.8377 18.3381 14.911 18.7194 14.911C19.0494 14.911 19.3464 14.8597 19.6104 14.757C19.8744 14.6543 20.1091 14.493 20.3144 14.273L21.0514 15.12C20.7874 15.428 20.4538 15.6663 20.0504 15.835C19.6544 15.9963 19.1998 16.077 18.6864 16.077ZM22.7682 16V10.126H24.0772V11.743L23.9232 11.27C24.0992 10.874 24.3742 10.5733 24.7482 10.368C25.1295 10.1627 25.6025 10.06 26.1672 10.06V11.369C26.1085 11.3543 26.0535 11.347 26.0022 11.347C25.9509 11.3397 25.8995 11.336 25.8482 11.336C25.3275 11.336 24.9132 11.49 24.6052 11.798C24.2972 12.0987 24.1432 12.5497 24.1432 13.151V16H22.7682ZM27.3336 16V10.126H28.7086V16H27.3336ZM28.0266 9.158C27.77 9.158 27.5573 9.07733 27.3886 8.916C27.2273 8.75467 27.1466 8.56033 27.1466 8.333C27.1466 8.09833 27.2273 7.904 27.3886 7.75C27.5573 7.58867 27.77 7.508 28.0266 7.508C28.2833 7.508 28.4923 7.585 28.6536 7.739C28.8223 7.88567 28.9066 8.07267 28.9066 8.3C28.9066 8.542 28.826 8.74733 28.6646 8.916C28.5033 9.07733 28.2906 9.158 28.0266 9.158ZM33.2743 16.077C32.6217 16.077 32.0497 15.9487 31.5583 15.692C31.0743 15.428 30.6967 15.0687 30.4253 14.614C30.1613 14.1593 30.0293 13.6423 30.0293 13.063C30.0293 12.4763 30.1577 11.9593 30.4143 11.512C30.6783 11.0573 31.0377 10.7017 31.4923 10.445C31.9543 10.1883 32.4787 10.06 33.0653 10.06C33.6373 10.06 34.147 10.1847 34.5943 10.434C35.0417 10.6833 35.3937 11.0353 35.6503 11.49C35.907 11.9447 36.0353 12.48 36.0353 13.096C36.0353 13.1547 36.0317 13.2207 36.0243 13.294C36.0243 13.3673 36.0207 13.437 36.0133 13.503H31.1183V12.59H35.2873L34.7483 12.876C34.7557 12.5387 34.686 12.2417 34.5393 11.985C34.3927 11.7283 34.191 11.5267 33.9343 11.38C33.685 11.2333 33.3953 11.16 33.0653 11.16C32.728 11.16 32.431 11.2333 32.1743 11.38C31.925 11.5267 31.727 11.732 31.5803 11.996C31.441 12.2527 31.3713 12.557 31.3713 12.909V13.129C31.3713 13.481 31.452 13.7927 31.6133 14.064C31.7747 14.3353 32.002 14.5443 32.2953 14.691C32.5887 14.8377 32.926 14.911 33.3073 14.911C33.6373 14.911 33.9343 14.8597 34.1983 14.757C34.4623 14.6543 34.697 14.493 34.9023 14.273L35.6393 15.12C35.3753 15.428 35.0417 15.6663 34.6383 15.835C34.2423 15.9963 33.7877 16.077 33.2743 16.077ZM39.1711 16.077C38.6798 16.077 38.2068 16.0147 37.7521 15.89C37.3048 15.758 36.9491 15.6003 36.6851 15.417L37.2131 14.372C37.4771 14.5407 37.7924 14.68 38.1591 14.79C38.5258 14.9 38.8924 14.955 39.2591 14.955C39.6918 14.955 40.0034 14.8963 40.1941 14.779C40.3921 14.6617 40.4911 14.504 40.4911 14.306C40.4911 14.1447 40.4251 14.0237 40.2931 13.943C40.1611 13.855 39.9888 13.789 39.7761 13.745C39.5634 13.701 39.3251 13.6607 39.0611 13.624C38.8044 13.5873 38.5441 13.5397 38.2801 13.481C38.0234 13.415 37.7888 13.3233 37.5761 13.206C37.3634 13.0813 37.1911 12.9163 37.0591 12.711C36.9271 12.5057 36.8611 12.2343 36.8611 11.897C36.8611 11.523 36.9674 11.2003 37.1801 10.929C37.3928 10.6503 37.6898 10.4377 38.0711 10.291C38.4598 10.137 38.9181 10.06 39.4461 10.06C39.8421 10.06 40.2418 10.104 40.6451 10.192C41.0484 10.28 41.3821 10.4047 41.6461 10.566L41.1181 11.611C40.8394 11.4423 40.5571 11.3287 40.2711 11.27C39.9924 11.204 39.7138 11.171 39.4351 11.171C39.0171 11.171 38.7054 11.2333 38.5001 11.358C38.3021 11.4827 38.2031 11.6403 38.2031 11.831C38.2031 12.007 38.2691 12.139 38.4011 12.227C38.5331 12.315 38.7054 12.3847 38.9181 12.436C39.1308 12.4873 39.3654 12.5313 39.6221 12.568C39.8861 12.5973 40.1464 12.645 40.4031 12.711C40.6598 12.777 40.8944 12.8687 41.1071 12.986C41.3271 13.096 41.5031 13.2537 41.6351 13.459C41.7671 13.6643 41.8331 13.932 41.8331 14.262C41.8331 14.6287 41.7231 14.9477 41.5031 15.219C41.2904 15.4903 40.9861 15.703 40.5901 15.857C40.1941 16.0037 39.7211 16.077 39.1711 16.077Z" fill="#5D87F2"/>
<mask id="mask2_57_161" style="mask-type:alpha" maskUnits="userSpaceOnUse" x="17" y="0" width="14" height="24">
<rect width="14" height="24" transform="translate(17)" fill="white"/>
</mask>
<g mask="url(#mask2_57_161)">
<path d="M31 0H17C15.6744 0.00158786 14.4036 0.528882 13.4662 1.46622C12.5289 2.40356 12.0016 3.6744 12 5L12 19C12.0016 20.3256 12.5289 21.5964 13.4662 22.5338C14.4036 23.4711 15.6744 23.9984 17 24H31C32.3256 23.9984 33.5964 23.4711 34.5338 22.5338C35.4711 21.5964 35.9984 20.3256 36 19V5C35.9984 3.6744 35.4711 2.40356 34.5338 1.46622C33.5964 0.528882 32.3256 0.00158786 31 0V0ZM34 19C34 19.7956 33.6839 20.5587 33.1213 21.1213C32.5587 21.6839 31.7956 22 31 22H17C16.2044 22 15.4413 21.6839 14.8787 21.1213C14.3161 20.5587 14 19.7956 14 19V5C14 4.20435 14.3161 3.44129 14.8787 2.87868C15.4413 2.31607 16.2044 2 17 2H31C31.7956 2 32.5587 2.31607 33.1213 2.87868C33.6839 3.44129 34 4.20435 34 5V19Z" fill="#5D87F2"/>
</g>
</svg>
