<svg width="100" height="48" viewBox="0 0 100 48" fill="none" xmlns="http://www.w3.org/2000/svg">
<rect x="2" y="2" width="96" height="44" rx="3" stroke="#5D87F2" stroke-width="4" stroke-linejoin="round"/>
<path d="M10.34 35.2L17.6 14.476H20.064L12.804 35.2H10.34ZM23.1586 33.154C22.1759 33.154 21.2299 33.0293 20.3206 32.78C19.4259 32.516 18.7146 32.2007 18.1866 31.834L19.2426 29.744C19.7706 30.0813 20.4013 30.36 21.1346 30.58C21.8679 30.8 22.6013 30.91 23.3346 30.91C24.1999 30.91 24.8233 30.7927 25.2046 30.558C25.6006 30.3233 25.7986 30.008 25.7986 29.612C25.7986 29.2893 25.6666 29.0473 25.4026 28.886C25.1386 28.71 24.7939 28.578 24.3686 28.49C23.9433 28.402 23.4666 28.3213 22.9386 28.248C22.4253 28.1747 21.9046 28.0793 21.3766 27.962C20.8633 27.83 20.3939 27.6467 19.9686 27.412C19.5433 27.1627 19.1986 26.8327 18.9346 26.422C18.6706 26.0113 18.5386 25.4687 18.5386 24.794C18.5386 24.046 18.7513 23.4007 19.1766 22.858C19.6019 22.3007 20.1959 21.8753 20.9586 21.582C21.7359 21.274 22.6526 21.12 23.7086 21.12C24.5006 21.12 25.2999 21.208 26.1066 21.384C26.9133 21.56 27.5806 21.8093 28.1086 22.132L27.0526 24.222C26.4953 23.8847 25.9306 23.6573 25.3586 23.54C24.8013 23.408 24.2439 23.342 23.6866 23.342C22.8506 23.342 22.2273 23.4667 21.8166 23.716C21.4206 23.9653 21.2226 24.2807 21.2226 24.662C21.2226 25.014 21.3546 25.278 21.6186 25.454C21.8826 25.63 22.2273 25.7693 22.6526 25.872C23.0779 25.9747 23.5473 26.0627 24.0606 26.136C24.5886 26.1947 25.1093 26.29 25.6226 26.422C26.1359 26.554 26.6053 26.7373 27.0306 26.972C27.4706 27.192 27.8226 27.5073 28.0866 27.918C28.3506 28.3287 28.4826 28.864 28.4826 29.524C28.4826 30.2573 28.2626 30.8953 27.8226 31.438C27.3973 31.9807 26.7886 32.406 25.9966 32.714C25.2046 33.0073 24.2586 33.154 23.1586 33.154ZM37.5169 21.12C38.4555 21.12 39.2915 21.3033 40.0249 21.67C40.7729 22.0367 41.3595 22.6013 41.7849 23.364C42.2102 24.112 42.4229 25.08 42.4229 26.268V33H39.6729V26.62C39.6729 25.5787 39.4235 24.8013 38.9249 24.288C38.4409 23.7747 37.7589 23.518 36.8789 23.518C36.2335 23.518 35.6615 23.65 35.1629 23.914C34.6642 24.178 34.2755 24.574 33.9969 25.102C33.7329 25.6153 33.6009 26.268 33.6009 27.06V33H30.8509V16.676H33.6009V24.42L33.0069 23.452C33.4175 22.704 34.0115 22.132 34.7889 21.736C35.5809 21.3253 36.4902 21.12 37.5169 21.12ZM51.2129 33.154C50.0102 33.154 48.9396 32.8973 48.0009 32.384C47.0622 31.856 46.3216 31.1373 45.7789 30.228C45.2362 29.3187 44.9649 28.2847 44.9649 27.126C44.9649 25.9527 45.2362 24.9187 45.7789 24.024C46.3216 23.1147 47.0622 22.4033 48.0009 21.89C48.9396 21.3767 50.0102 21.12 51.2129 21.12C52.4302 21.12 53.5082 21.3767 54.4469 21.89C55.4002 22.4033 56.1409 23.1073 56.6689 24.002C57.2116 24.8967 57.4829 25.938 57.4829 27.126C57.4829 28.2847 57.2116 29.3187 56.6689 30.228C56.1409 31.1373 55.4002 31.856 54.4469 32.384C53.5082 32.8973 52.4302 33.154 51.2129 33.154ZM51.2129 30.8C51.8876 30.8 52.4889 30.6533 53.0169 30.36C53.5449 30.0667 53.9556 29.6413 54.2489 29.084C54.5569 28.5267 54.7109 27.874 54.7109 27.126C54.7109 26.3633 54.5569 25.7107 54.2489 25.168C53.9556 24.6107 53.5449 24.1853 53.0169 23.892C52.4889 23.5987 51.8949 23.452 51.2349 23.452C50.5602 23.452 49.9589 23.5987 49.4309 23.892C48.9176 24.1853 48.5069 24.6107 48.1989 25.168C47.8909 25.7107 47.7369 26.3633 47.7369 27.126C47.7369 27.874 47.8909 28.5267 48.1989 29.084C48.5069 29.6413 48.9176 30.0667 49.4309 30.36C49.9589 30.6533 50.5529 30.8 51.2129 30.8ZM62.3863 33L58.0743 21.252H60.6703L64.3663 31.614H63.1343L67.0063 21.252H69.3163L73.0783 31.614H71.8683L75.6743 21.252H78.1163L73.7823 33H71.1423L67.7103 23.826H68.5243L65.0263 33H62.3863ZM83.4867 33.154C82.5041 33.154 81.5581 33.0293 80.6487 32.78C79.7541 32.516 79.0427 32.2007 78.5147 31.834L79.5707 29.744C80.0987 30.0813 80.7294 30.36 81.4627 30.58C82.1961 30.8 82.9294 30.91 83.6627 30.91C84.5281 30.91 85.1514 30.7927 85.5327 30.558C85.9287 30.3233 86.1267 30.008 86.1267 29.612C86.1267 29.2893 85.9947 29.0473 85.7307 28.886C85.4667 28.71 85.1221 28.578 84.6967 28.49C84.2714 28.402 83.7947 28.3213 83.2667 28.248C82.7534 28.1747 82.2327 28.0793 81.7047 27.962C81.1914 27.83 80.7221 27.6467 80.2967 27.412C79.8714 27.1627 79.5267 26.8327 79.2627 26.422C78.9987 26.0113 78.8667 25.4687 78.8667 24.794C78.8667 24.046 79.0794 23.4007 79.5047 22.858C79.9301 22.3007 80.5241 21.8753 81.2867 21.582C82.0641 21.274 82.9807 21.12 84.0367 21.12C84.8287 21.12 85.6281 21.208 86.4347 21.384C87.2414 21.56 87.9087 21.8093 88.4367 22.132L87.3807 24.222C86.8234 23.8847 86.2587 23.6573 85.6867 23.54C85.1294 23.408 84.5721 23.342 84.0147 23.342C83.1787 23.342 82.5554 23.4667 82.1447 23.716C81.7487 23.9653 81.5507 24.2807 81.5507 24.662C81.5507 25.014 81.6827 25.278 81.9467 25.454C82.2107 25.63 82.5554 25.7693 82.9807 25.872C83.4061 25.9747 83.8754 26.0627 84.3887 26.136C84.9167 26.1947 85.4374 26.29 85.9507 26.422C86.4641 26.554 86.9334 26.7373 87.3587 26.972C87.7987 27.192 88.1507 27.5073 88.4147 27.918C88.6787 28.3287 88.8107 28.864 88.8107 29.524C88.8107 30.2573 88.5907 30.8953 88.1507 31.438C87.7254 31.9807 87.1167 32.406 86.3247 32.714C85.5327 33.0073 84.5867 33.154 83.4867 33.154Z" fill="#5D87F2"/>
</svg>
