<svg width="104" height="48" viewBox="0 0 104 48" fill="none" xmlns="http://www.w3.org/2000/svg">
<rect x="2" y="2" width="100" height="44" rx="3" stroke="#5D87F2" stroke-width="4" stroke-linejoin="round"/>
<path d="M11.34 35.2L18.6 14.476H21.064L13.804 35.2H11.34ZM24.1586 33.154C23.1759 33.154 22.2299 33.0293 21.3206 32.78C20.4259 32.516 19.7146 32.2007 19.1866 31.834L20.2426 29.744C20.7706 30.0813 21.4013 30.36 22.1346 30.58C22.8679 30.8 23.6013 30.91 24.3346 30.91C25.1999 30.91 25.8233 30.7927 26.2046 30.558C26.6006 30.3233 26.7986 30.008 26.7986 29.612C26.7986 29.2893 26.6666 29.0473 26.4026 28.886C26.1386 28.71 25.7939 28.578 25.3686 28.49C24.9433 28.402 24.4666 28.3213 23.9386 28.248C23.4253 28.1747 22.9046 28.0793 22.3766 27.962C21.8633 27.83 21.3939 27.6467 20.9686 27.412C20.5433 27.1627 20.1986 26.8327 19.9346 26.422C19.6706 26.0113 19.5386 25.4687 19.5386 24.794C19.5386 24.046 19.7513 23.4007 20.1766 22.858C20.6019 22.3007 21.1959 21.8753 21.9586 21.582C22.7359 21.274 23.6526 21.12 24.7086 21.12C25.5006 21.12 26.2999 21.208 27.1066 21.384C27.9133 21.56 28.5806 21.8093 29.1086 22.132L28.0526 24.222C27.4953 23.8847 26.9306 23.6573 26.3586 23.54C25.8013 23.408 25.2439 23.342 24.6866 23.342C23.8506 23.342 23.2273 23.4667 22.8166 23.716C22.4206 23.9653 22.2226 24.2807 22.2226 24.662C22.2226 25.014 22.3546 25.278 22.6186 25.454C22.8826 25.63 23.2273 25.7693 23.6526 25.872C24.0779 25.9747 24.5473 26.0627 25.0606 26.136C25.5886 26.1947 26.1093 26.29 26.6226 26.422C27.1359 26.554 27.6053 26.7373 28.0306 26.972C28.4706 27.192 28.8226 27.5073 29.0866 27.918C29.3506 28.3287 29.4826 28.864 29.4826 29.524C29.4826 30.2573 29.2626 30.8953 28.8226 31.438C28.3973 31.9807 27.7886 32.406 26.9966 32.714C26.2046 33.0073 25.2586 33.154 24.1586 33.154ZM38.5169 21.12C39.4555 21.12 40.2915 21.3033 41.0249 21.67C41.7729 22.0367 42.3595 22.6013 42.7849 23.364C43.2102 24.112 43.4229 25.08 43.4229 26.268V33H40.6729V26.62C40.6729 25.5787 40.4235 24.8013 39.9249 24.288C39.4409 23.7747 38.7589 23.518 37.8789 23.518C37.2335 23.518 36.6615 23.65 36.1629 23.914C35.6642 24.178 35.2755 24.574 34.9969 25.102C34.7329 25.6153 34.6009 26.268 34.6009 27.06V33H31.8509V16.676H34.6009V24.42L34.0069 23.452C34.4175 22.704 35.0115 22.132 35.7889 21.736C36.5809 21.3253 37.4902 21.12 38.5169 21.12ZM52.2129 33.154C51.0102 33.154 49.9396 32.8973 49.0009 32.384C48.0622 31.856 47.3216 31.1373 46.7789 30.228C46.2362 29.3187 45.9649 28.2847 45.9649 27.126C45.9649 25.9527 46.2362 24.9187 46.7789 24.024C47.3216 23.1147 48.0622 22.4033 49.0009 21.89C49.9396 21.3767 51.0102 21.12 52.2129 21.12C53.4302 21.12 54.5082 21.3767 55.4469 21.89C56.4002 22.4033 57.1409 23.1073 57.6689 24.002C58.2116 24.8967 58.4829 25.938 58.4829 27.126C58.4829 28.2847 58.2116 29.3187 57.6689 30.228C57.1409 31.1373 56.4002 31.856 55.4469 32.384C54.5082 32.8973 53.4302 33.154 52.2129 33.154ZM52.2129 30.8C52.8876 30.8 53.4889 30.6533 54.0169 30.36C54.5449 30.0667 54.9556 29.6413 55.2489 29.084C55.5569 28.5267 55.7109 27.874 55.7109 27.126C55.7109 26.3633 55.5569 25.7107 55.2489 25.168C54.9556 24.6107 54.5449 24.1853 54.0169 23.892C53.4889 23.5987 52.8949 23.452 52.2349 23.452C51.5602 23.452 50.9589 23.5987 50.4309 23.892C49.9176 24.1853 49.5069 24.6107 49.1989 25.168C48.8909 25.7107 48.7369 26.3633 48.7369 27.126C48.7369 27.874 48.8909 28.5267 49.1989 29.084C49.5069 29.6413 49.9176 30.0667 50.4309 30.36C50.9589 30.6533 51.5529 30.8 52.2129 30.8ZM63.3863 33L59.0743 21.252H61.6703L65.3663 31.614H64.1343L68.0063 21.252H70.3163L74.0783 31.614H72.8683L76.6743 21.252H79.1163L74.7823 33H72.1423L68.7103 23.826H69.5243L66.0263 33H63.3863ZM77.8127 35.2L85.0727 14.476H87.5367L80.2767 35.2H77.8127ZM95.4367 19.514L92.4887 21.142V20.658L95.4367 22.286L94.5787 23.782L91.7407 22.132L92.0267 21.978L92.0487 25.124H90.3767L90.3987 21.978L90.6847 22.132L87.8687 23.782L86.9887 22.286L89.9587 20.658V21.142L86.9887 19.514L87.8687 17.996L90.6847 19.668L90.3987 19.844L90.3767 16.676H92.0487L92.0267 19.844L91.7407 19.668L94.5787 17.996L95.4367 19.514Z" fill="#5D87F2"/>
</svg>
