<svg width="50" height="24" viewBox="0 0 50 24" fill="none" xmlns="http://www.w3.org/2000/svg">
<mask id="mask0_57_208" style="mask-type:alpha" maskUnits="userSpaceOnUse" x="0" y="0" width="19" height="24">
<rect width="19" height="24" fill="white"/>
</mask>
<g mask="url(#mask0_57_208)">
<path d="M19 0H5C3.67441 0.00158786 2.40356 0.528882 1.46622 1.46622C0.528882 2.40356 0.00158786 3.67441 0 5L0 19C0.00158786 20.3256 0.528882 21.5964 1.46622 22.5338C2.40356 23.4711 3.67441 23.9984 5 24H19C20.3256 23.9984 21.5964 23.4711 22.5338 22.5338C23.4711 21.5964 23.9984 20.3256 24 19V5C23.9984 3.67441 23.4711 2.40356 22.5338 1.46622C21.5964 0.528882 20.3256 0.00158786 19 0V0ZM22 19C22 19.7956 21.6839 20.5587 21.1213 21.1213C20.5587 21.6839 19.7956 22 19 22H5C4.20435 22 3.44129 21.6839 2.87868 21.1213C2.31607 20.5587 2 19.7956 2 19V5C2 4.20435 2.31607 3.44129 2.87868 2.87868C3.44129 2.31607 4.20435 2 5 2H19C19.7956 2 20.5587 2.31607 21.1213 2.87868C21.6839 3.44129 22 4.20435 22 5V19Z" fill="#5D87F2"/>
</g>
<mask id="mask1_57_208" style="mask-type:alpha" maskUnits="userSpaceOnUse" x="31" y="0" width="19" height="24">
<rect width="19" height="24" transform="matrix(-1 0 0 1 50 0)" fill="white"/>
</mask>
<g mask="url(#mask1_57_208)">
<path d="M31 0H45C46.3256 0.00158786 47.5964 0.528882 48.5338 1.46622C49.4711 2.40356 49.9984 3.67441 50 5V19C49.9984 20.3256 49.4711 21.5964 48.5338 22.5338C47.5964 23.4711 46.3256 23.9984 45 24H31C29.6744 23.9984 28.4036 23.4711 27.4662 22.5338C26.5289 21.5964 26.0016 20.3256 26 19V5C26.0016 3.67441 26.5289 2.40356 27.4662 1.46622C28.4036 0.528882 29.6744 0.00158786 31 0V0ZM28 19C28 19.7956 28.3161 20.5587 28.8787 21.1213C29.4413 21.6839 30.2044 22 31 22H45C45.7956 22 46.5587 21.6839 47.1213 21.1213C47.6839 20.5587 48 19.7956 48 19V5C48 4.20435 47.6839 3.44129 47.1213 2.87868C46.5587 2.31607 45.7956 2 45 2H31C30.2044 2 29.4413 2.31607 28.8787 2.87868C28.3161 3.44129 28 4.20435 28 5V19Z" fill="#5D87F2"/>
</g>
<path d="M4.67 17.1L8.3 6.738H9.532L5.902 17.1H4.67ZM11.0793 16.077C10.588 16.077 10.115 16.0147 9.6603 15.89C9.21297 15.758 8.8573 15.6003 8.5933 15.417L9.1213 14.372C9.3853 14.5407 9.70064 14.68 10.0673 14.79C10.434 14.9 10.8006 14.955 11.1673 14.955C11.6 14.955 11.9116 14.8963 12.1023 14.779C12.3003 14.6617 12.3993 14.504 12.3993 14.306C12.3993 14.1447 12.3333 14.0237 12.2013 13.943C12.0693 13.855 11.897 13.789 11.6843 13.745C11.4716 13.701 11.2333 13.6607 10.9693 13.624C10.7126 13.5873 10.4523 13.5397 10.1883 13.481C9.93164 13.415 9.69697 13.3233 9.4843 13.206C9.27164 13.0813 9.0993 12.9163 8.9673 12.711C8.8353 12.5057 8.7693 12.2343 8.7693 11.897C8.7693 11.523 8.87564 11.2003 9.0883 10.929C9.30097 10.6503 9.59797 10.4377 9.9793 10.291C10.368 10.137 10.8263 10.06 11.3543 10.06C11.7503 10.06 12.15 10.104 12.5533 10.192C12.9566 10.28 13.2903 10.4047 13.5543 10.566L13.0263 11.611C12.7476 11.4423 12.4653 11.3287 12.1793 11.27C11.9006 11.204 11.622 11.171 11.3433 11.171C10.9253 11.171 10.6136 11.2333 10.4083 11.358C10.2103 11.4827 10.1113 11.6403 10.1113 11.831C10.1113 12.007 10.1773 12.139 10.3093 12.227C10.4413 12.315 10.6136 12.3847 10.8263 12.436C11.039 12.4873 11.2736 12.5313 11.5303 12.568C11.7943 12.5973 12.0546 12.645 12.3113 12.711C12.568 12.777 12.8026 12.8687 13.0153 12.986C13.2353 13.096 13.4113 13.2537 13.5433 13.459C13.6753 13.6643 13.7413 13.932 13.7413 14.262C13.7413 14.6287 13.6313 14.9477 13.4113 15.219C13.1986 15.4903 12.8943 15.703 12.4983 15.857C12.1023 16.0037 11.6293 16.077 11.0793 16.077ZM18.2584 10.06C18.7278 10.06 19.1458 10.1517 19.5124 10.335C19.8864 10.5183 20.1798 10.8007 20.3924 11.182C20.6051 11.556 20.7114 12.04 20.7114 12.634V16H19.3364V12.81C19.3364 12.2893 19.2118 11.9007 18.9624 11.644C18.7204 11.3873 18.3794 11.259 17.9394 11.259C17.6168 11.259 17.3308 11.325 17.0814 11.457C16.8321 11.589 16.6378 11.787 16.4984 12.051C16.3664 12.3077 16.3004 12.634 16.3004 13.03V16H14.9254V7.838H16.3004V11.71L16.0034 11.226C16.2088 10.852 16.5058 10.566 16.8944 10.368C17.2904 10.1627 17.7451 10.06 18.2584 10.06ZM25.1065 16.077C24.5051 16.077 23.9698 15.9487 23.5005 15.692C23.0311 15.428 22.6608 15.0687 22.3895 14.614C22.1181 14.1593 21.9825 13.6423 21.9825 13.063C21.9825 12.4763 22.1181 11.9593 22.3895 11.512C22.6608 11.0573 23.0311 10.7017 23.5005 10.445C23.9698 10.1883 24.5051 10.06 25.1065 10.06C25.7151 10.06 26.2541 10.1883 26.7235 10.445C27.2001 10.7017 27.5705 11.0537 27.8345 11.501C28.1058 11.9483 28.2415 12.469 28.2415 13.063C28.2415 13.6423 28.1058 14.1593 27.8345 14.614C27.5705 15.0687 27.2001 15.428 26.7235 15.692C26.2541 15.9487 25.7151 16.077 25.1065 16.077ZM25.1065 14.9C25.4438 14.9 25.7445 14.8267 26.0085 14.68C26.2725 14.5333 26.4778 14.3207 26.6245 14.042C26.7785 13.7633 26.8555 13.437 26.8555 13.063C26.8555 12.6817 26.7785 12.3553 26.6245 12.084C26.4778 11.8053 26.2725 11.5927 26.0085 11.446C25.7445 11.2993 25.4475 11.226 25.1175 11.226C24.7801 11.226 24.4795 11.2993 24.2155 11.446C23.9588 11.5927 23.7535 11.8053 23.5995 12.084C23.4455 12.3553 23.3685 12.6817 23.3685 13.063C23.3685 13.437 23.4455 13.7633 23.5995 14.042C23.7535 14.3207 23.9588 14.5333 24.2155 14.68C24.4795 14.8267 24.7765 14.9 25.1065 14.9ZM30.6932 16L28.5372 10.126H29.8352L31.6832 15.307H31.0672L33.0032 10.126H34.1582L36.0392 15.307H35.4342L37.3372 10.126H38.5582L36.3912 16H35.0712L33.3552 11.413H33.7622L32.0132 16H30.6932ZM41.2434 16.077C40.752 16.077 40.279 16.0147 39.8244 15.89C39.377 15.758 39.0214 15.6003 38.7574 15.417L39.2854 14.372C39.5494 14.5407 39.8647 14.68 40.2314 14.79C40.598 14.9 40.9647 14.955 41.3314 14.955C41.764 14.955 42.0757 14.8963 42.2664 14.779C42.4644 14.6617 42.5634 14.504 42.5634 14.306C42.5634 14.1447 42.4974 14.0237 42.3654 13.943C42.2334 13.855 42.061 13.789 41.8484 13.745C41.6357 13.701 41.3974 13.6607 41.1334 13.624C40.8767 13.5873 40.6164 13.5397 40.3524 13.481C40.0957 13.415 39.861 13.3233 39.6484 13.206C39.4357 13.0813 39.2634 12.9163 39.1314 12.711C38.9994 12.5057 38.9334 12.2343 38.9334 11.897C38.9334 11.523 39.0397 11.2003 39.2524 10.929C39.465 10.6503 39.762 10.4377 40.1434 10.291C40.532 10.137 40.9904 10.06 41.5184 10.06C41.9144 10.06 42.314 10.104 42.7174 10.192C43.1207 10.28 43.4544 10.4047 43.7184 10.566L43.1904 11.611C42.9117 11.4423 42.6294 11.3287 42.3434 11.27C42.0647 11.204 41.786 11.171 41.5074 11.171C41.0894 11.171 40.7777 11.2333 40.5724 11.358C40.3744 11.4827 40.2754 11.6403 40.2754 11.831C40.2754 12.007 40.3414 12.139 40.4734 12.227C40.6054 12.315 40.7777 12.3847 40.9904 12.436C41.203 12.4873 41.4377 12.5313 41.6944 12.568C41.9584 12.5973 42.2187 12.645 42.4754 12.711C42.732 12.777 42.9667 12.8687 43.1794 12.986C43.3994 13.096 43.5754 13.2537 43.7074 13.459C43.8394 13.6643 43.9054 13.932 43.9054 14.262C43.9054 14.6287 43.7954 14.9477 43.5754 15.219C43.3627 15.4903 43.0584 15.703 42.6624 15.857C42.2664 16.0037 41.7934 16.077 41.2434 16.077Z" fill="#5D87F2"/>
<mask id="mask2_57_208" style="mask-type:alpha" maskUnits="userSpaceOnUse" x="29" y="0" width="14" height="24">
<rect width="14" height="24" transform="translate(29)" fill="white"/>
</mask>
<g mask="url(#mask2_57_208)">
<path d="M43 0H29C27.6744 0.00158786 26.4036 0.528882 25.4662 1.46622C24.5289 2.40356 24.0016 3.6744 24 5V19C24.0016 20.3256 24.5289 21.5964 25.4662 22.5338C26.4036 23.4711 27.6744 23.9984 29 24H43C44.3256 23.9984 45.5964 23.4711 46.5338 22.5338C47.4711 21.5964 47.9984 20.3256 48 19V5C47.9984 3.6744 47.4711 2.40356 46.5338 1.46622C45.5964 0.528882 44.3256 0.00158786 43 0V0ZM46 19C46 19.7956 45.6839 20.5587 45.1213 21.1213C44.5587 21.6839 43.7956 22 43 22H29C28.2044 22 27.4413 21.6839 26.8787 21.1213C26.3161 20.5587 26 19.7956 26 19V5C26 4.20435 26.3161 3.44129 26.8787 2.87868C27.4413 2.31607 28.2044 2 29 2H43C43.7956 2 44.5587 2.31607 45.1213 2.87868C45.6839 3.44129 46 4.20435 46 5V19Z" fill="#5D87F2"/>
</g>
<mask id="mask3_57_208" style="mask-type:alpha" maskUnits="userSpaceOnUse" x="18" y="0" width="14" height="24">
<rect width="14" height="24" transform="translate(18)" fill="white"/>
</mask>
<g mask="url(#mask3_57_208)">
<path d="M32 0H18C16.6744 0.00158786 15.4036 0.528882 14.4662 1.46622C13.5289 2.40356 13.0016 3.6744 13 5L13 19C13.0016 20.3256 13.5289 21.5964 14.4662 22.5338C15.4036 23.4711 16.6744 23.9984 18 24H32C33.3256 23.9984 34.5964 23.4711 35.5338 22.5338C36.4711 21.5964 36.9984 20.3256 37 19V5C36.9984 3.6744 36.4711 2.40356 35.5338 1.46622C34.5964 0.528882 33.3256 0.00158786 32 0V0ZM35 19C35 19.7956 34.6839 20.5587 34.1213 21.1213C33.5587 21.6839 32.7956 22 32 22H18C17.2044 22 16.4413 21.6839 15.8787 21.1213C15.3161 20.5587 15 19.7956 15 19V5C15 4.20435 15.3161 3.44129 15.8787 2.87868C16.4413 2.31607 17.2044 2 18 2H32C32.7956 2 33.5587 2.31607 34.1213 2.87868C34.6839 3.44129 35 4.20435 35 5V19Z" fill="#5D87F2"/>
</g>
</svg>
