<svg width="48" height="48" viewBox="0 0 48 48" fill="none" xmlns="http://www.w3.org/2000/svg">
<rect x="2" y="2" width="44" height="44" rx="3" stroke="#5D87F2" stroke-width="4" stroke-linejoin="round"/>
<path d="M14.34 35.2L21.6 14.476H24.064L16.804 35.2H14.34ZM31.9641 19.514L29.0161 21.142V20.658L31.9641 22.286L31.1061 23.782L28.2681 22.132L28.5541 21.978L28.5761 25.124H26.9041L26.9261 21.978L27.2121 22.132L24.3961 23.782L23.5161 22.286L26.4861 20.658V21.142L23.5161 19.514L24.3961 17.996L27.2121 19.668L26.9261 19.844L26.9041 16.676H28.5761L28.5541 19.844L28.2681 19.668L31.1061 17.996L31.9641 19.514Z" fill="#5D87F2"/>
</svg>
