<svg width="88" height="48" viewBox="0 0 88 48" fill="none" xmlns="http://www.w3.org/2000/svg">
<rect x="2" y="2" width="84" height="44" rx="3" stroke="#5D87F2" stroke-width="4" stroke-linejoin="round"/>
<path d="M10.34 35.2L17.6 14.476H20.064L12.804 35.2H10.34ZM23.1586 33.154C22.1759 33.154 21.2299 33.0293 20.3206 32.78C19.4259 32.516 18.7146 32.2007 18.1866 31.834L19.2426 29.744C19.7706 30.0813 20.4013 30.36 21.1346 30.58C21.8679 30.8 22.6013 30.91 23.3346 30.91C24.1999 30.91 24.8233 30.7927 25.2046 30.558C25.6006 30.3233 25.7986 30.008 25.7986 29.612C25.7986 29.2893 25.6666 29.0473 25.4026 28.886C25.1386 28.71 24.7939 28.578 24.3686 28.49C23.9433 28.402 23.4666 28.3213 22.9386 28.248C22.4253 28.1747 21.9046 28.0793 21.3766 27.962C20.8633 27.83 20.3939 27.6467 19.9686 27.412C19.5433 27.1627 19.1986 26.8327 18.9346 26.422C18.6706 26.0113 18.5386 25.4687 18.5386 24.794C18.5386 24.046 18.7513 23.4007 19.1766 22.858C19.6019 22.3007 20.1959 21.8753 20.9586 21.582C21.7359 21.274 22.6526 21.12 23.7086 21.12C24.5006 21.12 25.2999 21.208 26.1066 21.384C26.9133 21.56 27.5806 21.8093 28.1086 22.132L27.0526 24.222C26.4953 23.8847 25.9306 23.6573 25.3586 23.54C24.8013 23.408 24.2439 23.342 23.6866 23.342C22.8506 23.342 22.2273 23.4667 21.8166 23.716C21.4206 23.9653 21.2226 24.2807 21.2226 24.662C21.2226 25.014 21.3546 25.278 21.6186 25.454C21.8826 25.63 22.2273 25.7693 22.6526 25.872C23.0779 25.9747 23.5473 26.0627 24.0606 26.136C24.5886 26.1947 25.1093 26.29 25.6226 26.422C26.1359 26.554 26.6053 26.7373 27.0306 26.972C27.4706 27.192 27.8226 27.5073 28.0866 27.918C28.3506 28.3287 28.4826 28.864 28.4826 29.524C28.4826 30.2573 28.2626 30.8953 27.8226 31.438C27.3973 31.9807 26.7886 32.406 25.9966 32.714C25.2046 33.0073 24.2586 33.154 23.1586 33.154ZM37.3629 33.154C36.4095 33.154 35.5369 32.934 34.7449 32.494C33.9675 32.054 33.3442 31.394 32.8749 30.514C32.4202 29.6193 32.1929 28.49 32.1929 27.126C32.1929 25.7473 32.4129 24.618 32.8529 23.738C33.3075 22.858 33.9235 22.2053 34.7009 21.78C35.4782 21.34 36.3655 21.12 37.3629 21.12C38.5215 21.12 39.5409 21.3693 40.4209 21.868C41.3155 22.3667 42.0195 23.0633 42.5329 23.958C43.0609 24.8527 43.3249 25.9087 43.3249 27.126C43.3249 28.3433 43.0609 29.4067 42.5329 30.316C42.0195 31.2107 41.3155 31.9073 40.4209 32.406C39.5409 32.9047 38.5215 33.154 37.3629 33.154ZM30.8509 37.268V21.252H33.4689V24.024L33.3809 27.148L33.6009 30.272V37.268H30.8509ZM37.0549 30.8C37.7149 30.8 38.3015 30.6533 38.8149 30.36C39.3429 30.0667 39.7609 29.6413 40.0689 29.084C40.3769 28.5267 40.5309 27.874 40.5309 27.126C40.5309 26.3633 40.3769 25.7107 40.0689 25.168C39.7609 24.6107 39.3429 24.1853 38.8149 23.892C38.3015 23.5987 37.7149 23.452 37.0549 23.452C36.3949 23.452 35.8009 23.5987 35.2729 23.892C34.7449 24.1853 34.3269 24.6107 34.0189 25.168C33.7109 25.7107 33.5569 26.3633 33.5569 27.126C33.5569 27.874 33.7109 28.5267 34.0189 29.084C34.3269 29.6413 34.7449 30.0667 35.2729 30.36C35.8009 30.6533 36.3949 30.8 37.0549 30.8ZM51.2129 33.154C50.0102 33.154 48.9396 32.8973 48.0009 32.384C47.0622 31.856 46.3216 31.1373 45.7789 30.228C45.2362 29.3187 44.9649 28.2847 44.9649 27.126C44.9649 25.9527 45.2362 24.9187 45.7789 24.024C46.3216 23.1147 47.0622 22.4033 48.0009 21.89C48.9396 21.3767 50.0102 21.12 51.2129 21.12C52.4302 21.12 53.5082 21.3767 54.4469 21.89C55.4002 22.4033 56.1409 23.1073 56.6689 24.002C57.2116 24.8967 57.4829 25.938 57.4829 27.126C57.4829 28.2847 57.2116 29.3187 56.6689 30.228C56.1409 31.1373 55.4002 31.856 54.4469 32.384C53.5082 32.8973 52.4302 33.154 51.2129 33.154ZM51.2129 30.8C51.8876 30.8 52.4889 30.6533 53.0169 30.36C53.5449 30.0667 53.9556 29.6413 54.2489 29.084C54.5569 28.5267 54.7109 27.874 54.7109 27.126C54.7109 26.3633 54.5569 25.7107 54.2489 25.168C53.9556 24.6107 53.5449 24.1853 53.0169 23.892C52.4889 23.5987 51.8949 23.452 51.2349 23.452C50.5602 23.452 49.9589 23.5987 49.4309 23.892C48.9176 24.1853 48.5069 24.6107 48.1989 25.168C47.8909 25.7107 47.7369 26.3633 47.7369 27.126C47.7369 27.874 47.8909 28.5267 48.1989 29.084C48.5069 29.6413 48.9176 30.0667 49.4309 30.36C49.9589 30.6533 50.5529 30.8 51.2129 30.8ZM60.1126 33V21.252H62.7306V24.486L62.4226 23.54C62.7746 22.748 63.3246 22.1467 64.0726 21.736C64.8353 21.3253 65.7813 21.12 66.9106 21.12V23.738C66.7933 23.7087 66.6833 23.694 66.5806 23.694C66.4779 23.6793 66.3753 23.672 66.2726 23.672C65.2313 23.672 64.4026 23.98 63.7866 24.596C63.1706 25.1973 62.8626 26.0993 62.8626 27.302V33H60.1126ZM74.0951 33.154C72.8045 33.154 71.8071 32.824 71.1031 32.164C70.3991 31.4893 70.0471 30.4993 70.0471 29.194V18.656H72.7971V29.128C72.7971 29.6853 72.9365 30.118 73.2151 30.426C73.5085 30.734 73.9118 30.888 74.4251 30.888C75.0411 30.888 75.5545 30.7267 75.9651 30.404L76.7351 32.362C76.4125 32.626 76.0165 32.824 75.5471 32.956C75.0778 33.088 74.5938 33.154 74.0951 33.154ZM68.1111 23.54V21.34H75.9431V23.54H68.1111Z" fill="#5D87F2"/>
</svg>
