<svg width="44" height="24" viewBox="0 0 44 24" fill="none" xmlns="http://www.w3.org/2000/svg">
<mask id="mask0_57_225" style="mask-type:alpha" maskUnits="userSpaceOnUse" x="0" y="0" width="19" height="24">
<rect width="19" height="24" fill="white"/>
</mask>
<g mask="url(#mask0_57_225)">
<path d="M19 0H5C3.67441 0.00158786 2.40356 0.528882 1.46622 1.46622C0.528882 2.40356 0.00158786 3.67441 0 5L0 19C0.00158786 20.3256 0.528882 21.5964 1.46622 22.5338C2.40356 23.4711 3.67441 23.9984 5 24H19C20.3256 23.9984 21.5964 23.4711 22.5338 22.5338C23.4711 21.5964 23.9984 20.3256 24 19V5C23.9984 3.67441 23.4711 2.40356 22.5338 1.46622C21.5964 0.528882 20.3256 0.00158786 19 0V0ZM22 19C22 19.7956 21.6839 20.5587 21.1213 21.1213C20.5587 21.6839 19.7956 22 19 22H5C4.20435 22 3.44129 21.6839 2.87868 21.1213C2.31607 20.5587 2 19.7956 2 19V5C2 4.20435 2.31607 3.44129 2.87868 2.87868C3.44129 2.31607 4.20435 2 5 2H19C19.7956 2 20.5587 2.31607 21.1213 2.87868C21.6839 3.44129 22 4.20435 22 5V19Z" fill="#5D87F2"/>
</g>
<mask id="mask1_57_225" style="mask-type:alpha" maskUnits="userSpaceOnUse" x="25" y="0" width="19" height="24">
<rect width="19" height="24" transform="matrix(-1 0 0 1 44 0)" fill="white"/>
</mask>
<g mask="url(#mask1_57_225)">
<path d="M25 0H39C40.3256 0.00158786 41.5964 0.528882 42.5338 1.46622C43.4711 2.40356 43.9984 3.67441 44 5V19C43.9984 20.3256 43.4711 21.5964 42.5338 22.5338C41.5964 23.4711 40.3256 23.9984 39 24H25C23.6744 23.9984 22.4036 23.4711 21.4662 22.5338C20.5289 21.5964 20.0016 20.3256 20 19V5C20.0016 3.67441 20.5289 2.40356 21.4662 1.46622C22.4036 0.528882 23.6744 0.00158786 25 0V0ZM22 19C22 19.7956 22.3161 20.5587 22.8787 21.1213C23.4413 21.6839 24.2044 22 25 22H39C39.7956 22 40.5587 21.6839 41.1213 21.1213C41.6839 20.5587 42 19.7956 42 19V5C42 4.20435 41.6839 3.44129 41.1213 2.87868C40.5587 2.31607 39.7956 2 39 2H25C24.2044 2 23.4413 2.31607 22.8787 2.87868C22.3161 3.44129 22 4.20435 22 5V19Z" fill="#5D87F2"/>
</g>
<mask id="mask2_57_225" style="mask-type:alpha" maskUnits="userSpaceOnUse" x="15" y="0" width="14" height="24">
<rect width="14" height="24" transform="translate(15)" fill="white"/>
</mask>
<g mask="url(#mask2_57_225)">
<path d="M29 0H15C13.6744 0.00158786 12.4036 0.528882 11.4662 1.46622C10.5289 2.40356 10.0016 3.6744 10 5L10 19C10.0016 20.3256 10.5289 21.5964 11.4662 22.5338C12.4036 23.4711 13.6744 23.9984 15 24H29C30.3256 23.9984 31.5964 23.4711 32.5338 22.5338C33.4711 21.5964 33.9984 20.3256 34 19V5C33.9984 3.6744 33.4711 2.40356 32.5338 1.46622C31.5964 0.528882 30.3256 0.00158786 29 0V0ZM32 19C32 19.7956 31.6839 20.5587 31.1213 21.1213C30.5587 21.6839 29.7956 22 29 22H15C14.2044 22 13.4413 21.6839 12.8787 21.1213C12.3161 20.5587 12 19.7956 12 19V5C12 4.20435 12.3161 3.44129 12.8787 2.87868C13.4413 2.31607 14.2044 2 15 2H29C29.7956 2 30.5587 2.31607 31.1213 2.87868C31.6839 3.44129 32 4.20435 32 5V19Z" fill="#5D87F2"/>
</g>
<path d="M4.67 17.1L8.3 6.738H9.532L5.902 17.1H4.67ZM11.0793 16.077C10.588 16.077 10.115 16.0147 9.6603 15.89C9.21297 15.758 8.8573 15.6003 8.5933 15.417L9.1213 14.372C9.3853 14.5407 9.70064 14.68 10.0673 14.79C10.434 14.9 10.8006 14.955 11.1673 14.955C11.6 14.955 11.9116 14.8963 12.1023 14.779C12.3003 14.6617 12.3993 14.504 12.3993 14.306C12.3993 14.1447 12.3333 14.0237 12.2013 13.943C12.0693 13.855 11.897 13.789 11.6843 13.745C11.4716 13.701 11.2333 13.6607 10.9693 13.624C10.7126 13.5873 10.4523 13.5397 10.1883 13.481C9.93164 13.415 9.69697 13.3233 9.4843 13.206C9.27164 13.0813 9.0993 12.9163 8.9673 12.711C8.8353 12.5057 8.7693 12.2343 8.7693 11.897C8.7693 11.523 8.87564 11.2003 9.0883 10.929C9.30097 10.6503 9.59797 10.4377 9.9793 10.291C10.368 10.137 10.8263 10.06 11.3543 10.06C11.7503 10.06 12.15 10.104 12.5533 10.192C12.9566 10.28 13.2903 10.4047 13.5543 10.566L13.0263 11.611C12.7476 11.4423 12.4653 11.3287 12.1793 11.27C11.9006 11.204 11.622 11.171 11.3433 11.171C10.9253 11.171 10.6136 11.2333 10.4083 11.358C10.2103 11.4827 10.1113 11.6403 10.1113 11.831C10.1113 12.007 10.1773 12.139 10.3093 12.227C10.4413 12.315 10.6136 12.3847 10.8263 12.436C11.039 12.4873 11.2736 12.5313 11.5303 12.568C11.7943 12.5973 12.0546 12.645 12.3113 12.711C12.568 12.777 12.8026 12.8687 13.0153 12.986C13.2353 13.096 13.4113 13.2537 13.5433 13.459C13.6753 13.6643 13.7413 13.932 13.7413 14.262C13.7413 14.6287 13.6313 14.9477 13.4113 15.219C13.1986 15.4903 12.8943 15.703 12.4983 15.857C12.1023 16.0037 11.6293 16.077 11.0793 16.077ZM18.1814 16.077C17.7048 16.077 17.2684 15.967 16.8724 15.747C16.4838 15.527 16.1721 15.197 15.9374 14.757C15.7101 14.3097 15.5964 13.745 15.5964 13.063C15.5964 12.3737 15.7064 11.809 15.9264 11.369C16.1538 10.929 16.4618 10.6027 16.8504 10.39C17.2391 10.17 17.6828 10.06 18.1814 10.06C18.7608 10.06 19.2704 10.1847 19.7104 10.434C20.1578 10.6833 20.5098 11.0317 20.7664 11.479C21.0304 11.9263 21.1624 12.4543 21.1624 13.063C21.1624 13.6717 21.0304 14.2033 20.7664 14.658C20.5098 15.1053 20.1578 15.4537 19.7104 15.703C19.2704 15.9523 18.7608 16.077 18.1814 16.077ZM14.9254 18.134V10.126H16.2344V11.512L16.1904 13.074L16.3004 14.636V18.134H14.9254ZM18.0274 14.9C18.3574 14.9 18.6508 14.8267 18.9074 14.68C19.1714 14.5333 19.3804 14.3207 19.5344 14.042C19.6884 13.7633 19.7654 13.437 19.7654 13.063C19.7654 12.6817 19.6884 12.3553 19.5344 12.084C19.3804 11.8053 19.1714 11.5927 18.9074 11.446C18.6508 11.2993 18.3574 11.226 18.0274 11.226C17.6974 11.226 17.4004 11.2993 17.1364 11.446C16.8724 11.5927 16.6634 11.8053 16.5094 12.084C16.3554 12.3553 16.2784 12.6817 16.2784 13.063C16.2784 13.437 16.3554 13.7633 16.5094 14.042C16.6634 14.3207 16.8724 14.5333 17.1364 14.68C17.4004 14.8267 17.6974 14.9 18.0274 14.9ZM25.1065 16.077C24.5051 16.077 23.9698 15.9487 23.5005 15.692C23.0311 15.428 22.6608 15.0687 22.3895 14.614C22.1181 14.1593 21.9825 13.6423 21.9825 13.063C21.9825 12.4763 22.1181 11.9593 22.3895 11.512C22.6608 11.0573 23.0311 10.7017 23.5005 10.445C23.9698 10.1883 24.5051 10.06 25.1065 10.06C25.7151 10.06 26.2541 10.1883 26.7235 10.445C27.2001 10.7017 27.5705 11.0537 27.8345 11.501C28.1058 11.9483 28.2415 12.469 28.2415 13.063C28.2415 13.6423 28.1058 14.1593 27.8345 14.614C27.5705 15.0687 27.2001 15.428 26.7235 15.692C26.2541 15.9487 25.7151 16.077 25.1065 16.077ZM25.1065 14.9C25.4438 14.9 25.7445 14.8267 26.0085 14.68C26.2725 14.5333 26.4778 14.3207 26.6245 14.042C26.7785 13.7633 26.8555 13.437 26.8555 13.063C26.8555 12.6817 26.7785 12.3553 26.6245 12.084C26.4778 11.8053 26.2725 11.5927 26.0085 11.446C25.7445 11.2993 25.4475 11.226 25.1175 11.226C24.7801 11.226 24.4795 11.2993 24.2155 11.446C23.9588 11.5927 23.7535 11.8053 23.5995 12.084C23.4455 12.3553 23.3685 12.6817 23.3685 13.063C23.3685 13.437 23.4455 13.7633 23.5995 14.042C23.7535 14.3207 23.9588 14.5333 24.2155 14.68C24.4795 14.8267 24.7765 14.9 25.1065 14.9ZM29.5563 16V10.126H30.8653V11.743L30.7113 11.27C30.8873 10.874 31.1623 10.5733 31.5363 10.368C31.9176 10.1627 32.3906 10.06 32.9553 10.06V11.369C32.8966 11.3543 32.8416 11.347 32.7903 11.347C32.739 11.3397 32.6876 11.336 32.6363 11.336C32.1156 11.336 31.7013 11.49 31.3933 11.798C31.0853 12.0987 30.9313 12.5497 30.9313 13.151V16H29.5563ZM36.5476 16.077C35.9022 16.077 35.4036 15.912 35.0516 15.582C34.6996 15.2447 34.5236 14.7497 34.5236 14.097V8.828H35.8986V14.064C35.8986 14.3427 35.9682 14.559 36.1076 14.713C36.2542 14.867 36.4559 14.944 36.7126 14.944C37.0206 14.944 37.2772 14.8633 37.4826 14.702L37.8676 15.681C37.7062 15.813 37.5082 15.912 37.2736 15.978C37.0389 16.044 36.7969 16.077 36.5476 16.077ZM33.5556 11.27V10.17H37.4716V11.27H33.5556Z" fill="#5D87F2"/>
</svg>
