<svg width="48" height="48" viewBox="0 0 48 48" fill="none" xmlns="http://www.w3.org/2000/svg">
<rect x="2" y="2" width="44" height="44" rx="3" stroke="#5D87F2" stroke-width="4" stroke-linejoin="round"/>
<path d="M8.34 35.2L15.6 14.476H18.064L10.804 35.2H8.34ZM22.8315 33.154C21.5408 33.154 20.5435 32.824 19.8395 32.164C19.1355 31.4893 18.7835 30.4993 18.7835 29.194V18.656H21.5335V29.128C21.5335 29.6853 21.6728 30.118 21.9515 30.426C22.2448 30.734 22.6481 30.888 23.1615 30.888C23.7775 30.888 24.2908 30.7267 24.7015 30.404L25.4715 32.362C25.1488 32.626 24.7528 32.824 24.2835 32.956C23.8141 33.088 23.3301 33.154 22.8315 33.154ZM16.8475 23.54V21.34H24.6795V23.54H16.8475ZM30.6428 33L25.6048 21.252H28.4648L32.7988 31.614H31.3908L35.8788 21.252H38.5188L33.4808 33H30.6428Z" fill="#5D87F2"/>
</svg>
