<svg width="24" height="24" viewBox="0 0 24 24" fill="none" xmlns="http://www.w3.org/2000/svg">
<mask id="mask0_57_238" style="mask-type:alpha" maskUnits="userSpaceOnUse" x="0" y="0" width="19" height="24">
<rect width="19" height="24" fill="white"/>
</mask>
<g mask="url(#mask0_57_238)">
<path d="M19 0H5C3.67441 0.00158786 2.40356 0.528882 1.46622 1.46622C0.528882 2.40356 0.00158786 3.67441 0 5L0 19C0.00158786 20.3256 0.528882 21.5964 1.46622 22.5338C2.40356 23.4711 3.67441 23.9984 5 24H19C20.3256 23.9984 21.5964 23.4711 22.5338 22.5338C23.4711 21.5964 23.9984 20.3256 24 19V5C23.9984 3.67441 23.4711 2.40356 22.5338 1.46622C21.5964 0.528882 20.3256 0.00158786 19 0V0ZM22 19C22 19.7956 21.6839 20.5587 21.1213 21.1213C20.5587 21.6839 19.7956 22 19 22H5C4.20435 22 3.44129 21.6839 2.87868 21.1213C2.31607 20.5587 2 19.7956 2 19V5C2 4.20435 2.31607 3.44129 2.87868 2.87868C3.44129 2.31607 4.20435 2 5 2H19C19.7956 2 20.5587 2.31607 21.1213 2.87868C21.6839 3.44129 22 4.20435 22 5V19Z" fill="#5D87F2"/>
</g>
<mask id="mask1_57_238" style="mask-type:alpha" maskUnits="userSpaceOnUse" x="5" y="0" width="19" height="24">
<rect width="19" height="24" transform="matrix(-1 0 0 1 24 0)" fill="white"/>
</mask>
<g mask="url(#mask1_57_238)">
<path d="M5 0H19C20.3256 0.00158786 21.5964 0.528882 22.5338 1.46622C23.4711 2.40356 23.9984 3.67441 24 5V19C23.9984 20.3256 23.4711 21.5964 22.5338 22.5338C21.5964 23.4711 20.3256 23.9984 19 24H5C3.6744 23.9984 2.40356 23.4711 1.46622 22.5338C0.528881 21.5964 0.00158691 20.3256 0 19V5C0.00158691 3.67441 0.528881 2.40356 1.46622 1.46622C2.40356 0.528882 3.6744 0.00158786 5 0V0ZM2 19C2 19.7956 2.31607 20.5587 2.87868 21.1213C3.44129 21.6839 4.20435 22 5 22H19C19.7956 22 20.5587 21.6839 21.1213 21.1213C21.6839 20.5587 22 19.7956 22 19V5C22 4.20435 21.6839 3.44129 21.1213 2.87868C20.5587 2.31607 19.7956 2 19 2H5C4.20435 2 3.44129 2.31607 2.87868 2.87868C2.31607 3.44129 2 4.20435 2 5V19Z" fill="#5D87F2"/>
</g>
<path d="M4.67 17.1L8.3 6.738H9.532L5.902 17.1H4.67ZM11.9157 16.077C11.2704 16.077 10.7717 15.912 10.4197 15.582C10.0677 15.2447 9.89173 14.7497 9.89173 14.097V8.828H11.2667V14.064C11.2667 14.3427 11.3364 14.559 11.4757 14.713C11.6224 14.867 11.8241 14.944 12.0807 14.944C12.3887 14.944 12.6454 14.8633 12.8507 14.702L13.2357 15.681C13.0744 15.813 12.8764 15.912 12.6417 15.978C12.4071 16.044 12.1651 16.077 11.9157 16.077ZM8.92373 11.27V10.17H12.8397V11.27H8.92373ZM15.8214 16L13.3024 10.126H14.7324L16.8994 15.307H16.1954L18.4394 10.126H19.7594L17.2404 16H15.8214Z" fill="#5D87F2"/>
</svg>
