<svg xmlns="http://www.w3.org/2000/svg" viewBox="0 0 64 64"><defs><style>.cls-1{fill:#ffb74d;}.cls-2{fill:#ff7f00;}.cls-3{fill:#ffda00;}</style></defs><title>Food Hotdog</title><g id="Layer_2" data-name="Layer 2"><g id="Layer_1-2" data-name="Layer 1"><path class="cls-1" d="M43.5,0h0a8.45,8.45,0,0,1,6,2.47L61.53,14.53a8.45,8.45,0,0,1,2.47,6h0a8.45,8.45,0,0,1-2.47,6L26.47,61.53a8.45,8.45,0,0,1-6,2.47h0a8.45,8.45,0,0,1-6-2.47L2.47,49.47A8.45,8.45,0,0,1,0,43.5H0a8.45,8.45,0,0,1,2.47-6L37.53,2.47A8.45,8.45,0,0,1,43.5,0Z"/><path class="cls-2" d="M0,55.51H0a8.49,8.49,0,0,1,2.49-6l47-47a8.49,8.49,0,0,1,6-2.49h0A8.49,8.49,0,0,1,64,8.49h0a8.49,8.49,0,0,1-2.49,6l-47,47a8.49,8.49,0,0,1-6,2.49h0A8.49,8.49,0,0,1,0,55.51Z"/><path class="cls-3" d="M10,54a2,2,0,0,1-.63-3.9l3-1a4.35,4.35,0,0,0,2.73-2.73,8.37,8.37,0,0,1,5.26-5.27,4.35,4.35,0,0,0,2.74-2.73,8.37,8.37,0,0,1,5.26-5.27,4.35,4.35,0,0,0,2.74-2.73,8.37,8.37,0,0,1,5.26-5.27,4.35,4.35,0,0,0,2.74-2.73,8.37,8.37,0,0,1,5.26-5.27,4.35,4.35,0,0,0,2.74-2.73A8.37,8.37,0,0,1,52.37,9.1l3-1a2,2,0,1,1,1.26,3.79l-3,1a4.35,4.35,0,0,0-2.73,2.73,8.37,8.37,0,0,1-5.26,5.27,4.35,4.35,0,0,0-2.74,2.73,8.37,8.37,0,0,1-5.26,5.27,4.35,4.35,0,0,0-2.74,2.73,8.37,8.37,0,0,1-5.26,5.27,4.35,4.35,0,0,0-2.74,2.73,8.37,8.37,0,0,1-5.26,5.27,4.35,4.35,0,0,0-2.74,2.73,8.37,8.37,0,0,1-5.26,5.27l-3,1A2,2,0,0,1,10,54Z"/></g></g></svg>